<svg xmlns="http://www.w3.org/2000/svg" enable-background="new 0 0 24 24" height="24" viewBox="0 0 24 24" width="24"><g><rect fill="none" height="24" width="24"/></g><g><path d="M19,3H5C3.9,3,3,3.9,3,5v14c0,1.1,0.9,2,2,2h14c1.1,0,2-0.9,2-2V5C21,3.9,20.1,3,19,3z M19,19H5V5h14V19z M8,10L8,10 c0.55,0,1,0.45,1,1v5c0,0.55-0.45,1-1,1h0c-0.55,0-1-0.45-1-1v-5C7,10.45,7.45,10,8,10z M12,7L12,7c0.55,0,1,0.45,1,1v8 c0,0.55-0.45,1-1,1h0c-0.55,0-1-0.45-1-1V8C11,7.45,11.45,7,12,7z M16,13L16,13c0.55,0,1,0.45,1,1v2c0,0.55-0.45,1-1,1h0 c-0.55,0-1-0.45-1-1v-2C15,13.45,15.45,13,16,13z"/></g></svg>