<svg xmlns="http://www.w3.org/2000/svg" enable-background="new 0 0 24 24" height="24" viewBox="0 0 24 24" width="24"><g><rect fill="none" height="24" width="24" x="0" y="0"/></g><g><g><path d="M9,9.24V5.5C9,4.12,10.12,3,11.5,3S14,4.12,14,5.5v3.74c1.21-0.81,2-2.18,2-3.74C16,3.01,13.99,1,11.5,1S7,3.01,7,5.5 C7,7.06,7.79,8.43,9,9.24z"/><path d="M14.5,11.71c-0.28-0.14-0.58-0.21-0.89-0.21H13v-6C13,4.67,12.33,4,11.5,4S10,4.67,10,5.5v10.74L6.5,15.5 c-0.33-0.07-0.68,0.03-0.92,0.28l-0.83,0.84l4.79,4.79C9.92,21.79,10.43,22,10.96,22h6.41c1,0,1.84-0.73,1.98-1.72l0.63-4.46 c0.12-0.85-0.32-1.69-1.09-2.07L14.5,11.71z"/></g></g></svg>