<svg xmlns="http://www.w3.org/2000/svg" enable-background="new 0 0 24 24" height="24" viewBox="0 0 24 24" width="24"><g><rect fill="none" height="24" width="24"/></g><g><path d="M8.83,6L16,13.17V6H8.83z M4,18h11.17L4,6.83V18z" enable-background="new" opacity=".3"/><g><path d="M8.83,6H16v7.17l2,2v-1.65l4,3.98v-11l-4,3.98V6c0-1.1-0.9-2-2-2H6.83L8.83,6z"/><path d="M2.1,2.1L0.69,3.51l1.56,1.56C2.09,5.35,2,5.66,2,6v12c0,1.1,0.9,2,2,2h12c0.34,0,0.65-0.09,0.93-0.24l3.56,3.56 l1.41-1.41L2.1,2.1z M4,18V6.83L15.17,18H4z"/></g></g></svg>