<svg xmlns="http://www.w3.org/2000/svg" enable-background="new 0 0 24 24" height="24" viewBox="0 0 24 24" width="24"><g><path d="M0,0h24v24H0V0z" fill="none"/></g><g><path d="M11.5,2C6.81,2,3,5.81,3,10.5S6.81,19,11.5,19H12v3c4.86-2.34,8-7,8-11.5C20,5.81,16.19,2,11.5,2z M11.48,16 c-0.59,0-1.05-0.47-1.05-1.05c0-0.59,0.47-1.04,1.05-1.04c0.59,0,1.04,0.45,1.04,1.04C12.52,15.53,12.08,16,11.48,16z M13.99,9.83 c-0.63,0.93-1.23,1.21-1.56,1.81c-0.08,0.14-0.13,0.26-0.16,0.49c-0.05,0.39-0.36,0.68-0.75,0.68h-0.03 c-0.44,0-0.79-0.38-0.75-0.82c0.03-0.28,0.09-0.57,0.25-0.84c0.41-0.73,1.18-1.16,1.63-1.8c0.48-0.68,0.21-1.94-1.14-1.94 c-0.61,0-1.01,0.32-1.26,0.7c-0.19,0.29-0.57,0.39-0.89,0.25l0,0c-0.42-0.18-0.6-0.7-0.34-1.07C9.5,6.55,10.35,6,11.47,6 c1.23,0,2.08,0.56,2.51,1.26C14.34,7.87,14.56,8.99,13.99,9.83z"/></g></svg>