<?xml version="1.0" encoding="utf-8"?>
<!-- Generator: Adobe Illustrator 21.0.2, SVG Export Plug-In . SVG Version: 6.00 Build 0)  -->
<svg version="1.1" id="ic_x5F_adunits_x5F_m2outlined_x5F_24px"
	 xmlns="http://www.w3.org/2000/svg" xmlns:xlink="http://www.w3.org/1999/xlink" x="0px" y="0px" width="24px" height="24px"
	 viewBox="0 0 24 24" enable-background="new 0 0 24 24" xml:space="preserve">
<g>
	<g>
		<g>
			<path d="M17,1H7C5.9,1,5,1.9,5,3v18c0,1.1,0.9,2,2,2h10c1.1,0,2-0.9,2-2V3C19,1.9,18.1,1,17,1L17,1z M7,4V3h10v1H7L7,4z M7,18V6
				h10v12H7L7,18z M7,21v-1h10v1H7L7,21z"/>
		</g>
		<g>
			<polygon points="16,7 8,7 8,9 16,9 16,7 			"/>
		</g>
	</g>
	<rect fill="none" width="24" height="24"/>
</g>
</svg>
