<?xml version="1.0" encoding="utf-8"?>
<!-- Generator: Adobe Illustrator 21.0.2, SVG Export Plug-In . SVG Version: 6.00 Build 0)  -->
<svg version="1.1" id="ic_x5F_adunits_x5F_m2round_x5F_24px"
	 xmlns="http://www.w3.org/2000/svg" xmlns:xlink="http://www.w3.org/1999/xlink" x="0px" y="0px" width="24px" height="24px"
	 viewBox="0 0 24 24" enable-background="new 0 0 24 24" xml:space="preserve">
<g>
	<g>
		<path d="M17,1H7C5.9,1,5,1.9,5,3v18c0,1.1,0.9,2,2,2h10c1.1,0,2-0.9,2-2V3C19,1.9,18.1,1,17,1z M16,19H8c-0.55,0-1-0.45-1-1V6
			c0-0.55,0.45-1,1-1h8c0.55,0,1,0.45,1,1v12C17,18.55,16.55,19,16,19z"/>
		<path d="M15,6H9C8.45,6,8,6.45,8,7v0c0,0.55,0.45,1,1,1h6c0.55,0,1-0.45,1-1v0C16,6.45,15.55,6,15,6z"/>
	</g>
	<rect x="0" fill="none" width="24" height="24"/>
</g>
</svg>
