<svg xmlns="http://www.w3.org/2000/svg" enable-background="new 0 0 24 24" height="24" viewBox="0 0 24 24" width="24"><g><rect fill="none" height="24" width="24" y="0"/></g><g><g><path d="M8.05,12.17l-0.99-0.99L6,12.24l2.05,2.06l3.53-3.53L10.52,9.7L8.05,12.17z M17,7H7c-2.76,0-5,2.24-5,5s2.24,5,5,5h10 c2.76,0,5-2.24,5-5S19.76,7,17,7z M17,15H7c-1.65,0-3-1.35-3-3s1.35-3,3-3h10c1.65,0,3,1.35,3,3S18.65,15,17,15z"/><path d="M17,8.97H7c-1.65,0-3,1.35-3,3s1.35,3,3,3h10c1.65,0,3-1.35,3-3 S18.65,8.97,17,8.97z M8.05,14.27L6,12.21l1.06-1.06l0.99,0.99l2.47-2.47l1.06,1.07L8.05,14.27z" enable-background="new" opacity=".3"/></g></g></svg>