<svg xmlns="http://www.w3.org/2000/svg" enable-background="new 0 0 24 24" height="24" viewBox="0 0 24 24" width="24"><g><rect fill="none" height="24" width="24"/></g><g><g><path d="M5,5v14h14V5H5z M6,6h2.57c0,1.42-1.15,2.58-2.57,2.58V6z M6,10.29 c2.37,0,4.28-1.93,4.28-4.29H12c0,3.31-2.68,6-6,6V10.29z M6,17l3-4l2.25,3l3-4L18,17H6z" enable-background="new" opacity=".3"/><path d="M14.25,12l-3,4L9,13l-3,4h12L14.25,12z M19,3H5C3.9,3,3,3.9,3,5v14c0,1.1,0.9,2,2,2h14c1.1,0,2-0.9,2-2V5 C21,3.9,20.1,3,19,3z M19,19H5V5h14V19z M12,6h-1.72c0,2.36-1.91,4.29-4.28,4.29V12C9.32,12,12,9.31,12,6z M8.57,6H6v2.58 C7.42,8.58,8.57,7.42,8.57,6z"/></g></g></svg>