<svg xmlns="http://www.w3.org/2000/svg" enable-background="new 0 0 24 24" height="24" viewBox="0 0 24 24" width="24"><g><path d="M0,0h24v24H0V0z" fill="none"/></g><g><g><path d="M20.18,13.16c0.49-0.69,0.49-1.62,0-2.31l-3.55-5C16.26,5.31,15.65,5,15,5H7.83l10.61,10.61L20.18,13.16z"/><path d="M2.1,3.51L2.1,3.51c-0.39,0.39-0.39,1.02,0,1.41l1.14,1.14C3.09,6.35,3,6.66,3,7v10c0,1.1,0.9,2,2,2h10 c0.33,0,0.65-0.08,0.94-0.24l3.14,3.14c0.39,0.39,1.02,0.39,1.41,0l0,0c0.39-0.39,0.39-1.02,0-1.41L3.51,3.51 C3.12,3.12,2.49,3.12,2.1,3.51z"/></g></g></svg>