<svg xmlns="http://www.w3.org/2000/svg" enable-background="new 0 0 24 24" height="24" viewBox="0 0 24 24" width="24"><g><rect fill="none" height="24" width="24"/><rect fill="none" height="24" width="24"/></g><g><g><path d="M20.57,11.66C20.43,11.26,20.05,11,19.6,11h-7.19c-0.46,0-0.83,0.26-0.98,0.66L10,15.77l0.01,5.51 c0,0.38,0.31,0.72,0.69,0.72h0.62C11.7,22,12,21.62,12,21.24V20.5h8v0.74c0,0.38,0.31,0.76,0.69,0.76h0.61 c0.38,0,0.69-0.34,0.69-0.72L22,19.91v-4.14L20.57,11.66z M13.5,18.75c-0.55,0-1-0.45-1-1s0.45-1,1-1s1,0.45,1,1 S14.05,18.75,13.5,18.75z M18.5,18.75c-0.55,0-1-0.45-1-1s0.45-1,1-1s1,0.45,1,1S19.05,18.75,18.5,18.75z M11.86,15l0.87-2.5h6.55 l0.87,2.5H11.86z"/><rect height="2" width="2" x="6" y="12"/><rect height="2" width="2" x="11" y="6"/><rect height="2" width="2" x="6" y="16"/><rect height="2" width="2" x="6" y="20"/><polygon points="15,9 17,9 17,2 7,2 7,8 2,8 2,22 4,22 4,10 9,10 9,4 15,4"/></g></g></svg>