<svg xmlns="http://www.w3.org/2000/svg" enable-background="new 0 0 24 24" height="24" viewBox="0 0 24 24" width="24"><g><rect fill="none" height="24" width="24"/></g><g><g><g><path d="M4,10.5c-0.83,0-1.5,0.67-1.5,1.5s0.67,1.5,1.5,1.5s1.5-0.67,1.5-1.5S4.83,10.5,4,10.5z M4,4.5C3.17,4.5,2.5,5.17,2.5,6 S3.17,7.5,4,7.5S5.5,6.83,5.5,6S4.83,4.5,4,4.5z M4,16.5c-0.83,0-1.5,0.68-1.5,1.5s0.68,1.5,1.5,1.5s1.5-0.68,1.5-1.5 S4.83,16.5,4,16.5z M7,19h14v-2H7V19z M7,13h14v-2H7V13z M7,5v2h14V5H7z"/></g></g></g></svg>