<svg xmlns="http://www.w3.org/2000/svg" enable-background="new 0 0 24 24" height="24" viewBox="0 0 24 24" width="24"><g><path d="M0,0h24v24H0V0z" fill="none"/></g><g><g><path d="M19,3h-4.18C14.4,1.84,13.3,1,12,1S9.6,1.84,9.18,3H5C3.9,3,3,3.9,3,5v14c0,1.1,0.9,2,2,2h14c1.1,0,2-0.9,2-2V5 C21,3.9,20.1,3,19,3z M12,2.75c0.41,0,0.75,0.34,0.75,0.75c0,0.41-0.34,0.75-0.75,0.75s-0.75-0.34-0.75-0.75 C11.25,3.09,11.59,2.75,12,2.75z M16.95,9.63l-5.66,5.66c-0.39,0.39-1.02,0.39-1.41,0l-2.83-2.83c-0.39-0.39-0.39-1.02,0-1.41v0 c0.39-0.39,1.02-0.39,1.41,0l2.12,2.12l4.95-4.95c0.39-0.39,1.02-0.39,1.41,0C17.34,8.61,17.34,9.24,16.95,9.63z"/></g></g></svg>