<svg xmlns="http://www.w3.org/2000/svg" enable-background="new 0 0 24 24" height="24" viewBox="0 0 24 24" width="24"><g><rect fill="none" height="24" width="24"/></g><g><path d="M18,13c-0.55,0-1,0.45-1,1v3H7v-1.79c0-0.45-0.54-0.67-0.85-0.35l-2.79,2.79c-0.2,0.2-0.2,0.51,0,0.71l2.79,2.79 C6.46,21.46,7,21.24,7,20.79V19h11c0.55,0,1-0.45,1-1v-4C19,13.45,18.55,13,18,13z M20.64,5.64l-2.79-2.79 C17.54,2.54,17,2.76,17,3.21V5H6C5.45,5,5,5.45,5,6v4c0,0.55,0.45,1,1,1s1-0.45,1-1V7h10v1.79c0,0.45,0.54,0.67,0.85,0.35 l2.79-2.79C20.84,6.15,20.84,5.84,20.64,5.64z M12.25,15c0.41,0,0.75-0.34,0.75-0.75v-4.5C13,9.34,12.66,9,12.25,9h-1.5 C10.34,9,10,9.34,10,9.75s0.34,0.75,0.75,0.75h0.75v3.75C11.5,14.66,11.84,15,12.25,15z"/></g></svg>