<svg xmlns="http://www.w3.org/2000/svg" enable-background="new 0 0 24 24" height="24" viewBox="0 0 24 24" width="24"><g><path d="M0,0h24v24H0V0z" fill="none"/></g><g><path d="M20,8.69V4h-4.69L12,0.69L8.69,4H4v4.69L0.69,12L4,15.31V20h4.69L12,23.31L15.31,20H20v-4.69L23.31,12L20,8.69z M18,14.48 V18h-3.52L12,20.48L9.52,18H6v-3.52L3.52,12L6,9.52V6h3.52L12,3.52L14.48,6H18v3.52L20.48,12L18,14.48z M11.2,7l-3.38,9h1.56 l0.82-2.3h3.63l0.8,2.3h1.56L12.8,7H11.2z M10.66,12.39l1.31-3.72h0.08l1.31,3.72H10.66z"/></g></svg>