<svg xmlns="http://www.w3.org/2000/svg" enable-background="new 0 0 24 24" height="24" viewBox="0 0 24 24" width="24"><rect fill="none" height="24" width="24"/><path d="M10.83,8H17v6.17l2,2V8c0-1.1-0.9-2-2-2h-2V3c0-0.55-0.45-1-1-1h-4C9.45,2,9,2.45,9,3v3H8.83L10.83,8z M11,4h2v2h-2V4z M11.83,9h0.92v0.92L11.83,9z M21.19,21.19L2.81,2.81L1.39,4.22l3.63,3.63C5.02,7.9,5,7.95,5,8v11c0,1.1,0.9,2,2,2 c0,0.55,0.45,1,1,1c0.55,0,1-0.45,1-1h6c0,0.55,0.45,1,1,1c0.55,0,1-0.45,1-1c0.34,0,0.65-0.09,0.93-0.24l1.85,1.85L21.19,21.19z M7,19V9.83l1,1V18h1.5v-5.67l1.75,1.75V18h1.5v-2.42l1.75,1.75V18h0.67l1,1H7z M16,9v4.17l-1.5-1.5V9H16z"/></svg>