<?xml version="1.0" encoding="utf-8"?>
<!-- Generator: Adobe Illustrator 23.0.4, SVG Export Plug-In . SVG Version: 6.00 Build 0)  -->
<svg version="1.1" xmlns="http://www.w3.org/2000/svg" xmlns:xlink="http://www.w3.org/1999/xlink" x="0px" y="0px" width="24px"
	 height="24px" viewBox="0 0 24 24" enable-background="new 0 0 24 24" xml:space="preserve">
<g id="Bounding_Box">
	<rect x="0" fill="none" width="24" height="24"/>
</g>
<g id="Icons">
	<g>
		<path opacity="0.3" enable-background="new    " d="M12,4c-4.41,0-8,3.59-8,8s3.59,8,8,8s8-3.59,8-8S16.41,4,12,4z M16.2,16.2
			L11,13V7h1.5v5.2l4.5,2.7L16.2,16.2z"/>
		<path d="M12,2C6.5,2,2,6.5,2,12s4.5,10,10,10s10-4.5,10-10S17.5,2,12,2z M12,20c-4.41,0-8-3.59-8-8s3.59-8,8-8s8,3.59,8,8
			S16.41,20,12,20z M12.5,7H11v6l5.2,3.2l0.8-1.3l-4.5-2.7V7z"/>
	</g>
</g>
</svg>
