<svg xmlns="http://www.w3.org/2000/svg" enable-background="new 0 0 24 24" height="24" viewBox="0 0 24 24" width="24"><g><rect fill="none" height="24" width="24"/></g><g><g><g><g><rect enable-background="new" height="3" opacity=".3" width="15" x="5" y="5"/><rect enable-background="new" height="9" opacity=".3" width="3" x="17" y="10"/><rect enable-background="new" height="9" opacity=".3" width="5" x="10" y="10"/><rect enable-background="new" height="9" opacity=".3" width="3" x="5" y="10"/><path d="M20,3H5C3.9,3,3,3.9,3,5v14c0,1.1,0.9,2,2,2h15c1.1,0,2-0.9,2-2V5C22,3.9,21.1,3,20,3z M8,19H5v-9h3V19z M15,19h-5v-9h5 V19z M20,19h-3v-9h3V19z M20,8H5V5h15V8z"/></g></g></g></g></svg>