<svg xmlns="http://www.w3.org/2000/svg" enable-background="new 0 0 24 24" height="24" viewBox="0 0 24 24" width="24"><g><g><path d="M0,0h24v24H0V0z" fill="none"/></g></g><g><g><path d="M14,17h-4c-0.55,0-1-0.45-1-1v-1H2.01L2,19c0,1.11,0.89,2,2,2h16c1.1,0,2-0.9,2-2v-4h-7v1C15,16.55,14.55,17,14,17z"/><path d="M20,6h-3V4c0-1.1-0.9-2-2-2H9C7.9,2,7,2.9,7,4v2H4C2.9,6,2,6.9,2,8v5h7v-1c0-0.55,0.45-1,1-1h4c0.55,0,1,0.45,1,1v1h7V8 C22,6.9,21.1,6,20,6z M15,6H9V4h6V6z"/><rect height="2" width="2" x="11" y="13"/></g></g></svg>