<svg xmlns="http://www.w3.org/2000/svg" enable-background="new 0 0 24 24" height="24" viewBox="0 0 24 24" width="24"><g><rect fill="none" height="24" width="24"/></g><g><g><path d="M10,10c1.1,0,2-0.9,2-2s-0.9-2-2-2C8.9,6,8,6.9,8,8S8.9,10,10,10z M4,17.01V18h6.04 c0.17-1.18,0.86-2.21,1.87-2.81C11.3,15.07,10.66,15,10,15C7.3,15,4.21,16.29,4,17.01z" opacity=".3"/><g><path d="M20.81,16.76C19.64,16.27,18.35,16,17,16s-2.64,0.27-3.81,0.76C12.46,17.06,12,17.8,12,18.59V20h10v-1.41 C22,17.8,21.54,17.06,20.81,16.76z"/><path d="M10,12c2.21,0,4-1.79,4-4c0-2.21-1.79-4-4-4S6,5.79,6,8C6,10.21,7.79,12,10,12z M10,6c1.1,0,2,0.9,2,2s-0.9,2-2,2 c-1.1,0-2-0.9-2-2S8.9,6,10,6z"/><circle cx="17" cy="12.5" r="2.5"/><path d="M10,13c-2.67,0-8,1.34-8,4v3h8v-2H4l0-0.99C4.2,16.29,7.3,15,10,15c0.81,0,1.48,0.11,1.82,0.18l1.66-1.66 C11.63,13.01,10.19,13,10,13z"/></g></g></g></svg>