<svg xmlns="http://www.w3.org/2000/svg" enable-background="new 0 0 24 24" height="24" viewBox="0 0 24 24" width="24"><g><rect fill="none" height="24" width="24"/></g><g><path d="M22,12l0-7.58c0-0.89-1.08-1.34-1.71-0.71L3.71,20.29C3.08,20.92,3.52,22,4.41,22H15v-6c0-2.21,1.79-4,4-4H22z M22,17 v-0.89c0-1-0.68-1.92-1.66-2.08C19.08,13.82,18,14.79,18,16v1l0,0c-0.55,0-1,0.45-1,1v3c0,0.55,0.45,1,1,1h4c0.55,0,1-0.45,1-1v-3 C23,17.45,22.55,17,22,17L22,17z M21,17h-2v-1c0-0.55,0.45-1,1-1s1,0.45,1,1V17z"/></g></svg>