<svg xmlns="http://www.w3.org/2000/svg" enable-background="new 0 0 24 24" height="24" viewBox="0 0 24 24" width="24"><g><rect fill="none" height="24" width="24"/></g><g><g><path d="M12,2c-1.49,0-2.91,0.33-4.19,0.92l1.54,1.53C10.18,4.16,11.07,4,12,4c4.41,0,8,3.59,8,8c0,4.41-3.59,8-8,8s-8-3.59-8-8 c0-0.9,0.15-1.77,0.42-2.58L2.88,7.88C2.32,9.14,2,10.53,2,12c0,5.52,4.48,10,10,10s10-4.48,10-10S17.52,2,12,2z"/><circle cx="5.5" cy="5.5" r="1.5"/><polygon points="12.35,9.91 12.03,8.99 11.97,8.99 11.65,9.91 10.8,12.29 13.2,12.29"/><path d="M12,18c3.31,0,6-2.69,6-6s-2.69-6-6-6s-6,2.69-6,6S8.69,18,12,18z M11.29,7.5h1.43l3.01,8h-1.39l-0.72-2.04h-3.23 L9.66,15.5H8.28L11.29,7.5z"/></g></g></svg>