<svg xmlns="http://www.w3.org/2000/svg" enable-background="new 0 0 24 24" height="24" viewBox="0 0 24 24" width="24"><g><rect fill="none" height="24" width="24"/></g><g><g><rect height="4.99" opacity=".3" transform="matrix(0.7071 -0.7071 0.7071 0.7071 -2.4392 11.5768)" width="6.99" x="9.26" y="6.24"/><rect height="2" opacity=".3" width="14" x="5" y="18"/><path d="M18,12.18l-1.5,1.64l2,2.18h-13l2-2.18L6,12.18l-3,3.27V20c0,1.1,0.9,2,2,2h14c1.1,0,2-0.9,2-2v-4.54L18,12.18z M19,20H5 v-2h14V20z"/><path d="M10.59,14.42c0.78,0.79,2.05,0.8,2.84,0.01l4.98-4.98c0.78-0.78,0.78-2.05,0-2.83l-3.54-3.53c-0.78-0.78-2.05-0.78-2.83,0 L7.09,8.04c-0.78,0.78-0.78,2.03-0.01,2.82L10.59,14.42z M13.46,4.5l3.53,3.53l-4.94,4.94L8.52,9.44L13.46,4.5z"/></g></g></svg>