<svg xmlns="http://www.w3.org/2000/svg" enable-background="new 0 0 24 24" height="24" viewBox="0 0 24 24" width="24"><g><path d="M0,0h24v24H0V0z" fill="none"/></g><g><g><path d="M17.5,8c0.46,0,0.91-0.05,1.34-0.12C17.44,5.56,14.9,4,12,4 c-0.46,0-0.91,0.05-1.34,0.12C12.06,6.44,14.6,8,17.5,8z" enable-background="new" opacity=".3"/><path d="M8.08,5.03C6.37,6,5.05,7.58,4.42,9.47C6.13,8.5,7.45,6.92,8.08,5.03z" enable-background="new" opacity=".3"/><path d="M12,2C6.48,2,2,6.48,2,12s4.48,10,10,10s10-4.48,10-10S17.52,2,12,2z M12,4c2.9,0,5.44,1.56,6.84,3.88 C18.41,7.95,17.96,8,17.5,8c-2.9,0-5.44-1.56-6.84-3.88C11.09,4.05,11.54,4,12,4z M8.08,5.03C7.45,6.92,6.13,8.5,4.42,9.47 C5.05,7.58,6.37,6,8.08,5.03z M12,20c-4.41,0-8-3.59-8-8c0-0.05,0.01-0.1,0-0.14c2.6-0.98,4.69-2.99,5.74-5.55 C11.58,8.56,14.37,10,17.5,10c0.75,0,1.47-0.09,2.17-0.24C19.88,10.47,20,11.22,20,12C20,16.41,16.41,20,12,20z"/><circle cx="15" cy="13" r="1.25"/><circle cx="9" cy="13" r="1.25"/></g></g></svg>