<svg xmlns="http://www.w3.org/2000/svg" enable-background="new 0 0 24 24" height="24" viewBox="0 0 24 24" width="24"><g><rect fill="none" height="24" width="24"/></g><g><g><rect height="3" width="1.5" x="14.5" y="7"/><path d="M19,3H5C3.9,3,3,3.9,3,5v14c0,1.1,0.9,2,2,2h14c1.1,0,2-0.9,2-2V5C21,3.9,20.1,3,19,3z M6.5,9c0-0.55,0.45-1,1-1h2V7h-3 V5.5H10c0.55,0,1,0.45,1,1V8c0,0.55-0.45,1-1,1H8v1h3v1.5H6.5V9z M12.5,18.5H11V14h-1v3H8.5v-3h-1v4.5H6v-5c0-0.55,0.45-1,1-1h4.5 c0.55,0,1,0.45,1,1V18.5z M13,10.5v-4c0-0.55,0.45-1,1-1h2.5c0.55,0,1,0.45,1,1v4c0,0.55-0.45,1-1,1H14 C13.45,11.5,13,11.05,13,10.5z M18,16c0,0.55-0.45,1-1,1h-2v1.5h-1.5v-6H17c0.55,0,1,0.45,1,1V16z"/><rect height="1.5" width="1.5" x="15" y="14"/></g></g></svg>