<?xml version="1.0" encoding="utf-8"?>
<!-- Generator: Adobe Illustrator 21.0.2, SVG Export Plug-In . SVG Version: 6.00 Build 0)  -->
<svg version="1.1" id="ic_x5F_article_x5F_gm2round_x5F_24px"
	 xmlns="http://www.w3.org/2000/svg" xmlns:xlink="http://www.w3.org/1999/xlink" x="0px" y="0px" width="24px" height="24px"
	 viewBox="0 0 24 24" enable-background="new 0 0 24 24" xml:space="preserve">
<g>
	<path d="M19,3H5C3.9,3,3,3.9,3,5v14c0,1.1,0.9,2,2,2h14c1.1,0,2-0.9,2-2V5C21,3.9,20.1,3,19,3z M13,17H8c-0.55,0-1-0.45-1-1
		c0-0.55,0.45-1,1-1h5c0.55,0,1,0.45,1,1C14,16.55,13.55,17,13,17z M16,13H8c-0.55,0-1-0.45-1-1c0-0.55,0.45-1,1-1h8
		c0.55,0,1,0.45,1,1C17,12.55,16.55,13,16,13z M16,9H8C7.45,9,7,8.55,7,8c0-0.55,0.45-1,1-1h8c0.55,0,1,0.45,1,1
		C17,8.55,16.55,9,16,9z"/>
	<rect fill="none" width="24" height="24"/>
</g>
</svg>
