<?xml version="1.0" encoding="utf-8"?>
<!-- Generator: Adobe Illustrator 22.1.0, SVG Export Plug-In . SVG Version: 6.00 Build 0)  -->
<svg version="1.1" id="ic_x5F_article_x5F_gm2twotone_x5F_24px"
	 xmlns="http://www.w3.org/2000/svg" xmlns:xlink="http://www.w3.org/1999/xlink" x="0px" y="0px" width="24px" height="24px"
	 viewBox="0 0 24 24" enable-background="new 0 0 24 24" xml:space="preserve">
<g>
	<path opacity="0.3" d="M5,5v14h14V5H5z M14,17H7v-2h7V17z M17,13H7v-2h10V13z M17,9H7V7h10V9z"/>
	<path d="M19,3H5C3.9,3,3,3.9,3,5v14c0,1.1,0.9,2,2,2h14c1.1,0,2-0.9,2-2V5C21,3.9,20.1,3,19,3z M19,19H5V5h14V19z M17,13H7v-2h10
		V13z M17,9H7V7h10V9z M14,17H7v-2h7V17z"/>
	<rect y="0" fill="none" width="24" height="24"/>
</g>
</svg>
