<svg xmlns="http://www.w3.org/2000/svg" enable-background="new 0 0 24 24" height="24" viewBox="0 0 24 24" width="24"><g><g><path d="M0,0h24v24H0V0z" fill="none"/></g></g><g><g><g><g><path d="M6,13c0,1.1,0.9,2,2,2h6c1.1,0,2-0.9,2-2V5H6V13z" enable-background="new" opacity=".3"/><rect height="2" width="16" x="4" y="19"/><path d="M20,3H4v10c0,2.21,1.79,4,4,4h6c2.21,0,4-1.79,4-4v-3h2c1.11,0,2-0.9,2-2V5C22,3.89,21.11,3,20,3z M16,13 c0,1.1-0.9,2-2,2H8c-1.1,0-2-0.9-2-2V5h10V13z M20,8h-2V5h2V8z"/></g></g></g></g></svg>