<svg xmlns="http://www.w3.org/2000/svg" enable-background="new 0 0 24 24" height="24" viewBox="0 0 24 24" width="24"><g><rect fill="none" height="24" width="24"/></g><g><g><circle cx="10" cy="8" enable-background="new" opacity=".3" r="2"/><path d="M16,17.22c0-0.05-0.01-0.09-0.02-0.14l-0.51,0.51l-2.03-2.03l-1.41,1.41 L13.06,18H16V17.22z" enable-background="new" opacity=".3"/><path d="M9.2,16.97l1.41-1.41l0.5-0.5C10.75,15.02,10.38,15,10,15 c-2.37,0-4.29,0.73-5.48,1.34C4.2,16.5,4,16.84,4,17.22V18h6.23L9.2,16.97z" enable-background="new" opacity=".3"/></g><path d="M10,12c2.21,0,4-1.79,4-4c0-2.21-1.79-4-4-4S6,5.79,6,8C6,10.21,7.79,12,10,12z M10,6c1.1,0,2,0.9,2,2c0,1.1-0.9,2-2,2 S8,9.1,8,8C8,6.9,8.9,6,10,6z M20.59,12.53l-5.06,5.06l-2.03-2.03l-1.41,1.41l3.45,3.44L22,13.94L20.59,12.53z M10.23,18H4v-0.78 c0-0.38,0.2-0.72,0.52-0.88C5.71,15.73,7.63,15,10,15c0.38,0,0.75,0.02,1.11,0.06l1.75-1.75C11.97,13.12,11.02,13,10,13 c-2.53,0-4.71,0.7-6.39,1.56C2.61,15.07,2,16.1,2,17.22V20h10.23L10.23,18z"/></g></svg>