<svg xmlns="http://www.w3.org/2000/svg" enable-background="new 0 0 24 24" height="24" viewBox="0 0 24 24" width="24"><g><rect fill="none" height="24" width="24"/></g><g><g><g><path d="M18,17v-7c0-2.79-1.91-5.14-4.5-5.8V3.5C13.5,2.67,12.83,2,12,2s-1.5,0.67-1.5,1.5v0.7C7.91,4.86,6,7.21,6,10v7H4v2h16 v-2H18z M16,17H8v-7c0-2.21,1.79-4,4-4s4,1.79,4,4V17z M12,22c1.1,0,2-0.9,2-2h-4C10,21.1,10.9,22,12,22z"/></g><path d="M12,6c-2.21,0-4,1.79-4,4v7h8v-7C16,7.79,14.21,6,12,6z" enable-background="new" opacity=".3"/></g></g></svg>