<svg xmlns="http://www.w3.org/2000/svg" enable-background="new 0 0 24 24" height="24" viewBox="0 0 24 24" width="24"><g><rect fill="none" height="24" width="24" y="0"/></g><g><path d="M19.8,10.7L5.15,5.35c-0.52-0.19-1.1,0.08-1.3,0.6l0,0c-0.19,0.53,0.08,1.11,0.6,1.3L17.6,12H5c-1.1,0-2,0.9-2,2v4 c0,1.1,0.9,2,2,2h14c1.1,0,2-0.9,2-2v-5.5C21,11.7,20.5,10.9,19.8,10.7z M7,17L7,17c-0.55,0-1-0.45-1-1v0c0-0.55,0.45-1,1-1h0 c0.55,0,1,0.45,1,1v0C8,16.55,7.55,17,7,17z M17,17h-6c-0.55,0-1-0.45-1-1v0c0-0.55,0.45-1,1-1h6c0.55,0,1,0.45,1,1v0 C18,16.55,17.55,17,17,17z"/></g></svg>