<svg xmlns="http://www.w3.org/2000/svg" enable-background="new 0 0 24 24" height="24" viewBox="0 0 24 24" width="24"><g><rect fill="none" height="24" width="24"/></g><g><g><g><circle cx="9.5" cy="10" opacity=".3" r="1.5"/><path d="M9.5,6.5C7.57,6.5,6,8.07,6,10s1.57,3.5,3.5,3.5S13,11.93,13,10S11.43,6.5,9.5,6.5z M9.5,11.5C8.67,11.5,8,10.83,8,10 s0.67-1.5,1.5-1.5S11,9.17,11,10S10.33,11.5,9.5,11.5z"/></g><circle cx="16.5" cy="12" r="2.5"/><path d="M12,2C6.48,2,2,6.48,2,12c0,5.52,4.48,10,10,10s10-4.48,10-10C22,6.48,17.52,2,12,2z M18.7,16.36 C18.01,16.13,17.27,16,16.5,16c-1.74,0-4.68,0.8-6.22,3.81c-1.5-0.33-2.84-1.08-3.89-2.12C7.33,17.25,8.39,17,9.5,17 c0.31,0,0.62,0.03,0.93,0.06c0.61-0.62,1.31-1.15,2.09-1.57C11.57,15.18,10.56,15,9.5,15c-1.58,0-3.06,0.39-4.37,1.07 C4.42,14.88,4,13.49,4,12c0-4.41,3.59-8,8-8c4.41,0,8,3.59,8,8C20,13.61,19.52,15.1,18.7,16.36z"/><g opacity=".3"><path d="M6.38,17.69c0.7,0.69,1.54,1.24,2.45,1.64l0.1-0.2c0.42-0.81,0.92-1.48,1.48-2.06C10.12,17.03,9.81,17,9.5,17 C8.39,17,7.33,17.25,6.38,17.69z"/></g></g></g></svg>