<svg xmlns="http://www.w3.org/2000/svg" enable-background="new 0 0 24 24" height="24" viewBox="0 0 24 24" width="24"><g><rect fill="none" height="24" width="24"/></g><g><g><path d="M12,4V1L8,5l4,4V6c3.86,0,7,3.14,7,7s-3.14,7-7,7s-7-3.14-7-7H3c0,4.97,4.03,9,9,9c4.97,0,9-4.03,9-9S16.97,4,12,4z"/><path d="M15.5,16c0.55,0,1-0.45,1-1v-4c0-0.55-0.45-1-1-1h-2c-0.55,0-1,0.45-1,1v4c0,0.55,0.45,1,1,1H15.5z M14,11.5h1v3h-1V11.5z"/><path d="M11.5,15v-4c0-0.55-0.45-1-1-1h-3v1.5H10v1H8.5v1H10v1H7.5V16h3C11.05,16,11.5,15.55,11.5,15z"/></g></g></svg>