<svg xmlns="http://www.w3.org/2000/svg" enable-background="new 0 0 24 24" height="24" viewBox="0 0 24 24" width="24"><g><rect fill="none" height="24" width="24"/><rect fill="none" height="24" width="24"/></g><g><g><g><g><path d="M12,4c-4.42,0-8,3.58-8,8s3.58,8,8,8s8-3.58,8-8S16.42,4,12,4z M7,9.5 C7,8.67,7.67,8,8.5,8S10,8.67,10,9.5S9.33,11,8.5,11S7,10.33,7,9.5z M15,15.5H9V14h6V15.5z M15.5,11c-0.83,0-1.5-0.67-1.5-1.5 S14.67,8,15.5,8S17,8.67,17,9.5S16.33,11,15.5,11z" enable-background="new" opacity=".3"/><rect height="1.5" width="6" x="9" y="14"/><circle cx="15.5" cy="9.5" r="1.5"/><circle cx="8.5" cy="9.5" r="1.5"/><path d="M11.99,2C6.47,2,2,6.48,2,12s4.47,10,9.99,10C17.52,22,22,17.52,22,12S17.52,2,11.99,2z M12,20c-4.42,0-8-3.58-8-8 s3.58-8,8-8s8,3.58,8,8S16.42,20,12,20z"/></g></g></g></g></svg>