<svg xmlns="http://www.w3.org/2000/svg" enable-background="new 0 0 24 24" height="24" viewBox="0 0 24 24" width="24"><g><path d="M0,0h24v24H0V0z" fill="none"/></g><g><g><g><path d="M16,4h-2V3c0-0.55-0.45-1-1-1h-2c-0.55,0-1,0.45-1,1v1H8C7.45,4,7,4.45,7,5v16c0,0.55,0.45,1,1,1h8c0.55,0,1-0.45,1-1V5 C17,4.45,16.55,4,16,4z M12,14L12,14c-0.55,0-1-0.45-1-1v-3c0-0.55,0.45-1,1-1h0c0.55,0,1,0.45,1,1v3C13,13.55,12.55,14,12,14z M13,17c0,0.55-0.45,1-1,1s-1-0.45-1-1s0.45-1,1-1S13,16.45,13,17z"/></g></g></g></svg>