<svg xmlns="http://www.w3.org/2000/svg" enable-background="new 0 0 24 24" height="24" viewBox="0 0 24 24" width="24"><g><rect fill="none" height="24" width="24"/></g><g><path d="M17.68,12l5.15-5.15l-5.68-5.68L12,6.32L6.85,1.17L1.17,6.85L6.32,12l-5.15,5.15l5.68,5.68L12,17.68l5.15,5.15l5.68-5.68 L17.68,12z M12,9c0.55,0,1,0.45,1,1s-0.45,1-1,1s-1-0.45-1-1S11.45,9,12,9z M7.73,10.59L4,6.85L6.85,4l3.73,3.73L7.73,10.59z M10,13c-0.55,0-1-0.45-1-1s0.45-1,1-1s1,0.45,1,1S10.55,13,10,13z M12,15c-0.55,0-1-0.45-1-1s0.45-1,1-1s1,0.45,1,1 S12.55,15,12,15z M13,12c0-0.55,0.45-1,1-1s1,0.45,1,1s-0.45,1-1,1S13,12.55,13,12z M17.15,20l-3.73-3.73l2.85-2.85L20,17.15 L17.15,20z"/></g></svg>