<svg xmlns="http://www.w3.org/2000/svg" enable-background="new 0 0 24 24" height="24" viewBox="0 0 24 24" width="24"><g><rect fill="none" height="24" width="24"/></g><g><g><path d="M10.98,4.07V2.05c-2.01,0.2-3.84,1-5.32,2.21l1.42,1.43C8.19,4.83,9.51,4.25,10.98,4.07z"/><path d="M5.67,7.1L4.24,5.68C3.02,7.16,2.23,8.99,2.02,11h2.02C4.23,9.54,4.81,8.21,5.67,7.1z"/><path d="M4.05,13H2.02c0.2,2.01,1,3.84,2.21,5.32l1.43-1.43C4.81,15.79,4.23,14.46,4.05,13z"/><path d="M13.02,2.05v2.02c3.92,0.52,6.95,3.88,6.95,7.93s-3.03,7.41-6.95,7.93v2.02c5.03-0.53,8.95-4.79,8.95-9.95 S18.06,2.58,13.02,2.05z"/><path d="M5.65,19.74c1.48,1.21,3.32,2.01,5.32,2.21v-2.02c-1.46-0.18-2.79-0.76-3.9-1.62L5.65,19.74z"/><polygon points="9.5,16.5 16.5,12 9.5,7.5"/></g></g></svg>