<svg xmlns="http://www.w3.org/2000/svg" enable-background="new 0 0 24 24" height="24" viewBox="0 0 24 24" width="24"><g><rect fill="none" height="24" width="24"/></g><g><g><path d="M6,17.5C6,18.33,6.67,19,7.5,19h9c0.83,0,1.5-0.67,1.5-1.5V14H6V17.5z M12,15c0.83,0,1.5,0.67,1.5,1.5 S12.83,18,12,18s-1.5-0.67-1.5-1.5S11.17,15,12,15z" opacity=".3"/><path d="M11.96,5.99C7.47,6.1,6.8,6.67,6.42,7h11.24C17.31,6.64,16.65,6.09,11.96,5.99z" opacity=".3"/><path d="M13,4.01l0.75-1.51H17V1H7v1.5h4.75L11,4l0.03,0.01C7.38,4.1,4,4.78,4,8v9.5C4,19.43,5.57,21,7.5,21L6,22.5V23h2l2-2h4 l2,2h2v-0.5L16.5,21c1.93,0,3.5-1.57,3.5-3.5V8C20,4.77,16.95,4.1,13,4.01z M11.96,5.99c4.51,0.1,5.28,0.58,5.71,1.01H6.42 C6.8,6.67,7.51,6.1,11.96,5.99z M18,17.5c0,0.83-0.67,1.5-1.5,1.5h-9C6.67,19,6,18.33,6,17.5V14h12V17.5z M18,12H6V9h12V12z"/><circle cx="12" cy="16.5" r="1.5"/></g></g></svg>