<?xml version="1.0" encoding="utf-8"?>
<!-- Generator: Adobe Illustrator 23.0.4, SVG Export Plug-In . SVG Version: 6.00 Build 0)  -->
<svg version="1.1" xmlns="http://www.w3.org/2000/svg" xmlns:xlink="http://www.w3.org/1999/xlink" x="0px" y="0px" width="24px"
	 height="24px" viewBox="0 0 24 24" enable-background="new 0 0 24 24" xml:space="preserve">
<g id="Bounding_Box">
	<rect fill="none" width="24" height="24"/>
</g>
<g id="Master">
	<g>
		<polygon opacity="0.3" points="15.55,17.42 15.55,18.45 16.58,18.45 20.03,15 19,13.97 		"/>
		<polygon points="18,4 16,4 16,11.9 18,9.9 		"/>
		<rect x="4" y="4" width="2" height="16"/>
		<rect x="10" y="4" width="2" height="4"/>
		<rect x="10" y="10" width="2" height="4"/>
		<rect x="10" y="16" width="2" height="4"/>
		<path d="M22.56,12.59l-1.15-1.15c-0.59-0.59-1.54-0.59-2.12,0L14,16.73V20h3.27l5.29-5.29C23.15,14.12,23.15,13.17,22.56,12.59z
			 M16.58,18.45h-1.03v-1.03L19,13.97L20.03,15L16.58,18.45z"/>
	</g>
</g>
</svg>
