<?xml version="1.0" encoding="utf-8"?>
<!-- Generator: Adobe Illustrator 23.0.4, SVG Export Plug-In . SVG Version: 6.00 Build 0)  -->
<svg version="1.1" xmlns="http://www.w3.org/2000/svg" xmlns:xlink="http://www.w3.org/1999/xlink" x="0px" y="0px" width="24px"
	 height="24px" viewBox="0 0 24 24" enable-background="new 0 0 24 24" xml:space="preserve">
<g id="Bounding_Box">
	<rect fill="none" width="24" height="24"/>
</g>
<g id="Icons">
	<g>
		<path d="M11,8v5l4.25,2.52l0.77-1.28l-3.52-2.09V8H11z M21,10V3l-2.64,2.64C16.74,4.01,14.49,3,12,3c-4.97,0-9,4.03-9,9
			s4.03,9,9,9s9-4.03,9-9h-2c0,3.86-3.14,7-7,7s-7-3.14-7-7s3.14-7,7-7c1.93,0,3.68,0.79,4.95,2.05L14,10H21z"/>
	</g>
</g>
</svg>
