<svg xmlns="http://www.w3.org/2000/svg" enable-background="new 0 0 24 24" height="24" viewBox="0 0 24 24" width="24"><g><rect fill="none" height="24" width="24"/></g><g><g><path d="M9.1,5L5,9.1v5.8L9.1,19h5.8l4.1-4.1V9.1L14.9,5H9.1z M13,17h-2v-2h2V17z M13,13h-2V7h2V13z" enable-background="new" opacity=".3"/><path d="M15.73,3H8.27L3,8.27v7.46L8.27,21h7.46L21,15.73V8.27L15.73,3z M19,14.9L14.9,19H9.1L5,14.9V9.1L9.1,5h5.8L19,9.1V14.9z"/><rect height="6" width="2" x="11" y="7"/><rect height="2" width="2" x="11" y="15"/></g></g></svg>