<svg xmlns="http://www.w3.org/2000/svg" enable-background="new 0 0 24 24" height="24" viewBox="0 0 24 24" width="24"><g><rect fill="none" height="24" width="24"/></g><g><g><path d="M12,2C6.48,2,2,6.48,2,12s4.48,10,10,10h5v-2h-5c-4.34,0-8-3.66-8-8s3.66-8,8-8s8,3.66,8,8v1.43 c0,0.79-0.71,1.57-1.5,1.57S17,14.22,17,13.43V12c0-2.76-2.24-5-5-5s-5,2.24-5,5s2.24,5,5,5c1.38,0,2.64-0.56,3.54-1.47 C16.19,16.42,17.31,17,18.5,17c1.97,0,3.5-1.6,3.5-3.57V12C22,6.48,17.52,2,12,2z M12,15c-1.66,0-3-1.34-3-3s1.34-3,3-3 s3,1.34,3,3S13.66,15,12,15z"/></g></g></svg>