<svg xmlns="http://www.w3.org/2000/svg" enable-background="new 0 0 24 24" height="24" viewBox="0 0 24 24" width="24"><g><path d="M0,0h24v24H0V0z" fill="none"/></g><g><g><path d="M13,9c0-1.98-1.45-3.64-3.35-3.95L11.5,6.9c0.39,0.39,0.39,1.02,0,1.41L8.32,11.5 c-0.39,0.39-1.02,0.39-1.41,0L5.05,9.65C5.36,11.55,7.02,13,9,13c0.83,0,1.24-0.2,2.59-0.7l6.29,6.29l0.71-0.71l-6.29-6.29 C12.79,10.28,13,9.84,13,9z" opacity=".3"/><path d="M20.71,17.17l-6.09-6.09C14.86,10.43,15,9.73,15,9c0-3.31-2.69-6-6-6C7.8,3,6.68,3.36,5.74,3.97l3.64,3.64L7.61,9.38 L3.97,5.74C3.36,6.68,3,7.8,3,9c0,3.31,2.69,6,6,6c0.73,0,1.43-0.14,2.08-0.38l6.09,6.09c0.2,0.2,0.45,0.29,0.71,0.29 s0.51-0.1,0.71-0.29l2.12-2.12C21.1,18.2,21.1,17.56,20.71,17.17z M17.88,18.59l-6.29-6.29C10.24,12.8,9.83,13,9,13 c-1.98,0-3.64-1.45-3.95-3.35L6.9,11.5c0.39,0.39,1.02,0.39,1.41,0l3.18-3.18c0.39-0.39,0.39-1.02,0-1.41L9.65,5.05 C11.55,5.36,13,7.02,13,9c0,0.84-0.21,1.28-0.7,2.59l6.29,6.29L17.88,18.59z"/></g></g></svg>