<svg xmlns="http://www.w3.org/2000/svg" enable-background="new 0 0 24 24" height="24" viewBox="0 0 24 24" width="24"><g><rect fill="none" height="24" width="24"/></g><g><path d="M12,2C6.48,2,2,6.48,2,12s4.48,10,10,10s10-4.48,10-10S17.52,2,12,2z M15,17H9c-0.55,0-1-0.45-1-1v0c0-0.55,0.45-1,1-1h6 c0.55,0,1,0.45,1,1v0C16,16.55,15.55,17,15,17z M10.23,13.29l-2.12-2.12c-0.39-0.39-0.39-1.02,0-1.41l0,0 c0.39-0.39,1.02-0.39,1.41,0l1.41,1.41l3.54-3.54c0.39-0.39,1.02-0.39,1.41,0l0,0c0.39,0.39,0.39,1.02,0,1.41l-4.24,4.24 C11.26,13.68,10.62,13.68,10.23,13.29z"/></g></svg>