<svg xmlns="http://www.w3.org/2000/svg" enable-background="new 0 0 24 24" height="24" viewBox="0 0 24 24" width="24"><g><path d="M0,0h24v24H0V0z" fill="none"/></g><g><path d="M20,4H4C2.9,4,2,4.9,2,6v12c0,1.1,0.9,2,2,2h16c1.1,0,2-0.9,2-2V6C22,4.9,21.1,4,20,4z M20,18.01H4V5.99h16V18.01z M9,16 h6.5v-0.02c1.38,0,2.5-1.12,2.5-2.5s-1.12-2.5-2.5-2.5c-0.02,0-0.03,0-0.05,0.01C15.2,9.3,13.76,8,12,8c-1.4,0-2.6,0.83-3.16,2.02 C7.26,10.1,6,11.4,6,13C6,14.66,7.34,16,9,16z M9,12h1.25v-0.25c0-0.97,0.78-1.75,1.75-1.75s1.75,0.78,1.75,1.75V13h1.72 c0.01,0,0.02,0,0.03,0c0.28,0,0.5,0.22,0.5,0.5c0,0.28-0.22,0.5-0.5,0.5v0H9c-0.55,0-1-0.45-1-1S8.45,12,9,12z"/></g></svg>