<svg xmlns="http://www.w3.org/2000/svg" enable-background="new 0 0 24 24" height="24" viewBox="0 0 24 24" width="24"><g><rect fill="none" height="24" width="24"/></g><g><path d="M19,5H9C8.35,5,7.75,5.31,7.37,5.84l-3.55,5c-0.49,0.69-0.49,1.62,0,2.32l3.55,5C7.75,18.69,8.35,19,9,19h10 c1.1,0,2-0.9,2-2V7C21,5.9,20.1,5,19,5z M17.29,15.29L17.29,15.29c-0.39,0.39-1.02,0.39-1.41,0L14,13.41l-1.88,1.88 c-0.39,0.39-1.02,0.39-1.41,0l0,0c-0.39-0.39-0.39-1.02,0-1.41L12.59,12l-1.88-1.88c-0.39-0.39-0.39-1.02,0-1.41l0,0 c0.39-0.39,1.02-0.39,1.41,0L14,10.59l1.88-1.88c0.39-0.39,1.02-0.39,1.41,0v0c0.39,0.39,0.39,1.02,0,1.41L15.41,12l1.88,1.88 C17.68,14.27,17.68,14.9,17.29,15.29z"/></g></svg>