<svg xmlns="http://www.w3.org/2000/svg" enable-background="new 0 0 24 24" height="24" viewBox="0 0 24 24" width="24"><g><g><path d="M0,0h24v24H0V0z" fill="none"/></g></g><g><g><g><path d="M18,2.01L6,2C4.9,2,4,2.89,4,4v16c0,1.1,0.9,2,2,2h12c1.1,0,2-0.9,2-2V4C20,2.89,19.1,2.01,18,2.01z M18,20H6v-9.02h12 V20z M18,9H6V4h12V9z M9,5L9,5c0.55,0,1,0.45,1,1v1c0,0.55-0.45,1-1,1l0,0C8.45,8,8,7.55,8,7V6C8,5.45,8.45,5,9,5z M9,12L9,12 c0.55,0,1,0.45,1,1v3c0,0.55-0.45,1-1,1l0,0c-0.55,0-1-0.45-1-1v-3C8,12.45,8.45,12,9,12z"/></g></g></g></svg>