<svg xmlns="http://www.w3.org/2000/svg" enable-background="new 0 0 24 24" height="24" viewBox="0 0 24 24" width="24"><g><g><path d="M0,0h24v24H0V0z" fill="none"/></g></g><g><g><g><g><rect enable-background="new" height="3" opacity=".3" width="2" x="8" y="5"/><rect enable-background="new" height="5" opacity=".3" width="2" x="8" y="12"/><path d="M6,20h12v-9.02H6V20z M8,12h2v5H8V12z" enable-background="new" opacity=".3"/><path d="M6,9h12V4H6V9z M8,5h2v3H8V5z" enable-background="new" opacity=".3"/><path d="M18,2.01L6,2C4.9,2,4,2.89,4,4v16c0,1.1,0.9,2,2,2h12c1.1,0,2-0.9,2-2V4C20,2.89,19.1,2.01,18,2.01z M18,20H6v-9.02h12 V20z M18,9H6V4h12V9z"/><rect height="3" width="2" x="8" y="5"/><rect height="5" width="2" x="8" y="12"/></g></g></g></g></svg>