<svg xmlns="http://www.w3.org/2000/svg" enable-background="new 0 0 24 24" height="24" viewBox="0 0 24 24" width="24"><g><rect fill="none" height="24" width="24"/></g><g><path d="M14,2H6C4.9,2,4.01,2.9,4.01,4L4,20c0,1.1,0.89,2,1.99,2H18c1.1,0,2-0.9,2-2V8L14,2z M18,20H6V4h7.17L18,8.83V20z M8.75,9.56V8h-1.5v4.25h4.25v-1.5H9.68c0.59-0.61,1.41-1,2.32-1c1.79,0,3.25,1.46,3.25,3.25s-1.46,3.25-3.25,3.25 c-1.44,0-2.65-0.95-3.08-2.25H7.36c0.46,2.14,2.36,3.75,4.64,3.75c2.62,0,4.75-2.13,4.75-4.75S14.62,8.25,12,8.25 C10.74,8.25,9.6,8.76,8.75,9.56z"/></g></svg>