<svg xmlns="http://www.w3.org/2000/svg" enable-background="new 0 0 24 24" height="24" viewBox="0 0 24 24" width="24"><g><rect fill="none" height="24" width="24"/></g><g><g><g><circle cx="4.5" cy="9.5" r="1.5"/></g><g><path d="M16,15c0.73,0,1.38,0,1.75,0C20.1,15,22,13.1,22,10.75c0-1.75-1.06-3.25-2.57-3.9C19.12,4.68,17.26,3,15,3 s-4.12,1.68-4.43,3.85C9.06,7.5,8,9,8,10.75C8,13.1,9.9,15,12.25,15c0.37,0,1.02,0,1.75,0v5H6v-3h1v-4c0-0.55-0.45-1-1-1H3 c-0.55,0-1,0.45-1,1v4h1v5h18v-2h-5V15z"/></g></g></g></svg>