<?xml version="1.0" encoding="utf-8"?>
<!-- Generator: Adobe Illustrator 21.0.2, SVG Export Plug-In . SVG Version: 6.00 Build 0)  -->
<svg version="1.1" id="ic_x5F_highlight_x5F_m2sharp_x5F_24px"
	 xmlns="http://www.w3.org/2000/svg" xmlns:xlink="http://www.w3.org/1999/xlink" x="0px" y="0px" width="24px" height="24px"
	 viewBox="0 0 24 24" enable-background="new 0 0 24 24" xml:space="preserve">
<g>
	<rect fill="none" width="24" height="24"/>
	<path d="M17,5h-2V3h2V5z M19,3v2h2V3H19z M19,9h2V7h-2V9z M19,13h2v-2h-2V13z M11,21h2v-2h-2V21z M7,5h2V3H7V5z M3,5h2V3H3V5z
		 M3,17h2v-2H3V17z M3,21h2v-2H3V21z M11,5h2V3h-2V5z M3,9h2V7H3V9z M7,21h2v-2H7V21z M3,13h2v-2H3V13z M15,15v6l2.29-2.29L19.59,21
		L21,19.59l-2.29-2.29L21,15H15z"/>
</g>
</svg>
