<?xml version="1.0" encoding="utf-8"?>
<!-- Generator: Adobe Illustrator 23.0.4, SVG Export Plug-In . SVG Version: 6.00 Build 0)  -->
<svg version="1.1" id="ic_x5F_table_x5F_rows_x5F_m2round_x5F_24px"
	 xmlns="http://www.w3.org/2000/svg" xmlns:xlink="http://www.w3.org/1999/xlink" x="0px" y="0px" width="24px" height="24px"
	 viewBox="0 0 24 24" enable-background="new 0 0 24 24" xml:space="preserve">
<g id="ic_x5F_table_x5F_rows_x5F_m2round_x5F_24px_1_">
	<path d="M20,7H4C2.9,7,2,6.1,2,5V4c0-1.1,0.9-2,2-2h16c1.1,0,2,0.9,2,2v1C22,6.1,21.1,7,20,7z M20,9.5H4c-1.1,0-2,0.9-2,2v1
		c0,1.1,0.9,2,2,2h16c1.1,0,2-0.9,2-2v-1C22,10.4,21.1,9.5,20,9.5z M20,17H4c-1.1,0-2,0.9-2,2v1c0,1.1,0.9,2,2,2h16c1.1,0,2-0.9,2-2
		v-1C22,17.9,21.1,17,20,17z"/>
	<rect fill="none" width="24" height="24"/>
</g>
</svg>
