<svg xmlns="http://www.w3.org/2000/svg" enable-background="new 0 0 24 24" height="24" viewBox="0 0 24 24" width="24"><g><path d="M0,0h24v24H0V0z" fill="none"/></g><g><g><circle cx="18" cy="4.5" r="2"/><path d="M10,20c-1.65,0-3-1.35-3-3s1.35-3,3-3v-2c-2.76,0-5,2.24-5,5s2.24,5,5,5s5-2.24,5-5h-2C13,18.65,11.65,20,10,20z"/><path d="M18,13.5h-1.86l1.67-3.67C18.42,8.5,17.44,7,15.96,7h-5.2C9.95,7,9.22,7.47,8.89,8.2L8.61,8.96 c-0.21,0.56,0.11,1.17,0.68,1.33c0.49,0.14,1-0.11,1.2-0.58L10.79,9H13l-1.83,4.1c-0.6,1.33,0.39,2.9,1.85,2.9H18v4 c0,0.55,0.45,1,1,1s1-0.45,1-1v-4.5C20,14.4,19.1,13.5,18,13.5z"/></g></g></svg>