<svg xmlns="http://www.w3.org/2000/svg" enable-background="new 0 0 24 24" height="24" viewBox="0 0 24 24" width="24"><g><path d="M0,0h24v24H0V0z" fill="none"/></g><g><path d="M18,2h-7.17C10.3,2,9.79,2.21,9.41,2.59L4.59,7.41C4.21,7.79,4,8.3,4,8.83V20c0,1.1,0.9,2,2,2h12c1.1,0,2-0.9,2-2V4 C20,2.9,19.1,2,18,2z M10,11L10,11c-0.55,0-1-0.45-1-1V8c0-0.55,0.45-1,1-1h0c0.55,0,1,0.45,1,1v2C11,10.55,10.55,11,10,11z M13,11 L13,11c-0.55,0-1-0.45-1-1V8c0-0.55,0.45-1,1-1h0c0.55,0,1,0.45,1,1v2C14,10.55,13.55,11,13,11z M16,11L16,11c-0.55,0-1-0.45-1-1V8 c0-0.55,0.45-1,1-1h0c0.55,0,1,0.45,1,1v2C17,10.55,16.55,11,16,11z"/></g></svg>