<svg xmlns="http://www.w3.org/2000/svg" enable-background="new 0 0 24 24" height="24" viewBox="0 0 24 24" width="24"><g><rect fill="none" height="24" width="24"/></g><g><g><path d="M12,13c-2.21,0-4,1.79-4,4v3h8v-3C16,14.79,14.21,13,12,13z" enable-background="new" opacity=".3"/><path d="M18,7V4h2V2H4v2h2v3c0,2.09,1.07,3.93,2.69,5C7.07,13.07,6,14.91,6,17v3H4v2h16v-2h-2v-3c0-2.09-1.07-3.93-2.69-5 C16.93,10.93,18,9.09,18,7z M16,17v3H8v-3c0-2.21,1.79-4,4-4C14.21,13,16,14.79,16,17z M16,7c0,2.21-1.79,4-4,4 c-2.21,0-4-1.79-4-4V4h8V7z"/></g></g></svg>