<svg xmlns="http://www.w3.org/2000/svg" enable-background="new 0 0 24 24" height="24" viewBox="0 0 24 24" width="24"><g><rect fill="none" height="24" width="24"/></g><g><g><g><path d="M5,20L5,20c0,0.55,0.45,1,1,1h12c0.55,0,1-0.45,1-1v0c0-0.55-0.45-1-1-1h-5v-2h4c0.55,0,1-0.45,1-1v0c0-0.55-0.45-1-1-1 l-6.88,0c-1.44,0-2.76-0.96-3.05-2.37c-0.28-1.35,0.36-2.58,1.39-3.19C8.17,9.03,8,8.54,8,8c0-0.21,0.04-0.42,0.09-0.62 C6.28,8.13,5,9.92,5,12c0,2.76,2.24,5,5,5v2H6C5.45,19,5,19.45,5,20z"/><path d="M10.56,5.51C11.91,5.54,13,6.64,13,8c0,0.75-0.33,1.41-0.85,1.87l0.25,0.68c0.19,0.52,0.76,0.79,1.28,0.6 c0.19,0.52,0.76,0.79,1.28,0.6c0.52-0.19,0.79-0.76,0.6-1.28c0.52-0.19,0.79-0.76,0.6-1.28L14.1,3.54 c-0.19-0.52-0.76-0.79-1.28-0.6c-0.19-0.52-0.76-0.79-1.28-0.6c-0.52,0.19-0.79,0.76-0.6,1.28c-0.52,0.19-0.79,0.76-0.6,1.28 L10.56,5.51z"/><circle cx="10.5" cy="8" r="1.5"/></g></g></g></svg>