<svg xmlns="http://www.w3.org/2000/svg" enable-background="new 0 0 24 24" height="24" viewBox="0 0 24 24" width="24"><g><rect fill="none" height="24" width="24"/></g><g><g><path d="M1.39,4.22l11.41,11.41c-0.6,0.46-1.22,0.89-1.88,1.26L8.03,14c0,0,0,0,0,0l-5,1c0,0,0,0,0,0l0,6c3.28,0,6.35-0.89,9-2.43 c0.77-0.45,1.51-0.96,2.2-1.51l5.55,5.55l1.41-1.41L2.81,2.81L1.39,4.22z"/><path d="M16.93,10.9c-0.38,0.67-0.82,1.31-1.29,1.91l1.42,1.42c0.56-0.7,1.08-1.45,1.54-2.23c1.53-2.65,2.43-5.72,2.43-9l-6,0 l-1,5L16.93,10.9z"/></g></g></svg>