<svg xmlns="http://www.w3.org/2000/svg" enable-background="new 0 0 24 24" height="24" viewBox="0 0 24 24" width="24"><g><rect fill="none" height="24" width="24"/></g><g><g><g><path d="M7,16L7,16c0,0.55,0.45,1,1,1h8c0.55,0,1-0.45,1-1l0,0c0-0.55-0.45-1-1-1H8C7.45,15,7,15.45,7,16z M4,21h16 c0.55,0,1-0.45,1-1l0,0c0-0.55-0.45-1-1-1H4c-0.55,0-1,0.45-1,1l0,0C3,20.55,3.45,21,4,21z M4,13h16c0.55,0,1-0.45,1-1l0,0 c0-0.55-0.45-1-1-1H4c-0.55,0-1,0.45-1,1l0,0C3,12.55,3.45,13,4,13z M7,8L7,8c0,0.55,0.45,1,1,1h8c0.55,0,1-0.45,1-1l0,0 c0-0.55-0.45-1-1-1H8C7.45,7,7,7.45,7,8z M3,4L3,4c0,0.55,0.45,1,1,1h16c0.55,0,1-0.45,1-1l0,0c0-0.55-0.45-1-1-1H4 C3.45,3,3,3.45,3,4z"/></g></g></g></svg>