<?xml version="1.0" encoding="utf-8"?>
<!-- Generator: Adobe Illustrator 23.0.3, SVG Export Plug-In . SVG Version: 6.00 Build 0)  -->
<svg version="1.1" xmlns="http://www.w3.org/2000/svg" xmlns:xlink="http://www.w3.org/1999/xlink" x="0px" y="0px" width="24px"
	 height="24px" viewBox="0 0 24 24" enable-background="new 0 0 24 24" xml:space="preserve">
<g id="Bounding_Box">
	<rect fill="none" width="24" height="24"/>
</g>
<g id="Master">
	<g>
		<rect x="11" y="11" opacity="0.3" width="5" height="5"/>
		<rect x="4" y="11" opacity="0.3" width="5" height="5"/>
		<rect x="4" y="4" opacity="0.3" width="12" height="5"/>
		<path d="M20,6v14H6v2h14c1.1,0,2-0.9,2-2V6H20z"/>
		<path d="M18,16V4c0-1.1-0.9-2-2-2H4C2.9,2,2,2.9,2,4v12c0,1.1,0.9,2,2,2h12C17.1,18,18,17.1,18,16z M4,4h12v5H4V4z M9,16H4v-5h5
			V16z M11,11h5v5h-5V11z"/>
	</g>
</g>
</svg>
