<svg xmlns="http://www.w3.org/2000/svg" enable-background="new 0 0 24 24" height="24" viewBox="0 0 24 24" width="24"><g><rect fill="none" height="24" width="24"/></g><g><g><path d="M12,4c-4.41,0-8,3.59-8,8s3.59,8,8,8s8-3.59,8-8S16.41,4,12,4z M13,15H9v2.5 L5.5,14L9,10.5V13h4V15z M15,13.5V11h-4V9h4V6.5l3.5,3.5L15,13.5z" enable-background="new" opacity=".3"/><path d="M12,2C6.48,2,2,6.48,2,12s4.48,10,10,10s10-4.48,10-10S17.52,2,12,2z M12,20c-4.41,0-8-3.59-8-8s3.59-8,8-8s8,3.59,8,8 S16.41,20,12,20z M15,6.5V9h-4v2h4v2.5l3.5-3.5L15,6.5z M9,10.5L5.5,14L9,17.5V15h4v-2H9V10.5z"/></g></g></svg>