<svg xmlns="http://www.w3.org/2000/svg" enable-background="new 0 0 24 24" height="24" viewBox="0 0 24 24" width="24"><g><rect fill="none" height="24" width="24"/></g><g><g><g><path d="M12,4c-4.41,0-8,3.59-8,8s3.59,8,8,8s8-3.59,8-8S16.41,4,12,4z M17,13h-4v4 h-2v-4H7v-2h4V7h2v4h4V13z" enable-background="new" opacity=".3"/><polygon points="13,7 11,7 11,11 7,11 7,13 11,13 11,17 13,17 13,13 17,13 17,11 13,11"/><path d="M12,2C6.48,2,2,6.48,2,12s4.48,10,10,10s10-4.48,10-10S17.52,2,12,2z M12,20c-4.41,0-8-3.59-8-8s3.59-8,8-8s8,3.59,8,8 S16.41,20,12,20z"/></g></g></g></svg>