<svg xmlns="http://www.w3.org/2000/svg" enable-background="new 0 0 24 24" height="24" viewBox="0 0 24 24" width="24"><g><rect fill="none" height="24" width="24" y="0"/></g><g><g><rect height="2" width="2" x="14" y="18"/><rect height="2" width="2" x="8" y="4"/><rect height="6" width="10" x="12" y="4"/><polygon points="20,18 20,18 18,18 18,20 22,20 22,16 20,16"/><rect height="2" width="2" x="10" y="18"/><rect height="2" width="2" x="20" y="12"/><rect height="2" width="2" x="2" y="14"/><rect height="2" width="2" x="2" y="10"/><rect height="2" width="2" x="2" y="18"/><polygon points="6,4 2,4 2,8 4,8 4,6 6,6"/><rect height="2" width="2" x="6" y="18"/></g></g></svg>