<?xml version="1.0" encoding="utf-8"?>
<!-- Generator: Adobe Illustrator 23.0.1, SVG Export Plug-In . SVG Version: 6.00 Build 0)  -->
<svg version="1.1" xmlns="http://www.w3.org/2000/svg" xmlns:xlink="http://www.w3.org/1999/xlink" x="0px" y="0px" width="24px"
	 height="24px" viewBox="0 0 24 24" enable-background="new 0 0 24 24" xml:space="preserve">
<g id="Bounding_Box">
	<rect fill="none" width="24" height="24"/>
</g>
<g id="Master">
	<g>
		<path d="M20,5H4L2,19h4l3-3h6l3,3h4L20,5z M11,11H9v2H8v-2H6v-1h2V8h1v2h2V11z M15,10c-0.55,0-1-0.45-1-1c0-0.55,0.45-1,1-1
			s1,0.45,1,1C16,9.55,15.55,10,15,10z M17,13c-0.55,0-1-0.45-1-1c0-0.55,0.45-1,1-1s1,0.45,1,1C18,12.55,17.55,13,17,13z"/>
	</g>
</g>
</svg>
