<svg xmlns="http://www.w3.org/2000/svg" enable-background="new 0 0 24 24" height="24" viewBox="0 0 24 24" width="24"><g><rect fill="none" height="24" width="24"/></g><g><path d="M16.11,7l-0.59-0.65L14.28,5h-4.24L8.81,6.35L8.21,7H4v12h7v-1.09 C8.17,17.43,6,14.97,6,12h2c0,2.21,1.79,4,4,4s4-1.79,4-4h2c0,2.97-2.17,5.43-5,5.91V19h7V7H16.11z M14,12c0,1.1-0.9,2-2,2 s-2-0.9-2-2V8c0-1.1,0.9-2,2-2s2,0.9,2,2V12z" enable-background="new" opacity=".3"/><path d="M12,6c-1.1,0-2,0.9-2,2v4c0,1.1,0.9,2,2,2s2-0.9,2-2V8C14,6.9,13.1,6,12,6z M20,5h-3.17l-1.86-2H8.96L7.17,5H4 C2.9,5,2,5.9,2,7v12c0,1.1,0.9,2,2,2h16c1.1,0,2-0.9,2-2V7C22,5.9,21.1,5,20,5z M20,19h-7v-1.09c2.83-0.48,5-2.94,5-5.91h-2 c0,2.21-1.79,4-4,4s-4-1.79-4-4H6c0,2.97,2.17,5.43,5,5.91V19H4V7h4.21L8.8,6.35L10.04,5h4.24l1.24,1.35L16.11,7H20V19z"/></g></svg>