<svg xmlns="http://www.w3.org/2000/svg" enable-background="new 0 0 24 24" height="24" viewBox="0 0 24 24" width="24"><g><path d="M0,0h24v24H0V0z" fill="none"/></g><g><g><path d="M20,4H4C2.9,4,2,4.9,2,6v12c0,1.1,0.9,2,2,2h16c1.1,0,2-0.9,2-2V6C22,4.9,21.1,4,20,4z M20,18H4V6h16V18z"/><path d="M6,12c0.55,0,1-0.45,1-1V9h2c0.55,0,1-0.45,1-1S9.55,7,9,7H6C5.45,7,5,7.45,5,8v3C5,11.55,5.45,12,6,12z"/><path d="M15,17h3c0.55,0,1-0.45,1-1v-3c0-0.55-0.45-1-1-1s-1,0.45-1,1v2h-2c-0.55,0-1,0.45-1,1S14.45,17,15,17z"/></g></g></svg>