<svg xmlns="http://www.w3.org/2000/svg" enable-background="new 0 0 24 24" height="24" viewBox="0 0 24 24" width="24"><g><rect fill="none" height="24" width="24"/></g><g><g><path d="M17.8,2.8C16,2.09,13.86,2,12,2S8,2.09,6.2,2.8C3.53,3.84,2,6.05,2,8.86V22h20V8.86C22,6.05,20.47,3.84,17.8,2.8z M18,15.5c0,1.5-1.11,2.73-2.55,2.95l1.05,1.05V20h-1.62l-1.5-1.5h-2.75L9.12,20H7.5v-0.5l1.05-1.05C7.11,18.23,6,17,6,15.5V9 c0-2.62,3-3,6-3c3.32,0,6,0.38,6,3V15.5z"/><circle cx="8.5" cy="15.5" r="1"/><rect height="4" width="9" x="7.5" y="9"/><circle cx="15.5" cy="15.5" r="1"/></g></g></svg>