<svg xmlns="http://www.w3.org/2000/svg" enable-background="new 0 0 24 24" height="24" viewBox="0 0 24 24" width="24"><g><rect fill="none" height="24" width="24"/></g><g><g><polygon opacity=".3" points="10.62,18.5 9.12,20 14.88,20 13.38,18.5"/><path d="M17.07,4.66C15.59,4.08,13.68,4,12,4S8.41,4.08,6.93,4.66C5.01,5.41,4,6.86,4,8.86V20h3.5v-0.5l1.05-1.05 C7.11,18.23,6,17,6,15.5V9c0-2.62,3-3,6-3c3.32,0,6,0.38,6,3v6.5c0,1.5-1.11,2.73-2.55,2.95l1.05,1.05V20H20V8.86 C20,6.86,18.99,5.41,17.07,4.66z" opacity=".3"/><path d="M17.8,2.8C16,2.09,13.86,2,12,2S8,2.09,6.2,2.8C3.53,3.84,2,6.05,2,8.86V22h20V8.86C22,6.05,20.47,3.84,17.8,2.8z M9.12,20l1.5-1.5h2.75l1.5,1.5H9.12z M7.5,13V9h9v4H7.5z M16.5,15.5c0,0.55-0.45,1-1,1s-1-0.45-1-1s0.45-1,1-1 S16.5,14.95,16.5,15.5z M8.5,14.5c0.55,0,1,0.45,1,1s-0.45,1-1,1s-1-0.45-1-1S7.95,14.5,8.5,14.5z M20,20h-3.5v-0.5l-1.05-1.05 C16.89,18.23,18,17,18,15.5V9c0-2.62-2.68-3-6-3C9,6,6,6.38,6,9v6.5c0,1.5,1.11,2.73,2.55,2.95L7.5,19.5V20H4V8.86 c0-2,1.01-3.45,2.93-4.2C8.41,4.08,10.32,4,12,4s3.59,0.08,5.07,0.66C18.99,5.41,20,6.86,20,8.86V20z"/></g></g></svg>