<svg xmlns="http://www.w3.org/2000/svg" enable-background="new 0 0 24 24" height="24" viewBox="0 0 24 24" width="24"><g><rect fill="none" height="24" width="24"/></g><g><g><path d="M18.48,9.87l0.26-2.8L16,6.45l-1.43-2.42L12,5.14L9.42,4.03L7.99,6.45 L5.25,7.07l0.27,2.8L3.67,12l1.85,2.12l-0.26,2.81L8,17.55l1.43,2.41L12,18.85l2.58,1.11l1.43-2.42l2.74-0.62l-0.26-2.8l1.84-2.13 L18.48,9.87z M13,17h-2v-2h2V17z M13,13h-2V7h2V13z" enable-background="new" opacity=".3"/><rect height="2" width="2" x="11" y="15"/><rect height="6" width="2" x="11" y="7"/><path d="M23,11.99L20.56,9.2l0.34-3.69l-3.61-0.82L15.4,1.5L12,2.96L8.6,1.5L6.71,4.69L3.1,5.5l0.34,3.7L1,11.99l2.44,2.79 l-0.34,3.7l3.61,0.82l1.89,3.2l3.4-1.47l3.4,1.46l1.89-3.19l3.61-0.82l-0.34-3.69L23,11.99z M18.75,16.92l-2.74,0.62l-1.43,2.42 L12,18.85l-2.57,1.11L8,17.55l-2.74-0.62l0.26-2.81L3.67,12l1.85-2.13l-0.27-2.8l2.74-0.62l1.43-2.42L12,5.14l2.57-1.11L16,6.45 l2.74,0.62l-0.26,2.8l1.85,2.12l-1.84,2.13L18.75,16.92z"/></g></g></svg>