<svg xmlns="http://www.w3.org/2000/svg" enable-background="new 0 0 24 24" height="24" viewBox="0 0 24 24" width="24"><g><path d="M0,0h24v24H0V0z" fill="none"/></g><g><g><circle cx="7.5" cy="17.5" r="1.5"/><circle cx="7.5" cy="7.5" r="1.5"/><path d="M20,3H4C3.45,3,3,3.45,3,4v7c0,0.55,0.45,1,1,1h16c0.55,0,1-0.45,1-1V4C21,3.45,20.55,3,20,3z M19,10H5V5h14V10z"/><path d="M20,13H4c-0.55,0-1,0.45-1,1v7c0,0.55,0.45,1,1,1h16c0.55,0,1-0.45,1-1v-7C21,13.45,20.55,13,20,13z M19,20H5v-5h14V20z"/></g></g></svg>