<svg xmlns="http://www.w3.org/2000/svg" enable-background="new 0 0 24 24" height="24" viewBox="0 0 24 24" width="24"><g><rect fill="none" height="24" width="24"/></g><g><g><path d="M18.1,3.89c-1.54-1.53-4.61-1.05-6.72,1.06c-2.11,2.11-2.59,5.19-1.06,6.72c1.54,1.53,4.61,1.05,6.72-1.06 C19.15,8.5,19.63,5.42,18.1,3.89z" opacity=".3"/><path d="M18,17c-0.53,0-1.04,0.21-1.41,0.58c-0.78,0.78-0.78,2.05,0,2.83C16.96,20.79,17.47,21,18,21 c0.53,0,1.04-0.21,1.41-0.58c0.78-0.78,0.78-2.05,0-2.83C19.04,17.21,18.53,17,18,17z" opacity=".3"/><path d="M20.83,16.17C20.05,15.39,19.02,15,18,15s-2.05,0.39-2.83,1.17c-1.56,1.56-1.56,4.09,0,5.66C15.95,22.61,16.98,23,18,23 s2.05-0.39,2.83-1.17C22.39,20.27,22.39,17.74,20.83,16.17z M19.41,20.42C19.04,20.79,18.53,21,18,21c-0.53,0-1.04-0.21-1.41-0.59 c-0.78-0.78-0.78-2.05,0-2.83C16.96,17.21,17.47,17,18,17c0.53,0,1.04,0.21,1.41,0.59C20.19,18.37,20.19,19.64,19.41,20.42z"/><path d="M19.52,2.49c-2.34-2.34-6.62-1.87-9.55,1.06c-1.6,1.6-2.52,3.87-2.54,5.46c-0.02,1.58,0.26,3.89-1.35,5.5L2,18.58L3.42,20 l4.08-4.08c1.61-1.61,3.92-1.33,5.5-1.35s3.86-0.94,5.46-2.54C21.38,9.11,21.86,4.83,19.52,2.49z M10.32,11.67 c-1.53-1.53-1.05-4.61,1.06-6.72c2.11-2.11,5.18-2.59,6.72-1.06c1.53,1.53,1.05,4.61-1.06,6.72 C14.93,12.72,11.86,13.2,10.32,11.67z"/></g></g></svg>