<svg xmlns="http://www.w3.org/2000/svg" enable-background="new 0 0 24 24" height="24" viewBox="0 0 24 24" width="24"><g><rect fill="none" height="24" width="24"/></g><g><g><path d="M3,19c0,1.1,0.9,2,2,2h8V11H3V19z M6.12,16.17L7.5,18l1.88-2.5L12,19H4L6.12,16.17z"/><path d="M5,3C4,3,3,4,3,5h2V3z"/><rect height="2" width="2" x="3" y="7"/><path d="M19,3v2h2C21,4,20,3,19,3z"/><rect height="2" width="2" x="7" y="3"/><rect height="2" width="2" x="11" y="3"/><rect height="2" width="2" x="19" y="15"/><rect height="2" width="2" x="19" y="7"/><rect height="2" width="2" x="19" y="11"/><path d="M19,21c1,0,2-1,2-2h-2V21z"/><rect height="2" width="2" x="15" y="19"/><rect height="2" width="2" x="15" y="3"/></g></g></svg>