<?xml version="1.0" encoding="utf-8"?>
<!-- Generator: Adobe Illustrator 23.0.1, SVG Export Plug-In . SVG Version: 6.00 Build 0)  -->
<svg version="1.1" xmlns="http://www.w3.org/2000/svg" xmlns:xlink="http://www.w3.org/1999/xlink" x="0px" y="0px" width="24px"
	 height="24px" viewBox="0 0 24 24" enable-background="new 0 0 24 24" xml:space="preserve">
<g id="Bounding_Box">
	<rect fill="none" width="24" height="24"/>
</g>
<g id="Master">
	<path d="M2,2v20h20V2H2z M13.2,13.74c-0.08-0.46-0.07-0.85,0.08-1.28c0.54,1.21,2.15,1.64,1.98,3.18
		c-0.19,1.69-2.11,2.37-3.39,1.32c0.76-0.24,1.4-1.04,1.53-1.63C13.52,14.78,13.29,14.29,13.2,13.74z M20,20h-2v-2h-2.02
		c0.63-0.84,1.02-1.87,1.02-3c0-1.89-1.09-2.85-1.85-3.37C12.2,9.61,13,7,13,7c-6.73,3.57-6.02,7.47-6,8c0.03,0.96,0.49,2.07,1.23,3
		H6v2H4V4h16V20z"/>
</g>
</svg>
