<svg xmlns="http://www.w3.org/2000/svg" enable-background="new 0 0 24 24" height="24" viewBox="0 0 24 24" width="24"><g><path d="M0,0h24v24H0V0z" fill="none"/></g><g><g><g><g><path d="M13.99,5h-0.04c-0.81,0-1.29,0.92-0.81,1.58L17,12l-3.87,5.42c-0.47,0.66,0,1.58,0.81,1.58h0.04 c0.32,0,0.63-0.16,0.81-0.42l4.29-6c0.25-0.35,0.25-0.81,0-1.16l-4.29-6C14.61,5.16,14.31,5,13.99,5z"/><path d="M7.99,5H7.94C7.13,5,6.66,5.92,7.13,6.58L11,12l-3.87,5.42C6.66,18.08,7.13,19,7.94,19h0.04c0.32,0,0.63-0.16,0.81-0.42 l4.29-6c0.25-0.35,0.25-0.81,0-1.16l-4.29-6C8.61,5.16,8.31,5,7.99,5z"/></g></g></g></g></svg>