<svg xmlns="http://www.w3.org/2000/svg" enable-background="new 0 0 24 24" height="24" viewBox="0 0 24 24" width="24"><g><rect fill="none" height="24" width="24" y="0"/></g><g><g><path d="M7,20h10V4H7V20z M12,5c1.1,0,2,0.9,2,2s-0.9,2-2,2c-1.11,0-2-0.9-2-2 S10.89,5,12,5z M12,11c2.21,0,4,1.79,4,4s-1.79,4-4,4s-4-1.79-4-4S9.79,11,12,11z" enable-background="new" opacity=".3"/><path d="M17,2H7C5.9,2,5,2.9,5,4v16c0,1.1,0.9,1.99,2,1.99L17,22c1.1,0,2-0.9,2-2V4C19,2.9,18.1,2,17,2z M17,20H7V4h10V20z M12,9 c1.1,0,2-0.9,2-2s-0.9-2-2-2c-1.11,0-2,0.9-2,2S10.89,9,12,9z M12,19c2.21,0,4-1.79,4-4s-1.79-4-4-4s-4,1.79-4,4S9.79,19,12,19z M12,13c1.1,0,2,0.9,2,2s-0.9,2-2,2s-2-0.9-2-2S10.9,13,12,13z"/></g></g></svg>