<svg xmlns="http://www.w3.org/2000/svg" enable-background="new 0 0 24 24" height="24" viewBox="0 0 24 24" width="24"><g><path d="M0,0h24v24H0V0z" fill="none"/></g><g><g><g><path d="M5.35,5.64C4.45,5,4.23,3.76,4.86,2.85c0.63-0.9,1.88-1.12,2.79-0.49C8.55,3,8.77,4.24,8.14,5.15 C7.5,6.05,6.26,6.27,5.35,5.64z M16,19H8.93c-1.48,0-2.74-1.08-2.96-2.54L4,7H2l1.99,9.76C4.37,19.2,6.47,21,8.94,21H16V19z M15.54,15h-4.19l-1.03-4.1c1.58,0.89,3.28,1.54,5.15,1.22V9.99c-2.82,0.54-4.76-1.3-6.33-2.52C8.83,7.23,8.16,6.89,7.39,7.03 H7.37C6.14,7.25,5.32,8.42,5.53,9.64l1.35,5.92C7.16,16.98,8.39,18,9.83,18h6.85l3.82,3l1.5-1.5l-5.23-4.08 C16.42,15.15,15.99,15,15.54,15z"/></g></g></g></svg>