<?xml version="1.0" encoding="utf-8"?>
<!-- Generator: Adobe Illustrator 23.0.4, SVG Export Plug-In . SVG Version: 6.00 Build 0)  -->
<svg version="1.1" id="ic_x5F_weekend_x5F_24px" xmlns="http://www.w3.org/2000/svg" xmlns:xlink="http://www.w3.org/1999/xlink"
	 x="0px" y="0px" width="24px" height="24px" viewBox="0 0 24 24" enable-background="new 0 0 24 24" xml:space="preserve">
<g id="ic_x5F_weekend_x5F_24px_1_">
	<rect fill="none" width="24" height="24"/>
	<path d="M21,10c-1.1,0-2,0.9-2,2v3H5v-3c0-1.1-0.89-2-2-2s-2,0.9-2,2v5c0,1.1,0.9,2,2,2h18c1.1,0,2-0.9,2-2v-5
		C23,10.9,22.1,10,21,10z M18,5H6C4.9,5,4,5.9,4,7v2.15c1.16,0.41,2,1.52,2,2.81V14h12v-2.03c0-1.3,0.84-2.4,2-2.81V7
		C20,5.9,19.1,5,18,5z"/>
</g>
</svg>
