<svg xmlns="http://www.w3.org/2000/svg" enable-background="new 0 0 24 24" height="24" viewBox="0 0 24 24" width="24"><g><rect fill="none" height="24" width="24"/></g><g><g><g><path d="M11,21h2v-2h-2V21z M11,17h2v-2h-2V17z M11,5h2V3h-2V5z M11,9h2V7h-2V9z M11,13h2v-2h-2V13z M7,21h2v-2H7V21z M7,5h2V3H7 V5z M7,13h2v-2H7V13z M4,21L4,21c0.55,0,1-0.45,1-1V4c0-0.55-0.45-1-1-1l0,0C3.45,3,3,3.45,3,4v16C3,20.55,3.45,21,4,21z M19,9h2 V7h-2V9z M15,21h2v-2h-2V21z M19,17h2v-2h-2V17z M19,3v2h2V3H19z M19,13h2v-2h-2V13z M19,21h2v-2h-2V21z M15,13h2v-2h-2V13z M15,5h2V3h-2V5z"/></g></g></g></svg>