<svg xmlns="http://www.w3.org/2000/svg" enable-background="new 0 0 24 24" height="24" viewBox="0 0 24 24" width="24"><g><rect fill="none" height="24" width="24" y="0"/></g><g><g><g><path d="M4.94,7.26l2.21,2.21c1.44-0.91,3.11-1.4,4.85-1.4s3.41,0.49,4.84,1.4 l2.21-2.21C17,5.79,14.56,5,12,5S6.99,5.79,4.94,7.26z" enable-background="new" opacity=".3"/><circle cx="12" cy="17" enable-background="new" opacity=".3" r="3"/><path d="M17,17c0-2.76-2.24-5-5-5s-5,2.24-5,5s2.24,5,5,5S17,19.76,17,17z M9,17c0-1.65,1.35-3,3-3s3,1.35,3,3s-1.35,3-3,3 S9,18.65,9,17z"/><path d="M2,7.15l5,5c1.28-1.28,3.05-2.08,5-2.08s3.72,0.79,5,2.07l5-5C19.44,4.59,15.9,3,12,3S4.56,4.59,2,7.15z M16.84,9.47 c-1.44-0.91-3.1-1.4-4.84-1.4S8.59,8.56,7.15,9.48L4.94,7.26C6.99,5.79,9.44,5,12,5s5,0.79,7.05,2.26L16.84,9.47z"/></g></g></g></svg>