<svg xmlns="http://www.w3.org/2000/svg" enable-background="new 0 0 24 24" height="24" viewBox="0 0 24 24" width="24"><g><rect fill="none" height="24" width="24"/></g><g><g><path d="M4,17.17L5.17,16H20V4H4V17.17z M18,14h-7.5l2-2H18V14z M6,11.53l5.88-5.88 c0.2-0.2,0.51-0.2,0.71,0l1.77,1.77c0.2,0.2,0.19,0.51,0,0.71L8.47,14H6V11.53z" enable-background="new" opacity=".3"/><path d="M20,2H4C2.9,2,2.01,2.9,2.01,4L2,22l4-4h14c1.1,0,2-0.9,2-2V4C22,2.9,21.1,2,20,2z M20,16H5.17L4,17.17V4h16V16z"/><polygon points="10.5,14 18,14 18,12 12.5,12"/><path d="M14.35,8.13c0.2-0.2,0.2-0.51,0-0.71l-1.77-1.77c-0.2-0.2-0.51-0.2-0.71,0L6,11.53V14h2.47L14.35,8.13z"/></g></g></svg>