<svg xmlns="http://www.w3.org/2000/svg" enable-background="new 0 0 24 24" height="24" viewBox="0 0 24 24" width="24"><g><path d="M0,0h24v24H0V0z" fill="none"/></g><g><g><g><path d="M20,3H4C2.9,3,2,3.9,2,5v12c0,1.1,0.9,2,2,2h4v1c0,0.55,0.45,1,1,1h6c0.55,0,1-0.45,1-1v-1h4c1.1,0,2-0.9,2-2V5 C22,3.9,21.1,3,20,3z M20,17H4V5h16V17z M17,8h-7C9.45,8,9,8.45,9,9v0c0,0.55,0.45,1,1,1h7c0.55,0,1-0.45,1-1v0 C18,8.45,17.55,8,17,8z M17,12h-7c-0.55,0-1,0.45-1,1v0c0,0.55,0.45,1,1,1h7c0.55,0,1-0.45,1-1v0C18,12.45,17.55,12,17,12z"/></g><circle cx="7" cy="9" r="1"/><circle cx="7" cy="13" r="1"/></g></g></svg>