<svg xmlns="http://www.w3.org/2000/svg" enable-background="new 0 0 24 24" height="24" viewBox="0 0 24 24" width="24"><g><path d="M0,0h24v24H0V0z" fill="none"/></g><g><g><path d="M4,17h16V5H4V17z M9,8h9v2H9V8z M9,12h9v2H9V12z M6,8h2v2H6V8z M6,12h2v2H6V12z" opacity=".3"/><rect height="2" width="2" x="6" y="12"/><path d="M20,3H4C2.9,3,2,3.9,2,5v12c0,1.1,0.9,2,2,2h4v2h8v-2h4c1.1,0,2-0.9,2-2V5C22,3.9,21.1,3,20,3z M20,17H4V5h16V17z"/><rect height="2" width="2" x="6" y="8"/><rect height="2" width="9" x="9" y="12"/><rect height="2" width="9" x="9" y="8"/></g></g></svg>