<svg xmlns="http://www.w3.org/2000/svg" enable-background="new 0 0 24 24" height="24" viewBox="0 0 24 24" width="24"><g><rect fill="none" height="24" width="24"/></g><g><g><path d="M12,2c-1.18,0-2.31,0.22-3.37,0.59l0.68,1.89C10.15,4.17,11.05,4,12,4c4.41,0,8,3.59,8,8s-3.59,8-8,8s-8-3.59-8-8 c0-0.95,0.17-1.86,0.48-2.7L2.6,8.62C2.22,9.68,2,10.81,2,12c0,5.52,4.48,10,10,10s10-4.48,10-10S17.52,2,12,2z"/><circle cx="5.5" cy="5.5" r="1.5"/><rect height="6" width="2" x="9" y="9"/><rect height="6" width="2" x="13" y="9"/></g></g></svg>