<svg xmlns="http://www.w3.org/2000/svg" enable-background="new 0 0 24 24" height="24" viewBox="0 0 24 24" width="24"><g><path d="M0,0h24v24H0V0z" fill="none"/></g><g><path d="M14.59,2.59C14.21,2.21,13.7,2,13.17,2H6C4.9,2,4,2.9,4,4v16c0,1.1,0.89,2,1.99,2H18c1.1,0,2-0.9,2-2V8.83 c0-0.53-0.21-1.04-0.59-1.41L14.59,2.59z M15,18H9c-0.55,0-1-0.45-1-1s0.45-1,1-1h6c0.55,0,1,0.45,1,1S15.55,18,15,18z M15,14H9 c-0.55,0-1-0.45-1-1s0.45-1,1-1h6c0.55,0,1,0.45,1,1S15.55,14,15,14z M13,8V3.5L18.5,9H14C13.45,9,13,8.55,13,8z"/></g></svg>