<svg xmlns="http://www.w3.org/2000/svg" enable-background="new 0 0 24 24" height="24" viewBox="0 0 24 24" width="24"><g><rect fill="none" height="24" width="24"/></g><g><g><g><path d="M14,1h-4C9.45,1,9,1.45,9,2v0c0,0.55,0.45,1,1,1h4c0.55,0,1-0.45,1-1v0C15,1.45,14.55,1,14,1z M12,14L12,14 c0.55,0,1-0.45,1-1V9c0-0.55-0.45-1-1-1h0c-0.55,0-1,0.45-1,1v4C11,13.55,11.45,14,12,14z M19.03,7.39l0.75-0.75 c0.38-0.38,0.39-1.01,0-1.4c0,0-0.01-0.01-0.01-0.01c-0.39-0.39-1.01-0.38-1.4,0l-0.75,0.75C16.07,4.74,14.12,4,12,4 c-4.8,0-8.88,3.96-9,8.76C2.87,17.84,6.94,22,12,22c4.98,0,9-4.03,9-9C21,10.88,20.26,8.93,19.03,7.39z M12,20 c-3.87,0-7-3.13-7-7s3.13-7,7-7s7,3.13,7,7S15.87,20,12,20z"/></g></g></g></svg>