<svg xmlns="http://www.w3.org/2000/svg" enable-background="new 0 0 24 24" height="24" viewBox="0 0 24 24" width="24"><g><rect fill="none" height="24" width="24"/></g><g><path d="M20.54,5.23l-1.39-1.68C18.88,3.21,18.47,3,18,3H6C5.53,3,5.12,3.21,4.84,3.55L3.46,5.23C3.17,5.57,3,6.02,3,6.5V19 c0,1.1,0.9,2,2,2h14c1.1,0,2-0.9,2-2V6.5C21,6.02,20.83,5.57,20.54,5.23z M15.15,14.85l-2.79,2.79c-0.2,0.2-0.51,0.2-0.71,0 l-2.79-2.79C8.54,14.54,8.76,14,9.21,14H11v-3c0-0.55,0.45-1,1-1s1,0.45,1,1v3h1.79C15.24,14,15.46,14.54,15.15,14.85z M5.12,5 l0.81-1h12l0.94,1H5.12z"/></g></svg>