<svg xmlns="http://www.w3.org/2000/svg" enable-background="new 0 0 24 24" height="24" viewBox="0 0 24 24" width="24"><g><rect fill="none" height="24" width="24"/></g><g><path d="M21.15,7.35L18,10.48V6c0-1.1-0.9-2-2-2H4C2.9,4,2,4.9,2,6v12c0,1.1,0.9,2,2,2h12c1.1,0,2-0.9,2-2v-4.48l3.15,3.13 C21.46,16.97,22,16.74,22,16.3V7.7C22,7.26,21.46,7.03,21.15,7.35z M13,13h-2v2c0,0.55-0.45,1-1,1h0c-0.55,0-1-0.45-1-1v-2H7 c-0.55,0-1-0.45-1-1v0c0-0.55,0.45-1,1-1h2V9c0-0.55,0.45-1,1-1h0c0.55,0,1,0.45,1,1v2h2c0.55,0,1,0.45,1,1v0 C14,12.55,13.55,13,13,13z"/></g></svg>