<svg xmlns="http://www.w3.org/2000/svg" enable-background="new 0 0 24 24" height="24" viewBox="0 0 24 24" width="24"><g><rect fill="none" height="24" width="24"/></g><g><g><path d="M9.17,6H4v12h16V8h-8.83L9.17,6z M14.91,9.19L15.82,12h2.84l-2.32,1.84 l0.88,2.85l-2.32-1.76l-2.32,1.76l0.88-2.85L11.16,12H14L14.91,9.19z" enable-background="new" opacity=".3"/><path d="M20,6h-8l-2-2H4C2.9,4,2,4.9,2,6v12c0,1.1,0.9,2,2,2h16c1.1,0,2-0.9,2-2V8C22,6.9,21.1,6,20,6z M20,18H4V6h5.17l2,2H20V18 z"/><polygon points="13.47,13.84 12.59,16.69 14.91,14.93 17.22,16.69 16.34,13.84 18.66,12 15.82,12 14.91,9.19 14,12 11.16,12"/></g></g></svg>