<?xml version="1.0" encoding="utf-8"?>
<!-- Generator: Adobe Illustrator 23.0.3, SVG Export Plug-In . SVG Version: 6.00 Build 0)  -->
<svg version="1.1" xmlns="http://www.w3.org/2000/svg" xmlns:xlink="http://www.w3.org/1999/xlink" x="0px" y="0px" width="24px"
	 height="24px" viewBox="0 0 24 24" enable-background="new 0 0 24 24" xml:space="preserve">
<g id="Bounding_Box">
	<rect fill="none" width="24" height="24"/>
</g>
<g id="Master">
	<g>
		<polygon opacity="0.3" points="15.36,9 3.64,9 3.04,12 15.96,12 		"/>
		<rect x="2" y="4" width="15" height="2"/>
		<path d="M15,17h2v-3h1v-2l-1-5H2l-1,5v2h1v6h9v-6h4V17z M9,18H4v-4h5V18z M3.04,12l0.6-3h11.72l0.6,3H3.04z"/>
		<polygon points="20,18 20,15 18,15 18,18 15,18 15,20 18,20 18,23 20,23 20,20 23,20 23,18 		"/>
	</g>
</g>
</svg>
