<svg xmlns="http://www.w3.org/2000/svg" enable-background="new 0 0 24 24" height="24" viewBox="0 0 24 24" width="24"><g><rect fill="none" height="24" width="24"/></g><g><g><path d="M11.96,5.99c4.51,0.1,5.28,0.58,5.71,1.01H6.42C6.8,6.67,7.51,6.1,11.96,5.99 M17,1H7v1.5h4.75L11,4l0.03,0.01 C7.38,4.1,4,4.78,4,8v9.5C4,19.43,5.57,21,7.5,21L6,22.5V23h2l2-2h4l2,2h2v-0.5L16.5,21c1.93,0,3.5-1.57,3.5-3.5V8 c0-3.23-3.05-3.9-7-3.99l0.75-1.51H17V1L17,1z M6,12V9h12v3H6L6,12z M7.5,19C6.67,19,6,18.33,6,17.5V14h12v3.5 c0,0.83-0.67,1.5-1.5,1.5H7.5L7.5,19z"/><path d="M12,15c-0.83,0-1.5,0.67-1.5,1.5S11.17,18,12,18s1.5-0.67,1.5-1.5S12.83,15,12,15L12,15z"/></g></g></svg>