<svg xmlns="http://www.w3.org/2000/svg" enable-background="new 0 0 24 24" height="24" viewBox="0 0 24 24" width="24"><g><rect fill="none" height="24" width="24"/></g><g><g><g><path d="M14,2H6C4.9,2,4,2.9,4,4v16c0,1.1,0.89,2,1.99,2H18c1.1,0,2-0.9,2-2V8L14,2z M14.89,19.3l-1.73-1.73 c-1.51,0.81-3.47,0.46-4.55-1.1c-0.81-1.17-0.8-2.79,0.02-3.96c1.3-1.84,3.84-2,5.36-0.48c1.12,1.12,1.31,2.8,0.59,4.13 l1.73,1.73c0.39,0.39,0.39,1.02,0,1.41l0,0C15.91,19.68,15.27,19.68,14.89,19.3z M13,8V3.5L18.5,9H14C13.45,9,13,8.55,13,8z"/><circle cx="11.5" cy="14.5" r="1.5"/></g></g></g></svg>