<svg xmlns="http://www.w3.org/2000/svg" enable-background="new 0 0 24 24" height="24" viewBox="0 0 24 24" width="24"><g><rect fill="none" height="24" width="24" y="0"/></g><g><g><path d="M14.38,6.72c-0.15-0.15-0.39-0.15-0.54,0l-0.7,0.7l1.44,1.44l0.7-0.7c0.15-0.15,0.15-0.39,0-0.54L14.38,6.72z M12,2 c-4.2,0-8,3.22-8,8.2c0,3.32,2.67,7.25,8,11.8c5.33-4.55,8-8.48,8-11.8C20,5.22,16.2,2,12,2z M12,19.33c-4.05-3.7-6-6.79-6-9.14 C6,6.57,8.65,4,12,4s6,2.57,6,6.2C18,12.54,16.05,15.64,12,19.33z M8.5,12.06v1.44h1.44l3.92-3.93l-1.43-1.43L8.5,12.06z"/><path d="M12,4c-3.35,0-6,2.57-6,6.2c0,2.34,1.95,5.44,6,9.14c4.05-3.7,6-6.79,6-9.14 C18,6.57,15.35,4,12,4z M9.94,13.5H8.5v-1.44l3.93-3.92l1.43,1.43L9.94,13.5z M15.28,8.16l-0.7,0.7l-1.44-1.44l0.7-0.7 c0.15-0.15,0.39-0.15,0.54,0l0.9,0.9C15.43,7.77,15.43,8.01,15.28,8.16z" enable-background="new" opacity=".3"/></g></g></svg>