<svg xmlns="http://www.w3.org/2000/svg" enable-background="new 0 0 24 24" height="24" viewBox="0 0 24 24" width="24"><g><rect fill="none" height="24" width="24"/></g><g><g><circle cx="9.5" cy="3.5" r="2"/><path d="M9.55,10.4C10.85,12,12.8,13,15,13v-2c-1.85,0-3.45-1-4.35-2.45L9.7,6.95C9.35,6.35,8.7,6,8,6C7.75,6,7.5,6.05,7.25,6.15 L2,8.3V13h2V9.65L5.75,8.9L3,23h2.1l1.75-8L9,17v6h2v-7.55L8.95,13.4L9.55,10.4z"/><polygon points="16.87,15.5 17.56,14.82 16.49,13.75 16.49,13.76 16.49,13.75 14,16.25 16.49,18.75 16.49,18.74 16.49,18.75 17.56,17.68 16.87,17 22,17 22,15.5"/><polygon points="19.51,18.01 19.51,18.01 18.44,19.07 19.13,19.75 14,19.75 14,21.25 19.13,21.25 18.44,21.93 19.51,22.99 19.51,22.99 19.51,23 22,20.5 19.51,18"/></g></g></svg>