<svg xmlns="http://www.w3.org/2000/svg" enable-background="new 0 0 24 24" height="24" viewBox="0 0 24 24" width="24"><g><rect fill="none" height="24" width="24"/></g><g><g><path d="M5.98,9.49c0.52,0.19,1.09-0.08,1.28-0.6c0.19-0.52-0.08-1.09-0.6-1.28 c-0.52-0.19-1.09,0.08-1.28,0.6C5.2,8.72,5.47,9.3,5.98,9.49z" enable-background="new" opacity=".3"/><path d="M19.23,11.11l-6.58-2.39l-1.03,2.82l8.46,3.08l0.34-0.94 C20.8,12.64,20.26,11.49,19.23,11.11z" enable-background="new" opacity=".3"/><path d="M19.91,9.23l-8.46-3.08l-2.39,6.58l12.22,4.45l1.03-2.82C23.06,12.29,21.99,9.99,19.91,9.23z M20.42,13.68l-0.34,0.94 l-8.46-3.08l1.03-2.82l6.58,2.39C20.26,11.49,20.8,12.64,20.42,13.68z"/><rect height="20" transform="matrix(0.342 -0.9397 0.9397 0.342 -7.331 20.8105)" width="2" x="10.19" y="5.64"/><path d="M5.3,11.37c1.56,0.57,3.28-0.23,3.85-1.79S8.91,6.3,7.35,5.73C5.79,5.16,4.08,5.96,3.51,7.52 C2.94,9.08,3.74,10.8,5.3,11.37z M5.39,8.21c0.19-0.52,0.76-0.79,1.28-0.6c0.52,0.19,0.79,0.76,0.6,1.28 C7.08,9.41,6.5,9.68,5.98,9.49C5.47,9.3,5.2,8.72,5.39,8.21z"/></g></g></svg>