<svg xmlns="http://www.w3.org/2000/svg" enable-background="new 0 0 24 24" height="24" viewBox="0 0 24 24" width="24"><g><rect fill="none" height="24" width="24"/></g><g><g><g><path d="M16,11H8c-0.55,0-1,0.45-1,1l0,0c0,0.55,0.45,1,1,1h8c0.55,0,1-0.45,1-1l0,0C17,11.45,16.55,11,16,11z M19,4h-1V3 c0-0.55-0.45-1-1-1l0,0c-0.55,0-1,0.45-1,1v1H8V3c0-0.55-0.45-1-1-1l0,0C6.45,2,6,2.45,6,3v1H5C3.89,4,3,4.9,3,6v14 c0,1.1,0.89,2,2,2h14c1.1,0,2-0.9,2-2V6C21,4.9,20.1,4,19,4z M19,20H5V9h14V20z M13,15H8c-0.55,0-1,0.45-1,1l0,0 c0,0.55,0.45,1,1,1h5c0.55,0,1-0.45,1-1l0,0C14,15.45,13.55,15,13,15z"/></g></g></g></svg>