<svg xmlns="http://www.w3.org/2000/svg" enable-background="new 0 0 24 24" height="24" viewBox="0 0 24 24" width="24"><g><path d="M0,0h24v24H0V0z" fill="none"/></g><g><g><path d="M8,18c0.55,0,1-0.45,1-1V7c0-0.55-0.45-1-1-1S7,6.45,7,7v10C7,17.55,7.45,18,8,18z M12,22c0.55,0,1-0.45,1-1V3 c0-0.55-0.45-1-1-1s-1,0.45-1,1v18C11,21.55,11.45,22,12,22z M4,14c0.55,0,1-0.45,1-1v-2c0-0.55-0.45-1-1-1s-1,0.45-1,1v2 C3,13.55,3.45,14,4,14z M16,18c0.55,0,1-0.45,1-1V7c0-0.55-0.45-1-1-1s-1,0.45-1,1v10C15,17.55,15.45,18,16,18z M19,11v2 c0,0.55,0.45,1,1,1s1-0.45,1-1v-2c0-0.55-0.45-1-1-1S19,10.45,19,11z"/></g></g></svg>