<svg xmlns="http://www.w3.org/2000/svg" enable-background="new 0 0 24 24" height="24" viewBox="0 0 24 24" width="24"><g><path d="M0,0h24v24H0V0z" fill="none"/></g><g><g><path d="M12,4c-4.41,0-8,3.59-8,8s3.59,8,8,8s8-3.59,8-8S16.41,4,12,4z M8,16 c-1.1,0-2-0.9-2-2s0.9-2,2-2s2,0.9,2,2S9.1,16,8,16z M12,10c-1.1,0-2-0.9-2-2s0.9-2,2-2s2,0.9,2,2S13.1,10,12,10z M16,16 c-1.1,0-2-0.9-2-2s0.9-2,2-2s2,0.9,2,2S17.1,16,16,16z" enable-background="new" opacity=".3"/><path d="M12,2C6.48,2,2,6.48,2,12s4.48,10,10,10s10-4.48,10-10S17.52,2,12,2z M12,20c-4.41,0-8-3.59-8-8s3.59-8,8-8s8,3.59,8,8 S16.41,20,12,20z"/><circle cx="8" cy="14" r="2"/><circle cx="12" cy="8" r="2"/><circle cx="16" cy="14" r="2"/></g></g></svg>