<svg xmlns="http://www.w3.org/2000/svg" enable-background="new 0 0 24 24" height="24" viewBox="0 0 24 24" width="24"><g><rect fill="none" height="24" width="24"/></g><g><g><polygon points="11,20 7,20 13,23 13,21 17,21 11,18"/><path d="M18.92,2.01C18.72,1.42,18.16,1,17.5,1h-11C5.84,1,5.29,1.42,5.08,2.01L3,8v7.5C3,16.32,3.67,17,4.5,17S6,16.32,6,15.5V15 h12v0.5c0,0.82,0.67,1.5,1.5,1.5s1.5-0.68,1.5-1.5V8L18.92,2.01z M7.5,12C6.67,12,6,11.33,6,10.5S6.67,9,7.5,9S9,9.67,9,10.5 S8.33,12,7.5,12z M16.5,12c-0.83,0-1.5-0.67-1.5-1.5S15.67,9,16.5,9S18,9.67,18,10.5S17.33,12,16.5,12z M5.81,6l1.04-3h10.29 l1.04,3H5.81z"/></g></g></svg>