<svg xmlns="http://www.w3.org/2000/svg" enable-background="new 0 0 24 24" height="24" viewBox="0 0 24 24" width="24"><g><rect fill="none" height="24" width="24" y="0"/></g><g><g><g><g><path d="M7,17h10V7H7V17z M9,9h6v6H9V9z" enable-background="new" opacity=".3"/><path d="M21,11V9h-2V7c0-1.1-0.9-2-2-2h-2V3h-2v2h-2V3H9v2H7C5.9,5,5,5.9,5,7v2H3v2h2v2H3v2h2v2c0,1.1,0.9,2,2,2h2v2h2v-2h2v2h2 v-2h2c1.1,0,2-0.9,2-2v-2h2v-2h-2v-2H21z M17,17H7V7h10V17z"/><path d="M15,9H9v6h6V9z M13,13h-2v-2h2V13z"/></g></g></g></g></svg>