<svg xmlns="http://www.w3.org/2000/svg" enable-background="new 0 0 24 24" height="24" viewBox="0 0 24 24" width="24"><g><rect fill="none" height="24" width="24"/></g><g><g><g><g><polygon points="11.88,3 3,11.88 3,14.71 14.71,3"/><path d="M3,5v2l4-4H5C3.9,3,3,3.9,3,5z"/><path d="M19.51,3.08L3.08,19.51c0.09,0.34,0.27,0.65,0.51,0.9c0.25,0.24,0.56,0.42,0.9,0.51L20.93,4.49 C20.74,3.8,20.2,3.26,19.51,3.08z"/><polygon points="21,9.29 9.29,21 12.12,21 21,12.12"/><path d="M20.41,20.41C20.78,20.05,21,19.55,21,19v-2l-4,4h2C19.55,21,20.05,20.78,20.41,20.41z"/></g></g></g></g></svg>