<svg xmlns="http://www.w3.org/2000/svg" enable-background="new 0 0 24 24" height="24" viewBox="0 0 24 24" width="24"><g><rect fill="none" height="24" width="24" x="0" y="0"/></g><g><g><path d="M12,6c0-0.55-0.45-1-1-1H5.82l0.66-3.18L6.5,1.59c0-0.31-0.13-0.59-0.33-0.8L5.38,0L0.44,4.94C0.17,5.21,0,5.59,0,6v6.5 C0,13.33,0.67,14,1.5,14h6.75c0.62,0,1.15-0.38,1.38-0.91l2.26-5.29C11.96,7.63,12,7.44,12,7.25V6z M22.5,10h-6.75 c-0.62,0-1.15,0.38-1.38,0.91l-2.26,5.29C12.04,16.37,12,16.56,12,16.75V18c0,0.55,0.45,1,1,1h5.18l-0.66,3.18l-0.02,0.24 c0,0.31,0.13,0.59,0.33,0.8L18.62,24l4.94-4.94C23.83,18.79,24,18.41,24,18v-6.5C24,10.67,23.33,10,22.5,10z"/></g></g></svg>