<svg xmlns="http://www.w3.org/2000/svg" enable-background="new 0 0 24 24" height="24" viewBox="0 0 24 24" width="24"><g><rect fill="none" height="24" width="24"/><rect fill="none" height="24" width="24"/></g><g><g><path d="M22,7H11C9.39,7,7.93,7.64,6.85,8.67C6.51,7.7,5.59,7,4.5,7C3.12,7,2,8.12,2,9.5S3.12,12,4.5,12 c0.21,0,0.41-0.03,0.6-0.08C5.04,12.27,5,12.63,5,13c0,3.31,2.69,6,6,6s6-2.69,6-6c0-0.7,0-2,0-2h5V7z M3.5,9.5c0-0.55,0.45-1,1-1 s1,0.45,1,1s-0.45,1-1,1S3.5,10.05,3.5,9.5z M14.5,13c0,1.93-1.57,3.5-3.5,3.5S7.5,14.93,7.5,13S9.07,9.5,11,9.5 S14.5,11.07,14.5,13z"/><circle cx="11" cy="13" r="2"/></g></g></svg>