<svg xmlns="http://www.w3.org/2000/svg" enable-background="new 0 0 24 24" height="24" viewBox="0 0 24 24" width="24"><g><rect fill="none" height="24" width="24"/></g><g><g><g><g><circle cx="14" cy="10" r="1.5"/><circle cx="14" cy="18" r="1"/><circle cx="14" cy="14" r="1.5"/><circle cx="14" cy="6" r="1"/><path d="M3,9.5c-0.28,0-0.5,0.22-0.5,0.5s0.22,0.5,0.5,0.5s0.5-0.22,0.5-0.5S3.28,9.5,3,9.5z"/><path d="M14.5,3c0-0.28-0.22-0.5-0.5-0.5S13.5,2.72,13.5,3s0.22,0.5,0.5,0.5S14.5,3.28,14.5,3z"/><path d="M21,14.5c0.28,0,0.5-0.22,0.5-0.5s-0.22-0.5-0.5-0.5s-0.5,0.22-0.5,0.5S20.72,14.5,21,14.5z"/><circle cx="18" cy="18" r="1"/><path d="M13.5,21c0,0.28,0.22,0.5,0.5,0.5s0.5-0.22,0.5-0.5s-0.22-0.5-0.5-0.5S13.5,20.72,13.5,21z"/><path d="M21,10.5c0.28,0,0.5-0.22,0.5-0.5S21.28,9.5,21,9.5s-0.5,0.22-0.5,0.5S20.72,10.5,21,10.5z"/><circle cx="18" cy="14" r="1"/><circle cx="18" cy="6" r="1"/><circle cx="6" cy="18" r="1"/><circle cx="6" cy="14" r="1"/><path d="M3.5,14c0-0.28-0.22-0.5-0.5-0.5S2.5,13.72,2.5,14s0.22,0.5,0.5,0.5S3.5,14.28,3.5,14z"/><circle cx="10" cy="6" r="1"/><circle cx="6" cy="10" r="1"/><circle cx="6" cy="6" r="1"/><path d="M9.5,21c0,0.28,0.22,0.5,0.5,0.5s0.5-0.22,0.5-0.5s-0.22-0.5-0.5-0.5S9.5,20.72,9.5,21z"/><circle cx="10" cy="18" r="1"/><path d="M10.5,3c0-0.28-0.22-0.5-0.5-0.5S9.5,2.72,9.5,3S9.72,3.5,10,3.5S10.5,3.28,10.5,3z"/><circle cx="10" cy="14" r="1.5"/><circle cx="10" cy="10" r="1.5"/><circle cx="18" cy="10" r="1"/></g></g></g></g></svg>