<svg xmlns="http://www.w3.org/2000/svg" enable-background="new 0 0 24 24" height="24" viewBox="0 0 24 24" width="24"><g><rect fill="none" height="24" width="24"/></g><g><g><g><g><path d="M4,18h16V6H4V18z M14,10h2v2h-2V10z M14,14h2v2h-2V14z M10,10h2v2h-2V10z M6,10h2v2H6V10z" enable-background="new" opacity=".3"/><rect height="2" width="2" x="14" y="10"/><rect height="2" width="2" x="14" y="14"/><rect height="2" width="2" x="6" y="10"/><rect height="2" width="2" x="10" y="10"/><path d="M20,4H4C2.9,4,2,4.9,2,6v12c0,1.1,0.9,2,2,2h16c1.1,0,2-0.9,2-2V6C22,4.9,21.1,4,20,4z M20,18H4V6h16V18z"/></g></g></g></g></svg>