<?xml version="1.0" encoding="utf-8"?>
<!-- Generator: Adobe Illustrator 23.0.2, SVG Export Plug-In . SVG Version: 6.00 Build 0)  -->
<svg version="1.1" xmlns="http://www.w3.org/2000/svg" xmlns:xlink="http://www.w3.org/1999/xlink" x="0px" y="0px" width="24px"
	 height="24px" viewBox="0 0 24 24" enable-background="new 0 0 24 24" xml:space="preserve">
<g id="Bounding_Box">
	<rect fill="none" width="24" height="24"/>
</g>
<g id="Master">
	<g>
		<polygon opacity="0.3" points="16,16.5 12,12.5 8,16.5 8,20 16,20 		"/>
		<polygon opacity="0.3" points="16,16.5 12,12.5 8,16.5 8,20 16,20 		"/>
		<path d="M6,22h12v-6l-4-4l3.99-4.01L18,2H6l0.01,5.99L10,12l-4,3.99V22z M8,7.5V4h8v3.5l-4,4L8,7.5z M8,16.5l4-4l4,4V20H8V16.5z"
			/>
	</g>
</g>
</svg>
