<svg xmlns="http://www.w3.org/2000/svg" enable-background="new 0 0 24 24" height="24" viewBox="0 0 24 24" width="24"><g><path d="M0,0h24v24H0V0z" fill="none"/></g><g><g><g><g><path d="M18,9.52V6h-3.52L12,3.52L9.52,6H6v3.52L3.52,12L6,14.48V18h3.52L12,20.48L14.48,18H18v-3.52 L20.48,12L18,9.52z M12,18c-3.31,0-6-2.69-6-6s2.69-6,6-6s6,2.69,6,6S15.31,18,12,18z" fill-opacity=".3"/><path d="M20,8.69V4h-4.69L12,0.69L8.69,4H4v4.69L0.69,12L4,15.31V20h4.69L12,23.31L15.31,20H20v-4.69L23.31,12L20,8.69z M18,14.48V18h-3.52L12,20.48L9.52,18H6v-3.52L3.52,12L6,9.52V6h3.52L12,3.52L14.48,6H18v3.52L20.48,12L18,14.48z"/><path d="M12,6c-3.31,0-6,2.69-6,6s2.69,6,6,6s6-2.69,6-6S15.31,6,12,6z M12,16c-2.21,0-4-1.79-4-4s1.79-4,4-4s4,1.79,4,4 S14.21,16,12,16z"/><circle cx="12" cy="12" r="2.5"/></g></g></g></g></svg>