<svg xmlns="http://www.w3.org/2000/svg" enable-background="new 0 0 24 24" height="24" viewBox="0 0 24 24" width="24"><g><rect fill="none" height="24" width="24"/></g><g><g><path d="M8.85,11.85l2.79,2.79c0.2,0.2,0.51,0.2,0.71,0l2.79-2.79c0.32-0.31,0.09-0.85-0.35-0.85H13V5c0-0.55-0.45-1-1-1 s-1,0.45-1,1v6H9.21C8.76,11,8.54,11.54,8.85,11.85z"/><path d="M20,4h-4c-0.55,0-1,0.45-1,1s0.45,1,1,1h4v12H4V6h4c0.55,0,1-0.45,1-1S8.55,4,8,4H4C2.9,4,2,4.89,2,6v12c0,1.1,0.9,2,2,2 h16c1.1,0,2-0.9,2-2V6C22,4.9,21.1,4,20,4z"/></g></g></svg>