<?xml version="1.0" encoding="utf-8"?>
<!-- Generator: Adobe Illustrator 23.0.1, SVG Export Plug-In . SVG Version: 6.00 Build 0)  -->
<svg version="1.1" xmlns="http://www.w3.org/2000/svg" xmlns:xlink="http://www.w3.org/1999/xlink" x="0px" y="0px" width="24px"
	 height="24px" viewBox="0 0 24 24" enable-background="new 0 0 24 24" xml:space="preserve">
<g id="Bounding_Box">
	<rect fill="none" width="24" height="24"/>
	<rect fill="none" width="24" height="24"/>
</g>
<g id="Master">
	<path d="M23,12l-2.44-2.79l0.34-3.69l-3.61-0.82L15.4,1.5L12,2.96L8.6,1.5L6.71,4.69L3.1,5.5L3.44,9.2L1,12l2.44,2.79l-0.34,3.7
		l3.61,0.82L8.6,22.5l3.4-1.47l3.4,1.46l1.89-3.19l3.61-0.82l-0.34-3.69L23,12z M9.38,16.01L7,13.61c-0.39-0.39-0.39-1.02,0-1.41
		l0.07-0.07c0.39-0.39,1.03-0.39,1.42,0l1.61,1.62l5.15-5.16c0.39-0.39,1.03-0.39,1.42,0l0.07,0.07c0.39,0.39,0.39,1.02,0,1.41
		l-5.92,5.94C10.41,16.4,9.78,16.4,9.38,16.01z"/>
</g>
</svg>
