<svg xmlns="http://www.w3.org/2000/svg" enable-background="new 0 0 24 24" height="24" viewBox="0 0 24 24" width="24"><g><rect fill="none" height="24" width="24"/></g><g><g><path d="M10,14h4.48L19,8.35V5c0-1.1-0.9-2-2-2h-3v2h3v2.65L13.52,12H10V7H6c-2.21,0-4,1.79-4,4v3h2c0,1.66,1.34,3,3,3 S10,15.66,10,14z M6,14h2c0,0.55-0.45,1-1,1S6,14.55,6,14z"/><rect height="2" width="5" x="5" y="4"/><path d="M19,11c-1.66,0-3,1.34-3,3s1.34,3,3,3s3-1.34,3-3S20.66,11,19,11z M19,15c-0.55,0-1-0.45-1-1s0.45-1,1-1s1,0.45,1,1 S19.55,15,19,15z"/><polygon points="11,20 7,20 13,23 13,21 17,21 11,18"/></g></g></svg>