<svg xmlns="http://www.w3.org/2000/svg" enable-background="new 0 0 24 24" height="24" viewBox="0 0 24 24" width="24"><g><rect fill="none" height="24" width="24"/></g><g><g><path d="M12,4V2.21c0-0.45-0.54-0.67-0.85-0.35L8.35,4.65c-0.2,0.2-0.2,0.51,0,0.71l2.79,2.79C11.46,8.46,12,8.24,12,7.79V6 c3.89,0,7.06,3.2,7,7.1c-0.05,3.71-3.18,6.84-6.9,6.9c-3.62,0.05-6.62-2.65-7.05-6.14C4.99,13.37,4.57,13,4.07,13 c-0.6,0-1.07,0.53-1,1.12c0.56,4.52,4.48,8,9.19,7.87c4.7-0.13,8.61-4.05,8.74-8.74C21.14,8.17,17.06,4,12,4z"/><path d="M10.25,14.5c-0.41,0-0.75,0.34-0.75,0.75S9.84,16,10.25,16H13c0.55,0,1-0.45,1-1v-1.5c0-0.55-0.45-1-1-1h-2v-1h2.25 c0.41,0,0.75-0.34,0.75-0.75S13.66,10,13.25,10H10.5c-0.55,0-1,0.45-1,1v1.5c0,0.55,0.45,1,1,1h2v1H10.25z"/></g></g></svg>