<svg xmlns="http://www.w3.org/2000/svg" enable-background="new 0 0 24 24" height="24" viewBox="0 0 24 24" width="24"><g><rect fill="none" height="24" width="24"/></g><g><g enable-background="new"><g><path d="M20,4H4l0,0v13.17L5.17,16H20V4z M14,14H6v-2h8V14z M18,11H6V9h12V11z M18,8 H6V6h12V8z" enable-background="new" opacity=".3"/><path d="M20,18c1.1,0,2-0.9,2-2V4c0-1.1-0.9-2-2-2H4C2.9,2,2.01,2.9,2.01,4L2,22l4-4H20z M4,17.17V4l0,0h16v12H5.17L4,17.17z"/><rect height="2" width="8" x="6" y="12"/><rect height="2" width="12" x="6" y="9"/><rect height="2" width="12" x="6" y="6"/></g></g></g></svg>