<svg xmlns="http://www.w3.org/2000/svg" enable-background="new 0 0 24 24" height="24" viewBox="0 0 24 24" width="24"><g><rect fill="none" height="24" width="24"/></g><g><g><g><g><path d="M15,16h3c0.55,0,1-0.45,1-1V9c0-0.55-0.45-1-1-1h-3c-0.55,0-1,0.45-1,1v6C14,15.55,14.45,16,15,16z M16,10h1v4h-1V10z"/><path d="M9,16h3c0.55,0,1-0.45,1-1V9c0-0.55-0.45-1-1-1H9C8.45,8,8,8.45,8,9v6C8,15.55,8.45,16,9,16z M10,10h1v4h-1V10z"/><rect height="8" width="2" x="5" y="8"/><path d="M2,4v16h20V4H2z M20,18H4V6h16V18z"/></g></g></g></g></svg>