<svg xmlns="http://www.w3.org/2000/svg" enable-background="new 0 0 24 24" height="24" viewBox="0 0 24 24" width="24"><g><path d="M0,0h24v24H0V0z" fill="none"/></g><g><g><path d="M19,3h-4.18C14.4,1.84,13.3,1,12,1S9.6,1.84,9.18,3H5C3.9,3,3,3.9,3,5v14c0,1.1,0.9,2,2,2h14c1.1,0,2-0.9,2-2V5 C21,3.9,20.1,3,19,3z M12,2.75c0.41,0,0.75,0.34,0.75,0.75c0,0.41-0.34,0.75-0.75,0.75s-0.75-0.34-0.75-0.75 C11.25,3.09,11.59,2.75,12,2.75z M12,6c1.93,0,3.5,1.57,3.5,3.5S13.93,13,12,13s-3.5-1.57-3.5-3.5S10.07,6,12,6z M19,19H5v-0.23 c0-0.62,0.28-1.2,0.76-1.58C7.47,15.82,9.64,15,12,15s4.53,0.82,6.24,2.19c0.48,0.38,0.76,0.97,0.76,1.58V19z"/></g></g></svg>