<svg xmlns="http://www.w3.org/2000/svg" enable-background="new 0 0 24 24" height="24" viewBox="0 0 24 24" width="24"><g><rect fill="none" height="24" width="24" y="0"/></g><g><g><g><path d="M1,21.98c0,0.56,0.45,1.01,1.01,1.01H15c0.56,0,1.01-0.45,1.01-1.01V21H1V21.98z"/><g><path d="M8.5,10.99c-1.42,0-3.77,0.46-4.88,2.01h9.77 C12.27,11.45,9.92,10.99,8.5,10.99z" enable-background="new" opacity=".3"/><path d="M8.5,8.99C4.75,8.99,1,11,1,15h15C16,11,12.25,8.99,8.5,8.99z M3.62,13c1.11-1.55,3.47-2.01,4.88-2.01 s3.77,0.46,4.88,2.01H3.62z"/></g><rect height="2" width="15" x="1" y="17"/><path d="M18,5V1h-2v4h-5l0.23,2h9.56l-1.4,14H18v2h1.72c0.84,0,1.53-0.65,1.63-1.47L23,5H18z"/></g></g></g></svg>