<svg xmlns="http://www.w3.org/2000/svg" width="24" height="24" viewBox="0 0 24 24"><title>ic_twowheeler</title><desc>Created with Sketch.</desc><path d="M18.5 12.5c1.1 0 2 .9 2 2s-.9 2-2 2-2-.9-2-2 .9-2 2-2m0-1.5c-1.93 0-3.5 1.57-3.5 3.5s1.57 3.5 3.5 3.5 3.5-1.57 3.5-3.5-1.57-3.5-3.5-3.5zm-13 1.5c1.1 0 2 .9 2 2s-.9 2-2 2-2-.9-2-2 .9-2 2-2m0-1.5C3.57 11 2 12.57 2 14.5S3.57 18 5.5 18 9 16.43 9 14.5 7.43 11 5.5 11zm11 1.28L13 8h-2V7h2.89l1.19 1.51L18 7.42v2.11h-2.1l1.66 2.21-1.06.54zm-9.38 0l-2.01-.53-1.58-1.37H2v-.85h3.65l2.12 1.29 3.38-1.29H15L16 11l-3 5h-3l-1.72-1.5-1.16-2.22z"/><path fill="none" d="M0 0h24v24H0z"/></svg>