<svg xmlns="http://www.w3.org/2000/svg" enable-background="new 0 0 24 24" height="24" viewBox="0 0 24 24" width="24"><g><rect fill="none" height="24" width="24"/></g><g><g><path d="M16.93,7H7.06C6.07,7,5.22,7.74,5.08,8.71l-1.09,7.66c-0.03,0.21,0.05,0.35,0.13,0.44 c0.2,0.23,0.56,0.26,0.8,0.02L7.77,14h8.46l2.84,2.84c0.24,0.24,0.61,0.2,0.81-0.03c0.07-0.09,0.16-0.23,0.13-0.44l-1.09-7.66 C18.78,7.74,17.92,7,16.93,7z M11,11.25H9.25V13h-1.5v-1.75H6v-1.5h1.75V8h1.5v1.75H11V11.25z M15,10c-0.55,0-1-0.45-1-1 s0.45-1,1-1s1,0.45,1,1S15.55,10,15,10z M17,13c-0.55,0-1-0.45-1-1s0.45-1,1-1s1,0.45,1,1S17.55,13,17,13z" opacity=".3"/><path d="M21.97,15.94l-1.07-7.5C20.62,6.46,18.93,5,16.93,5H7.06c-2,0-3.69,1.46-3.97,3.44l-1.07,7.49 C1.81,17.48,2.95,18.99,4.52,19c0.68,0,1.33-0.27,1.81-0.75L8.6,16h6.8l2.25,2.25c0.84,0.84,2.2,1.04,3.27,0.28 C21.74,17.95,22.11,16.92,21.97,15.94z M19.88,16.81c-0.2,0.23-0.57,0.27-0.81,0.03L16.23,14H7.77l-2.85,2.84 c-0.24,0.24-0.6,0.21-0.8-0.02c-0.07-0.09-0.16-0.23-0.13-0.44l1.09-7.66C5.22,7.74,6.07,7,7.06,7h9.87 c0.99,0,1.84,0.74,1.98,1.71l1.09,7.66C20.04,16.58,19.96,16.72,19.88,16.81z"/><circle cx="17" cy="12" r="1"/><circle cx="15" cy="9" r="1"/><polygon points="9.25,8 7.75,8 7.75,9.75 6,9.75 6,11.25 7.75,11.25 7.75,13 9.25,13 9.25,11.25 11,11.25 11,9.75 9.25,9.75"/></g></g></svg>