<svg xmlns="http://www.w3.org/2000/svg" enable-background="new 0 0 24 24" height="24" viewBox="0 0 24 24" width="24"><g><rect fill="none" height="24" width="24" y="0"/></g><g><g><g><g><path d="M20,3H4C2.9,3,2.01,3.9,2.01,5L2,15c0,1.1,0.9,2,2,2h16c1.1,0,2-0.9,2-2V5C22,3.9,21.1,3,20,3z M20,15H4V5h16V15z"/><rect height="2" width="2" x="11" y="6"/><rect height="2" width="2" x="11" y="9"/><rect height="2" width="2" x="8" y="6"/><rect height="2" width="2" x="8" y="9"/><rect height="2" width="2" x="5" y="9"/><rect height="2" width="2" x="5" y="6"/><rect height="2" width="8" x="8" y="12"/><rect height="2" width="2" x="14" y="9"/><rect height="2" width="2" x="14" y="6"/><rect height="2" width="2" x="17" y="9"/><rect height="2" width="2" x="17" y="6"/><polygon points="12,23 16,19 8,19"/></g></g></g></g></svg>