<svg xmlns="http://www.w3.org/2000/svg" enable-background="new 0 0 24 24" height="24" viewBox="0 0 24 24" width="24"><g><rect fill="none" height="24" width="24" y="0"/></g><g><g><g><path d="M19,9h-6v6h8v-4C21,9.9,20.1,9,19,9z" enable-background="new" opacity=".3"/><circle cx="7" cy="11" enable-background="new" opacity=".3" r="1"/><path d="M4,11c0,1.66,1.34,3,3,3s3-1.34,3-3S8.66,8,7,8S4,9.34,4,11z M8,11c0,0.55-0.45,1-1,1s-1-0.45-1-1s0.45-1,1-1 S8,10.45,8,11z"/><path d="M19,7h-8v8H3V5H1v15h2v-3h18v3h2v-9C23,8.79,21.21,7,19,7z M21,15h-8V9h6c1.1,0,2,0.9,2,2V15z"/></g></g></g></svg>