<svg xmlns="http://www.w3.org/2000/svg" enable-background="new 0 0 24 24" height="24" viewBox="0 0 24 24" width="24"><g><rect fill="none" height="24" width="24"/></g><g><g><path d="M2,17v3h3C5,18.34,3.66,17,2,17z"/><polygon points="2,4 2,7 4,7 4,6 20,6 20,18 15,18 15,20 22,20 22,4"/><path d="M2,9v2c4.97,0,9,4.03,9,9h2C13,13.92,8.07,9,2,9z"/><path d="M2,13v2c2.76,0,5,2.24,5,5h2C9,16.13,5.87,13,2,13z"/><polygon points="18.5,9.5 15,7.5 11.5,9.5 15,11.5"/><polygon points="17.5,11 15,12.43 12.5,11 12.5,12.5 15,13.93 17.5,12.5"/></g></g></svg>