<svg xmlns="http://www.w3.org/2000/svg" enable-background="new 0 0 24 24" height="24" viewBox="0 0 24 24" width="24"><g><rect fill="none" height="24" width="24"/></g><g><path d="M19,5H9C8.35,5,7.75,5.31,7.37,5.84l-3.55,5c-0.49,0.69-0.49,1.62,0,2.32l3.55,5C7.75,18.69,8.35,19,9,19h10 c1.1,0,2-0.9,2-2V7C21,5.9,20.1,5,19,5z M9.5,13c-0.55,0-1-0.45-1-1c0-0.55,0.45-1,1-1s1,0.45,1,1C10.5,12.55,10.05,13,9.5,13z M13,13c-0.55,0-1-0.45-1-1c0-0.55,0.45-1,1-1s1,0.45,1,1C14,12.55,13.55,13,13,13z M16.5,13c-0.55,0-1-0.45-1-1c0-0.55,0.45-1,1-1 s1,0.45,1,1C17.5,12.55,17.05,13,16.5,13z"/></g></svg>