<?xml version="1.0" encoding="utf-8"?>
<!-- Generator: Adobe Illustrator 21.0.2, SVG Export Plug-In . SVG Version: 6.00 Build 0)  -->
<svg version="1.1" id="ic_x5F_addchart_x5F_gm2outlined_x5F_24px"
	 xmlns="http://www.w3.org/2000/svg" xmlns:xlink="http://www.w3.org/1999/xlink" x="0px" y="0px" width="24px" height="24px"
	 viewBox="0 0 24 24" enable-background="new 0 0 24 24" xml:space="preserve">
<g>
	<path d="M22,5v2h-3v3h-2V7h-3V5h3V2h2v3H22z M19,19H5V5h6V3H5C3.9,3,3,3.9,3,5v14c0,1.1,0.9,2,2,2h14c1.1,0,2-0.9,2-2v-6h-2V19z
		 M15,13v4h2v-4H15z M11,17h2V9h-2V17z M9,17v-6H7v6H9z"/>
	<rect fill="none" width="24" height="24"/>
</g>
</svg>
