<svg xmlns="http://www.w3.org/2000/svg" enable-background="new 0 0 24 24" height="24" viewBox="0 0 24 24" width="24"><g><path d="M0,0h24v24H0V0z" fill="none"/></g><g><path d="M4,13h6c0.55,0,1-0.45,1-1V4c0-0.55-0.45-1-1-1H4C3.45,3,3,3.45,3,4v8C3,12.55,3.45,13,4,13z M4,21h6c0.55,0,1-0.45,1-1v-4 c0-0.55-0.45-1-1-1H4c-0.55,0-1,0.45-1,1v4C3,20.55,3.45,21,4,21z M14,21h6c0.55,0,1-0.45,1-1v-8c0-0.55-0.45-1-1-1h-6 c-0.55,0-1,0.45-1,1v8C13,20.55,13.45,21,14,21z M13,4v4c0,0.55,0.45,1,1,1h6c0.55,0,1-0.45,1-1V4c0-0.55-0.45-1-1-1h-6 C13.45,3,13,3.45,13,4z"/></g></svg>