<svg xmlns="http://www.w3.org/2000/svg" enable-background="new 0 0 24 24" height="24" viewBox="0 0 24 24" width="24"><g><rect fill="none" height="24" width="24" y="0"/></g><g><g><path d="M4,16h16V8H4V16z M17.5,9c0.83,0,1.5,0.67,1.5,1.5S18.33,12,17.5,12 S16,11.33,16,10.5S16.67,9,17.5,9z M14.5,12c0.83,0,1.5,0.67,1.5,1.5S15.33,15,14.5,15S13,14.33,13,13.5S13.67,12,14.5,12z M5,11 h2V9h2v2h2v2H9v2H7v-2H5V11z" enable-background="new" opacity=".3"/><path d="M20,6H4C2.9,6,2,6.9,2,8v8c0,1.1,0.9,2,2,2h16c1.1,0,2-0.9,2-2V8C22,6.9,21.1,6,20,6z M20,16H4V8h16V16z"/><polygon points="7,15 9,15 9,13 11,13 11,11 9,11 9,9 7,9 7,11 5,11 5,13 7,13"/><circle cx="14.5" cy="13.5" r="1.5"/><circle cx="17.5" cy="10.5" r="1.5"/></g></g></svg>