<svg xmlns="http://www.w3.org/2000/svg" enable-background="new 0 0 24 24" height="24" viewBox="0 0 24 24" width="24"><g><rect fill="none" height="24" width="24"/></g><g><g><path d="M8,17h6.17L8,10.83V17z M12,6c-0.89,0-1.71,0.3-2.37,0.8L16,13.17V10 C16,7.79,14.21,6,12,6z" enable-background="new" opacity=".3"/><path d="M12,6c2.21,0,4,1.79,4,4v3.17l2,2V10c0-2.79-1.91-5.14-4.5-5.8V3.5C13.5,2.67,12.83,2,12,2s-1.5,0.67-1.5,1.5v0.7 C9.64,4.42,8.87,4.84,8.21,5.38L9.63,6.8C10.29,6.3,11.11,6,12,6z M12,22c1.1,0,2-0.9,2-2h-4C10,21.1,10.9,22,12,22z M2.81,2.81 L1.39,4.22L6.1,8.93C6.04,9.28,6,9.63,6,10v7H4v2h12.17l3.61,3.61l1.41-1.41L2.81,2.81z M8,17v-6.17L14.17,17H8z"/></g></g></svg>