<svg xmlns="http://www.w3.org/2000/svg" enable-background="new 0 0 24 24" height="24" viewBox="0 0 24 24" width="24"><g><rect fill="none" height="24" width="24"/></g><g><g><g><path d="M7,11H1v2h6V11z M9.17,7.76L7.05,5.64L5.64,7.05l2.12,2.12L9.17,7.76z M13,1h-2v6h2V1z M18.36,7.05l-1.41-1.41 l-2.12,2.12l1.41,1.41L18.36,7.05z M17,11v2h6v-2H17z M12,9c-1.66,0-3,1.34-3,3s1.34,3,3,3s3-1.34,3-3S13.66,9,12,9z M14.83,16.24l2.12,2.12l1.41-1.41l-2.12-2.12L14.83,16.24z M5.64,16.95l1.41,1.41l2.12-2.12l-1.41-1.41L5.64,16.95z M11,23h2v-6 h-2V23z"/></g></g></g></svg>