<svg xmlns="http://www.w3.org/2000/svg" enable-background="new 0 0 24 24" height="24" viewBox="0 0 24 24" width="24"><g><rect fill="none" height="24" width="24"/></g><g><g><path d="M18,9h-7v3h9v-1C20,9.9,19.1,9,18,9z" opacity=".3"/><circle cx="5" cy="11" opacity=".3" r="1"/><path d="M18,7H9v7h13v-3C22,8.79,20.21,7,18,7z M20,12h-9V9h7c1.1,0,2,0.9,2,2V12z"/><path d="M5,14c1.66,0,3-1.34,3-3S6.66,8,5,8s-3,1.34-3,3S3.34,14,5,14z M5,10c0.55,0,1,0.45,1,1s-0.45,1-1,1s-1-0.45-1-1 S4.45,10,5,10z"/><rect height="2" width="20" x="2" y="15"/></g></g></svg>