<svg xmlns="http://www.w3.org/2000/svg" enable-background="new 0 0 24 24" height="24" viewBox="0 0 24 24" width="24"><g><rect fill="none" height="24" width="24"/></g><g><g><path d="M6.4,8.87L4.97,7.44c-1.04,1.29-1.72,2.88-1.91,4.61h2.02C5.25,10.88,5.72,9.79,6.4,8.87z M6.39,20.09 C7.68,21.12,9.26,21.81,11,22v-2.02c-1.18-0.17-2.27-0.64-3.18-1.32L6.39,20.09z M5.08,14.06H3.06c0.19,1.74,0.88,3.32,1.91,4.61 l1.43-1.43C5.72,16.33,5.25,15.24,5.08,14.06z M18.36,6.7c-1.75-1.76-4.06-2.64-6.35-2.64h-0.18l1.59-1.59L12,1.06l-4,4l4,4 l1.41-1.41l-1.59-1.59H12c1.79,0,3.58,0.68,4.95,2.05c2.73,2.73,2.73,7.17,0,9.9c-1.11,1.11-2.51,1.76-3.95,1.97V22 c1.96-0.22,3.86-1.07,5.36-2.58C21.88,15.91,21.88,10.21,18.36,6.7z"/></g></g></svg>