<svg xmlns="http://www.w3.org/2000/svg" enable-background="new 0 0 24 24" height="24" viewBox="0 0 24 24" width="24"><g><path d="M0,0h24v24H0V0z" fill="none"/></g><g><path d="M16,9H8v10h8V9z M15.53,16.12l-1.41,1.41L12,15.41l-2.12,2.12l-1.41-1.41 L10.59,14l-2.13-2.12l1.41-1.41L12,12.59l2.12-2.12l1.41,1.41L13.41,14L15.53,16.12z" enable-background="new" opacity=".3"/><path d="M14.12,10.47L12,12.59l-2.13-2.12l-1.41,1.41L10.59,14l-2.12,2.12l1.41,1.41L12,15.41l2.12,2.12l1.41-1.41L13.41,14 l2.12-2.12L14.12,10.47z M15.5,4l-1-1h-5l-1,1H5v2h14V4H15.5z M6,19c0,1.1,0.9,2,2,2h8c1.1,0,2-0.9,2-2V7H6V19z M8,9h8v10H8V9z"/></g></svg>