<svg xmlns="http://www.w3.org/2000/svg" enable-background="new 0 0 24 24" height="24" viewBox="0 0 24 24" width="24"><g><rect fill="none" height="24" width="24"/></g><g><g><path d="M10.59,15.41c0.78,0.78,2.05,0.78,2.83,0C14.2,14.63,19,7,19,7s-7.63,4.8-8.41,5.59C9.8,13.37,9.8,14.63,10.59,15.41z"/><path d="M20.36,8.59c-0.37,0.59-0.78,1.23-1.2,1.9c0.52,1.04,0.83,2.19,0.84,3.41c0.02,1.45-0.36,2.87-1.09,4.1L5.09,18.02 C4.38,16.8,4,15.41,4,14c0-4.41,3.59-8,8-8c0.07,0,0.15,0,0.23,0c1.18,0.03,2.29,0.34,3.29,0.84c0.66-0.42,1.31-0.83,1.89-1.2 C15.91,4.66,14.16,4.06,12.28,4C12.19,4,12.09,4,12,4C6.48,4,2,8.48,2,14c0,1.84,0.5,3.56,1.37,5.03C3.72,19.64,4.39,20,5.09,20 h13.82c0.7,0,1.36-0.36,1.72-0.97c0.89-1.51,1.39-3.27,1.37-5.16C21.97,11.94,21.37,10.13,20.36,8.59z"/></g></g></svg>