<svg xmlns="http://www.w3.org/2000/svg" enable-background="new 0 0 24 24" height="24" viewBox="0 0 24 24" width="24"><g><rect fill="none" height="24" width="24"/></g><g><g><g><path d="M21,5v6.59l-2.29-2.3c-0.39-0.39-1.03-0.39-1.42,0L14,12.59L10.71,9.3c-0.39-0.39-1.02-0.39-1.41,0L6,12.59L3,9.58V5 c0-1.1,0.9-2,2-2h14C20.1,3,21,3.9,21,5z M18,11.42l3,3.01V19c0,1.1-0.9,2-2,2H5c-1.1,0-2-0.9-2-2v-6.58l2.29,2.29 c0.39,0.39,1.02,0.39,1.41,0l3.3-3.3l3.29,3.29c0.39,0.39,1.02,0.39,1.41,0L18,11.42z"/></g></g></g></svg>