<svg xmlns="http://www.w3.org/2000/svg" enable-background="new 0 0 24 24" height="24" viewBox="0 0 24 24" width="24"><g><rect fill="none" height="24" width="24" y="0"/></g><g><g><polygon opacity=".3" points="12,4.53 9.67,6.34 14.7,11.37 17.74,9"/><g><polygon points="12,4.53 17.74,9 14.7,11.37 16.12,12.79 21,9 12,2 8.25,4.92 9.67,6.34"/><polygon points="18.93,15.61 21,14 19.37,12.73 17.51,14.18"/><polygon points="2.81,2.31 1.39,3.72 5.07,7.39 3,9 12,16 12.94,15.27 14.33,16.65 11.99,18.47 4.62,12.74 3,14 12,21 15.75,18.08 19.78,22.11 21.19,20.69"/></g></g></g></svg>