<svg xmlns="http://www.w3.org/2000/svg" enable-background="new 0 0 24 24" height="24" viewBox="0 0 24 24" width="24"><g><g><path d="M0,0h24v24H0V0z" fill="none"/></g></g><g><g><path d="M4,8v5h5v-2h6v2h5V8H4z M15,17H9v-2H4v4h16v-4h-5V17z" enable-background="new" opacity=".3"/><path d="M20,6h-3V4c0-1.11-0.89-2-2-2H9C7.89,2,7,2.89,7,4v2H4C2.89,6,2,6.89,2,8v11c0,1.1,0.9,2,2,2h16c1.1,0,2-0.9,2-2V8 C22,6.89,21.11,6,20,6z M9,4h6v2H9V4z M20,19H4v-4h5v2h6v-2h5V19z M11,15v-2h2v2H11z M20,13h-5v-2H9v2H4V8h16V13z"/></g></g></svg>