<svg xmlns="http://www.w3.org/2000/svg" enable-background="new 0 0 24 24" height="24" viewBox="0 0 24 24" width="24"><g><rect fill="none" height="24" width="24" y="0"/></g><g><path d="M20,6H4C2.9,6,2,6.9,2,8v8c0,1.1,0.9,2,2,2h16c1.1,0,2-0.9,2-2V8C22,6.9,21.1,6,20,6z M10,13H9v1c0,0.55-0.45,1-1,1h0 c-0.55,0-1-0.45-1-1v-1H6c-0.55,0-1-0.45-1-1v0c0-0.55,0.45-1,1-1h1v-1c0-0.55,0.45-1,1-1h0c0.55,0,1,0.45,1,1v1h1 c0.55,0,1,0.45,1,1v0C11,12.55,10.55,13,10,13z M14.5,15c-0.83,0-1.5-0.67-1.5-1.5s0.67-1.5,1.5-1.5s1.5,0.67,1.5,1.5 S15.33,15,14.5,15z M17.5,12c-0.83,0-1.5-0.67-1.5-1.5S16.67,9,17.5,9S19,9.67,19,10.5S18.33,12,17.5,12z"/></g></svg>