<svg xmlns="http://www.w3.org/2000/svg" enable-background="new 0 0 24 24" height="24" viewBox="0 0 24 24" width="24"><g><rect fill="none" height="24" width="24" y="0"/></g><g><g><path d="M19.5,12c0.93,0,1.78,0.28,2.5,0.76V8c0-1.1-0.9-2-2-2h-6.29l-1.06-1.06l1.41-1.41l-0.71-0.71L9.82,6.35l0.71,0.71 l1.41-1.41L13,6.71V9c0,1.1-0.9,2-2,2h-0.54c0.95,1.06,1.54,2.46,1.54,4c0,0.34-0.04,0.67-0.09,1h3.14 C15.3,13.75,17.19,12,19.5,12z"/><path d="M19.5,13c-1.93,0-3.5,1.57-3.5,3.5s1.57,3.5,3.5,3.5s3.5-1.57,3.5-3.5S21.43,13,19.5,13z M19.5,18 c-0.83,0-1.5-0.67-1.5-1.5s0.67-1.5,1.5-1.5s1.5,0.67,1.5,1.5S20.33,18,19.5,18z"/><path d="M4,9h5c0-1.1-0.9-2-2-2H4C3.45,7,3,7.45,3,8S3.45,9,4,9z"/><path d="M6,10c-2.76,0-5,2.24-5,5s2.24,5,5,5s5-2.24,5-5S8.76,10,6,10z M6,18c-1.65,0-3-1.35-3-3s1.35-3,3-3s3,1.35,3,3 S7.65,18,6,18z"/><circle cx="6" cy="15" r="1.5"/></g></g></svg>