<svg xmlns="http://www.w3.org/2000/svg" enable-background="new 0 0 24 24" height="24" viewBox="0 0 24 24" width="24"><g><path d="M0,0h24v24H0V0z" fill="none"/></g><g><g><g><path d="M17,7l-4.29-4.29C12.08,2.08,11,2.52,11,3.41v6.18L7.11,5.7c-0.39-0.39-1.02-0.39-1.41,0l0,0 c-0.39,0.39-0.39,1.02,0,1.41L10.59,12L5.7,16.89c-0.39,0.39-0.39,1.02,0,1.41l0,0c0.39,0.39,1.02,0.39,1.41,0L11,14.41v6.18 c0,0.89,1.08,1.34,1.71,0.71L17,17c0.39-0.39,0.39-1.02,0-1.41L13.41,12L17,8.42C17.39,8.03,17.39,7.39,17,7z M13,5.83l1.88,1.88 L13,9.59V5.83z M14.88,16.29L13,18.17v-3.76L14.88,16.29z"/></g></g></g></svg>