<svg xmlns="http://www.w3.org/2000/svg" enable-background="new 0 0 24 24" height="24" viewBox="0 0 24 24" width="24"><g><rect fill="none" height="24" width="24"/></g><g><g><g><path d="M20.53,3.47c-0.56-0.56-2.16-0.97-4.18-0.97c-3.1,0-7.19,0.96-10.03,3.81C1.61,11.03,2.05,19.1,3.47,20.53 c0.56,0.56,2.16,0.97,4.18,0.97c3.1,0,7.19-0.96,10.03-3.81C22.39,12.97,21.95,4.9,20.53,3.47z M5.68,18.32 c0.63-1.9,2.17-5.01,4.9-7.73c2.69-2.69,5.81-4.25,7.74-4.9c-0.63,1.9-2.17,5.01-4.91,7.73C10.73,16.11,7.62,17.66,5.68,18.32z M7.74,7.74c2.65-2.65,6.37-3.13,8.07-3.2c-2.06,0.94-4.48,2.47-6.64,4.63c-2.17,2.17-3.69,4.6-4.63,6.66 C4.62,13.34,5.41,10.06,7.74,7.74z M16.26,16.26c-2.65,2.65-6.37,3.13-8.07,3.2c2.06-0.94,4.48-2.47,6.64-4.63 c2.17-2.17,3.69-4.6,4.64-6.66C19.38,10.66,18.59,13.94,16.26,16.26z"/></g></g></g></svg>