<svg xmlns="http://www.w3.org/2000/svg" enable-background="new 0 0 24 24" height="24" viewBox="0 0 24 24" width="24"><g><rect fill="none" height="24" width="24"/></g><g><g><g><path d="M20,17.17V4l0,0H4v12h14.83L20,17.17z M18,14H6v-2h12V14z M18,11H6V9h12V11z M18,8H6V6h12V8z" enable-background="new" opacity=".3"/><path d="M4,18h14l4,4L21.99,4c0-1.1-0.89-2-1.99-2H4C2.9,2,2,2.9,2,4v12C2,17.1,2.9,18,4,18z M4,4h16l0,0v13.17L18.83,16H4V4z"/><rect height="2" width="12" x="6" y="12"/><rect height="2" width="12" x="6" y="9"/><rect height="2" width="12" x="6" y="6"/></g></g></g></svg>