<svg xmlns="http://www.w3.org/2000/svg" enable-background="new 0 0 24 24" height="24" viewBox="0 0 24 24" width="24"><g><g><rect fill="none" height="24" width="24"/><rect fill="none" height="24" width="24"/></g></g><g><path d="M17,10c0.1,0,0.19,0.01,0.28,0.01L4.39,4.58C3.73,4.31,3,4.79,3,5.51v3.71c0,0.46,0.31,0.86,0.76,0.97L11,12l-7.24,1.81 C3.31,13.92,3,14.32,3,14.78v3.71c0,0.72,0.73,1.2,1.39,0.92L10,17.05c0-0.02,0-0.03,0-0.05C10,13.14,13.14,10,17,10z M17,12 c-2.76,0-5,2.24-5,5s2.24,5,5,5c2.76,0,5-2.24,5-5S19.76,12,17,12z M19.12,19.12L19.12,19.12c-0.2,0.2-0.51,0.2-0.71,0L17,17.71 l-1.41,1.41c-0.2,0.2-0.51,0.2-0.71,0l0,0c-0.2-0.2-0.2-0.51,0-0.71L16.29,17l-1.41-1.41c-0.2-0.2-0.2-0.51,0-0.71l0,0 c0.2-0.2,0.51-0.2,0.71,0L17,16.29l1.41-1.41c0.2-0.2,0.51-0.2,0.71,0l0,0c0.2,0.2,0.2,0.51,0,0.71L17.71,17l1.41,1.41 C19.32,18.61,19.32,18.93,19.12,19.12z"/></g></svg>