<svg xmlns="http://www.w3.org/2000/svg" enable-background="new 0 0 24 24" height="24" viewBox="0 0 24 24" width="24"><g><g><rect fill="none" height="24" width="24"/></g></g><g><path d="M17,10c0.1,0,0.19,0.01,0.28,0.01L3,4v6l8,2l-8,2v6l7-2.95c0-0.02,0-0.03,0-0.05C10,13.14,13.14,10,17,10z M17,12 c-2.76,0-5,2.24-5,5s2.24,5,5,5c2.76,0,5-2.24,5-5S19.76,12,17,12z M19.47,18.77l-0.71,0.71L17,17.71l-1.77,1.77l-0.71-0.71 L16.29,17l-1.77-1.77l0.71-0.71L17,16.29l1.77-1.77l0.71,0.71L17.71,17L19.47,18.77z"/></g></svg>