<svg xmlns="http://www.w3.org/2000/svg" enable-background="new 0 0 24 24" height="24" viewBox="0 0 24 24" width="24"><g><rect fill="none" height="24" width="24"/></g><g><g><path d="M15.55,11c-0.01,0.01-0.01,0.03-0.02,0.03L18.31,6H6.16l2.37,5H15.55z" enable-background="new" opacity=".3"/><path d="M15.55,13c1.22,0,1.74-1.01,1.75-1.03l3.55-6.44c0.23-0.46,0.18-0.84-0.01-1.11C20.66,4.16,20.33,4,20,4 C19.99,4,5.21,4,5.21,4L4.27,2H1v2h2l3.6,7.59l-1.35,2.44C4.52,15.37,5.48,17,7,17h12v-2H7l1.1-2H15.55z M6.16,6h12.14l-2.77,5.03 c0,0,0.01-0.02,0.02-0.03H8.53L6.16,6z"/><circle cx="7" cy="20" r="2"/><circle cx="17" cy="20" r="2"/></g></g></svg>