<svg xmlns="http://www.w3.org/2000/svg" enable-background="new 0 0 24 24" height="24" viewBox="0 0 24 24" width="24"><g><rect fill="none" height="24" width="24"/></g><g><g><g><polygon enable-background="new" opacity=".3" points="5,13 7.83,13 10,15.17 10,8.83 7.83,11 5,11"/><path d="M3,9v6h4l5,5V4L7,9H3z M10,8.83v6.34L7.83,13H5v-2h2.83L10,8.83z"/><path d="M14,7.97v8.05c1.48-0.73,2.5-2.25,2.5-4.02S15.48,8.71,14,7.97z"/><path d="M14,3.23v2.06c2.89,0.86,5,3.54,5,6.71s-2.11,5.85-5,6.71v2.06c4.01-0.91,7-4.49,7-8.77S18.01,4.14,14,3.23z"/></g></g></g></svg>