<svg xmlns="http://www.w3.org/2000/svg" enable-background="new 0 0 24 24" height="24" viewBox="0 0 24 24" width="24"><g><rect fill="none" height="24" width="24"/></g><g><g><g><g><path d="M12.7,4.91c1.46,2,2.3,4.46,2.3,7.09s-0.84,5.09-2.3,7.09 C15.25,17.76,17,15.08,17,12S15.25,6.24,12.7,4.91z" enable-background="new" opacity=".3"/><path d="M9,2C7.95,2,6.95,2.16,6,2.46c4.06,1.27,7,5.06,7,9.54s-2.94,8.27-7,9.54C6.95,21.84,7.95,22,9,22c5.52,0,10-4.48,10-10 S14.52,2,9,2z M12.7,19.09c1.46-2,2.3-4.46,2.3-7.09s-0.84-5.09-2.3-7.09C15.25,6.24,17,8.92,17,12S15.25,17.76,12.7,19.09z"/></g></g></g></g></svg>