<svg xmlns="http://www.w3.org/2000/svg" enable-background="new 0 0 24 24" height="24" viewBox="0 0 24 24" width="24"><g><rect fill="none" height="24" width="24"/></g><g><path d="M6.83,4L10,7.17V6h8v2h-7.17l1,1H18v2h-4.17l5,5H20V4H6.83z M8,10.83V11H6V9 h0.17L4,6.83v10.34L5.17,16h8L8,10.83z M8,14H6v-2h2V14z" enable-background="new" opacity=".3"/><path d="M20,2H4.83l2,2H20v12h-1.17l1.87,1.87C21.45,17.58,22,16.85,22,16V4C22,2.9,21.1,2,20,2z M18,6h-8v1.17L10.83,8H18V6z M18,11V9h-6.17l2,2H18z M0.69,3.51l1.32,1.32L2,22l4-4h9.17l5.31,5.31l1.41-1.41L2.1,2.1L0.69,3.51z M4,6.83L6.17,9H6v2h2v-0.17 L13.17,16h-8L4,17.17V6.83z M8,12H6v2h2V12z"/></g></svg>