<svg xmlns="http://www.w3.org/2000/svg" enable-background="new 0 0 24 24" height="24" viewBox="0 0 24 24" width="24"><g><rect fill="none" height="24" width="24"/></g><g><g><polygon opacity=".3" points="5,18.31 8,17.15 8,5.45 5,6.46"/><polygon opacity=".3" points="16,18.55 19,17.54 19,5.7 16,6.86"/><path d="M19.64,3.3L15,5.1L9,3L3.68,4.79C3.27,4.93,3,5.31,3,5.74v14.03c0,0.7,0.71,1.19,1.36,0.93L9,18.9l6,2.1l5.32-1.79 c0.41-0.14,0.68-0.52,0.68-0.95V4.23C21,3.53,20.29,3.05,19.64,3.3z M8,17.15l-3,1.16V6.46l3-1.01V17.15z M14,18.53l-4-1.4V5.47 l4,1.4V18.53z M19,17.54l-3,1.01V6.86l3-1.16V17.54z"/></g></g></svg>