<svg xmlns="http://www.w3.org/2000/svg" enable-background="new 0 0 24 24" height="24" viewBox="0 0 24 24" width="24"><g><rect fill="none" height="24" width="24"/></g><g><g enable-background="new"><path d="M20,2H4C2.9,2,2.01,2.9,2.01,4L2,19.58c0,0.89,1.08,1.34,1.71,0.71L6,18h14c1.1,0,2-0.9,2-2V4C22,2.9,21.1,2,20,2z M7,9 h10c0.55,0,1,0.45,1,1l0,0c0,0.55-0.45,1-1,1H7c-0.55,0-1-0.45-1-1l0,0C6,9.45,6.45,9,7,9z M13,14H7c-0.55,0-1-0.45-1-1l0,0 c0-0.55,0.45-1,1-1h6c0.55,0,1,0.45,1,1l0,0C14,13.55,13.55,14,13,14z M17,8H7C6.45,8,6,7.55,6,7l0,0c0-0.55,0.45-1,1-1h10 c0.55,0,1,0.45,1,1l0,0C18,7.55,17.55,8,17,8z"/></g></g></svg>