<svg xmlns="http://www.w3.org/2000/svg" enable-background="new 0 0 24 24" height="24" viewBox="0 0 24 24" width="24"><g><rect fill="none" height="24" width="24"/></g><g><g><path d="M20,10h-3V8.86c1.72-0.45,3-2,3-3.86h-3v0c0-1.1-0.9-2-2-2H9C7.9,3,7,3.9,7,5v0H4c0,1.86,1.28,3.41,3,3.86V10H4 c0,1.86,1.28,3.41,3,3.86V15H4c0,1.86,1.28,3.41,3,3.86V19c0,1.1,0.9,2,2,2h6c1.1,0,2-0.9,2-2v-0.14c1.72-0.45,3-2,3-3.86h-3 v-1.14C18.72,13.41,20,11.86,20,10z M15,19H9V5h6V19z M12,18c0.83,0,1.5-0.67,1.5-1.5S12.83,15,12,15s-1.5,0.67-1.5,1.5 S11.17,18,12,18z M12,13.5c0.83,0,1.5-0.67,1.5-1.5s-0.67-1.5-1.5-1.5s-1.5,0.67-1.5,1.5S11.17,13.5,12,13.5z M12,9 c0.83,0,1.5-0.67,1.5-1.5S12.83,6,12,6s-1.5,0.67-1.5,1.5S11.17,9,12,9z"/></g></g></svg>