<svg xmlns="http://www.w3.org/2000/svg" enable-background="new 0 0 24 24" height="24" viewBox="0 0 24 24" width="24"><g><rect fill="none" height="24" width="24"/></g><g><path d="M10,3.5c0.28,0,0.5-0.22,0.5-0.5c0-0.28-0.22-0.5-0.5-0.5S9.5,2.72,9.5,3C9.5,3.28,9.72,3.5,10,3.5z M14,7 c0.55,0,1-0.45,1-1c0-0.55-0.45-1-1-1s-1,0.45-1,1C13,6.55,13.45,7,14,7z M18,7c0.55,0,1-0.45,1-1c0-0.55-0.45-1-1-1s-1,0.45-1,1 C17,6.55,17.45,7,18,7z M18,11c0.55,0,1-0.45,1-1c0-0.55-0.45-1-1-1s-1,0.45-1,1C17,10.55,17.45,11,18,11z M14,3.5 c0.28,0,0.5-0.22,0.5-0.5c0-0.28-0.22-0.5-0.5-0.5S13.5,2.72,13.5,3C13.5,3.28,13.72,3.5,14,3.5z M6,13c-0.55,0-1,0.45-1,1 c0,0.55,0.45,1,1,1s1-0.45,1-1C7,13.45,6.55,13,6,13z M3,9.5c-0.28,0-0.5,0.22-0.5,0.5c0,0.28,0.22,0.5,0.5,0.5s0.5-0.22,0.5-0.5 C3.5,9.72,3.28,9.5,3,9.5z M6,17c-0.55,0-1,0.45-1,1c0,0.55,0.45,1,1,1s1-0.45,1-1C7,17.45,6.55,17,6,17z M21,13.5 c-0.28,0-0.5,0.22-0.5,0.5c0,0.28,0.22,0.5,0.5,0.5s0.5-0.22,0.5-0.5C21.5,13.72,21.28,13.5,21,13.5z M21,10.5 c0.28,0,0.5-0.22,0.5-0.5c0-0.28-0.22-0.5-0.5-0.5s-0.5,0.22-0.5,0.5C20.5,10.28,20.72,10.5,21,10.5z M3,13.5 c-0.28,0-0.5,0.22-0.5,0.5c0,0.28,0.22,0.5,0.5,0.5s0.5-0.22,0.5-0.5C3.5,13.72,3.28,13.5,3,13.5z M17.78,14.96 C17.86,14.97,17.92,15,18,15c0.55,0,1-0.45,1-1c0-0.55-0.45-1-1-1s-1,0.45-1,1c0,0.08,0.03,0.14,0.04,0.22L17.78,14.96z M10,20.5 c-0.28,0-0.5,0.22-0.5,0.5c0,0.28,0.22,0.5,0.5,0.5s0.5-0.22,0.5-0.5C10.5,20.72,10.28,20.5,10,20.5z M10,17c-0.55,0-1,0.45-1,1 c0,0.55,0.45,1,1,1s1-0.45,1-1C11,17.45,10.55,17,10,17z M9.78,6.96C9.86,6.97,9.92,7,10,7c0.55,0,1-0.45,1-1c0-0.55-0.45-1-1-1 S9,5.45,9,6c0,0.08,0.03,0.14,0.04,0.22L9.78,6.96z M14,20.5c-0.28,0-0.5,0.22-0.5,0.5c0,0.28,0.22,0.5,0.5,0.5s0.5-0.22,0.5-0.5 C14.5,20.72,14.28,20.5,14,20.5z M15.5,10c0-0.83-0.67-1.5-1.5-1.5c-0.73,0-1.33,0.52-1.47,1.2l1.77,1.77 C14.98,11.33,15.5,10.73,15.5,10z M1.39,4.22l4.82,4.82C6.14,9.03,6.08,9,6,9c-0.55,0-1,0.45-1,1c0,0.55,0.45,1,1,1s1-0.45,1-1 c0-0.08-0.03-0.14-0.04-0.22l2.75,2.75C9.02,12.67,8.5,13.27,8.5,14c0,0.83,0.67,1.5,1.5,1.5c0.73,0,1.33-0.52,1.47-1.2l2.75,2.75 C14.14,17.03,14.08,17,14,17c-0.55,0-1,0.45-1,1c0,0.55,0.45,1,1,1s1-0.45,1-1c0-0.08-0.03-0.14-0.04-0.22l4.82,4.82l1.41-1.41 L2.81,2.81L1.39,4.22z"/></g></svg>