<svg xmlns="http://www.w3.org/2000/svg" enable-background="new 0 0 24 24" height="24" viewBox="0 0 24 24" width="24"><g><path d="M0,0h24v24H0V0z" fill="none"/></g><g><g><g><path d="M12,5.83l2.46,2.46c0.39,0.39,1.02,0.39,1.41,0l0,0c0.39-0.39,0.39-1.02,0-1.41L12.7,3.7c-0.39-0.39-1.02-0.39-1.41,0 L8.12,6.88c-0.39,0.39-0.39,1.02,0,1.41l0,0c0.39,0.39,1.02,0.39,1.41,0L12,5.83z M12,18.17l-2.46-2.46 c-0.39-0.39-1.02-0.39-1.41,0l0,0c-0.39,0.39-0.39,1.02,0,1.41l3.17,3.18c0.39,0.39,1.02,0.39,1.41,0l3.17-3.17 c0.39-0.39,0.39-1.02,0-1.41l0,0c-0.39-0.39-1.02-0.39-1.41,0L12,18.17z"/></g></g></g></svg>