<svg xmlns="http://www.w3.org/2000/svg" enable-background="new 0 0 24 24" height="24" viewBox="0 0 24 24" width="24"><g><rect fill="none" height="24" width="24" y="0"/></g><g><g><g><path d="M3,10L3,10c0,0.55,0.45,1,1,1h17c0.55,0,1-0.45,1-1l0,0c0-0.55-0.45-1-1-1H4C3.45,9,3,9.45,3,10z M4,15h3 c0.55,0,1-0.45,1-1l0,0c0-0.55-0.45-1-1-1H4c-0.55,0-1,0.45-1,1l0,0C3,14.55,3.45,15,4,15z M11,15h3c0.55,0,1-0.45,1-1l0,0 c0-0.55-0.45-1-1-1h-3c-0.55,0-1,0.45-1,1l0,0C10,14.55,10.45,15,11,15z M18,15h3c0.55,0,1-0.45,1-1l0,0c0-0.55-0.45-1-1-1h-3 c-0.55,0-1,0.45-1,1l0,0C17,14.55,17.45,15,18,15z"/></g></g></g></svg>