<svg xmlns="http://www.w3.org/2000/svg" enable-background="new 0 0 24 24" height="24" viewBox="0 0 24 24" width="24"><g><rect fill="none" height="24" width="24"/></g><g><g><polygon enable-background="new" opacity=".3" points="4,15.73 4,20 14,20 14,15.73 9,18.58"/><polygon enable-background="new" opacity=".3" points="9,16.86 14,14 4,14"/><path d="M16,4h-4C9.79,4,8,5.79,8,8v4h7c0.55,0,1,0.45,1,1v4h4V8C20,5.79,18.21,4,16,4 z M18,10h-8V8h8V10z" enable-background="new" opacity=".3"/><path d="M16,2h-4C8.69,2,6,4.69,6,8v4H3c-0.55,0-1,0.45-1,1v8c0,0.55,0.45,1,1,1h12c0.55,0,1-0.45,1-1v-2h4v3h2V8 C22,4.69,19.31,2,16,2z M14,20H4v-4.27l5,2.86l5-2.86V20z M9,16.86L4,14h10L9,16.86z M20,17h-4v-4c0-0.55-0.45-1-1-1H8V8 c0-2.21,1.79-4,4-4h4c2.21,0,4,1.79,4,4V17z"/><rect height="2" width="8" x="10" y="8"/></g></g></svg>