<svg xmlns="http://www.w3.org/2000/svg" enable-background="new 0 0 24 24" height="24" viewBox="0 0 24 24" width="24"><g><rect fill="none" height="24" width="24"/></g><g><g><g><g><rect height="2" width="10" x="3" y="5"/><polygon points="7,11 3,11 3,13 7,13 7,15 9,15 9,9 7,9"/><polygon points="13,15 11,15 11,21 13,21 13,19 21,19 21,17 13,17"/><rect height="2" width="6" x="3" y="17"/><rect height="2" width="10" x="11" y="11"/><polygon points="17,3 15,3 15,9 17,9 17,7 21,7 21,5 17,5"/></g></g></g></g></svg>