<svg xmlns="http://www.w3.org/2000/svg" enable-background="new 0 0 24 24" height="24" viewBox="0 0 24 24" width="24"><g><path d="M0,0h24v24H0V0z" fill="none"/></g><g><path d="M14,4V3c0-0.55-0.45-1-1-1h-2c-0.55,0-1,0.45-1,1v1H8C7.45,4,7,4.45,7,5v16c0,0.55,0.45,1,1,1h8c0.55,0,1-0.45,1-1V5 c0-0.55-0.45-1-1-1H14z M12.01,18c-0.59,0-1.05-0.47-1.05-1.05c0-0.59,0.47-1.04,1.05-1.04c0.59,0,1.04,0.45,1.04,1.04 C13.04,17.53,12.6,18,12.01,18z M14.51,11.83c-0.63,0.93-1.23,1.21-1.56,1.81c-0.08,0.14-0.13,0.26-0.16,0.49 c-0.05,0.39-0.36,0.68-0.75,0.68h-0.03c-0.44,0-0.79-0.38-0.75-0.82c0.03-0.28,0.09-0.57,0.25-0.84c0.41-0.73,1.18-1.16,1.63-1.8 c0.48-0.68,0.21-1.94-1.14-1.94c-0.61,0-1.01,0.32-1.26,0.7c-0.19,0.29-0.57,0.39-0.89,0.25l0,0c-0.42-0.18-0.6-0.7-0.34-1.07 C10.02,8.55,10.87,8,11.99,8c1.23,0,2.08,0.56,2.51,1.26C14.87,9.87,15.08,10.99,14.51,11.83z"/></g></svg>