<svg xmlns="http://www.w3.org/2000/svg" enable-background="new 0 0 24 24" height="24" viewBox="0 0 24 24" width="24"><g><rect fill="none" height="24" width="24"/></g><g><g><path d="M2.1,2.1L0.69,3.51l4.41,4.41l1.8,4.05l-1.07,2.13c-0.31,0.62-0.28,1.35,0.09,1.95s1,0.95,1.7,0.95h6.55l1.51,1.51 C15.27,18.87,15,19.4,15,20c0,1.1,0.9,2,2,2c0.6,0,1.13-0.27,1.49-0.68l1.99,1.99l1.41-1.41L2.1,2.1z M7.62,15l1-2h1.55l2,2H7.62z"/><path d="M8.83,6h9.36l-2.78,5h-1.58l2,2h0.76l4.17-7.51C21.13,4.82,20.65,4,19.89,4H6.83L8.83,6z"/></g><circle cx="7" cy="20" r="2"/><g><polygon opacity=".3" points="13.83,11 15.41,11 18.19,6 8.83,6"/></g></g></svg>