<svg xmlns="http://www.w3.org/2000/svg" enable-background="new 0 0 24 24" height="24" viewBox="0 0 24 24" width="24"><g><rect fill="none" height="24" width="24" y="0"/></g><g><g><path d="M5,5L5,5C4.45,5,4,5.45,4,6v15c0,1.1,0.9,2,2,2h9c0.55,0,1-0.45,1-1v0c0-0.55-0.45-1-1-1H6V6C6,5.45,5.55,5,5,5z"/><circle cx="14.5" cy="12.5" r="1.5"/><path d="M19,1h-9C8.9,1,8,1.9,8,3v13.99c0,1.1,0.89,2,2,2L19,19c1.1,0,2-0.9,2-2V3C21,1.9,20.1,1,19,1z M14.5,4.5 C15.33,4.5,16,5.17,16,6s-0.67,1.5-1.5,1.5S13,6.83,13,6S13.67,4.5,14.5,4.5z M14.5,16c-1.93,0-3.5-1.57-3.5-3.5S12.57,9,14.5,9 s3.5,1.57,3.5,3.5S16.43,16,14.5,16z"/></g></g></svg>