<svg xmlns="http://www.w3.org/2000/svg" enable-background="new 0 0 24 24" height="24" viewBox="0 0 24 24" width="24"><g><rect fill="none" height="24" width="24"/></g><g><g><path d="M17.8,2.8C16,2.09,13.86,2,12,2S8,2.09,6.2,2.8C3.53,3.84,2,6.05,2,8.86V20c0,1.1,0.9,2,2,2h16c1.1,0,2-0.9,2-2V8.86 C22,6.05,20.47,3.84,17.8,2.8z M18,15.5c0,1.5-1.11,2.73-2.55,2.95l0.26,0.26c0.47,0.47,0.14,1.28-0.53,1.28h0 c-0.2,0-0.39-0.08-0.53-0.22l-1.28-1.28h-2.75l-1.28,1.28C9.2,19.92,9.01,20,8.81,20h0c-0.67,0-1-0.81-0.53-1.28l0.26-0.26 C7.11,18.23,6,17,6,15.5V9c0-2.62,3-3,6-3c3.32,0,6,0.38,6,3V15.5z"/><circle cx="8.5" cy="15.5" r="1"/><rect height="4" width="9" x="7.5" y="9"/><circle cx="15.5" cy="15.5" r="1"/></g></g></svg>