<svg xmlns="http://www.w3.org/2000/svg" enable-background="new 0 0 24 24" height="24" viewBox="0 0 24 24" width="24"><g><rect fill="none" height="24" width="24"/></g><g><g><g><path d="M3,21h2v-2H3V21z M5,7H3v2h2V7z M3,17h2v-2H3V17z M7,21h2v-2H7V21z M5,3H3v2h2V3z M9,3H7v2h2V3z M17,3h-2v2h2V3z M13,7 h-2v2h2V7z M13,3h-2v2h2V3z M19,17h2v-2h-2V17z M11,21h2v-2h-2V21z M4,13h16c0.55,0,1-0.45,1-1l0,0c0-0.55-0.45-1-1-1H4 c-0.55,0-1,0.45-1,1l0,0C3,12.55,3.45,13,4,13z M19,3v2h2V3H19z M19,9h2V7h-2V9z M11,17h2v-2h-2V17z M15,21h2v-2h-2V21z M19,21h2 v-2h-2V21z"/></g></g></g></svg>