<svg xmlns="http://www.w3.org/2000/svg" enable-background="new 0 0 24 24" height="24" viewBox="0 0 24 24" width="24"><g><rect fill="none" height="24" width="24" y="0"/></g><g><g><path d="M13.41,12l1.26-1.26c1.4,0.6,3.32,0.14,4.75-1.3c1.75-1.75,2.09-4.27,0.74-5.62c-1.34-1.34-3.85-1.01-5.62,0.74 c-1.43,1.43-1.9,3.36-1.29,4.76l-9.55,9.55c-0.39,0.39-0.39,1.02,0,1.41l0,0c0.39,0.39,1.02,0.39,1.41,0L12,13.41l6.88,6.88 c0.39,0.39,1.02,0.39,1.41,0l0,0c0.39-0.39,0.39-1.02,0-1.41L13.41,12z"/><path d="M7.34,12.42l3.21-3.21l-5.4-5.4C4.67,3.34,3.87,3.45,3.55,4.04C2.61,5.76,2.87,7.96,4.33,9.41L7.34,12.42z"/></g></g></svg>