<svg xmlns="http://www.w3.org/2000/svg" enable-background="new 0 0 24 24" height="24" viewBox="0 0 24 24" width="24"><g><rect fill="none" height="24" width="24"/></g><g><g><path d="M11,9.5c-2.48,0-4.5,2.02-4.5,4.5s2.02,4.5,4.5,4.5s4.5-2.02,4.5-4.5S13.48,9.5,11,9.5z M11,16.5 c-1.38,0-2.5-1.12-2.5-2.5s1.12-2.5,2.5-2.5s2.5,1.12,2.5,2.5S12.38,16.5,11,16.5z"/><polygon points="21,4 21,2 19,2 19,4 17,4 17,6 19,6 19,8 21,8 21,6 23,6 23,4"/><path d="M19,20H3V8h4.05l1.83-2H15V4H8L6.17,6H3C1.9,6,1,6.9,1,8v12c0,1.1,0.9,2,2,2h16c1.1,0,2-0.9,2-2V10h-2V20z"/></g></g></svg>