<svg xmlns="http://www.w3.org/2000/svg" enable-background="new 0 0 24 24" height="24" viewBox="0 0 24 24" width="24"><g><rect fill="none" height="24" width="24"/></g><g><g><path d="M7.05,8H3v12h16V10h-2V8h-2V6H8.88L7.05,8z M15.5,14c0,2.48-2.02,4.5-4.5,4.5S6.5,16.48,6.5,14 S8.52,9.5,11,9.5S15.5,11.52,15.5,14z" opacity=".3"/><path d="M6.5,14c0,2.48,2.02,4.5,4.5,4.5s4.5-2.02,4.5-4.5S13.48,9.5,11,9.5S6.5,11.52,6.5,14z M11,11.5c1.38,0,2.5,1.12,2.5,2.5 s-1.12,2.5-2.5,2.5S8.5,15.38,8.5,14S9.62,11.5,11,11.5z"/><polygon points="23,6 23,4 21,4 21,2 19,2 19,4 17,4 17,6 19,6 19,8 21,8 21,6"/><path d="M19,20H3V8h4.05l1.83-2H15V4H8L6.17,6H3C1.9,6,1,6.9,1,8v12c0,1.1,0.9,2,2,2h16c1.1,0,2-0.9,2-2V10h-2V20z"/></g></g></svg>