<?xml version="1.0" encoding="utf-8"?>
<!-- Generator: Adobe Illustrator 23.0.6, SVG Export Plug-In . SVG Version: 6.00 Build 0)  -->
<svg version="1.1" xmlns="http://www.w3.org/2000/svg" xmlns:xlink="http://www.w3.org/1999/xlink" x="0px" y="0px" width="24px"
	 height="24px" viewBox="0 0 24 24" enable-background="new 0 0 24 24" xml:space="preserve">
<g id="Bounding_Box">
	<rect fill="none" width="24" height="24"/>
</g>
<g id="Master">
	<g>
		<g>
			<path d="M16.37,12.87h-0.99l-2.54,2.54v0.99l6.01,6.01l3.54-3.54L16.37,12.87z"/>
		</g>
		<g>
			<path d="M17.34,10.19l1.41-1.41l2.12,2.12c1.17-1.17,1.17-3.07,0-4.24l-3.54-3.54l-1.41,1.41V1.71L15.22,1l-3.54,3.54l0.71,0.71
				h2.83l-1.41,1.41l1.06,1.06l-2.89,2.89L7.85,6.48V5.06L4.83,2.04L2,4.87l3.03,3.03h1.41l4.13,4.13l-0.85,0.85H7.6l-6.01,6.01
				l3.54,3.54l6.01-6.01v-2.12l5.15-5.15L17.34,10.19z"/>
		</g>
	</g>
</g>
</svg>
