<svg xmlns="http://www.w3.org/2000/svg" enable-background="new 0 0 24 24" height="24" viewBox="0 0 24 24" width="24"><g><rect fill="none" height="24" width="24"/></g><g><g><rect height="1.5" width="1.5" x="15" y="14"/><path d="M19,3H5C3.9,3,3,3.9,3,5v14c0,1.1,0.9,2,2,2h14c1.1,0,2-0.9,2-2V5C21,3.9,20.1,3,19,3z M10,6.5c0-0.55,0.45-1,1-1h3.5V7 h-3v1h2c0.55,0,1,0.45,1,1v1.5c0,0.55-0.45,1-1,1H11c-0.55,0-1-0.45-1-1V6.5z M12.5,18.5H11V14h-1v3H8.5v-3h-1v4.5H6v-5 c0-0.55,0.45-1,1-1h4.5c0.55,0,1,0.45,1,1V18.5z M18,16c0,0.55-0.45,1-1,1h-2v1.5h-1.5v-6H17c0.55,0,1,0.45,1,1V16z"/><rect height="1.5" width="1.5" x="11.5" y="9"/></g></g></svg>