<svg xmlns="http://www.w3.org/2000/svg" enable-background="new 0 0 24 24" height="24" viewBox="0 0 24 24" width="24"><g><rect fill="none" height="24" width="24"/></g><g><g><polygon points="20,7 20.94,4.94 23,4 20.94,3.06 20,1 19.06,3.06 17,4 19.06,4.94"/><path d="M14.17,8.42l1.41,1.41l-1.46,1.46l1.41,1.41l2.17-2.17c0.39-0.39,0.39-1.02,0-1.41l-2.83-2.83 c-0.39-0.39-1.02-0.39-1.41,0l-2.17,2.17l1.41,1.41L14.17,8.42z"/><path d="M2.81,2.81L1.39,4.22l7.07,7.07l-6.17,6.17c-0.39,0.39-0.39,1.02,0,1.41l2.83,2.83c0.39,0.39,1.02,0.39,1.41,0l6.17-6.17 l7.07,7.07l1.41-1.41L2.81,2.81z"/></g></g></svg>