<svg xmlns="http://www.w3.org/2000/svg" enable-background="new 0 0 24 24" height="24" viewBox="0 0 24 24" width="24"><g><rect fill="none" height="24" width="24"/></g><g><g><path d="M20,2H8C6.9,2,6,2.9,6,4v12c0,1.1,0.9,2,2,2h12c1.1,0,2-0.9,2-2V4C22,2.9,21.1,2,20,2z M16.83,7.34l-3.58,7.16 c-0.15,0.3-0.46,0.49-0.8,0.49c-0.66,0-1.1-0.7-0.8-1.29L15,7h-3c-0.55,0-1-0.45-1-1s0.45-1,1-1h3.38C16.28,5,17,5.72,17,6.62 C17,6.87,16.94,7.12,16.83,7.34z"/><path d="M17,20H4V7c0-0.55-0.45-1-1-1S2,6.45,2,7v13c0,1.1,0.9,2,2,2h13c0.55,0,1-0.45,1-1S17.55,20,17,20z"/></g></g></svg>