<svg xmlns="http://www.w3.org/2000/svg" enable-background="new 0 0 24 24" height="24" viewBox="0 0 24 24" width="24"><g><rect fill="none" height="24" width="24"/></g><g><g><path d="M20,3H5.83l2,2H20v12.17l1.32,1.32c0.41-0.37,0.67-0.9,0.67-1.49L22,5C22,3.9,21.1,3,20,3z"/><path d="M1.39,2.81C1,3.2,1,3.83,1.39,4.22l0.62,0.62C2.01,4.9,2,4.95,2,5v12c0,1.1,0.9,2,2,2h4v1c0,0.55,0.45,1,1,1h6 c0.55,0,1-0.45,1-1v-1h0.17l3.61,3.61c0.39,0.39,1.02,0.39,1.41,0l0,0c0.39-0.39,0.39-1.02,0-1.41L2.81,2.81 C2.42,2.42,1.78,2.42,1.39,2.81L1.39,2.81z M4,6.83L14.17,17H4V6.83z"/></g></g></svg>