<svg xmlns="http://www.w3.org/2000/svg" enable-background="new 0 0 24 24" height="24" viewBox="0 0 24 24" width="24"><g><path d="M0,0h24v24H0V0z" fill="none"/></g><g><path d="M12,2C6.48,2,2,6.48,2,12s4.48,10,10,10s10-4.48,10-10S17.52,2,12,2z M12,20c-4.41,0-8-3.59-8-8s3.59-8,8-8s8,3.59,8,8 S16.41,20,12,20z"/><path d="M14,8h-4C9.45,8,9,8.45,9,9v6c0,0.55,0.45,1,1,1h4c0.55,0,1-0.45,1-1v-1c0-0.55-0.45-1-1-1h0c-0.55,0-1,0.45-1,1l-2,0v-4 l2,0c0,0.55,0.45,1,1,1h0c0.55,0,1-0.45,1-1V9C15,8.45,14.55,8,14,8z"/></g></svg>