<svg xmlns="http://www.w3.org/2000/svg" enable-background="new 0 0 24 24" height="24" viewBox="0 0 24 24" width="24"><g><rect fill="none" height="24" width="24"/></g><g><path d="M20,10h-3V8.86c1.72-0.45,3-2,3-3.86h-3v0c0-1.1-0.9-2-2-2H9C7.9,3,7,3.9,7,5v0H4c0,1.86,1.28,3.41,3,3.86V10H4 c0,1.86,1.28,3.41,3,3.86V15H4c0,1.86,1.28,3.41,3,3.86V19c0,1.1,0.9,2,2,2h6c1.1,0,2-0.9,2-2v-0.14c1.72-0.45,3-2,3-3.86h-3v-1.14 C18.72,13.41,20,11.86,20,10z M12,15c0.83,0,1.5,0.67,1.5,1.5S12.83,18,12,18s-1.5-0.67-1.5-1.5S11.17,15,12,15z M10.5,12 c0-0.83,0.67-1.5,1.5-1.5s1.5,0.67,1.5,1.5s-0.67,1.5-1.5,1.5S10.5,12.83,10.5,12z M12,9c-0.83,0-1.5-0.67-1.5-1.5S11.17,6,12,6 s1.5,0.67,1.5,1.5S12.83,9,12,9z"/></g></svg>