<svg xmlns="http://www.w3.org/2000/svg" enable-background="new 0 0 24 24" height="24" viewBox="0 0 24 24" width="24"><g><rect fill="none" height="24" width="24"/></g><g><g><g><g><path d="M12,20c4.41,0,8-3.59,8-8s-3.59-8-8-8s-8,3.59-8,8S7.59,20,12,20z M7,11h4V7 h2v4h4v2h-4v4h-2v-4H7V11z" enable-background="new" opacity=".3"/><polygon points="11,17 13,17 13,13 17,13 17,11 13,11 13,7 11,7 11,11 7,11 7,13 11,13"/><path d="M12,22h8c1.1,0,2-0.9,2-2v-8c0-5.51-4.49-10-10-10S2,6.49,2,12S6.49,22,12,22z M12,4c4.41,0,8,3.59,8,8s-3.59,8-8,8 s-8-3.59-8-8S7.59,4,12,4z"/></g></g></g></g></svg>