<svg xmlns="http://www.w3.org/2000/svg" enable-background="new 0 0 24 24" height="24" viewBox="0 0 24 24" width="24"><g><rect fill="none" height="24" width="24"/></g><g><path d="M4,17.17l0.59-0.59L5.17,16H20V4H4V17.17z M10,6h8v2h-8V6z M10,9h8v2h-8V9z M10,12h5v2h-5V12z M6,6h2v2H6V6z M6,9h2v2H6V9z M6,12h2v2H6V12z" enable-background="new" opacity=".3"/><path d="M20,2H4C2.9,2,2.01,2.9,2.01,4L2,22l4-4h14c1.1,0,2-0.9,2-2V4C22,2.9,21.1,2,20,2z M20,16H5.17l-0.59,0.59L4,17.17V4h16V16 z M6,12h2v2H6V12z M6,9h2v2H6V9z M6,6h2v2H6V6z M10,12h5v2h-5V12z M10,9h8v2h-8V9z M10,6h8v2h-8V6z"/></g></svg>