<svg xmlns="http://www.w3.org/2000/svg" enable-background="new 0 0 24 24" height="24" viewBox="0 0 24 24" width="24"><g><path d="M0,0h24v24H0V0z" fill="none"/></g><g><g><path d="M19,3H5C3.9,3,3,3.9,3,5v14c0,1.1,0.9,2,2,2h14c1.1,0,2-0.9,2-2V5C21,3.9,20.1,3,19,3z M19,19H5V5h14V19z M15,17H9 c-1.1,0-2-0.9-2-2V9c0-1.1,0.9-2,2-2h1v2H9v6h6V9h-2v1.28c0.6,0.35,1,0.98,1,1.72c0,1.27-1.17,2.25-2.48,1.94 c-0.71-0.17-1.3-0.75-1.47-1.46c-0.22-0.93,0.22-1.78,0.95-2.2V9c0-1.1,0.9-2,2-2h2c1.1,0,2,0.9,2,2v6C17,16.1,16.1,17,15,17z"/></g></g></svg>