<svg xmlns="http://www.w3.org/2000/svg" enable-background="new 0 0 24 24" height="24" viewBox="0 0 24 24" width="24"><g><rect fill="none" height="24" width="24"/></g><g><g><path d="M20,2H8C6.9,2,6,2.9,6,4v12c0,1.1,0.9,2,2,2h12c1.1,0,2-0.9,2-2V4C22,2.9,21.1,2,20,2z M17,11h-2v2c0,0.55-0.45,1-1,1h0 c-0.55,0-1-0.45-1-1v-2h-2c-0.55,0-1-0.45-1-1v0c0-0.55,0.45-1,1-1h2V7c0-0.55,0.45-1,1-1h0c0.55,0,1,0.45,1,1v2h2 c0.55,0,1,0.45,1,1v0C18,10.55,17.55,11,17,11z"/><path d="M3,6L3,6C2.45,6,2,6.45,2,7v13c0,1.1,0.9,2,2,2h13c0.55,0,1-0.45,1-1v0c0-0.55-0.45-1-1-1H4V7C4,6.45,3.55,6,3,6z"/></g></g></svg>