<svg xmlns="http://www.w3.org/2000/svg" enable-background="new 0 0 24 24" height="24" viewBox="0 0 24 24" width="24"><g><rect fill="none" height="24" width="24"/></g><g><path d="M24,3H0v18l24-0.03V3z M9,8c1.65,0,3,1.35,3,3s-1.35,3-3,3s-3-1.35-3-3S7.35,8,9,8z M2.08,19c1.38-2.39,3.96-4,6.92-4 s5.54,1.61,6.92,4H2.08z M17.85,14.01h1.64l1.51,2L19.01,18c-1.31-0.98-2.28-2.38-2.73-3.99c-0.18-0.64-0.28-1.31-0.28-2 s0.1-1.36,0.28-2C16.73,8.39,17.7,7,19.01,6.02L21,8.01l-1.51,2h-1.64c-0.22,0.63-0.35,1.3-0.35,2S17.63,13.38,17.85,14.01z"/></g></svg>