<svg xmlns="http://www.w3.org/2000/svg" enable-background="new 0 0 24 24" height="24" viewBox="0 0 24 24" width="24"><g><rect fill="none" height="24" width="24" y="0"/></g><g><g><g><path d="M15.5,5.5c1.1,0,2-0.9,2-2s-0.9-2-2-2s-2,0.9-2,2S14.4,5.5,15.5,5.5z"/><path d="M5,22c2.8,0,5-2.2,5-5s-2.2-5-5-5s-5,2.2-5,5S2.2,22,5,22z M5,13.5c1.9,0,3.5,1.6,3.5,3.5S6.9,20.5,5,20.5 S1.5,18.9,1.5,17S3.1,13.5,5,13.5z"/><path d="M7.8,11.2L11,14v5h2v-6.2l-2.2-2.3l2.4-2.4L14,8.9c1.3,1.3,2.9,2.1,5,2.1V9c-1.5,0-2.6-0.6-3.5-1.5l-1.9-1.9 C13.1,5.2,12.6,5,12,5s-1.1,0.2-1.4,0.6L7.8,8.4C7.4,8.8,7.2,9.3,7.2,9.8C7.2,10.4,7.4,10.9,7.8,11.2z"/><path d="M19,12c-2.8,0-5,2.2-5,5s2.2,5,5,5s5-2.2,5-5S21.8,12,19,12z M19,20.5c-1.9,0-3.5-1.6-3.5-3.5s1.6-3.5,3.5-3.5 s3.5,1.6,3.5,3.5S20.9,20.5,19,20.5z"/></g></g></g></svg>