<svg xmlns="http://www.w3.org/2000/svg" enable-background="new 0 0 24 24" height="24" viewBox="0 0 24 24" width="24"><g><rect fill="none" height="24" width="24"/></g><g><g><path d="M7,12c1.1,0,2,0.9,2,2s-0.9,2-2,2s-2-0.9-2-2S5.9,12,7,12 M7,10c-2.21,0-4,1.79-4,4s1.79,4,4,4s4-1.79,4-4S9.21,10,7,10 L7,10z"/><path d="M11,4c1.1,0,2,0.9,2,2s-0.9,2-2,2S9,7.1,9,6S9.9,4,11,4 M11,2C8.79,2,7,3.79,7,6s1.79,4,4,4s4-1.79,4-4S13.21,2,11,2L11,2 z"/><path d="M17,15c1.1,0,2,0.9,2,2s-0.9,2-2,2s-2-0.9-2-2S15.9,15,17,15 M17,13c-2.21,0-4,1.79-4,4s1.79,4,4,4s4-1.79,4-4 S19.21,13,17,13L17,13z"/></g></g></svg>