<svg xmlns="http://www.w3.org/2000/svg" enable-background="new 0 0 24 24" height="24" viewBox="0 0 24 24" width="24"><g><rect fill="none" height="24" width="24"/></g><g><g><circle cx="7" cy="14" enable-background="new" opacity=".3" r="2"/><circle cx="11" cy="6" enable-background="new" opacity=".3" r="2"/><circle cx="17" cy="17" enable-background="new" opacity=".3" r="2"/><path d="M7,10c-2.21,0-4,1.79-4,4s1.79,4,4,4s4-1.79,4-4S9.21,10,7,10z M7,16c-1.1,0-2-0.9-2-2s0.9-2,2-2s2,0.9,2,2S8.1,16,7,16z"/><path d="M15,6c0-2.21-1.79-4-4-4S7,3.79,7,6s1.79,4,4,4S15,8.21,15,6z M11,8C9.9,8,9,7.1,9,6s0.9-2,2-2s2,0.9,2,2S12.1,8,11,8z"/><path d="M17,13c-2.21,0-4,1.79-4,4s1.79,4,4,4s4-1.79,4-4S19.21,13,17,13z M17,19c-1.1,0-2-0.9-2-2s0.9-2,2-2s2,0.9,2,2 S18.1,19,17,19z"/></g></g></svg>