<svg xmlns="http://www.w3.org/2000/svg" enable-background="new 0 0 24 24" height="24" viewBox="0 0 24 24" width="24"><g><rect fill="none" height="24" width="24"/></g><g><g><path d="M12,2C6.48,2,2,6.48,2,12s4.48,10,10,10s10-4.48,10-10S17.52,2,12,2z M7.35,8.15l2.3-2.3c0.2-0.2,0.51-0.2,0.71,0 l2.29,2.3C12.96,8.46,12.74,9,12.3,9H11v3c0,0.55-0.45,1-1,1h0c-0.55,0-1-0.45-1-1V9H7.71C7.26,9,7.04,8.46,7.35,8.15z M14.35,18.15c-0.2,0.2-0.51,0.2-0.71,0l-2.29-2.3C11.04,15.54,11.26,15,11.7,15H13v-3c0-0.55,0.45-1,1-1h0c0.55,0,1,0.45,1,1v3 h1.29c0.45,0,0.67,0.54,0.35,0.85L14.35,18.15z"/></g></g></svg>