<svg xmlns="http://www.w3.org/2000/svg" enable-background="new 0 0 24 24" height="24" viewBox="0 0 24 24" width="24"><g><rect fill="none" height="24" width="24"/></g><g><g><path d="M12,4c-4.41,0-8,3.59-8,8s3.59,8,8,8s8-3.59,8-8S16.41,4,12,4z M6.5,9L10,5.5 L13.5,9H11v4H9V9H6.5z M14,18.5L10.5,15H13v-4h2v4h2.5L14,18.5z" enable-background="new" opacity=".3"/><path d="M12,2C6.48,2,2,6.48,2,12s4.48,10,10,10s10-4.48,10-10S17.52,2,12,2z M12,20c-4.41,0-8-3.59-8-8s3.59-8,8-8s8,3.59,8,8 S16.41,20,12,20z M11,13V9h2.5L10,5.5L6.5,9H9v4H11z M15,11h-2v4h-2.5l3.5,3.5l3.5-3.5H15V11z"/></g></g></svg>