<svg xmlns="http://www.w3.org/2000/svg" enable-background="new 0 0 24 24" height="24" viewBox="0 0 24 24" width="24"><g><rect fill="none" height="24" width="24"/></g><g><path d="M19,3H5C3.9,3,3,3.9,3,5v14c0,1.1,0.9,2,2,2h14c1.1,0,2-0.9,2-2V5C21,3.9,20.1,3,19,3z M11,16c0,0.55-0.45,1-1,1H8 c-0.55,0-1-0.45-1-1v-2c0-0.55,0.45-1,1-1h2c0.55,0,1,0.45,1,1V16z M11,10c0,0.55-0.45,1-1,1H8c-0.55,0-1-0.45-1-1V8 c0-0.55,0.45-1,1-1h2c0.55,0,1,0.45,1,1V10z M16,16h-3c-0.55,0-1-0.45-1-1s0.45-1,1-1h3c0.55,0,1,0.45,1,1S16.55,16,16,16z M16,10 h-3c-0.55,0-1-0.45-1-1s0.45-1,1-1h3c0.55,0,1,0.45,1,1S16.55,10,16,10z"/></g></svg>