<svg xmlns="http://www.w3.org/2000/svg" enable-background="new 0 0 24 24" height="24" viewBox="0 0 24 24" width="24"><g><path d="M0,0h24v24H0V0z" fill="none"/></g><g><path d="M4,16h3c0.55,0,1-0.45,1-1s-0.45-1-1-1H4c-0.55,0-1,0.45-1,1S3.45,16,4,16z M10.5,16h3c0.55,0,1-0.45,1-1s-0.45-1-1-1h-3 c-0.55,0-1,0.45-1,1S9.95,16,10.5,16z M17,16h3c0.55,0,1-0.45,1-1s-0.45-1-1-1h-3c-0.55,0-1,0.45-1,1S16.45,16,17,16z M4,20 c0.55,0,1-0.45,1-1s-0.45-1-1-1s-1,0.45-1,1S3.45,20,4,20z M8,20c0.55,0,1-0.45,1-1s-0.45-1-1-1s-1,0.45-1,1S7.45,20,8,20z M12,20 c0.55,0,1-0.45,1-1s-0.45-1-1-1s-1,0.45-1,1S11.45,20,12,20z M16,20c0.55,0,1-0.45,1-1s-0.45-1-1-1s-1,0.45-1,1S15.45,20,16,20z M20,20c0.55,0,1-0.45,1-1s-0.45-1-1-1s-1,0.45-1,1S19.45,20,20,20z M4,12h6c0.55,0,1-0.45,1-1s-0.45-1-1-1H4c-0.55,0-1,0.45-1,1 S3.45,12,4,12z M14,12h6c0.55,0,1-0.45,1-1s-0.45-1-1-1h-6c-0.55,0-1,0.45-1,1S13.45,12,14,12z M3,5v2c0,0.55,0.45,1,1,1h16 c0.55,0,1-0.45,1-1V5c0-0.55-0.45-1-1-1H4C3.45,4,3,4.45,3,5z"/></g></svg>