<svg xmlns="http://www.w3.org/2000/svg" enable-background="new 0 0 24 24" height="24" viewBox="0 0 24 24" width="24"><g><rect fill="none" height="24" width="24" y="0"/></g><g><g><rect height="2" width="2" x="14" y="18"/><rect height="2" width="2" x="8" y="4"/><path d="M20,4h-8v4c0,1.1,0.9,2,2,2h8V6C22,4.9,21.1,4,20,4z"/><path d="M20,18L20,18l-2,0v2l2,0c1.1,0,2-0.9,2-2v-2h-2V18z"/><rect height="2" width="2" x="10" y="18"/><rect height="2" width="2" x="20" y="12"/><rect height="2" width="2" x="2" y="14"/><rect height="2" width="2" x="2" y="10"/><path d="M4,20L4,20l0-2H2v0C2,19.1,2.9,20,4,20z"/><path d="M6,4H4C2.9,4,2,4.9,2,6v2h2V6h2V4z"/><rect height="2" width="2" x="6" y="18"/></g></g></svg>