<svg xmlns="http://www.w3.org/2000/svg" enable-background="new 0 0 24 24" height="24" viewBox="0 0 24 24" width="24"><g><rect fill="none" height="24" width="24"/></g><g><path d="M4,18.01h16V5.99H4V18.01z M17,10l2,2.01L17,14V10z M12.01,7L14,9h-4L12.01,7z M14,15l-1.99,2L10,15H14z M7,10v4l-2-1.99L7,10z" enable-background="new" opacity=".3"/><path d="M7,10l-2,2.01L7,14V10z M14,15h-4l2.01,2L14,15z M17,10v4l2-1.99L17,10z M12.01,7L10,9h4L12.01,7z M20,4H4C2.9,4,2,4.9,2,6 v12c0,1.1,0.9,2,2,2h16c1.1,0,2-0.9,2-2V6C22,4.9,21.1,4,20,4z M20,18.01H4V5.99h16V18.01z"/></g></svg>