<svg xmlns="http://www.w3.org/2000/svg" enable-background="new 0 0 24 24" height="24" viewBox="0 0 24 24" width="24"><g><rect fill="none" height="24" width="24"/></g><g><g><path d="M20,4H4C2.9,4,2,4.9,2,6v12c0,1.1,0.9,2,2,2h16c1.1,0,2-0.9,2-2V6C22,4.9,21.1,4,20,4z M8.47,15.53l-1.42,1.42 C5.78,15.68,5,13.93,5,12s0.78-3.68,2.05-4.95l1.42,1.42C7.56,9.37,7,10.62,7,12C7,13.38,7.56,14.63,8.47,15.53z M12,15 c-1.66,0-3-1.34-3-3s1.34-3,3-3s3,1.34,3,3S13.66,15,12,15z M16.95,16.95l-1.42-1.42C16.44,14.63,17,13.38,17,12 c0-1.38-0.56-2.63-1.47-3.53l1.42-1.42C18.22,8.32,19,10.07,19,12S18.22,15.68,16.95,16.95z"/></g></g></svg>