<svg xmlns="http://www.w3.org/2000/svg" enable-background="new 0 0 24 24" height="24" viewBox="0 0 24 24" width="24"><g><path d="M0,0h24v24H0V0z" fill="none"/></g><g><g><path d="M2,7L2,7C1.45,7,1,7.45,1,8v10c0,1.1,0.9,2,2,2h16c0.55,0,1-0.45,1-1v0c0-0.55-0.45-1-1-1H3V8C3,7.45,2.55,7,2,7z"/><path d="M21,4H7C5.9,4,5,4.9,5,6v8c0,1.1,0.9,2,2,2h14c1.1,0,2-0.9,2-2V6C23,4.9,22.1,4,21,4z M7,14v-2c1.1,0,2,0.9,2,2H7z M7,8V6 h2C9,7.1,8.1,8,7,8z M14,13c-1.66,0-3-1.34-3-3s1.34-3,3-3s3,1.34,3,3S15.66,13,14,13z M21,14h-2c0-1.1,0.9-2,2-2V14z M21,8 c-1.1,0-2-0.9-2-2h2V8z"/></g></g></svg>