<svg xmlns="http://www.w3.org/2000/svg" enable-background="new 0 0 24 24" height="24" viewBox="0 0 24 24" width="24"><g><rect fill="none" height="24" width="24"/></g><g><path d="M11,16c0,0.55,0.45,1,1,1s1-0.45,1-1v-2h-2V16z M3,16c0,0.55,0.45,1,1,1 s1-0.45,1-1v-2H3V16z M19,16c0,0.55,0.45,1,1,1s1-0.45,1-1v-2h-2V16z" enable-background="new" opacity=".3"/><path d="M5,2c0-0.55-0.45-1-1-1S3,1.45,3,2v4H1v10c0,1.3,0.84,2.4,2,2.82V23h2v-4.18C6.16,18.4,7,17.3,7,16V6H5V2z M5,16 c0,0.55-0.45,1-1,1s-1-0.45-1-1v-2h2V16z M5,12H3V8h2V12z M13,2c0-0.55-0.45-1-1-1s-1,0.45-1,1v4H9v10c0,1.3,0.84,2.4,2,2.82V23h2 v-4.18c1.16-0.42,2-1.52,2-2.82V6h-2V2z M13,16c0,0.55-0.45,1-1,1s-1-0.45-1-1v-2h2V16z M13,12h-2V8h2V12z M21,6V2 c0-0.55-0.45-1-1-1s-1,0.45-1,1v4h-2v10c0,1.3,0.84,2.4,2,2.82V23h2v-4.18c1.16-0.42,2-1.52,2-2.82V6H21z M21,16c0,0.55-0.45,1-1,1 s-1-0.45-1-1v-2h2V16z M21,12h-2V8h2V12z"/></g></svg>