<svg xmlns="http://www.w3.org/2000/svg" enable-background="new 0 0 24 24" height="24" viewBox="0 0 24 24" width="24"><g><rect fill="none" height="24" width="24"/></g><g><g><g><path d="M7.59,5.41c-0.78-0.78-0.78-2.05,0-2.82s2.05-0.78,2.83,0s0.78,2.05,0,2.82C9.62,6.2,8.36,6.2,7.59,5.41z M6,16V7H4v9 c0,2.76,2.24,5,5,5h6v-2H9C7.34,19,6,17.66,6,16z M20,20.07l-4.48-4.48C15.14,15.21,14.63,15,14.1,15h-2.6v-3.68 c1.4,1.15,3.6,2.16,5.5,2.16v-2.16c-1.66,0.02-3.61-0.87-4.67-2.04l-1.4-1.55c-0.19-0.21-0.43-0.38-0.69-0.5 C9.95,7.09,9.62,7,9.28,7H9.25C8.01,7,7,8.01,7,9.25V15c0,1.66,1.34,3,3,3h5.07l3.5,3.5L20,20.07z"/></g></g></g></svg>