<svg xmlns="http://www.w3.org/2000/svg" enable-background="new 0 0 24 24" height="24" viewBox="0 0 24 24" width="24"><g display="none"><g display="inline"><path d="M0,0h24v24H0V0z" fill="none"/></g></g><g><g><path d="M12.01,2C12,2,12,2,12.01,2c-1.2,0-2.34,0.22-3.4,0.6L13,7V4.07c3.94,0.49,7,3.86,7,7.93h2C22,6.49,17.52,2,12.01,2z"/><path d="M11,19.93C7.06,19.44,4,16.07,4,12H2c0,5.51,4.48,10,9.99,10c0,0,0,0,0.01,0c1.19,0,2.33-0.22,3.4-0.6L11,17V19.93z"/><path d="M15.5,9h-3v6h3c0.55,0,1-0.45,1-1v-4C16.5,9.45,16.05,9,15.5,9z M15,13.5h-1v-3h1V13.5z"/><path d="M11.5,14v-4c0-0.55-0.45-1-1-1h-3v1.5H10v1H8.5v1H10v1H7.5V15h3C11.05,15,11.5,14.55,11.5,14z"/></g></g></svg>