<svg xmlns="http://www.w3.org/2000/svg" enable-background="new 0 0 24 24" height="24" viewBox="0 0 24 24" width="24"><g><path d="M0,0h24v24H0V0z" fill="none"/></g><g><path d="M20.94,11C20.48,6.83,17.17,3.52,13,3.06V1h-2v2.06C9.62,3.21,8.34,3.68,7.22,4.39l1.45,1.45C9.66,5.3,10.79,5,12,5 c3.87,0,7,3.13,7,7c0,1.21-0.3,2.34-0.84,3.33l1.45,1.45c0.71-1.12,1.18-2.4,1.33-3.78H23v-2H20.94z M1.39,4.22l2.99,2.99 C3.68,8.34,3.21,9.62,3.06,11H1v2h2.06c0.46,4.17,3.77,7.48,7.94,7.94V23h2v-2.06c1.38-0.15,2.66-0.62,3.78-1.33l2.99,2.99 l1.41-1.41L2.81,2.81L1.39,4.22z M5.84,8.67l9.49,9.49C14.34,18.7,13.21,19,12,19c-3.87,0-7-3.13-7-7C5,10.79,5.3,9.66,5.84,8.67z"/></g></svg>