<svg xmlns="http://www.w3.org/2000/svg" enable-background="new 0 0 24 24" height="24" viewBox="0 0 24 24" width="24"><g><rect fill="none" height="24" width="24"/></g><g><g><rect height="1" width="1" x="10" y="9"/><path d="M20,2H8C6.9,2,6,2.9,6,4v12c0,1.1,0.9,2,2,2h12c1.1,0,2-0.9,2-2V4C22,2.9,21.1,2,20,2z M12,10c0,0.55-0.45,1-1,1h-1v2H9V8 h2c0.55,0,1,0.45,1,1V10z M16,12c0,0.55-0.45,1-1,1h-2V8h2c0.55,0,1,0.45,1,1V12z M19,9h-1v1h1v1h-1v2h-1V8h2V9z"/><rect height="3" width="1" x="14" y="9"/><path d="M4,6H2v14c0,1.1,0.9,2,2,2h14v-2H4V6z"/></g></g></svg>