<svg xmlns="http://www.w3.org/2000/svg" enable-background="new 0 0 24 24" height="24" viewBox="0 0 24 24" width="24"><g><path d="M0,0h24v24H0V0z" fill="none"/></g><g><g><g><path d="M17.7,15.89L13.82,12l3.89-3.89c0.39-0.39,0.39-1.02,0-1.41l0,0c-0.39-0.39-1.02-0.39-1.41,0l-4.59,4.59 c-0.39,0.39-0.39,1.02,0,1.41l4.59,4.59c0.39,0.39,1.02,0.39,1.41,0l0,0C18.09,16.91,18.09,16.27,17.7,15.89z M7,6L7,6 c0.55,0,1,0.45,1,1v10c0,0.55-0.45,1-1,1l0,0c-0.55,0-1-0.45-1-1V7C6,6.45,6.45,6,7,6z"/></g></g></g></svg>