<svg xmlns="http://www.w3.org/2000/svg" enable-background="new 0 0 24 24" height="24" viewBox="0 0 24 24" width="24"><g><rect fill="none" height="24" width="24" y="0"/></g><g><g><path d="M16.36,6.53L15,2H9L7.64,6.53C6.03,7.81,5,9.78,5,12s1.03,4.19,2.64,5.47L9,22h6l1.36-4.53C17.97,16.19,19,14.22,19,12 S17.97,7.81,16.36,6.53z M10.49,4h3.02l0.38,1.27c-0.55-0.15-1.96-0.51-3.78,0L10.49,4z M13.51,20h-3.02l-0.38-1.27 c0.55,0.15,1.96,0.51,3.78,0L13.51,20z M12,17c-2.76,0-5-2.24-5-5s2.24-5,5-5s5,2.24,5,5S14.76,17,12,17z"/></g></g></svg>