<svg xmlns="http://www.w3.org/2000/svg" enable-background="new 0 0 24 24" height="24" viewBox="0 0 24 24" width="24"><g><path d="M0,0h24v24H0V0z" fill="none"/></g><g><g><path d="M5,21v-2H3C3,20.1,3.9,21,5,21z"/><rect height="2" width="2" x="3" y="15"/><rect height="2" width="2" x="11" y="3"/><rect height="2" width="2" x="15" y="3"/><path d="M19,3v2h2C21,3.9,20.1,3,19,3z"/><rect height="2" width="2" x="19" y="7"/><rect height="2" width="2" x="3" y="7"/><rect height="2" width="2" x="7" y="19"/><rect height="2" width="2" x="7" y="3"/><rect height="2" width="2" x="3" y="11"/><path d="M3,5h2V3C3.9,3,3,3.9,3,5z"/><path d="M16.71,15.29l2.59-2.59c0.63-0.63,0.18-1.71-0.71-1.71H12c-0.55,0-1,0.45-1,1v6.59c0,0.89,1.08,1.34,1.71,0.71l2.59-2.59 l3.59,3.59c0.39,0.39,1.02,0.39,1.41,0l0,0c0.39-0.39,0.39-1.02,0-1.41L16.71,15.29z"/></g></g></svg>