<svg xmlns="http://www.w3.org/2000/svg" enable-background="new 0 0 24 24" height="24" viewBox="0 0 24 24" width="24"><g><g><path d="M0,0h24v24H0V0z" fill="none"/></g></g><g><path d="M21,9c-0.21,0-2.62,0.04-5.13,1.28C15.19,5.58,12,2,12,2s-3.19,3.58-3.87,8.28C5.62,9.04,3.21,9,3,9H2v1 c0,10.33,7.95,11.76,10,12c2.05-0.24,10-1.67,10-12V9H21z M4.03,11.07c0.69,0.09,7.4,0.74,7.93,8.86 C7.83,19.41,4.41,16.7,4.03,11.07z M12,13.58c-0.59-0.86-1.26-1.55-1.97-2.12c0.13-2.36,1.09-4.51,1.97-6 c0.88,1.49,1.84,3.64,1.97,6C13.26,12.03,12.59,12.73,12,13.58z M13.93,19.5c-0.12-1.47-0.41-2.73-0.83-3.81 c1.74-3.51,5.11-4.4,6.87-4.62C19.6,16.6,16.42,18.7,13.93,19.5z"/></g></svg>