<?xml version="1.0" encoding="utf-8"?>
<!-- Generator: Adobe Illustrator 21.0.2, SVG Export Plug-In . SVG Version: 6.00 Build 0)  -->
<svg version="1.1" id="ic_x5F_mediation_x5F_gm2sharp_x5F_24px"
	 xmlns="http://www.w3.org/2000/svg" xmlns:xlink="http://www.w3.org/1999/xlink" x="0px" y="0px" width="24px" height="24px"
	 viewBox="0 0 24 24" enable-background="new 0 0 24 24" xml:space="preserve">
<g>
	<g>
		<path d="M18,13h-5.06c-0.34,3.1-2.26,5.72-4.94,7.05C7.96,21.69,6.64,23,5,23c-1.66,0-3-1.34-3-3s1.34-3,3-3
			c0.95,0,1.78,0.45,2.33,1.14c1.9-1.03,3.26-2.91,3.58-5.14h-3.1C7.4,14.16,6.3,15,5,15c-1.66,0-3-1.34-3-3s1.34-3,3-3
			c1.3,0,2.4,0.84,2.82,2h3.1C10.6,8.77,9.23,6.9,7.33,5.86C6.78,6.55,5.95,7,5,7C3.34,7,2,5.66,2,4s1.34-3,3-3
			c1.64,0,2.96,1.31,2.99,2.95c2.68,1.33,4.6,3.95,4.94,7.05H18V8l4,4l-4,4V13z"/>
	</g>
	<rect fill="none" width="24" height="24"/>
</g>
</svg>
