<?xml version="1.0" encoding="utf-8"?>
<!-- Generator: Adobe Illustrator 23.0.3, SVG Export Plug-In . SVG Version: 6.00 Build 0)  -->
<svg version="1.1" xmlns="http://www.w3.org/2000/svg" xmlns:xlink="http://www.w3.org/1999/xlink" x="0px" y="0px" width="24px"
	 height="24px" viewBox="0 0 24 24" enable-background="new 0 0 24 24" xml:space="preserve">
<g id="Bounding_Box">
	<rect fill="none" width="24" height="24"/>
</g>
<g id="Master">
	<g>
		<path d="M20,4H6.83l2,2H20v11.17l1.76,1.76C21.91,18.65,22,18.34,22,18V6C22,4.9,21.1,4,20,4z"/>
		<polygon points="18,10 12.83,10 14.83,12 18,12 		"/>
		<path d="M1.04,3.87l1.2,1.2C2.09,5.35,2,5.66,2,6v12c0,1.1,0.9,2,2,2h13.17l2.96,2.96l1.41-1.41L2.45,2.45L1.04,3.87z M4,6.83
			L7.17,10H6v2h2v-1.17L11.17,14H6v2h7.17l2,2H4V6.83z"/>
	</g>
</g>
</svg>
