<svg xmlns="http://www.w3.org/2000/svg" enable-background="new 0 0 24 24" height="24" viewBox="0 0 24 24" width="24"><g><path d="M0,0h24v24H0V0z" fill="none"/></g><g><g><circle cx="12" cy="12" enable-background="new" opacity=".3" r="5"/><polygon points="19,19 16,19 16,21 21,21 21,16 19,16"/><path d="M19,12c0-3.87-3.13-7-7-7s-7,3.13-7,7s3.13,7,7,7S19,15.87,19,12z M12,17c-2.76,0-5-2.24-5-5s2.24-5,5-5s5,2.24,5,5 S14.76,17,12,17z"/><polygon points="16,3 16,5 19,5 19,8 21,8 21,3"/><polygon points="5,5 8,5 8,3 3,3 3,8 5,8"/><polygon points="5,16 3,16 3,21 8,21 8,19 5,19"/></g></g></svg>