<svg xmlns="http://www.w3.org/2000/svg" enable-background="new 0 0 24 24" height="24" viewBox="0 0 24 24" width="24"><g><rect fill="none" height="24" width="24"/></g><g><path d="M8,16h12V4H8V16z M12.5,10c0.57,0,1.08,0.19,1.5,0.51V5h4v2h-3v5.5 c0,1.38-1.12,2.5-2.5,2.5S10,13.88,10,12.5S11.12,10,12.5,10z" enable-background="new" opacity=".3"/><path d="M20,2H8C6.9,2,6,2.9,6,4v12c0,1.1,0.9,2,2,2h12c1.1,0,2-0.9,2-2V4C22,2.9,21.1,2,20,2z M20,16H8V4h12V16z M12.5,15 c1.38,0,2.5-1.12,2.5-2.5V7h3V5h-4v5.51C13.58,10.19,13.07,10,12.5,10c-1.38,0-2.5,1.12-2.5,2.5S11.12,15,12.5,15z M2,6v14 c0,1.1,0.9,2,2,2h14v-2H4V6H2z"/></g></svg>