<svg xmlns="http://www.w3.org/2000/svg" enable-background="new 0 0 24 24" height="24" viewBox="0 0 24 24" width="24"><g><path d="M0,0h24v24H0V0z" fill="none"/></g><g><g><g><path d="M10.01,6.35C13.71,5.01,18,7.71,18,12h-1.79c-0.45,0-0.67,0.54-0.35,0.85l2.79,2.79c0.2,0.2,0.51,0.2,0.71,0l2.79-2.79 c0.31-0.31,0.09-0.85-0.35-0.85H20c0-5.76-5.78-9.39-10.79-7.48C8.57,4.76,8.42,5.6,8.9,6.07l0.08,0.08 C9.25,6.42,9.65,6.48,10.01,6.35z"/></g><g><path d="M13.98,17.64C10.14,19.01,6,16.17,6,12h1.79c0.45,0,0.67-0.54,0.35-0.85L5.35,8.35c-0.2-0.2-0.51-0.2-0.71,0l-2.79,2.79 C1.54,11.46,1.76,12,2.21,12H4c0,5.76,5.78,9.39,10.79,7.48c0.63-0.24,0.78-1.08,0.3-1.56l-0.07-0.07 C14.75,17.58,14.35,17.52,13.98,17.64z"/></g></g></g></svg>