<svg xmlns="http://www.w3.org/2000/svg" enable-background="new 0 0 24 24" height="24" viewBox="0 0 24 24" width="24"><g><g><path d="M0,0h24v24H0V0z" fill="none"/></g></g><g><g><g><path d="M21,11h-3.17l2.54-2.54c0.39-0.39,0.39-1.02,0-1.41l0,0c-0.39-0.39-1.03-0.39-1.42,0L15,11h-2V9l3.95-3.95 c0.39-0.39,0.39-1.03,0-1.42l0,0c-0.39-0.39-1.02-0.39-1.41,0L13,6.17V3c0-0.55-0.45-1-1-1l0,0c-0.55,0-1,0.45-1,1v3.17 L8.46,3.63c-0.39-0.39-1.02-0.39-1.41,0l0,0c-0.39,0.39-0.39,1.03,0,1.42L11,9v2H9L5.05,7.05c-0.39-0.39-1.03-0.39-1.42,0l0,0 c-0.39,0.39-0.39,1.02,0,1.41L6.17,11H3c-0.55,0-1,0.45-1,1l0,0c0,0.55,0.45,1,1,1h3.17l-2.54,2.54c-0.39,0.39-0.39,1.02,0,1.41 l0,0c0.39,0.39,1.03,0.39,1.42,0L9,13h2v2l-3.95,3.95c-0.39,0.39-0.39,1.03,0,1.42l0,0c0.39,0.39,1.02,0.39,1.41,0L11,17.83V21 c0,0.55,0.45,1,1,1l0,0c0.55,0,1-0.45,1-1v-3.17l2.54,2.54c0.39,0.39,1.02,0.39,1.41,0l0,0c0.39-0.39,0.39-1.03,0-1.42L13,15v-2 h2l3.95,3.95c0.39,0.39,1.03,0.39,1.42,0l0,0c0.39-0.39,0.39-1.02,0-1.41L17.83,13H21c0.55,0,1-0.45,1-1l0,0 C22,11.45,21.55,11,21,11z"/></g></g></g></svg>