<svg xmlns="http://www.w3.org/2000/svg" enable-background="new 0 0 24 24" height="24" viewBox="0 0 24 24" width="24"><g><path d="M0,0h24v24H0V0z" fill="none"/></g><g><g><path d="M21,12L21,12c0,0.55-0.45,1-1,1h-3v1h2.67C20.4,14,21,14.6,21,15.33v2.33C21,18.4,20.4,19,19.67,19H16c-0.55,0-1-0.45-1-1 v0c0-0.55,0.45-1,1-1h3v-1h-3c-0.55,0-1-0.45-1-1v-2.67C15,11.6,15.6,11,16.33,11H20C20.55,11,21,11.45,21,12z M4,6.5L4,6.5 C4,7.33,4.67,8,5.5,8H10v2.5H5.5C4.67,10.5,4,11.17,4,12v0c0,0.83,0.67,1.5,1.5,1.5H10V16H5.5C4.67,16,4,16.67,4,17.5v0 C4,18.33,4.67,19,5.5,19H10c1.66,0,3-1.34,3-3v-1.9c0-1.16-0.94-2.1-2.1-2.1c1.16,0,2.1-0.94,2.1-2.1V8c0-1.66-1.34-3-3-3H5.5 C4.67,5,4,5.67,4,6.5z"/></g></g></svg>