<svg xmlns="http://www.w3.org/2000/svg" enable-background="new 0 0 24 24" height="24" viewBox="0 0 24 24" width="24"><g><rect fill="none" height="24" width="24"/></g><g><path d="M20,6h-8l-2-2H4C2.9,4,2.01,4.9,2.01,6L2,18c0,1.1,0.9,2,2,2h16c1.1,0,2-0.9,2-2V8C22,6.9,21.1,6,20,6z M20,18H4V6h5.17 l2,2H20V18z M15,13c1.1,0,2-0.9,2-2c0-1.1-0.9-2-2-2s-2,0.9-2,2C13,12.1,13.9,13,15,13z M11,17h8v-0.57c0-0.81-0.48-1.53-1.22-1.85 C16.93,14.21,15.99,14,15,14c-0.99,0-1.93,0.21-2.78,0.58C11.48,14.9,11,15.62,11,16.43V17z"/></g></svg>