<svg xmlns="http://www.w3.org/2000/svg" enable-background="new 0 0 24 24" height="24" viewBox="0 0 24 24" width="24"><g><rect fill="none" height="24" width="24"/></g><g><g><g><polygon enable-background="new" opacity=".3" points="17,9 7,9 7,6 5,6 5,20 19,20 19,6 17,6"/><path d="M19,4h-4.18C14.4,2.84,13.3,2,12,2S9.6,2.84,9.18,4H5C3.9,4,3,4.9,3,6v14c0,1.1,0.9,2,2,2h14c1.1,0,2-0.9,2-2V6 C21,4.9,20.1,4,19,4z M12,4c0.55,0,1,0.45,1,1s-0.45,1-1,1s-1-0.45-1-1S11.45,4,12,4z M19,20H5V6h2v3h10V6h2V20z"/></g></g></g></svg>