<svg xmlns="http://www.w3.org/2000/svg" enable-background="new 0 0 24 24" height="24" viewBox="0 0 24 24" width="24"><g><path d="M0,0h24v24H0V0z" fill="none"/></g><g><g><path d="M21,11.01L17,11c-0.55,0-1,0.45-1,1v8c0,0.55,0.45,1,1,1h4c0.55,0,1-0.45,1-1v-8C22,11.45,21.55,11.01,21,11.01z M21,19 h-4v-6h4V19z"/><path d="M12,17h1c0.55,0,1-0.45,1-1v0c0-0.55-0.45-1-1-1H4V5h14v3c0,0.55,0.45,1,1,1h0c0.55,0,1-0.45,1-1V5c0-1.1-0.9-2-2-2H4 C2.9,3,2,3.9,2,5v10c0,1.1,0.9,2,2,2h6v2H9c-0.55,0-1,0.45-1,1v0c0,0.55,0.45,1,1,1h4c0.55,0,1-0.45,1-1v0c0-0.55-0.45-1-1-1h-1 V17z"/><polygon points="11.91,9.06 11,6.25 10.09,9.06 7.25,9.06 9.57,10.9 8.68,13.75 11,11.99 13.32,13.75 12.43,10.9 14.75,9.06"/></g></g></svg>