<svg xmlns="http://www.w3.org/2000/svg" enable-background="new 0 0 24 24" height="24" viewBox="0 0 24 24" width="24"><g><path d="M0,0h24v24H0V0z" fill="none"/></g><g><g><path d="M19,3h-6c-0.55,0-1,0.45-1,1v0c0,0.55,0.45,1,1,1h6v14h-6c-0.55,0-1,0.45-1,1v0c0,0.55,0.45,1,1,1h6c1.1,0,2-0.9,2-2V5 C21,3.9,20.1,3,19,3z"/></g><path d="M11,9.21V11H4c-0.55,0-1,0.45-1,1v0c0,0.55,0.45,1,1,1h7v1.79c0,0.45,0.54,0.67,0.85,0.35l2.79-2.79 c0.2-0.2,0.2-0.51,0-0.71l-2.79-2.79C11.54,8.54,11,8.76,11,9.21z"/></g></svg>