<svg xmlns="http://www.w3.org/2000/svg" enable-background="new 0 0 24 24" height="24" viewBox="0 0 24 24" width="24"><g><rect fill="none" height="24" width="24"/></g><g><path d="M18,7V4h1c0.55,0,1-0.45,1-1v0c0-0.55-0.45-1-1-1H5C4.45,2,4,2.45,4,3v0c0,0.55,0.45,1,1,1h1v3c0,2.09,1.07,3.93,2.69,5 C7.07,13.07,6,14.91,6,17v3H5c-0.55,0-1,0.45-1,1v0c0,0.55,0.45,1,1,1h14c0.55,0,1-0.45,1-1v0c0-0.55-0.45-1-1-1h-1v-3 c0-2.09-1.07-3.93-2.69-5C16.93,10.93,18,9.09,18,7z M16,17v3H8v-3c0-2.21,1.79-4,4-4C14.21,13,16,14.79,16,17z"/></g></svg>