<svg xmlns="http://www.w3.org/2000/svg" enable-background="new 0 0 24 24" height="24" viewBox="0 0 24 24" width="24"><g><rect fill="none" height="24" width="24"/></g><g><g><g><path d="M12,4c-4.42,0-8,3.58-8,8s3.58,8,8,8s8-3.58,8-8S16.42,4,12,4z M7,13.5 c-0.83,0-1.5-0.67-1.5-1.5s0.67-1.5,1.5-1.5s1.5,0.67,1.5,1.5S7.83,13.5,7,13.5z M12,13.5c-0.83,0-1.5-0.67-1.5-1.5 s0.67-1.5,1.5-1.5s1.5,0.67,1.5,1.5S12.83,13.5,12,13.5z M17,13.5c-0.83,0-1.5-0.67-1.5-1.5s0.67-1.5,1.5-1.5s1.5,0.67,1.5,1.5 S17.83,13.5,17,13.5z" enable-background="new" opacity=".3"/><path d="M12,2C6.48,2,2,6.48,2,12s4.48,10,10,10s10-4.48,10-10S17.52,2,12,2z M12,20c-4.42,0-8-3.58-8-8s3.58-8,8-8s8,3.58,8,8 S16.42,20,12,20z"/><circle cx="7" cy="12" r="1.5"/><circle cx="12" cy="12" r="1.5"/><circle cx="17" cy="12" r="1.5"/></g></g></g></svg>