<svg xmlns="http://www.w3.org/2000/svg" xmlns:xlink="http://www.w3.org/1999/xlink" enable-background="new 0 0 24 24" height="24px" id="ic_x5F_mark_x5F_chat_x5F_unread_x5F_m2round_x5F_24px_1_" version="1.1" viewBox="0 0 24 24" width="24px" x="0px" xml:space="preserve" y="0px"><g id="ic_x5F_mark_x5F_chat_x5F_unread_x5F_m2round_x5F_24px"><path d="M22,6.98V16c0,1.1-0.9,2-2,2H6l-4,4V4c0-1.1,0.9-2,2-2h10.1C14.04,2.32,14,2.66,14,3c0,2.76,2.24,5,5,5 C20.13,8,21.16,7.61,22,6.98z M16,3c0,1.66,1.34,3,3,3s3-1.34,3-3s-1.34-3-3-3S16,1.34,16,3z"/><rect fill="none" height="24" width="24" y="0"/></g></svg>