<svg xmlns="http://www.w3.org/2000/svg" enable-background="new 0 0 24 24" height="24" viewBox="0 0 24 24" width="24"><g><rect fill="none" height="24" width="24"/></g><g><path d="M20,6h-8l-1.41-1.41C10.21,4.21,9.7,4,9.17,4H4C2.9,4,2.01,4.9,2.01,6L2,18c0,1.1,0.9,2,2,2h16c1.1,0,2-0.9,2-2V8 C22,6.9,21.1,6,20,6z M15,9c1.1,0,2,0.9,2,2c0,1.1-0.9,2-2,2s-2-0.9-2-2C13,9.9,13.9,9,15,9z M19,17h-8v-0.57 c0-0.81,0.48-1.53,1.22-1.85C13.07,14.21,14.01,14,15,14c0.99,0,1.93,0.21,2.78,0.58C18.52,14.9,19,15.62,19,16.43V17z"/></g></svg>