<svg xmlns="http://www.w3.org/2000/svg" enable-background="new 0 0 24 24" height="24" viewBox="0 0 24 24" width="24"><g><path d="M0,0h24v24H0V0z" fill="none"/></g><g><g><path d="M12,4c-4.41,0-8,3.59-8,8s3.59,8,8,8c4.41,0,8-3.59,8-8S16.41,4,12,4z M10.59,16.6l-4.24-4.24l1.41-1.41l2.83,2.83l5.66-5.66l1.41,1.41L10.59,16.6z" enable-background="new" opacity=".3"/><path d="M16.24,8.11l-5.66,5.66l-2.83-2.83l-1.41,1.41l4.24,4.24l7.07-7.07L16.24,8.11z M12,2C6.48,2,2,6.48,2,12s4.48,10,10,10 c5.52,0,10-4.48,10-10S17.52,2,12,2z M12,20c-4.41,0-8-3.59-8-8s3.59-8,8-8c4.41,0,8,3.59,8,8S16.41,20,12,20z"/></g></g></svg>