<svg xmlns="http://www.w3.org/2000/svg" enable-background="new 0 0 24 24" height="24" viewBox="0 0 24 24" width="24"><g><rect fill="none" height="24" width="24"/></g><g><g><polygon enable-background="new" opacity=".3" points="20,5 7.83,5 11.83,9 13,9 13,7 16,10 14.41,11.59 18.83,16 20,16"/><path d="M13.17,16L10,12.83V14H8v-2c0-0.35,0.07-0.68,0.18-0.99L4,6.83V16H13.17z" enable-background="new" opacity=".3"/><polygon points="13,7 13,9 11.83,9 14.41,11.59 16,10"/><path d="M20,5v11h-1.17l1.87,1.87c0.75-0.29,1.29-1.01,1.29-1.87L22,5c0-1.1-0.9-2-2-2H5.83l2,2H20z"/><path d="M2.1,2.1L0.69,3.51l1.33,1.33C2.01,4.9,2,4.95,2,5v11c0,1.1,0.9,2,2,2h11.17l1,1H1v2h17.17l2.31,2.31l1.41-1.41L2.1,2.1z M4,16V6.83l4.18,4.18C8.07,11.32,8,11.65,8,12v2h2v-1.17L13.17,16H4z"/></g></g></svg>