<svg xmlns="http://www.w3.org/2000/svg" enable-background="new 0 0 24 24" height="24" viewBox="0 0 24 24" width="24"><g><rect fill="none" height="24" width="24" y="0"/></g><g><g><path d="M11,4.1C8.72,4.57,7,6.59,7,9h4V4.1z" opacity=".3"/><path d="M7,15c0,2.76,2.24,5,5,5s5-2.24,5-5v-4H7V15z" opacity=".3"/><path d="M13,4.1V9h4C17,6.59,15.28,4.57,13,4.1z" opacity=".3"/><path d="M12,2C8.13,2,5,5.13,5,9v6c0,3.87,3.13,7,7,7s7-3.13,7-7V9C19,5.13,15.87,2,12,2z M11,4.1V9H7C7,6.59,8.72,4.57,11,4.1z M17,15c0,2.76-2.24,5-5,5s-5-2.24-5-5v-4h10V15z M13,9V4.1c2.28,0.46,4,2.48,4,4.9H13z"/></g></g></svg>