<svg xmlns="http://www.w3.org/2000/svg" enable-background="new 0 0 24 24" height="24" viewBox="0 0 24 24" width="24"><g><rect fill="none" height="24" width="24"/></g><g><path d="M19,4h-1V3c0-0.55-0.45-1-1-1s-1,0.45-1,1v1H8V3c0-0.55-0.45-1-1-1S6,2.45,6,3v1H5C3.89,4,3,4.9,3,6v14c0,1.1,0.89,2,2,2 h14c1.1,0,2-0.9,2-2V6C21,4.9,20.1,4,19,4z M19,20H5V10h14V20z M9,18L9,18c0.39,0.39,1.02,0.39,1.41,0L12,16.41L13.59,18 c0.39,0.39,1.02,0.39,1.41,0l0,0c0.39-0.39,0.39-1.02,0-1.41L13.41,15L15,13.41c0.39-0.39,0.39-1.02,0-1.41l0,0 c-0.39-0.39-1.02-0.39-1.41,0L12,13.59L10.41,12c-0.39-0.39-1.02-0.39-1.41,0l0,0c-0.39,0.39-0.39,1.02,0,1.41L10.59,15L9,16.59 C8.61,16.98,8.61,17.61,9,18z"/></g></svg>