<svg xmlns="http://www.w3.org/2000/svg" enable-background="new 0 0 24 24" height="24" viewBox="0 0 24 24" width="24"><g><rect fill="none" height="24" width="24"/></g><g><g><rect enable-background="new" height="2" opacity=".3" width="14" x="5" y="6"/><path d="M19,4h-1V2h-2v2H8V2H6v2H5C3.9,4,3,4.9,3,6v14c0,1.1,0.9,2,2,2h14c1.1,0,2-0.9,2-2V6C21,4.9,20.1,4,19,4z M19,20H5V10h14 V20z M19,8H5V6h14V8z M9.7,18.71l2.3-2.3l2.3,2.3l1.41-1.41l-2.3-2.3l2.3-2.3l-1.41-1.41l-2.3,2.3l-2.3-2.3L8.29,12.7l2.3,2.3 l-2.3,2.3L9.7,18.71z"/></g></g></svg>