<svg xmlns="http://www.w3.org/2000/svg" enable-background="new 0 0 24 24" height="24" viewBox="0 0 24 24" width="24"><g><rect fill="none" height="24" width="24" y="0"/></g><g><g><path d="M19,13h-2V9h-2v4H5c-1.1,0-2,0.9-2,2v4c0,1.1,0.9,2,2,2h14c1.1,0,2-0.9,2-2v-4C21,13.9,20.1,13,19,13z M19,19H5v-4h10h2h2 V19z"/><rect height="2" width="2" x="6" y="16"/><rect height="2" width="2" x="9.5" y="16"/><rect height="2" width="2" x="13" y="16"/><path d="M16,4c1.66,0,3.16,0.67,4.24,1.76l1.41-1.41C20.21,2.9,18.21,2,16,2s-4.21,0.9-5.65,2.35l1.41,1.41 C12.84,4.67,14.34,4,16,4z"/><path d="M12.82,6.82l1.41,1.41C14.68,7.78,15.31,7.5,16,7.5s1.32,0.28,1.77,0.73l1.41-1.41C18.37,6,17.24,5.5,16,5.5 S13.63,6,12.82,6.82z"/></g></g></svg>