<?xml version="1.0" encoding="utf-8"?>
<!-- Generator: Adobe Illustrator 23.0.1, SVG Export Plug-In . SVG Version: 6.00 Build 0)  -->
<svg version="1.1" xmlns="http://www.w3.org/2000/svg" xmlns:xlink="http://www.w3.org/1999/xlink" x="0px" y="0px" width="24px"
	 height="24px" viewBox="0 0 24 24" enable-background="new 0 0 24 24" xml:space="preserve">
<g id="Bounding_Box">
	<rect fill="none" width="24" height="24"/>
	<rect fill="none" width="24" height="24"/>
</g>
<g id="Master">
	<path d="M19,9.3V5c0-0.55-0.45-1-1-1h-1c-0.55,0-1,0.45-1,1v1.6l-3.33-3c-0.38-0.34-0.96-0.34-1.34,0l-8.36,7.53
		C2.63,11.43,2.84,12,3.3,12H5v7c0,0.55,0.45,1,1,1h3c0.55,0,1-0.45,1-1v-5h4v5c0,0.55,0.45,1,1,1h3c0.55,0,1-0.45,1-1v-7h1.7
		c0.46,0,0.68-0.57,0.33-0.87L19,9.3z M10,10c0-1.1,0.9-2,2-2s2,0.9,2,2H10z"/>
</g>
</svg>
