<svg xmlns="http://www.w3.org/2000/svg" enable-background="new 0 0 24 24" height="24" viewBox="0 0 24 24" width="24"><g><g><rect fill="none" height="24" width="24" y="0"/></g></g><g><path d="M20,6h-4V4c0-1.11-0.89-2-2-2h-4C8.89,2,8,2.89,8,4v1.17l13.98,13.98c0-0.05,0.02-0.1,0.02-0.16V8C22,6.89,21.11,6,20,6z M14,6h-4V4h4V6z M2.81,2.81c-0.39-0.39-1.02-0.39-1.41,0C1,3.2,1,3.83,1.39,4.22L3.3,6.13C2.54,6.41,2.01,7.14,2.01,8L2,19 c0,1.11,0.89,2,2,2h14.17l1.61,1.61c0.39,0.39,1.02,0.39,1.41,0s0.39-1.02,0-1.41L2.81,2.81z"/></g></svg>