<svg xmlns="http://www.w3.org/2000/svg" enable-background="new 0 0 24 24" height="24" viewBox="0 0 24 24" width="24"><g><g><rect fill="none" height="24" width="24" y="0"/></g></g><g><g><polygon enable-background="new" opacity=".3" points="20,17.17 20,8 10.83,8"/><polygon enable-background="new" opacity=".3" points="5.17,8 4,8 4,19 16.17,19"/></g><g><path d="M2.1,2.1L0.69,3.51L3.3,6.13C2.54,6.41,2.01,7.14,2.01,8L2,19c0,1.11,0.89,2,2,2h14.17l2.31,2.31l1.41-1.41L2.1,2.1z M4,19V8h1.17l11,11H4z"/><path d="M10.83,8H20v9.17l1.98,1.98c0-0.05,0.02-0.1,0.02-0.15V8c0-1.11-0.89-2-2-2h-4V4c0-1.11-0.89-2-2-2h-4C8.89,2,8,2.89,8,4 v1.17L10.83,8z M10,4h4v2h-4V4z"/></g></g></svg>