<?xml version="1.0" encoding="utf-8"?>
<!-- Generator: Adobe Illustrator 23.0.4, SVG Export Plug-In . SVG Version: 6.00 Build 0)  -->
<svg version="1.1" id="Layer_1" xmlns="http://www.w3.org/2000/svg" xmlns:xlink="http://www.w3.org/1999/xlink" x="0px" y="0px"
	 width="24px" height="24px" viewBox="0 0 24 24" enable-background="new 0 0 24 24" xml:space="preserve">
<rect fill="none" width="24" height="24"/>
<path d="M3,4V1h2v3h3v2H5v3H3V6H0V4H3z M6,10V7h3V4h7l1.83,2H21c1.1,0,2,0.9,2,2v12c0,1.1-0.9,2-2,2H5c-1.1,0-2-0.9-2-2V10H6z
	 M13,19c2.76,0,5-2.24,5-5s-2.24-5-5-5s-5,2.24-5,5S10.24,19,13,19z M9.8,14c0,1.77,1.43,3.2,3.2,3.2s3.2-1.43,3.2-3.2
	s-1.43-3.2-3.2-3.2S9.8,12.23,9.8,14z"/>
</svg>
