<svg xmlns="http://www.w3.org/2000/svg" enable-background="new 0 0 24 24" height="24" viewBox="0 0 24 24" width="24"><g><rect fill="none" height="24" width="24"/></g><g><g><g><g><path d="M14,7.5c0.28,0,0.5-0.22,0.5-0.5S14.28,6.5,14,6.5S13.5,6.72,13.5,7S13.72,7.5,14,7.5z"/><circle cx="14" cy="10" r="1"/><circle cx="14" cy="14" r="1"/><path d="M10,16.5c-0.28,0-0.5,0.22-0.5,0.5s0.22,0.5,0.5,0.5s0.5-0.22,0.5-0.5S10.28,16.5,10,16.5z"/><circle cx="10" cy="10" r="1"/><path d="M7,13.5c-0.28,0-0.5,0.22-0.5,0.5s0.22,0.5,0.5,0.5s0.5-0.22,0.5-0.5S7.28,13.5,7,13.5z"/><path d="M12,2C6.48,2,2,6.48,2,12s4.48,10,10,10s10-4.48,10-10S17.52,2,12,2z M12,20c-4.42,0-8-3.58-8-8s3.58-8,8-8s8,3.58,8,8 S16.42,20,12,20z"/><path d="M7,9.5c-0.28,0-0.5,0.22-0.5,0.5s0.22,0.5,0.5,0.5s0.5-0.22,0.5-0.5S7.28,9.5,7,9.5z"/><circle cx="10" cy="14" r="1"/><path d="M10,7.5c0.28,0,0.5-0.22,0.5-0.5S10.28,6.5,10,6.5S9.5,6.72,9.5,7S9.72,7.5,10,7.5z"/><path d="M14,16.5c-0.28,0-0.5,0.22-0.5,0.5s0.22,0.5,0.5,0.5s0.5-0.22,0.5-0.5S14.28,16.5,14,16.5z"/><path d="M17,9.5c-0.28,0-0.5,0.22-0.5,0.5s0.22,0.5,0.5,0.5s0.5-0.22,0.5-0.5S17.28,9.5,17,9.5z"/><path d="M17,13.5c-0.28,0-0.5,0.22-0.5,0.5s0.22,0.5,0.5,0.5s0.5-0.22,0.5-0.5S17.28,13.5,17,13.5z"/></g></g></g></g></svg>