<svg xmlns="http://www.w3.org/2000/svg" enable-background="new 0 0 24 24" height="24" viewBox="0 0 24 24" width="24"><g><rect fill="none" height="24" width="24"/></g><g><g><path d="M12,7L12,7c-0.55,0-1,0.45-1,1v3H8c-0.55,0-1,0.45-1,1l0,0c0,0.55,0.45,1,1,1h3v3c0,0.55,0.45,1,1,1l0,0 c0.55,0,1-0.45,1-1v-3h3c0.55,0,1-0.45,1-1l0,0c0-0.55-0.45-1-1-1h-3V8C13,7.45,12.55,7,12,7z M12,2C6.48,2,2,6.48,2,12 s4.48,10,10,10s10-4.48,10-10S17.52,2,12,2z M12,20c-4.41,0-8-3.59-8-8s3.59-8,8-8s8,3.59,8,8S16.41,20,12,20z"/></g></g></svg>