<svg xmlns="http://www.w3.org/2000/svg" enable-background="new 0 0 24 24" height="24" viewBox="0 0 24 24" width="24"><g><rect fill="none" height="24" width="24"/></g><g><path d="M20,2H4.83l2,2H8v1.17l2,2V4h4v4h-3.17l2,2H14v1.17l2,2V10h4v4h-3.17l2,2H20v1.17l2,2V4C22,2.9,21.1,2,20,2z M20,8h-4V4h4 V8z M1.39,4.22L2,4.83V20c0,1.1,0.9,2,2,2h15.17l0.61,0.61c0.39,0.39,1.02,0.39,1.41,0l0,0c0.39-0.39,0.39-1.02,0-1.41L2.81,2.81 c-0.39-0.39-1.02-0.39-1.41,0l0,0C1,3.2,1,3.83,1.39,4.22z M16,18.83L17.17,20H16V18.83z M10,12.83L11.17,14H10V12.83z M10,16h3.17 L14,16.83V20h-4V16z M4,6.83L5.17,8H4V6.83z M4,10h3.17L8,10.83V14H4V10z M4,16h4v4H4V16z"/></g></svg>