<svg xmlns="http://www.w3.org/2000/svg" enable-background="new 0 0 24 24" height="24" viewBox="0 0 24 24" width="24"><g><path d="M0,0h24v24H0V0z" fill="none"/></g><g><g><path d="M14.82,3C14.4,1.84,13.3,1,12,1S9.6,1.84,9.18,3H3v18h18V3H14.82z M11,14.17l-1.41,1.42L6,12l3.59-3.59L11,9.83L8.83,12 L11,14.17z M12,4.25c-0.41,0-0.75-0.34-0.75-0.75c0-0.41,0.34-0.75,0.75-0.75s0.75,0.34,0.75,0.75C12.75,3.91,12.41,4.25,12,4.25z M14.41,15.59L13,14.17L15.17,12L13,9.83l1.41-1.42L18,12L14.41,15.59z"/></g></g></svg>