<svg xmlns="http://www.w3.org/2000/svg" enable-background="new 0 0 24 24" height="24" viewBox="0 0 24 24" width="24"><g><rect fill="none" height="24" width="24"/></g><g><g><polygon points="12.05,8.23 11.95,8.23 10.2,13.19 13.79,13.19"/><path d="M20,2H4C2.9,2,2,2.9,2,4v16c0,1.1,0.9,2,2,2h16c1.1,0,2-0.9,2-2V4C22,2.9,21.1,2,20,2z M16.19,18h-0.01 c-0.41,0-0.77-0.26-0.91-0.64l-0.85-2.42H9.58l-0.86,2.43C8.58,17.74,8.22,18,7.82,18H7.8c-0.67,0-1.13-0.67-0.9-1.3L10.55,7 c0.23-0.6,0.8-1,1.45-1s1.22,0.4,1.45,1l3.64,9.7C17.33,17.33,16.86,18,16.19,18z"/></g></g></svg>