<svg xmlns="http://www.w3.org/2000/svg" enable-background="new 0 0 24 24" height="24" viewBox="0 0 24 24" width="24"><g><rect fill="none" height="24" width="24"/></g><g><g><g><g><path d="M5,8v12h14V8H5z M12,14c-2.76,0-5-2.24-5-5h2c0,1.66,1.34,3,3,3s3-1.34,3-3 h2C17,11.76,14.76,14,12,14z" enable-background="new" opacity=".3"/><path d="M17,6c0-2.76-2.24-5-5-5S7,3.24,7,6H5C3.9,6,3,6.9,3,8v12c0,1.1,0.9,2,2,2h14c1.1,0,2-0.9,2-2V8c0-1.1-0.9-2-2-2H17z M12,3c1.66,0,3,1.34,3,3H9C9,4.34,10.34,3,12,3z M19,20H5V8h14V20z"/><path d="M12,12c-1.66,0-3-1.34-3-3H7c0,2.76,2.24,5,5,5s5-2.24,5-5h-2C15,10.66,13.66,12,12,12z"/></g></g></g></g></svg>