<svg xmlns="http://www.w3.org/2000/svg" enable-background="new 0 0 24 24" height="24" viewBox="0 0 24 24" width="24"><g><rect fill="none" height="24" width="24"/></g><g><g><g><g><rect height="2" width="16" x="4" y="19"/><path d="M20,3H4v10c0,2.21,1.79,4,4,4h6c2.21,0,4-1.79,4-4v-3h2c1.11,0,2-0.89,2-2V5C22,3.89,21.11,3,20,3z M16,13 c0,1.1-0.9,2-2,2H8c-1.1,0-2-0.9-2-2V5h3v0.4L7.19,6.85C7.07,6.94,7,7.09,7,7.24v4.26C7,11.78,7.22,12,7.5,12h4 c0.28,0,0.5-0.22,0.5-0.5V7.24c0-0.15-0.07-0.3-0.19-0.39L10,5.4V5h6V13z M20,8h-2V5h2V8z"/></g></g></g></g></svg>