<svg xmlns="http://www.w3.org/2000/svg" enable-background="new 0 0 24 24" height="24" viewBox="0 0 24 24" width="24"><g><g><path d="M0,0h24v24H0V0z" fill="none"/></g></g><g><g><circle cx="8.5" cy="20.5" r="1.5"/><circle cx="19.5" cy="20.5" r="1.5"/><path d="M16.98,2.65c-2.85-1.26-6.12-0.36-7.39,0.26L13.5,7.6l3.74-3.28C17.79,3.84,17.65,2.94,16.98,2.65z"/><path d="M18.77,16.36L8.57,4.03C7.93,3.27,7.05,2,5.39,2C3.98,2,2.76,2.89,2.26,4.15C2,4.79,2.52,5.48,3.21,5.48h0 c0.4,0,0.76-0.23,0.91-0.6C4.33,4.36,4.82,4,5.39,4C6.07,4,6.42,4.59,7,5.27V13c0,2.75,2.25,5,5,5h6 C18.85,18,19.31,17.01,18.77,16.36z"/></g></g></svg>