<svg xmlns="http://www.w3.org/2000/svg" enable-background="new 0 0 24 24" height="24" viewBox="0 0 24 24" width="24"><g><rect fill="none" height="24" width="24"/></g><g><g><path d="M5.83,3l2,2L10,5l0,2.17L11.83,9L20,9v8.17l2,2V8c0-0.55-0.45-1-1-1h-9V4c0-0.55-0.45-1-1-1H5.83z"/><path d="M1.39,2.81L1.39,2.81C1,3.2,1,3.83,1.39,4.22L2,4.83V20c0,0.55,0.45,1,1,1h15.17l1.61,1.61c0.39,0.39,1.02,0.39,1.41,0 l0,0c0.39-0.39,0.39-1.02,0-1.41L2.81,2.81C2.42,2.42,1.78,2.42,1.39,2.81z M6,19H4v-2h2V19z M6,15H4v-2h2V15z M6,11H4V9h2V11z M10,19H8v-2h2V19z M10,15H8v-2h2V15z M12,19v-2h2.17l2,2H12z"/><rect height="2" width="2" x="16" y="11"/></g></g></svg>