<svg xmlns="http://www.w3.org/2000/svg" enable-background="new 0 0 24 24" height="24" viewBox="0 0 24 24" width="24"><g><path d="M0,0h24v24H0V0z" fill="none"/></g><g><g><rect height="2" width="2" x="3" y="15"/><path d="M5,21v-2H3C3,20.1,3.9,21,5,21z"/><rect height="2" width="2" x="15" y="3"/><path d="M19,3v2h2C21,3.9,20.1,3,19,3z"/><rect height="2" width="2" x="19" y="7"/><rect height="2" width="2" x="11" y="3"/><rect height="2" width="2" x="7" y="3"/><rect height="2" width="2" x="3" y="11"/><rect height="2" width="2" x="7" y="19"/><rect height="2" width="2" x="3" y="7"/><path d="M3,5h2V3C3.9,3,3,3.9,3,5z"/><polygon points="21,19.59 14.41,13 21,13 21,11 11,11 11,21 13,21 13,14.41 19.59,21"/></g></g></svg>