<svg xmlns="http://www.w3.org/2000/svg" enable-background="new 0 0 24 24" height="24" viewBox="0 0 24 24" width="24"><g><path d="M0,0h24v24H0V0z" fill="none"/></g><g><g><rect height="2" width="2" x="3" y="15"/><rect height="2" width="2" x="11" y="3"/><rect height="2" width="2" x="15" y="3"/><rect height="2" width="2" x="19" y="3"/><rect height="2" width="2" x="19" y="7"/><rect height="2" width="2" x="3" y="7"/><rect height="2" width="2" x="7" y="19"/><rect height="2" width="2" x="3" y="19"/><rect height="2" width="2" x="7" y="3"/><rect height="2" width="2" x="3" y="3"/><rect height="2" width="2" x="3" y="11"/><polygon points="16.71,15.29 21,11 11,11 11,21 15.29,16.71 19.59,21 21,19.59"/></g></g></svg>