<svg xmlns="http://www.w3.org/2000/svg" enable-background="new 0 0 24 24" height="24" viewBox="0 0 24 24" width="24"><g><rect fill="none" height="24" width="24"/></g><g><g><g><path d="M18,8h-1V6c0-2.76-2.24-5-5-5S7,3.24,7,6v2H6c-1.1,0-2,0.9-2,2v10c0,1.1,0.9,2,2,2h12c1.1,0,2-0.9,2-2V10 C20,8.9,19.1,8,18,8z M8.9,6c0-1.71,1.39-3.1,3.1-3.1s3.1,1.39,3.1,3.1v2H8.9V6z M15,16h-2v2c0,0.55-0.45,1-1,1l0,0 c-0.55,0-1-0.45-1-1v-2H9c-0.55,0-1-0.45-1-1l0,0c0-0.55,0.45-1,1-1h2v-2c0-0.55,0.45-1,1-1l0,0c0.55,0,1,0.45,1,1v2h2 c0.55,0,1,0.45,1,1l0,0C16,15.55,15.55,16,15,16z"/></g></g></g></svg>