<svg xmlns="http://www.w3.org/2000/svg" enable-background="new 0 0 24 24" height="24" viewBox="0 0 24 24" width="24"><g><rect fill="none" height="24" width="24"/></g><g><path d="M7.5,12.5h1V14h-1V12.5z M7.5,10h1v1.5h-1V10z M19,3H5C3.9,3,3,3.9,3,5v14c0,1.1,0.9,2,2,2h14c1.1,0,2-0.9,2-2V5 C21,3.9,20.1,3,19,3z M10,14c0,0.55-0.45,1-1,1H7c-0.55,0-1-0.45-1-1v-4c0-0.55,0.45-1,1-1h2c0.55,0,1,0.45,1,1V14z M16,15h-1.75 l-1.75-2.25V15H11V9h1.5v2.25L14.25,9H16l-2.25,3L16,15z M19,12.5h-1.5V14h-1v-1.5H15v-1h1.5V10h1v1.5H19V12.5z"/></g></svg>