<svg xmlns="http://www.w3.org/2000/svg" enable-background="new 0 0 24 24" height="24" viewBox="0 0 24 24" width="24"><g><rect fill="none" height="24" width="24"/></g><g><g><path d="M12,1L12,1c-0.55,0-1,0.45-1,1v1c0,0.55,0.45,1,1,1h0c0.55,0,1-0.45,1-1V2C13,1.45,12.55,1,12,1z"/><path d="M12,23L12,23c0.55,0,1-0.45,1-1v-1c0-0.55-0.45-1-1-1h0c-0.55,0-1,0.45-1,1v1C11,22.55,11.45,23,12,23z"/><path d="M20,12L20,12c0,0.55,0.45,1,1,1h1c0.55,0,1-0.45,1-1v0c0-0.55-0.45-1-1-1h-1C20.45,11,20,11.45,20,12z"/><path d="M3,11H2c-0.55,0-1,0.45-1,1v0c0,0.55,0.45,1,1,1h1c0.55,0,1-0.45,1-1v0C4,11.45,3.55,11,3,11z"/><path d="M19.78,4.22L19.78,4.22c-0.39-0.39-1.02-0.39-1.41,0L18,4.59C17.61,4.98,17.61,5.61,18,6l0,0c0.39,0.39,1.02,0.39,1.41,0 l0.36-0.36C20.17,5.25,20.17,4.61,19.78,4.22z"/><path d="M4.22,19.78L4.22,19.78c0.39,0.39,1.02,0.39,1.41,0L6,19.41c0.39-0.39,0.39-1.02,0-1.41l0,0c-0.39-0.39-1.02-0.39-1.41,0 l-0.36,0.36C3.83,18.75,3.83,19.39,4.22,19.78z"/><path d="M18,19.41l0.36,0.36c0.39,0.39,1.02,0.39,1.41,0l0,0c0.39-0.39,0.39-1.02,0-1.41L19.41,18c-0.39-0.39-1.02-0.39-1.41,0 l0,0C17.61,18.39,17.61,19.02,18,19.41z"/><path d="M6,4.59L5.64,4.22c-0.39-0.39-1.02-0.39-1.41,0l0,0c-0.39,0.39-0.39,1.02,0,1.41L4.59,6C4.98,6.39,5.61,6.39,6,6l0,0 C6.39,5.61,6.39,4.98,6,4.59z"/><circle cx="12" cy="12" r="6"/></g></g></svg>