<svg xmlns="http://www.w3.org/2000/svg" enable-background="new 0 0 24 24" height="24" viewBox="0 0 24 24" width="24"><g><rect fill="none" height="24" width="24"/></g><g><path d="M14.41,16L13,14.59L15.59,12L13,9.41L14.41,8L17,10.59L19.59,8L21,9.41L18.41,12L21,14.59L19.59,16L17,13.41L14.41,16z M4,3v18c0,1.1,0.9,2,2,2h10c1.1,0,2-0.9,2-2v-4h-2v1H6V6h10v1h2V3c0-1.1-0.9-2-2-2L6,1.01C4.9,1.01,4,1.9,4,3z M6,20h10v1H6V20z M6,3h10v1H6V3z"/><path d="M6,21h10v-1H6V21z M6,3v1h10V3H6z" opacity=".3"/></g></svg>