<svg xmlns="http://www.w3.org/2000/svg" enable-background="new 0 0 24 24" height="24" viewBox="0 0 24 24" width="24"><g><rect fill="none" height="24" width="24" y="0"/></g><g><path d="M13,9c0-2.21-1.79-4-4-4C8.64,5,8.31,5.06,7.98,5.15l4.87,4.87C12.94,9.69,13,9.36,13,9z M20.07,16 c3.9-3.89,3.91-9.95,0-14l-1.63,1.63c2.77,3.02,2.77,7.56,0,10.74L20.07,16z M16.76,12.63c2.02-2.02,2.02-5.07,0-7.27l-1.68,1.69 c0.84,1.18,0.84,2.71,0,3.89L16.76,12.63z M1.39,4.22l3.76,3.76C5.06,8.31,5,8.64,5,9c0,2.21,1.79,4,4,4 c0.36,0,0.69-0.06,1.02-0.15l1.36,1.36C10.63,14.08,9.84,14,9,14c-2.53,0-4.71,0.7-6.39,1.56C1.61,16.07,1,17.1,1,18.22V21h16 v-1.17l2.78,2.78l1.41-1.41L2.81,2.81L1.39,4.22z"/></g></svg>