<svg xmlns="http://www.w3.org/2000/svg" enable-background="new 0 0 24 24" height="24" viewBox="0 0 24 24" width="24"><g><rect fill="none" height="24" width="24"/></g><g><g><path d="M5,3C4,3,3,4,3,5h2V3z M3,19c0,1.1,0.9,2,2,2h8v-8c0-1.1-0.9-2-2-2H3V19z M3,7h2v2H3V7z M19,3v2h2C21,4,20,3,19,3z M7,3h2 v2H7V3z M11,3h2v2h-2V3z M19,15h2v2h-2V15z M19,7h2v2h-2V7z M19,11h2v2h-2V11z M19,21c1,0,2-1,2-2h-2V21z M15,19h2v2h-2V19z M15,3 h2v2h-2V3z M6.52,16.7L7.5,18l1.48-1.97c0.2-0.27,0.6-0.27,0.8,0l1.62,2.17c0.25,0.33,0.01,0.8-0.4,0.8H5 c-0.41,0-0.65-0.47-0.4-0.8l1.12-1.5C5.93,16.43,6.32,16.43,6.52,16.7z"/></g></g></svg>