<svg xmlns="http://www.w3.org/2000/svg" enable-background="new 0 0 24 24" height="24" viewBox="0 0 24 24" width="24"><g><rect fill="none" height="24" width="24" y="0"/></g><g><g><path d="M21,5L21,5c0-0.55-0.45-1-1-1H6.83l2,2H20C20.55,6,21,5.55,21,5z"/><path d="M21,8h-6c-0.55,0-1,0.45-1,1v2.17l2,2V10h4v7.17l2,2V9C22,8.45,21.55,8,21,8z"/><path d="M2.1,4.93L4,6.83V17H3.5C2.67,17,2,17.67,2,18.5v0C2,19.33,2.67,20,3.5,20h7c0.83,0,1.5-0.67,1.5-1.5v0 c0-0.83-0.67-1.5-1.5-1.5H6V8.83l8,8V19c0,0.55,0.45,1,1,1h2.17l1.9,1.9c0.39,0.39,1.02,0.39,1.41,0l0,0 c0.39-0.39,0.39-1.02,0-1.41L3.51,3.51c-0.39-0.39-1.02-0.39-1.41,0l0,0C1.71,3.91,1.71,4.54,2.1,4.93z"/></g></g></svg>