<svg xmlns="http://www.w3.org/2000/svg" enable-background="new 0 0 24 24" height="24" viewBox="0 0 24 24" width="24"><g><rect fill="none" height="24" width="24"/><rect fill="none" height="24" width="24"/></g><g><g><rect height="2" width="8" x="3" y="2"/><polygon points="6,11 8,11 8,7 11,7 11,5 3,5 3,7 6,7"/><rect height="2" transform="matrix(0.7071 -0.7071 0.7071 0.7071 -7.0698 16.9319)" width="11" x="11.4" y="16"/><circle cx="14.5" cy="14.5" r="1.5"/><circle cx="19.5" cy="19.5" r="1.5"/><path d="M15.88,10.97C17.12,10.79,18,9.64,18,8.38L18,4h3V2h-3.5c-0.55,0-1,0.45-1,1v3.22c-0.4-0.18-0.84-0.27-1.33-0.2 c-1.08,0.15-1.99,1.03-2.14,2.11C12.79,9.8,14.21,11.22,15.88,10.97z"/><path d="M9.76,15.96l-1.41,1.41l-0.71-0.71l0.35-0.35c0.98-0.98,0.98-2.56,0-3.54c-0.49-0.49-1.13-0.73-1.77-0.73 c-0.64,0-1.28,0.24-1.77,0.73c-0.98,0.98-0.98,2.56,0,3.54l0.35,0.35l-1.06,1.06c-0.98,0.98-0.98,2.56,0,3.54 C4.23,21.76,4.88,22,5.52,22s1.28-0.24,1.77-0.73l1.06-1.06l1.41,1.41l1.41-1.41L9.76,18.8l1.41-1.41L9.76,15.96z M5.86,14.2 c0.12-0.12,0.26-0.15,0.35-0.15c0.09,0,0.23,0.03,0.35,0.15c0.19,0.2,0.19,0.51,0,0.71l-0.35,0.35L5.86,14.9 C5.67,14.71,5.67,14.39,5.86,14.2z M5.86,19.85C5.74,19.97,5.6,20,5.52,20c-0.09,0-0.23-0.03-0.35-0.15 c-0.19-0.19-0.19-0.51,0-0.71l1.06-1.06l0.71,0.71L5.86,19.85z"/></g></g></svg>