<svg xmlns="http://www.w3.org/2000/svg" enable-background="new 0 0 24 24" height="24" viewBox="0 0 24 24" width="24"><g><rect fill="none" height="24" width="24"/></g><g><g><path d="M3.17,19.43L4,19.82l0.01-6.97l-1.82,3.9C1.72,17.76,2.16,18.96,3.17,19.43z"/><path d="M6.01,14.01L6,19.98C6,21.1,6.9,22,8.01,22h0.97c-0.12-0.2-0.23-0.42-0.31-0.65L6.01,14.01z"/><path d="M21.88,16.55L17.43,4.33C17.13,3.51,16.36,3,15.54,3c-0.23,0-0.46,0.04-0.69,0.12L7.32,5.87C6.28,6.25,5.74,7.4,6.12,8.45 l4.44,12.22c0.3,0.82,1.07,1.33,1.89,1.33c0.23,0,0.46-0.04,0.69-0.12l7.54-2.75C21.72,18.75,22.26,17.6,21.88,16.55z M12.44,19.99L8.01,7.75L15.53,5l4.46,12.25L12.44,19.99z"/><circle cx="11" cy="9" r="1"/></g></g></svg>