<svg xmlns="http://www.w3.org/2000/svg" enable-background="new 0 0 24 24" height="24" viewBox="0 0 24 24" width="24"><g><rect fill="none" height="24" width="24"/></g><g><g><path d="M4,18h16V6H4V18z M8,9.41L9.41,8L12,10.59L14.59,8L16,9.41L13.41,12L16,14.59 L14.59,16L12,13.41L9.41,16L8,14.59L10.59,12L8,9.41z" enable-background="new" opacity=".3"/><path d="M20,4H4C2.9,4,2,4.9,2,6v12c0,1.1,0.9,2,2,2h16c1.1,0,2-0.9,2-2V6C22,4.9,21.1,4,20,4z M20,18H4V6h16V18z"/><polygon points="9.41,16 12,13.41 14.59,16 16,14.59 13.41,12 16,9.41 14.59,8 12,10.59 9.41,8 8,9.41 10.59,12 8,14.59"/></g></g></svg>