<svg xmlns="http://www.w3.org/2000/svg" enable-background="new 0 0 24 24" height="24" viewBox="0 0 24 24" width="24"><g><rect fill="none" height="24" width="24"/></g><g><g><path d="M15,5H1v14h14V5z M8,7.75c1.52,0,2.75,1.23,2.75,2.75c0,1.52-1.23,2.75-2.75,2.75s-2.75-1.23-2.75-2.75 C5.25,8.98,6.48,7.75,8,7.75z M13,17H3v-0.4c0-0.79,0.46-1.53,1.19-1.83C5.36,14.27,6.65,14,8,14s2.64,0.27,3.81,0.76 C12.54,15.07,13,15.8,13,16.6V17z"/><rect height="14" width="2" x="21" y="5"/><rect height="14" width="2" x="17" y="5"/></g></g></svg>