<svg xmlns="http://www.w3.org/2000/svg" enable-background="new 0 0 24 24" height="24" viewBox="0 0 24 24" width="24"><g><path d="M0,0h24v24H0V0z" fill="none"/></g><g><g><path d="M12,4c-4.97,0-9,4.03-9,9c0,4.97,4.03,9,9,9s9-4.03,9-9C21,8.03,16.97,4,12,4z M16,14h-3v3h-2v-3H8v-2h3V9h2v3h3V14z"/><rect height="6" transform="matrix(0.7071 -0.7071 0.7071 0.7071 2.151 15.5359)" width="2" x="18.83" y="2.17"/><rect height="2" transform="matrix(0.7071 -0.7071 0.7071 0.7071 -2.435 4.4645)" width="6" x="1.17" y="4.17"/></g></g></svg>