<svg xmlns="http://www.w3.org/2000/svg" enable-background="new 0 0 24 24" height="24" viewBox="0 0 24 24" width="24"><g><rect fill="none" height="24" width="24"/></g><g><g><path d="M19,13c0,3.86-3.14,7-7,7s-7-3.14-7-7s3.14-7,7-7v3l4-4l-4-4v3c-4.97,0-9,4.03-9,9s4.03,9,9,9c4.97,0,9-4.03,9-9H19z"/><path d="M13.5,10c-0.55,0-1,0.45-1,1v4c0,0.55,0.45,1,1,1h2c0.55,0,1-0.45,1-1v-4c0-0.55-0.45-1-1-1H13.5z M15,14.5h-1v-3h1V14.5z"/><path d="M7.5,14.5V16h3c0.55,0,1-0.45,1-1v-4c0-0.55-0.45-1-1-1h-3v1.5H10v1H8.5v1H10v1H7.5z"/></g></g></svg>