<svg xmlns="http://www.w3.org/2000/svg" enable-background="new 0 0 24 24" height="24" viewBox="0 0 24 24" width="24"><g><rect fill="none" height="24" width="24"/></g><g><g><path d="M18,10.2c0,2.34-1.95,5.44-6,9.14c-4.05-3.7-6-6.79-6-9.14C6,6.57,8.65,4,12,4c0.34,0,0.68,0.03,1,0.08V2.06 C12.67,2.02,12.34,2,12,2c-4.2,0-8,3.22-8,8.2c0,3.32,2.67,7.25,8,11.8c5.33-4.55,8-8.48,8-11.8c0-0.07,0-0.13,0-0.2h-2 C18,10.07,18,10.13,18,10.2z"/><circle cx="12" cy="10" r="2"/><polygon points="22.5,2.42 21.08,1 19,3.08 16.91,1 15.5,2.41 17.58,4.5 15.5,6.59 16.91,8 19,5.92 21.08,8 22.5,6.58 20.42,4.5"/></g></g></svg>