<svg xmlns="http://www.w3.org/2000/svg" enable-background="new 0 0 24 24" height="24" viewBox="0 0 24 24" width="24"><g><rect fill="none" height="24" width="24"/></g><g><g><g><path d="M12,8.5c-0.91,0-2.75,0.46-2.75,1.38V14c0,0.28,0.22,0.5,0.5,0.5h1v3.25c0,0.69,0.56,1.25,1.25,1.25s1.25-0.56,1.25-1.25 V14.5h1c0.28,0,0.5-0.22,0.5-0.5V9.88C14.75,8.97,12.91,8.5,12,8.5z"/><path d="M12,2C6.47,2,2,6.47,2,12s4.47,10,10,10s10-4.48,10-10S17.52,2,12,2z M12,20c-4.42,0-8-3.58-8-8s3.58-8,8-8s8,3.58,8,8 S16.42,20,12,20z"/><circle cx="12" cy="6.5" r="1.5"/></g></g></g></svg>