<?xml version="1.0" encoding="utf-8"?>
<!-- Generator: Adobe Illustrator 23.0.4, SVG Export Plug-In . SVG Version: 6.00 Build 0)  -->
<svg version="1.1" id="icon" xmlns="http://www.w3.org/2000/svg" xmlns:xlink="http://www.w3.org/1999/xlink" x="0px" y="0px"
	 width="24px" height="24px" viewBox="0 0 24 24" enable-background="new 0 0 24 24" xml:space="preserve">
<g id="icon_1">
	<path d="M4.19,4.47C3.47,4.79,3,5.51,3,6.3V11c0,5.55,3.84,10.74,9,12c5.16-1.26,9-6.45,9-12V6.3c0-0.79-0.47-1.51-1.19-1.83
		l-7-3.11c-0.52-0.23-1.11-0.23-1.62,0L4.19,4.47z M12,7L12,7c0.55,0,1,0.45,1,1v0c0,0.55-0.45,1-1,1h0c-0.55,0-1-0.45-1-1v0
		C11,7.45,11.45,7,12,7z M12,11L12,11c0.55,0,1,0.45,1,1v4c0,0.55-0.45,1-1,1h0c-0.55,0-1-0.45-1-1v-4C11,11.45,11.45,11,12,11z"/>
	<rect y="0" fill="none" width="24" height="24"/>
</g>
</svg>
