<svg xmlns="http://www.w3.org/2000/svg" enable-background="new 0 0 24 24" height="24" viewBox="0 0 24 24" width="24"><g><rect fill="none" height="24" width="24"/></g><g><g><polygon points="9.1,5 14.9,5 19,9.1 19,14.9 18.36,15.54 19.78,16.95 21,15.73 21,8.27 15.73,3 8.27,3 7.05,4.22 8.46,5.64"/><polygon points="13,10.17 13,7 11,7 11,8.17"/><path d="M2.1,2.1L0.69,3.51l3.53,3.53L3,8.27v7.46L8.27,21h7.46l1.22-1.22l3.53,3.53l1.41-1.41L2.1,2.1z M14.9,19H9.1L5,14.9V9.1 l0.64-0.64L12.17,15H11v2h2v-1.17l2.54,2.54L14.9,19z"/></g></g></svg>