<svg xmlns="http://www.w3.org/2000/svg" enable-background="new 0 0 24 24" height="24" viewBox="0 0 24 24" width="24"><g><rect fill="none" height="24" width="24" y="0"/></g><g><g><rect enable-background="new" height="1" opacity=".3" width="2" x="11" y="3"/><path d="M8,13.96C9.66,15.85,10.47,17,12,17c1.57,0,2.4-1.22,4-3.04 c1.58,1.81,1.87,2.24,2.65,2.67l1.12-3.97L12,10.11l-7.78,2.54l1.13,3.96C6.13,16.17,6.4,15.78,8,13.96z" enable-background="new" opacity=".3"/><path d="M3.95,19H4c1.6,0,3.02-0.88,4-2c0.98,1.12,2.4,2,4,2s3.02-0.88,4-2c0.98,1.12,2.4,2,4,2h0.05l1.91-6.68 c0.11-0.37,0.04-1.06-0.66-1.28L20,10.62V6c0-1.1-0.9-2-2-2h-3V1H9v3H6C4.9,4,4,4.9,4,6v4.62l-1.29,0.42 c-0.63,0.19-0.81,0.84-0.66,1.28L3.95,19z M11,3h2v1h-2V3z M6,6h12v3.97L12,8L6,9.97V6z M12,10.11l7.77,2.55l-1.12,3.97 c-0.78-0.43-1.07-0.86-2.65-2.67C14.4,15.78,13.57,17,12,17c-1.53,0-2.34-1.15-4-3.04c-1.6,1.82-1.87,2.21-2.65,2.65l-1.13-3.96 L12,10.11z"/><path d="M20,21c-1.39,0-2.78-0.47-4-1.32c-1.22,0.85-2.61,1.28-4,1.28s-2.78-0.43-4-1.28C6.78,20.53,5.39,21,4,21H2v2h2 c1.38,0,2.74-0.35,4-0.99c1.26,0.64,2.63,0.97,4,0.97s2.74-0.32,4-0.97c1.26,0.65,2.62,0.99,4,0.99h2v-2H20z"/></g></g></svg>