<svg xmlns="http://www.w3.org/2000/svg" enable-background="new 0 0 24 24" height="24" viewBox="0 0 24 24" width="24"><g><path d="M0,0h24v24H0V0z" fill="none"/></g><g><g><g><g><rect enable-background="new" height="4" opacity=".3" width="4" x="5" y="5"/><rect enable-background="new" height="4" opacity=".3" width="4" x="15" y="15"/><rect enable-background="new" height="4" opacity=".3" width="4" x="5" y="15"/><polygon enable-background="new" opacity=".3" points="16.66,4.52 13.83,7.34 16.66,10.17 19.49,7.34"/><path d="M16.66,1.69L11,7.34L16.66,13l5.66-5.66L16.66,1.69z M13.83,7.34l2.83-2.83l2.83,2.83l-2.83,2.83L13.83,7.34z"/><path d="M3,3v8h8V7.34V3H3z M9,9H5V5h4V9z"/><path d="M3,21h8v-8H3V21z M5,15h4v4H5V15z"/><path d="M13,13v8h8v-8h-4.34H13z M19,19h-4v-4h4V19z"/></g></g></g></g></svg>