<?xml version="1.0" encoding="utf-8"?>
<!-- Generator: Adobe Illustrator 23.0.1, SVG Export Plug-In . SVG Version: 6.00 Build 0)  -->
<svg version="1.1" xmlns="http://www.w3.org/2000/svg" xmlns:xlink="http://www.w3.org/1999/xlink" x="0px" y="0px" width="24px"
	 height="24px" viewBox="0 0 24 24" enable-background="new 0 0 24 24" xml:space="preserve">
<g id="Bounding_Box">
	<rect fill="none" width="24" height="24"/>
</g>
<g id="Master">
	<g>
		<path d="M12,16c3.87,0,7-3.13,7-7c0-3.87-3.13-7-7-7S5,5.13,5,9C5,12.87,8.13,16,12,16z M12,4c2.76,0,5,2.24,5,5s-2.24,5-5,5
			s-5-2.24-5-5S9.24,4,12,4z"/>
		<circle cx="10" cy="8" r="1"/>
		<circle cx="14" cy="8" r="1"/>
		<circle cx="12" cy="6" r="1"/>
		<path d="M7,19h2c1.1,0,2,0.9,2,2v1h2v-1c0-1.1,0.9-2,2-2h2v-2H7V19z"/>
	</g>
</g>
</svg>
