<svg xmlns="http://www.w3.org/2000/svg" enable-background="new 0 0 24 24" height="24" viewBox="0 0 24 24" width="24"><g><rect fill="none" height="24" width="24"/></g><g><g><path d="M12,12c2.21,0,4-1.79,4-4c0-2.21-1.79-4-4-4S8,5.79,8,8C8,10.21,9.79,12,12,12z M12,6c1.1,0,2,0.9,2,2c0,1.1-0.9,2-2,2 s-2-0.9-2-2C10,6.9,10.9,6,12,6z"/><path d="M18.39,14.56C16.71,13.7,14.53,13,12,13c-2.53,0-4.71,0.7-6.39,1.56C4.61,15.07,4,16.1,4,17.22V20h16v-2.78 C20,16.1,19.39,15.07,18.39,14.56z M18,18H6v-0.78c0-0.38,0.2-0.72,0.52-0.88C7.71,15.73,9.63,15,12,15 c2.37,0,4.29,0.73,5.48,1.34C17.8,16.5,18,16.84,18,17.22V18z"/></g></g></svg>