<svg xmlns="http://www.w3.org/2000/svg" enable-background="new 0 0 24 24" height="24" viewBox="0 0 24 24" width="24"><g><rect fill="none" height="24" width="24"/></g><g><g><g><g><circle cx="7" cy="11" enable-background="new" opacity=".3" r="1"/><path d="M19,9h-6v6h8v-4C21,9.9,20.1,9,19,9z" enable-background="new" opacity=".3"/><g><path d="M7,14c1.66,0,3-1.34,3-3S8.66,8,7,8s-3,1.34-3,3S5.34,14,7,14z M7,10c0.55,0,1,0.45,1,1s-0.45,1-1,1s-1-0.45-1-1 S6.45,10,7,10z"/><path d="M19,7h-8v8H3V7H1v10h22v-6C23,8.79,21.21,7,19,7z M21,15h-8V9h6c1.1,0,2,0.9,2,2V15z"/></g></g></g></g></g></svg>