<svg xmlns="http://www.w3.org/2000/svg" enable-background="new 0 0 24 24" height="24" viewBox="0 0 24 24" width="24"><g><rect fill="none" height="24" width="24"/></g><g><g><g><g><path d="M3.01,15.62c-0.08,2.42,0.32,4.34,0.67,4.69c0.35,0.35,2.28,0.76,4.7,0.67L3.01,15.62z"/><path d="M13.08,3.27c-2.33,0.42-4.8,1.34-6.63,3.18s-2.76,4.29-3.18,6.63l7.64,7.64c2.34-0.41,4.8-1.34,6.63-3.18 c1.83-1.84,2.76-4.29,3.18-6.63L13.08,3.27z M9.2,14.8L9.2,14.8c-0.39-0.39-0.39-1.01,0-1.4l4.2-4.2c0.39-0.39,1.01-0.39,1.4,0 l0,0c0.39,0.39,0.39,1.01,0,1.4l-4.2,4.2C10.21,15.19,9.58,15.19,9.2,14.8z"/><path d="M20.99,8.38c0.08-2.42-0.32-4.34-0.67-4.69c-0.35-0.35-2.28-0.76-4.7-0.67L20.99,8.38z"/></g></g></g></g></svg>