<svg xmlns="http://www.w3.org/2000/svg" enable-background="new 0 0 24 24" height="24" viewBox="0 0 24 24" width="24"><rect fill="none" height="24" width="24"/><path d="M6.17,9L7.8,7.35L7.33,5H5.1C5.27,6.37,5.63,7.7,6.17,9z M19,16.67l-2.35-0.47L15,17.83 c1.29,0.54,2.63,0.89,4,1.07V16.67z" opacity=".3"/><path d="M21,9v2h-2V9H21z M17,9h-2v2h2V9z M13,9h-2v2h2V9z M21,15.85V20c0,0.57-0.48,1.03-1.03,1c-2.89-0.17-5.6-1.05-7.97-2.43 C9.27,16.99,7.01,14.73,5.43,12C4.05,9.63,3.17,6.92,3,4.03C2.97,3.47,3.44,3,4,3l4.15,0c0.48,0,0.89,0.34,0.98,0.8l0.73,3.67 C9.93,7.8,9.83,8.14,9.6,8.37L7.1,10.9c1.43,2.5,3.5,4.57,6,6l2.52-2.5c0.07-0.07,0.4-0.37,0.9-0.27l3.67,0.73 C20.66,14.96,21,15.37,21,15.85z M6.17,9L7.8,7.35L7.33,5H5.1C5.27,6.37,5.63,7.7,6.17,9z M19,16.67l-2.35-0.47L15,17.83 c1.29,0.54,2.63,0.89,4,1.07V16.67z"/></svg>