<svg xmlns="http://www.w3.org/2000/svg" enable-background="new 0 0 24 24" height="24" viewBox="0 0 24 24" width="24"><g><rect fill="none" height="24" width="24"/></g><g><g><path d="M14.12,5H9.88L8.05,7H4v12h16V7h-4.05L14.12,5z M12,17.5c-2.48,0-4.5-2.02-4.5-4.5c0-2.48,2.02-4.5,4.5-4.5 s4.5,2.02,4.5,4.5C16.5,15.48,14.48,17.5,12,17.5z" opacity=".3"/><path d="M20,5h-3.17L15,3H9L7.17,5H4C2.9,5,2,5.9,2,7v12c0,1.1,0.9,2,2,2h16c1.1,0,2-0.9,2-2V7C22,5.9,21.1,5,20,5z M20,19H4V7 h4.05l1.83-2h4.24l1.83,2H20V19z"/><path d="M12,8.5c-2.48,0-4.5,2.02-4.5,4.5c0,2.48,2.02,4.5,4.5,4.5s4.5-2.02,4.5-4.5C16.5,10.52,14.48,8.5,12,8.5z M12,15.5 c-1.38,0-2.5-1.12-2.5-2.5c0-1.38,1.12-2.5,2.5-2.5s2.5,1.12,2.5,2.5C14.5,14.38,13.38,15.5,12,15.5z"/></g></g></svg>