<svg xmlns="http://www.w3.org/2000/svg" enable-background="new 0 0 24 24" height="24" viewBox="0 0 24 24" width="24"><g><rect fill="none" height="24" width="24"/></g><g><g><path d="M5,8v11h14V8H5z M12,18l-4-4h3v-4h2v4h3L12,18z" enable-background="new" opacity=".3"/><path d="M20.54,5.23l-1.39-1.68C18.88,3.21,18.47,3,18,3H6C5.53,3,5.12,3.21,4.84,3.55L3.46,5.23C3.17,5.57,3,6.02,3,6.5V19 c0,1.1,0.9,2,2,2h14c1.1,0,2-0.9,2-2V6.5C21,6.02,20.83,5.57,20.54,5.23z M6.24,5h11.52l0.84,1H5.41L6.24,5z M19,19H5V8h14V19z M16,14h-3v-4h-2v4H8l4,4L16,14z"/></g></g></svg>