<?xml version="1.0" encoding="utf-8"?>
<!-- Generator: Adobe Illustrator 23.0.4, SVG Export Plug-In . SVG Version: 6.00 Build 0)  -->
<svg version="1.1" id="ic_x5F_image_x5F_not_x5F_supported_x5F_m2outline_x5F_24px"
	 xmlns="http://www.w3.org/2000/svg" xmlns:xlink="http://www.w3.org/1999/xlink" x="0px" y="0px" width="24px" height="24px"
	 viewBox="0 0 24 24" enable-background="new 0 0 24 24" xml:space="preserve">
<g id="ic_x5F_image_x5F_not_x5F_supported_x5F_m2outline_x5F_24px_1_">
	<path d="M21.9,21.9l-6.1-6.1l-2.69-2.69l0,0L5,5l0,0L3.59,3.59l0,0L2.1,2.1L0.69,3.51L3,5.83V19c0,1.1,0.9,2,2,2h13.17l2.31,2.31
		L21.9,21.9z M5,19V7.83l6.84,6.84L11,15.72L9,13l-3,4h8.17l2,2H5z M7.83,5l-2-2H19c1.1,0,2,0.9,2,2v13.17l-2-2V5H7.83z"/>
	<rect fill="none" width="24" height="24"/>
</g>
</svg>
