<?xml version="1.0" encoding="utf-8"?>
<!-- Generator: Adobe Illustrator 23.0.4, SVG Export Plug-In . SVG Version: 6.00 Build 0)  -->
<svg version="1.1" id="ic_x5F_image_x5F_not_x5F_supported_x5F_m2round_x5F_24px"
	 xmlns="http://www.w3.org/2000/svg" xmlns:xlink="http://www.w3.org/1999/xlink" x="0px" y="0px" width="24px" height="24px"
	 viewBox="0 0 24 24" enable-background="new 0 0 24 24" xml:space="preserve">
<g id="ic_x5F_image_x5F_not_x5F_supported_x5F_m2round_x5F_24px_1_">
	<path d="M21.19,21.19l-0.78-0.78L18,18l-4.59-4.59L3.59,3.59v0L2.81,2.81c-0.39-0.39-1.02-0.39-1.41,0C1,3.2,1,3.83,1.39,4.22
		L3,5.83V19c0,1.1,0.9,2,2,2h13.17l1.61,1.61c0.39,0.39,1.02,0.39,1.41,0C21.58,22.22,21.58,21.58,21.19,21.19z M6.02,18
		c-0.42,0-0.65-0.48-0.39-0.81l2.49-3.2c0.2-0.25,0.58-0.26,0.78-0.01l2.1,2.53L12.17,15l3,3H6.02z M21,18.17L5.83,3H19
		c1.1,0,2,0.9,2,2V18.17z"/>
	<rect fill="none" width="24" height="24"/>
</g>
</svg>
