<?xml version="1.0" encoding="utf-8"?>
<!-- Generator: Adobe Illustrator 23.0.4, SVG Export Plug-In . SVG Version: 6.00 Build 0)  -->
<svg version="1.1" id="ic_x5F_image_x5F_not_x5F_supported_x5F_m2twotone_x5F_24px"
	 xmlns="http://www.w3.org/2000/svg" xmlns:xlink="http://www.w3.org/1999/xlink" x="0px" y="0px" width="24px" height="24px"
	 viewBox="0 0 24 24" enable-background="new 0 0 24 24" xml:space="preserve">
<g id="ic_x5F_image_x5F_not_x5F_supported_x5F_m2twotone_x5F_24px_1_">
	<g>
		<path opacity="0.3" d="M7.83,5H19v11.17L7.83,5z M16.17,19l-2-2H6l3-4l2,2.72l0.84-1.05L5,7.83V19H16.17z"/>
		<path d="M5.83,3H19c1.1,0,2,0.9,2,2v13.17l-2-2V5H7.83L5.83,3z M20.49,23.31L18.17,21H5c-1.1,0-2-0.9-2-2V5.83L0.69,3.51L2.1,2.1
			l1.49,1.49L5,5l8.11,8.11l2.69,2.69L19,19l1.41,1.41l1.49,1.49L20.49,23.31z M16.17,19l-2-2H6l3-4l2,2.72l0.84-1.05L5,7.83V19
			H16.17z"/>
	</g>
	<rect fill="none" width="24" height="24"/>
</g>
</svg>
