<svg xmlns="http://www.w3.org/2000/svg" enable-background="new 0 0 24 24" height="24" viewBox="0 0 24 24" width="24"><g><path d="M0,0h24v24H0V0z" fill="none"/></g><g><g><polygon points="19.53,10.3 18.12,11.71 19.18,12.77 14.94,17.01 7.16,9.23 11.4,4.99 12.46,6.05 13.87,4.64 11.4,2.17 4.33,9.23 14.94,19.84 22,12.77"/><path d="M10,19.74C6.56,18.85,4,15.72,4,12H2c0,5.51,4.49,10,10,10c0.91,0,1.8-0.13,2.64-0.36L10,17V19.74z"/><path d="M21,4c0,0-0.45,0-1,0V3.11c0-1-0.68-1.92-1.66-2.08C17.08,0.82,16,1.79,16,3v1c-0.55,0-1,0-1,0v5h6V4z M19,4h-2V3 c0-0.55,0.45-1,1-1s1,0.45,1,1V4z"/></g></g></svg>