<?xml version="1.0" encoding="utf-8"?>
<!-- Generator: Adobe Illustrator 23.0.3, SVG Export Plug-In . SVG Version: 6.00 Build 0)  -->
<svg version="1.1" xmlns="http://www.w3.org/2000/svg" xmlns:xlink="http://www.w3.org/1999/xlink" x="0px" y="0px" width="24px"
	 height="24px" viewBox="0 0 24 24" enable-background="new 0 0 24 24" xml:space="preserve">
<g id="Bounding_Box">
	<rect fill="none" width="24" height="24"/>
</g>
<g id="Master">
	<g>
		<rect x="10" y="4" width="4" height="4"/>
		<rect x="4" y="16" width="4" height="4"/>
		<rect x="4" y="10" width="4" height="4"/>
		<rect x="4" y="4" width="4" height="4"/>
		<polygon points="14,12.42 14,10 10,10 10,14 12.42,14 		"/>
		<path d="M20.88,11.29l-1.17-1.17c-0.16-0.16-0.42-0.16-0.58,0L18.25,11L20,12.75l0.88-0.88C21.04,11.71,21.04,11.45,20.88,11.29z"
			/>
		<polygon points="11,18.25 11,20 12.75,20 19.42,13.33 17.67,11.58 		"/>
		<rect x="16" y="4" width="4" height="4"/>
	</g>
</g>
</svg>
