<svg xmlns="http://www.w3.org/2000/svg" enable-background="new 0 0 24 24" height="24" viewBox="0 0 24 24" width="24"><g><rect fill="none" height="24" width="24" y="0"/></g><g><g><path d="M19.77,7.23l0.01-0.01L16.06,3.5L15,4.56l2.11,2.11C16.17,7.03,15.5,7.93,15.5,9c0,1.38,1.12,2.5,2.5,2.5 c0.36,0,0.69-0.08,1-0.21v7.21c0,0.55-0.45,1-1,1s-1-0.45-1-1V14c0-1.1-0.9-2-2-2h-1V5c0-1.1-0.9-2-2-2H6C4.9,3,4,3.9,4,5v16h10 v-7.5h1.5v5c0,1.38,1.12,2.5,2.5,2.5s2.5-1.12,2.5-2.5V9C20.5,8.31,20.22,7.68,19.77,7.23z M18,10c-0.55,0-1-0.45-1-1s0.45-1,1-1 s1,0.45,1,1S18.55,10,18,10z M8,18v-4.5H6L10,6v5h2L8,18z"/></g></g></svg>