<svg xmlns="http://www.w3.org/2000/svg" enable-background="new 0 0 24 24" height="24" viewBox="0 0 24 24" width="24"><g><path d="M0,0h24v24H0V0z" fill="none"/></g><g><g><g><circle cx="12" cy="4" r="2"/><g><path d="M19,13v-2c-2.74,0.04-4.18-1.95-5.36-3.26C12.36,6.31,10,7.09,10,9.09V15c0,1.1,0.9,2,2,2h5v5h2v-5.5c0-1.1-0.9-2-2-2 h-3v-3.45C15.29,12.12,17.25,12.99,19,13z M12.83,18c-0.41,1.16-1.52,2-2.83,2c-1.66,0-3-1.34-3-3c0-1.31,0.84-2.41,2-2.83V12.1 c-2.28,0.46-4,2.48-4,4.9c0,2.76,2.24,5,5,5c2.42,0,4.44-1.72,4.9-4H12.83z"/></g></g></g></g></svg>