<svg xmlns="http://www.w3.org/2000/svg" enable-background="new 0 0 24 24" height="24" viewBox="0 0 24 24" width="24"><g><rect fill="none" height="24" width="24"/></g><g><g><g><path d="M19,3H5C3.9,3,3,3.9,3,5v14c0,1.1,0.9,2,2,2h14c1.1,0,2-0.9,2-2V5C21,3.9,20.1,3,19,3z M6.75,7h3.5 C10.66,7,11,7.34,11,7.75l0,0c0,0.41-0.34,0.75-0.75,0.75h-3.5C6.34,8.5,6,8.16,6,7.75l0,0C6,7.34,6.34,7,6.75,7z M19,19H5L19,5 V19z M14.5,16v1.25c0,0.41,0.34,0.75,0.75,0.75l0,0c0.41,0,0.75-0.34,0.75-0.75V16h1.25c0.41,0,0.75-0.34,0.75-0.75l0,0 c0-0.41-0.34-0.75-0.75-0.75H16v-1.25c0-0.41-0.34-0.75-0.75-0.75l0,0c-0.41,0-0.75,0.34-0.75,0.75v1.25h-1.25 c-0.41,0-0.75,0.34-0.75,0.75l0,0c0,0.41,0.34,0.75,0.75,0.75H14.5z"/></g></g></g></svg>