<svg xmlns="http://www.w3.org/2000/svg" enable-background="new 0 0 24 24" height="24" viewBox="0 0 24 24" width="24"><g><path d="M0,0h24v24H0V0z" fill="none"/></g><g><path d="M20,4H4C2.9,4,2,4.9,2,6v12c0,1.1,0.9,2,2,2h16c1.1,0,2-0.9,2-2V6C22,4.9,21.1,4,20,4z M20,18h-7V6h7V18z M14.75,8.5h3.5 C18.66,8.5,19,8.84,19,9.25v0C19,9.66,18.66,10,18.25,10h-3.5C14.34,10,14,9.66,14,9.25v0C14,8.84,14.34,8.5,14.75,8.5z M14.75,11 h3.5c0.41,0,0.75,0.34,0.75,0.75v0c0,0.41-0.34,0.75-0.75,0.75h-3.5c-0.41,0-0.75-0.34-0.75-0.75v0C14,11.34,14.34,11,14.75,11z M14.75,13.5h3.5c0.41,0,0.75,0.34,0.75,0.75v0c0,0.41-0.34,0.75-0.75,0.75h-3.5C14.34,15,14,14.66,14,14.25v0 C14,13.84,14.34,13.5,14.75,13.5z"/></g></svg>