<svg xmlns="http://www.w3.org/2000/svg" enable-background="new 0 0 24 24" height="24" viewBox="0 0 24 24" width="24"><g><rect fill="none" height="24" width="24"/></g><g><g><g><polygon points="19,19 5,19 5,5 10,5 10,3 3,3 3,21 21,21 21,15.67 19,13.67"/></g><g><polygon points="6,17 18,17 14.25,12 11.25,16 9,13"/></g><g><path d="M19.88,8.89c0.44-0.7,0.7-1.51,0.7-2.39c0-2.49-2.01-4.5-4.5-4.5s-4.5,2.01-4.5,4.5s2.01,4.5,4.49,4.5 c0.88,0,1.7-0.26,2.39-0.7l3.12,3.12L23,12L19.88,8.89z M16.08,9c-1.38,0-2.5-1.12-2.5-2.5c0-1.38,1.12-2.5,2.5-2.5 s2.5,1.12,2.5,2.5C18.58,7.88,17.46,9,16.08,9z"/></g></g></g></svg>