<svg xmlns="http://www.w3.org/2000/svg" enable-background="new 0 0 24 24" height="24" viewBox="0 0 24 24" width="24"><g><rect fill="none" height="24" width="24"/></g><g><g><g><path d="M15,21h2v-2h-2V21z M19,9h2V7h-2V9z M3,5v14c0,1.1,0.9,2,2,2h3c0.55,0,1-0.45,1-1l0,0c0-0.55-0.45-1-1-1H5V5h3 c0.55,0,1-0.45,1-1l0,0c0-0.55-0.45-1-1-1H5C3.9,3,3,3.9,3,5z M19,3v2h2C21,3.9,20.1,3,19,3z M12,23L12,23c0.55,0,1-0.45,1-1V2 c0-0.55-0.45-1-1-1l0,0c-0.55,0-1,0.45-1,1v20C11,22.55,11.45,23,12,23z M19,17h2v-2h-2V17z M15,5h2V3h-2V5z M19,13h2v-2h-2V13z M19,21c1.1,0,2-0.9,2-2h-2V21z"/></g></g></g></svg>