<svg xmlns="http://www.w3.org/2000/svg" enable-background="new 0 0 24 24" height="24" viewBox="0 0 24 24" width="24"><g><rect fill="none" height="24" width="24"/></g><g><g><path d="M9,15.59L10.41,17l-2.3,2.3c-0.39,0.39-1.02,0.39-1.41,0h0c-0.39-0.39-0.39-1.02,0-1.41L9,15.59z"/><path d="M12.35,3.35l3.79,3.79C16.46,7.46,16.24,8,15.79,8H13v5.59l4.3,4.3c0.39,0.39,0.39,1.02,0,1.41h0 c-0.39,0.39-1.02,0.39-1.41,0L11,14.41V8H8.21C7.76,8,7.54,7.46,7.85,7.15l3.79-3.79C11.84,3.16,12.16,3.16,12.35,3.35z"/></g></g></svg>