<?xml version="1.0" encoding="utf-8"?>
<!-- Generator: Adobe Illustrator 23.0.4, SVG Export Plug-In . SVG Version: 6.00 Build 0)  -->
<svg version="1.1" xmlns="http://www.w3.org/2000/svg" xmlns:xlink="http://www.w3.org/1999/xlink" x="0px" y="0px" width="24px"
	 height="24px" viewBox="0 0 24 24" enable-background="new 0 0 24 24" xml:space="preserve">
<g id="Bounding_Box">
	<rect fill="none" width="24" height="24"/>
	<rect fill="none" width="24" height="24"/>
</g>
<g id="Master">
	<g>
		<path d="M19,6v10.5l1.95,1.95C20.98,18.3,21,18.15,21,18V6c0-1.1-0.9-2-2-2H6.5l2,2H19z"/>
		<path d="M3.86,3.95c-0.35-0.35-0.92-0.35-1.27,0c-0.35,0.35-0.35,0.92,0,1.27L3,5.64L3,18c0,1.1,0.9,2,2,2h12.36l1.42,1.42
			c0.35,0.35,0.92,0.35,1.27,0c0.35-0.35,0.35-0.92,0-1.27L3.86,3.95z M5,18V7.64L15.36,18H5z"/>
	</g>
</g>
</svg>
