<svg xmlns="http://www.w3.org/2000/svg" enable-background="new 0 0 24 24" height="24" viewBox="0 0 24 24" width="24"><g><rect fill="none" height="24" width="24"/></g><g><g><g><path d="M22,8L22,8c0-0.55-0.45-1-1-1h-1V5c0-1.1-0.9-2-2-2H4C2.9,3,2,3.9,2,5v14c0,1.1,0.9,2,2,2h14c1.1,0,2-0.9,2-2v-2h1 c0.55,0,1-0.45,1-1l0,0c0-0.55-0.45-1-1-1h-1v-2h1c0.55,0,1-0.45,1-1l0,0c0-0.55-0.45-1-1-1h-1V9h1C21.55,9,22,8.55,22,8z M18,19 H4V5h14V19z M7,13h3c0.55,0,1,0.45,1,1v2c0,0.55-0.45,1-1,1H7c-0.55,0-1-0.45-1-1v-2C6,13.45,6.45,13,7,13z M13,7h2 c0.55,0,1,0.45,1,1v1c0,0.55-0.45,1-1,1h-2c-0.55,0-1-0.45-1-1V8C12,7.45,12.45,7,13,7z M7,7h3c0.55,0,1,0.45,1,1v3 c0,0.55-0.45,1-1,1H7c-0.55,0-1-0.45-1-1V8C6,7.45,6.45,7,7,7z M13,11h2c0.55,0,1,0.45,1,1v4c0,0.55-0.45,1-1,1h-2 c-0.55,0-1-0.45-1-1v-4C12,11.45,12.45,11,13,11z"/></g></g></g></svg>