<svg xmlns="http://www.w3.org/2000/svg" enable-background="new 0 0 24 24" height="24" viewBox="0 0 24 24" width="24"><g><rect fill="none" height="24" width="24" x="0" y="0"/></g><g><g><path d="M12,6c3.79,0,7.17,2.13,8.82,5.5c-0.7,1.43-1.73,2.62-2.95,3.54l1.43,1.43c1.64-1.29,2.93-3,3.7-4.97 C21.27,7.11,17,4,12,4c-1.53,0-3,0.3-4.34,0.83L9.22,6.4C10.11,6.14,11.04,6,12,6z"/><path d="M16.12,13.29c0.24-0.55,0.38-1.16,0.38-1.79C16.5,9.02,14.48,7,12,7c-0.64,0-1.24,0.14-1.79,0.38l1.46,1.46 C11.77,8.82,11.88,8.8,12,8.8c1.49,0,2.7,1.21,2.7,2.7c0,0.12-0.02,0.23-0.03,0.34L16.12,13.29z"/><path d="M1.39,4.22l2.77,2.77C2.78,8.22,1.69,9.75,1,11.5C2.73,15.89,7,19,12,19c1.26,0,2.47-0.2,3.61-0.56l4.17,4.17l1.41-1.41 L2.81,2.81L1.39,4.22z M7.63,10.46C7.55,10.8,7.5,11.14,7.5,11.5c0,2.48,2.02,4.5,4.5,4.5c0.36,0,0.7-0.05,1.04-0.13l0.92,0.92 C13.32,16.91,12.67,17,12,17c-3.79,0-7.17-2.13-8.82-5.5c0.59-1.21,1.41-2.25,2.39-3.1L7.63,10.46z"/></g></g></svg>