<svg xmlns="http://www.w3.org/2000/svg" enable-background="new 0 0 24 24" height="24" viewBox="0 0 24 24" width="24"><g><path d="M0,0h24v24H0V0z" fill="none"/></g><g><path d="M12.72,11l-2,2H9.95L9.7,12.31C9.52,11.83,9.28,11.39,8.98,11H12.72 M15.41,5H11v2h3.59l2,2H5c-2.8,0-5,2.2-5,5s2.2,5,5,5 c2.46,0,4.45-1.69,4.9-4h1.65l2.77-2.77C14.11,12.77,14,13.37,14,14c0,2.8,2.2,5,5,5s5-2.2,5-5c0-2.65-1.97-4.77-4.56-4.97L15.41,5 z M19,17c-1.66,0-3-1.34-3-3s1.34-3,3-3s3,1.34,3,3S20.66,17,19,17z M5,17c-1.63,0-3-1.37-3-3s1.37-3,3-3c1.28,0,2.4,0.85,2.82,2H5 v2h2.82C7.4,16.15,6.28,17,5,17z"/></g></svg>