<svg xmlns="http://www.w3.org/2000/svg" enable-background="new 0 0 24 24" height="24" viewBox="0 0 24 24" width="24"><g><path d="M0,0h24v24H0V0z" fill="none"/></g><g><path d="M19.44,9.03L15.41,5H11v2h3.59l2,2H5c-2.8,0-5,2.2-5,5s2.2,5,5,5c2.46,0,4.45-1.69,4.9-4h1.65l2.77-2.77 C14.11,12.77,14,13.37,14,14c0,2.8,2.2,5,5,5s5-2.2,5-5C24,11.35,22.03,9.23,19.44,9.03z M7.82,15C7.4,16.15,6.28,17,5,17 c-1.63,0-3-1.37-3-3s1.37-3,3-3c1.28,0,2.4,0.85,2.82,2H5v2H7.82z M19,17c-1.66,0-3-1.34-3-3s1.34-3,3-3s3,1.34,3,3S20.66,17,19,17 z"/></g></svg>