<svg xmlns="http://www.w3.org/2000/svg" enable-background="new 0 0 24 24" height="24" viewBox="0 0 24 24" width="24"><g><rect fill="none" height="24" width="24"/></g><g><g><path d="M4,6H2v14c0,1.1,0.9,2,2,2h14v-2H4V6z"/><rect height="1" width="1" x="11" y="8"/><path d="M20,2H8C6.9,2,6,2.9,6,4v12c0,1.1,0.9,2,2,2h12c1.1,0,2-0.9,2-2V4C22,2.9,21.1,2,20,2z M14,12c0,1.11-0.9,2-2,2h-2v-2h2 v-1h-1c-1.1,0-2-0.89-2-2V8c0-1.11,0.9-2,2-2h1c1.1,0,2,0.89,2,2V12z M20.5,11h-2v2h-2v-2h-2V9h2V7h2v2h2V11z"/></g></g></svg>