<svg xmlns="http://www.w3.org/2000/svg" enable-background="new 0 0 24 24" height="24" viewBox="0 0 24 24" width="24"><g><rect fill="none" height="24" width="24"/></g><g><g><rect enable-background="new" height="1" opacity=".3" width="1" x="11" y="8"/><path d="M8,16h12v-5h-1.5v2h-2v-2h-2V9h2V7h2v2H20V4H8V16z M9,8c0-1.11,0.9-2,2-2h1 c1.1,0,2,0.89,2,2v4c0,1.11-0.9,2-2,2h-2v-2h2v-1h-1c-1.1,0-2-0.89-2-2V8z" enable-background="new" opacity=".3"/><path d="M20,2H8C6.9,2,6,2.9,6,4v12c0,1.1,0.9,2,2,2h12c1.1,0,2-0.9,2-2V4C22,2.9,21.1,2,20,2z M20,9h-1.5V7h-2v2h-2v2h2v2h2v-2 H20v5H8V4h12V9z"/><path d="M4,6H2v14c0,1.1,0.9,2,2,2h14v-2H4V6z"/><path d="M11,11h1v1h-2v2h2c1.1,0,2-0.89,2-2V8c0-1.11-0.9-2-2-2h-1C9.9,6,9,6.89,9,8v1C9,10.11,9.9,11,11,11z M11,8h1v1h-1V8z"/></g></g></svg>