<svg xmlns="http://www.w3.org/2000/svg" enable-background="new 0 0 24 24" height="24" viewBox="0 0 24 24" width="24"><g><rect fill="none" height="24" width="24"/></g><g><path d="M19,2H5C3.9,2,3,2.9,3,4v14c0,1.1,0.9,2,2,2h4l2.29,2.29c0.39,0.39,1.02,0.39,1.41,0L15,20h4c1.1,0,2-0.9,2-2V4 C21,2.9,20.1,2,19,2z M12,5c1.93,0,3.5,1.57,3.5,3.5S13.93,12,12,12s-3.5-1.57-3.5-3.5S10.07,5,12,5z M19,18H5v-0.23 c0-0.62,0.28-1.2,0.76-1.58C7.47,14.82,9.64,14,12,14s4.53,0.82,6.24,2.19c0.48,0.38,0.76,0.97,0.76,1.58V18z"/></g></svg>