<?xml version="1.0" encoding="utf-8"?>
<!-- Generator: Adobe Illustrator 22.0.1, SVG Export Plug-In . SVG Version: 6.00 Build 0)  -->
<svg version="1.1" id="ic_x5F_account_x5F_tree_x5F_icon_x5F_m2round_x5F_24px"
	 xmlns="http://www.w3.org/2000/svg" xmlns:xlink="http://www.w3.org/1999/xlink" x="0px" y="0px" width="24px" height="24px"
	 viewBox="0 0 24 24" enable-background="new 0 0 24 24" xml:space="preserve">
<rect fill="none" width="24" height="24"/>
<path d="M17,11h3c1.11,0,2-0.9,2-2V5c0-1.11-0.9-2-2-2h-3c-1.11,0-2,0.9-2,2v1H9.01V5c0-1.11-0.9-2-2-2H4C2.9,3,2,3.9,2,5v4
	c0,1.11,0.9,2,2,2h3c1.11,0,2-0.9,2-2V8H11v7.01c0,1.65,1.34,2.99,2.99,2.99H15v1c0,1.11,0.9,2,2,2h3c1.11,0,2-0.9,2-2v-4
	c0-1.11-0.9-2-2-2h-3c-1.11,0-2,0.9-2,2v1h-1.01C13.45,16,13,15.55,13,15.01V8h2v1C15,10.1,15.9,11,17,11z"/>
</svg>
