<?xml version="1.0" encoding="utf-8"?>
<!-- Generator: Adobe Illustrator 22.0.1, SVG Export Plug-In . SVG Version: 6.00 Build 0)  -->
<svg version="1.1" id="ic_x5F_account_x5F_tree_x5F_twotone_x5F_24px"
	 xmlns="http://www.w3.org/2000/svg" xmlns:xlink="http://www.w3.org/1999/xlink" x="0px" y="0px" width="24px" height="24px"
	 viewBox="0 0 24 24" enable-background="new 0 0 24 24" xml:space="preserve">
<rect fill="none" width="24" height="24"/>
<g>
	<path d="M22,11V3h-7v3H9V3H2v8h7V8h2v10h4v3h7v-8h-7v3h-2V8h2v3H22z M7,9H4V5h3V9z M17,15h3v4h-3V15z M17,5h3v4h-3V5z"/>
	<polyline opacity="0.3" points="7,5 7,9 4,9 4,5 7,5 	"/>
	<polyline opacity="0.3" points="20,5 20,9 17,9 17,5 20,5 	"/>
	<polyline opacity="0.3" points="20,15 20,19 17,19 17,15 20,15 	"/>
</g>
</svg>
