<svg xmlns="http://www.w3.org/2000/svg" enable-background="new 0 0 24 24" height="24" viewBox="0 0 24 24" width="24"><g><rect fill="none" height="24" width="24"/></g><g><g><path d="M15.95,7l-1.83-2H9.88L8.05,7H4v12h16V7H15.95z M15,17v-2.96H9V17l-4-4l4-4 v3.04h6V9l4,4L15,17z" enable-background="new" opacity=".3"/><path d="M20,5h-3.17L15,3H9L7.17,5H4C2.9,5,2,5.9,2,7v12c0,1.1,0.9,2,2,2h16c1.1,0,2-0.9,2-2V7C22,5.9,21.1,5,20,5z M20,19H4V7 h4.05l1.83-2h4.24l1.83,2H20V19z M15,12.04H9V9l-4,4l4,4v-2.96h6V17l4-4l-4-4V12.04z"/></g></g></svg>