<svg xmlns="http://www.w3.org/2000/svg" enable-background="new 0 0 24 24" height="24" viewBox="0 0 24 24" width="24"><g><path d="M0,0h24v24H0V0z" fill="none"/></g><g><g><g><path d="M14.23,12.01l2.32,2.32c0.28-0.72,0.44-1.51,0.44-2.33s-0.16-1.59-0.43-2.31L14.23,12.01z M19.52,6.71l-1.26,1.26 c0.63,1.21,0.98,2.57,0.98,4.02s-0.36,2.82-0.98,4.02l1.2,1.2C20.43,15.67,21,13.85,21,11.9C20.99,10.01,20.45,8.23,19.52,6.71z M15.71,7.71L10,2H9v7.59L4.41,5L3,6.41L8.59,12L3,17.59L4.41,19L9,14.41V22h1l5.71-5.71L11.41,12L15.71,7.71z M11,5.83 l1.88,1.88L11,9.59V5.83z M12.88,16.29L11,18.17v-3.76L12.88,16.29z"/></g></g></g></svg>