<svg xmlns="http://www.w3.org/2000/svg" enable-background="new 0 0 24 24" height="24" viewBox="0 0 24 24" width="24"><g><g><path d="M0,0h24v24H0V0z" fill="none"/></g></g><g><g><path d="M20,15l-1.41,1.41L19.17,17H17V7c0-1.1-0.9-2-2-2H2v2h6v3H2v6c0,1.65,1.35,3,3,3h1.18C6.6,20.16,7.7,21,9,21 s2.4-0.84,2.82-2h7.36l-0.59,0.59L20,21l3-3L20,15z M10,7h5v3h-5V7z M9,19c-0.55,0-1-0.45-1-1s0.45-1,1-1s1,0.45,1,1S9.55,19,9,19 z M9,15c-1.3,0-2.4,0.84-2.82,2H5c-0.55,0-1-0.45-1-1v-4h11v5h-3.18C11.4,15.84,10.3,15,9,15z"/></g></g></svg>