<svg xmlns="http://www.w3.org/2000/svg" enable-background="new 0 0 24 24" height="24" viewBox="0 0 24 24" width="24"><g><rect fill="none" height="24" width="24"/></g><g><path d="M20,2H4C2.9,2,2.01,2.9,2.01,4L2,19.58c0,0.89,1.08,1.34,1.71,0.71L6,18h14c1.1,0,2-0.9,2-2V4C22,2.9,21.1,2,20,2z M7,14 L7,14c-0.55,0-1-0.45-1-1v0c0-0.55,0.45-1,1-1h0c0.55,0,1,0.45,1,1v0C8,13.55,7.55,14,7,14z M7,11L7,11c-0.55,0-1-0.45-1-1v0 c0-0.55,0.45-1,1-1h0c0.55,0,1,0.45,1,1v0C8,10.55,7.55,11,7,11z M7,8L7,8C6.45,8,6,7.55,6,7v0c0-0.55,0.45-1,1-1h0 c0.55,0,1,0.45,1,1v0C8,7.55,7.55,8,7,8z M14,14h-3c-0.55,0-1-0.45-1-1s0.45-1,1-1h3c0.55,0,1,0.45,1,1S14.55,14,14,14z M17,11h-6 c-0.55,0-1-0.45-1-1s0.45-1,1-1h6c0.55,0,1,0.45,1,1S17.55,11,17,11z M17,8h-6c-0.55,0-1-0.45-1-1s0.45-1,1-1h6c0.55,0,1,0.45,1,1 S17.55,8,17,8z"/></g></svg>