<svg xmlns="http://www.w3.org/2000/svg" enable-background="new 0 0 24 24" height="24" viewBox="0 0 24 24" width="24"><g><rect fill="none" height="24" width="24" y="0"/></g><g><g><g enable-background="new" opacity=".3"><g><path d="M20,17.17l-4-4V10h4V17.17z"/></g></g><g><polygon points="21,6 21,4 6.83,4 8.83,6"/><path d="M21,8h-6c-0.55,0-1,0.45-1,1v2.17l2,2V10h4v7.17l2,2V9C22,8.45,21.55,8,21,8z"/><path d="M1.39,4.22L4,6.83V17H2v3h10v-3H6V8.83l8,8V19c0,0.55,0.45,1,1,1h2.17l2.61,2.61l1.41-1.41L2.81,2.81L1.39,4.22z"/></g></g></g></svg>