<svg xmlns="http://www.w3.org/2000/svg" enable-background="new 0 0 24 24" height="24" viewBox="0 0 24 24" width="24"><g><rect fill="none" height="24" width="24"/></g><g><path d="M12,2c-4.2,0-8,3.22-8,8.2c0,3.32,2.67,7.25,8,11.8c5.33-4.55,8-8.48,8-11.8C20,5.22,16.2,2,12,2z M12.01,16 c-0.59,0-1.05-0.47-1.05-1.05c0-0.59,0.47-1.04,1.05-1.04c0.59,0,1.04,0.45,1.04,1.04C13.04,15.53,12.6,16,12.01,16z M14.51,9.83 c-0.63,0.93-1.23,1.21-1.56,1.81c-0.13,0.24-0.18,0.4-0.18,1.18h-1.52c0-0.41-0.06-1.08,0.26-1.65c0.41-0.73,1.18-1.16,1.63-1.8 c0.48-0.68,0.21-1.94-1.14-1.94c-0.88,0-1.32,0.67-1.5,1.23L9.14,8.08C9.51,6.96,10.52,6,11.99,6c1.23,0,2.08,0.56,2.51,1.26 C14.87,7.87,15.08,8.99,14.51,9.83z"/></g></svg>