<svg xmlns="http://www.w3.org/2000/svg" enable-background="new 0 0 24 24" height="24" viewBox="0 0 24 24" width="24"><g><rect fill="none" height="24" width="24" y="0"/></g><g><g><path d="M6,16l6,4.5l6-4.5l0-12H6V16z M8.82,10.05l2.12,2.12l4.24-4.24l1.41,1.41L10.94,15L7.4,11.46L8.82,10.05z" opacity=".3"/><path d="M18,2H6C4.9,2,4,2.9,4,4v12c0,0.63,0.3,1.22,0.8,1.6L12,23l7.2-5.4c0.5-0.38,0.8-0.97,0.8-1.6V4C20,2.9,19.1,2,18,2z M18,16l-6,4.5L6,16V4h12L18,16z"/><polygon points="16.6,9.34 15.18,7.93 10.94,12.17 8.82,10.05 7.4,11.46 10.94,15"/></g></g></svg>