<?xml version="1.0" encoding="utf-8"?>
<!-- Generator: Adobe Illustrator 23.0.0, SVG Export Plug-In . SVG Version: 6.00 Build 0)  -->
<svg version="1.1" xmlns="http://www.w3.org/2000/svg" xmlns:xlink="http://www.w3.org/1999/xlink" x="0px" y="0px" width="24px"
	 height="24px" viewBox="0 0 24 24" enable-background="new 0 0 24 24" xml:space="preserve">
<g id="Bounding_Box">
	<rect fill="none" width="24" height="24"/>
</g>
<g id="Flat">
	<g id="ui_x5F_spec_x5F_header_copy_2">
	</g>
	<g>
		<path opacity="0.3" d="M5,6.3V11c0,4.52,2.98,8.69,7,9.93c1.74-0.53,3.28-1.62,4.47-3.04l-1.72-1.72
			c-1.94,1.29-4.58,1.07-6.29-0.64c-1.95-1.95-1.95-5.12,0-7.07c1.95-1.95,5.12-1.95,7.07,0c1.71,1.71,1.92,4.35,0.64,6.29
			l1.45,1.45C18.49,14.65,19,12.85,19,11V6.3l-7-3.11L5,6.3z"/>
		<path d="M12,1L3,5v6c0,5.55,3.84,10.74,9,12c0.65-0.16,1.27-0.38,1.87-0.65c1.8-0.82,3.36-2.13,4.57-3.74
			C20.04,16.46,21,13.77,21,11V5L12,1z M19,11c0,1.85-0.51,3.65-1.38,5.21l-1.45-1.45c1.29-1.94,1.07-4.58-0.64-6.29
			c-1.95-1.95-5.12-1.95-7.07,0c-1.95,1.95-1.95,5.12,0,7.07c1.71,1.71,4.35,1.92,6.29,0.64l1.72,1.72
			c-1.19,1.42-2.73,2.51-4.47,3.04C7.98,19.69,5,15.52,5,11V6.3l7-3.11l7,3.11V11z M15,12c0,1.66-1.34,3-3,3s-3-1.34-3-3s1.34-3,3-3
			S15,10.34,15,12z"/>
	</g>
</g>
</svg>
