<svg xmlns="http://www.w3.org/2000/svg" enable-background="new 0 0 24 24" height="24" viewBox="0 0 24 24" width="24"><g><rect fill="none" height="24" width="24"/></g><g><path d="M11.5,9C10.12,9,9,10.12,9,11.5s1.12,2.5,2.5,2.5s2.5-1.12,2.5-2.5S12.88,9,11.5,9z M20,4H4C2.9,4,2,4.9,2,6v12 c0,1.1,0.9,2,2,2h16c1.1,0,2-0.9,2-2V6C22,4.9,21.1,4,20,4z M16.79,18.21l-2.91-2.91c-0.69,0.44-1.51,0.7-2.39,0.7 C9.01,16,7,13.99,7,11.5S9.01,7,11.5,7S16,9.01,16,11.5c0,0.88-0.26,1.69-0.7,2.39l2.91,2.9L16.79,18.21z"/></g></svg>