<svg xmlns="http://www.w3.org/2000/svg" enable-background="new 0 0 24 24" height="24" viewBox="0 0 24 24" width="24"><rect fill="none" height="24" width="24"/><path d="M19.5,12c0-0.23-0.01-0.45-0.03-0.68l2.57-1.94l-2.75-4.76l-2.96,1.25c-0.37-0.26-0.76-0.49-1.17-0.68L14.75,2h-5.5 l-0.4,3.19c-0.41,0.19-0.8,0.42-1.17,0.68L4.71,4.62L1.96,9.38l2.57,1.94C4.51,11.55,4.5,11.77,4.5,12s0.01,0.45,0.03,0.68 l-2.57,1.94l2.75,4.76l2.96-1.25c0.37,0.26,0.76,0.49,1.17,0.68L9.25,22h5.5l0.4-3.19c0.41-0.19,0.8-0.42,1.17-0.68l2.96,1.25 l2.75-4.76l-2.57-1.94C19.49,12.45,19.5,12.23,19.5,12z M12.04,15.5c-1.93,0-3.5-1.57-3.5-3.5s1.57-3.5,3.5-3.5s3.5,1.57,3.5,3.5 S13.97,15.5,12.04,15.5z"/></svg>