<svg xmlns="http://www.w3.org/2000/svg" enable-background="new 0 0 24 24" height="24" viewBox="0 0 24 24" width="24"><g><rect fill="none" height="24" width="24"/></g><g><g><g><g><path d="M19,19V5L5,19H19z M14.5,14.5v-2H16v2h2V16h-2v2h-1.5v-2h-2v-1.5H14.5z" enable-background="new" opacity=".3"/><path d="M19,3H5C3.9,3,3,3.9,3,5v14c0,1.1,0.9,2,2,2h14c1.1,0,2-0.9,2-2V5C21,3.9,20.1,3,19,3z M6,7h5v1.5H6V7z M19,19H5L19,5 V19z"/><polygon points="14.5,16 14.5,18 16,18 16,16 18,16 18,14.5 16,14.5 16,12.5 14.5,12.5 14.5,14.5 12.5,14.5 12.5,16"/></g></g></g></g></svg>