<svg xmlns="http://www.w3.org/2000/svg" enable-background="new 0 0 24 24" height="24" viewBox="0 0 24 24" width="24"><g><rect fill="none" height="24" width="24"/></g><g><g><polygon points="5.83,3 7.83,5 10,5 10,7.17 11.83,9 20,9 20,17.17 22,19.17 22,7 12,7 12,3"/><path d="M2.1,2.1L0.69,3.51L2,4.83V21h16.17l2.31,2.31l1.41-1.41L2.1,2.1z M6,19H4v-2h2V19z M6,15H4v-2h2V15z M6,11H4V9h2V11z M10,19H8v-2h2V19z M10,15H8v-2h2V15z M12,19v-2h2.17l2,2H12z"/><rect height="2" width="2" x="16" y="11"/></g></g></svg>