<svg xmlns="http://www.w3.org/2000/svg" enable-background="new 0 0 24 24" height="24" viewBox="0 0 24 24" width="24"><g><rect fill="none" height="24" width="24"/></g><g><g><circle cx="12" cy="12" opacity=".3" r="4"/><rect height="3" width="2" x="11" y="1"/><rect height="3" width="2" x="11" y="20"/><rect height="2" width="3" x="20" y="11"/><rect height="2" width="3" x="1" y="11"/><rect height="2" transform="matrix(0.7071 -0.7071 0.7071 0.7071 1.9183 14.8532)" width="2.51" x="17.63" y="4.11"/><rect height="2" transform="matrix(0.7071 -0.7071 0.7071 0.7071 -11.8595 9.1461)" width="2.51" x="3.85" y="17.89"/><rect height="2.51" transform="matrix(0.7071 -0.7071 0.7071 0.7071 -7.8241 18.8877)" width="2" x="17.89" y="17.63"/><rect height="2.51" transform="matrix(0.7071 -0.7071 0.7071 0.7071 -2.117 5.1105)" width="2" x="4.11" y="3.85"/><path d="M12,6c-3.31,0-6,2.69-6,6s2.69,6,6,6s6-2.69,6-6S15.31,6,12,6z M12,16c-2.21,0-4-1.79-4-4s1.79-4,4-4s4,1.79,4,4 S14.21,16,12,16z"/></g></g></svg>