<svg xmlns="http://www.w3.org/2000/svg" enable-background="new 0 0 24 24" height="24" viewBox="0 0 24 24" width="24"><g><rect fill="none" height="24" width="24"/></g><g><g><g><g><rect height="3" transform="matrix(0.7071 -0.7071 0.7071 0.7071 -3.0688 7.4084)" width="1.99" x="6.41" y="5.91"/><rect height="6" width="2" x="11" y="1"/><rect height="3" transform="matrix(0.7071 -0.7071 0.7071 0.7071 -6.8751 16.5987)" width="1.99" x="15.6" y="15.1"/><rect height="1.99" transform="matrix(0.7071 -0.7071 0.7071 0.7071 -0.3721 13.9046)" width="3" x="15.1" y="6.41"/><rect height="1.99" transform="matrix(0.7071 -0.7071 0.7071 0.7071 -9.5691 10.0953)" width="3" x="5.9" y="15.6"/><path d="M12,9c-1.66,0-3,1.34-3,3s1.34,3,3,3s3-1.34,3-3S13.66,9,12,9z"/><rect height="6" width="2" x="11" y="17"/><rect height="2" width="6" x="1" y="11"/><rect height="2" width="6" x="17" y="11"/></g></g></g></g></svg>