<svg xmlns="http://www.w3.org/2000/svg" enable-background="new 0 0 24 24" height="24" viewBox="0 0 24 24" width="24"><g><rect fill="none" height="24" width="24"/></g><g><g><path d="M16,2H8C7.45,2,7,2.45,7,3v0c0,0.55,0.45,1,1,1h8c0.55,0,1-0.45,1-1v0C17,2.45,16.55,2,16,2z"/><path d="M19,5H5C4.45,5,4,5.45,4,6v0c0,0.55,0.45,1,1,1h14c0.55,0,1-0.45,1-1v0C20,5.45,19.55,5,19,5z"/><path d="M20,8H4c-1.1,0-2,0.9-2,2v10c0,1.1,0.9,2,2,2h16c1.1,0,2-0.9,2-2V10C22,8.9,21.1,8,20,8z M10,17.13v-4.26 c0-0.8,0.89-1.28,1.55-0.83l3.2,2.13c0.59,0.4,0.59,1.27,0,1.66l-3.2,2.13C10.89,18.41,10,17.93,10,17.13z"/></g></g></svg>