<svg xmlns="http://www.w3.org/2000/svg" enable-background="new 0 0 24 24" height="24" viewBox="0 0 24 24" width="24"><g><rect fill="none" height="24" width="24"/></g><g><g><path d="M4,20h16V10H4V20z M10,11l6,4l-6,4V11z" enable-background="new" opacity=".3"/><rect height="2" width="10" x="7" y="2"/><rect height="2" width="16" x="4" y="5"/><path d="M20,8H4c-1.1,0-2,0.9-2,2v10c0,1.1,0.9,2,2,2h16c1.1,0,2-0.9,2-2V10C22,8.9,21.1,8,20,8z M20,20H4V10h16V20z"/><polygon points="10,11 10,19 16,15"/></g></g></svg>