<svg xmlns="http://www.w3.org/2000/svg" enable-background="new 0 0 24 24" height="24" viewBox="0 0 24 24" width="24"><g><rect fill="none" height="24" width="24"/></g><g><g><path d="M5,3C4,3,3,4,3,5h2V3z"/><rect height="2" width="2" x="7" y="3"/><rect height="2" width="2" x="11" y="3"/><path d="M19,3v2h2C21,4,20,3,19,3z"/><rect height="2" width="2" x="19" y="7"/><rect height="2" width="2" x="19" y="15"/><path d="M19,21c1,0,2-1,2-2h-2V21z"/><rect height="2" width="2" x="19" y="11"/><rect height="2" width="2" x="15" y="3"/><path d="M15,7H3v12c0,1.1,0.9,2,2,2h12V9C17,7.9,16.1,7,15,7z M14,18H6c-0.41,0-0.65-0.47-0.4-0.8l1.38-1.83 c0.2-0.27,0.6-0.27,0.8,0L9,17l2.22-2.97c0.2-0.27,0.6-0.27,0.8,0l2.38,3.17C14.65,17.53,14.41,18,14,18z"/></g></g></svg>