<svg xmlns="http://www.w3.org/2000/svg" enable-background="new 0 0 24 24" height="24" viewBox="0 0 24 24" width="24"><g><rect fill="none" height="24" width="24"/></g><g><path d="M19,11c0-3.87-3.13-7-7-7C8.78,4,6.07,6.18,5.26,9.15C2.82,9.71,1,11.89,1,14.5C1,17.54,3.46,20,6.5,20 c1.76,0,10.25,0,12,0l0,0c2.49-0.01,4.5-2.03,4.5-4.52C23,13.15,21.25,11.26,19,11z M9.64,16.29l-2.12-2.12 c-0.39-0.39-0.39-1.02,0-1.41l0,0c0.39-0.39,1.02-0.39,1.41,0l1.41,1.41l3.54-3.54c0.39-0.39,1.02-0.39,1.41,0l0,0 c0.39,0.39,0.39,1.02,0,1.41l-4.24,4.24C10.66,16.68,10.03,16.68,9.64,16.29z"/></g></svg>