<svg xmlns="http://www.w3.org/2000/svg" enable-background="new 0 0 24 24" height="24" viewBox="0 0 24 24" width="24"><g><rect fill="none" height="24" width="24" x="0" y="0"/></g><g><g><path d="M12.87,15.07l-2.54-2.51l0.03-0.03c1.74-1.94,2.98-4.17,3.71-6.53H17V4h-7V2H8v2H1v1.99h11.17 C11.5,7.92,10.44,9.75,9,11.35C8.07,10.32,7.3,9.19,6.69,8h-2c0.73,1.63,1.73,3.17,2.98,4.56l-5.09,5.02L4,19l5-5l3.11,3.11 L12.87,15.07z"/><path d="M18.49,10h-2.14l-4.51,12h2.08l1.09-3.07h4.84L20.92,22H23L18.49,10z M15.63,17.19l1.74-4.96h0.1l1.74,4.96H15.63z"/></g></g></svg>