<svg xmlns="http://www.w3.org/2000/svg" enable-background="new 0 0 24 24" height="24" viewBox="0 0 24 24" width="24"><g><rect fill="none" height="24" width="24"/></g><g><g><g><path d="M20,4H4C2.89,4,2,4.9,2,6v12c0,1.1,0.89,2,2,2h16c1.1,0,2-0.9,2-2V6C22,4.9,21.1,4,20,4z M20,18H4V6h16V18z"/><polygon points="7.5,13 9.5,13 9.5,15 11,15 11,9 9.5,9 9.5,11.5 7.5,11.5 7.5,9 6,9 6,15 7.5,15"/><path d="M14,15h0.75v1.5h1.5V15H17c0.55,0,1-0.45,1-1v-4c0-0.55-0.45-1-1-1h-3c-0.55,0-1,0.45-1,1v4C13,14.55,13.45,15,14,15z M14.5,10.5h2v3h-2V10.5z"/></g></g></g></svg>