<svg xmlns="http://www.w3.org/2000/svg" enable-background="new 0 0 24 24" height="24" viewBox="0 0 24 24" width="24"><g><rect fill="none" height="24" width="24"/></g><g><g><path d="M13,5c-2.65,0-4.79,2.06-4.97,4.67L6.7,12H8v4h3v3h3v-3.95l0.89-0.42 C16.71,13.88,18,12.09,18,10C18,7.24,15.76,5,13,5z M15.96,12.87l-1.15-0.49c-0.2,0.15-0.42,0.29-0.66,0.39L14,14h-2l-0.15-1.23 c-0.24-0.1-0.45-0.24-0.66-0.39l-1.15,0.49l-1-1.73l1-0.76C10.02,10.25,10,10.13,10,10s0.02-0.25,0.04-0.38l-1-0.76l1-1.73 l1.15,0.49c0.2-0.15,0.42-0.29,0.66-0.39L12,6h2l0.15,1.23c0.24,0.1,0.45,0.24,0.66,0.39l1.15-0.49l1,1.73l-1,0.76 C15.98,9.75,16,9.87,16,10s-0.02,0.25-0.04,0.38l1,0.76L15.96,12.87z" enable-background="new" opacity=".3"/><path d="M19.94,9.06C19.5,5.73,16.57,3,13,3C9.47,3,6.57,5.61,6.08,9l-1.93,3.48C3.74,13.14,4.22,14,5,14h1l0,2c0,1.1,0.9,2,2,2h1 v3h7l0-4.68C18.62,15.07,20.35,12.24,19.94,9.06z M14.89,14.63L14,15.05V19h-3v-3H8v-4H6.7l1.33-2.33C8.21,7.06,10.35,5,13,5 c2.76,0,5,2.24,5,5C18,12.09,16.71,13.88,14.89,14.63z"/><path d="M16,10c0-0.13-0.02-0.25-0.04-0.38l1-0.76l-1-1.73l-1.15,0.49c-0.2-0.15-0.42-0.29-0.66-0.39L14,6h-2l-0.15,1.23 c-0.24,0.1-0.45,0.24-0.66,0.39l-1.15-0.49l-1,1.73l1,0.76C10.02,9.75,10,9.87,10,10s0.02,0.25,0.04,0.38l-1,0.76l1,1.73 l1.15-0.49c0.2,0.15,0.42,0.29,0.66,0.39L12,14h2l0.15-1.23c0.24-0.1,0.45-0.24,0.66-0.39l1.15,0.49l1-1.73l-1-0.76 C15.98,10.25,16,10.13,16,10z M13,11.5c-0.83,0-1.5-0.67-1.5-1.5s0.67-1.5,1.5-1.5s1.5,0.67,1.5,1.5S13.83,11.5,13,11.5z"/></g></g></svg>