<svg xmlns="http://www.w3.org/2000/svg" enable-background="new 0 0 24 24" height="24" viewBox="0 0 24 24" width="24"><g><path d="M0,0h24v24H0V0z" fill="none"/></g><g><path d="M3,6L3,6C2.45,6,2,6.45,2,7v13c0,1.1,0.9,2,2,2h13c0.55,0,1-0.45,1-1v0c0-0.55-0.45-1-1-1H4V7C4,6.45,3.55,6,3,6z M20,2H8 C6.9,2,6,2.9,6,4v12c0,1.1,0.9,2,2,2h12c1.1,0,2-0.9,2-2V4C22,2.9,21.1,2,20,2z M20,11l-3.15,0c-0.42,0-0.82,0.24-0.95,0.63 C15.63,12.43,14.88,13,14,13s-1.63-0.57-1.9-1.37C11.97,11.24,11.56,11,11.15,11L8,11V4h12V11z"/></g></svg>