<svg xmlns="http://www.w3.org/2000/svg" enable-background="new 0 0 24 24" height="24" viewBox="0 0 24 24" width="24"><g><path d="M0,0h24v24H0V0z" fill="none"/></g><g><path d="M14,15c-1.48,0-2.77-0.81-3.46-2H8v3h12v-3h-2.54C16.77,14.19,15.48,15,14,15z" opacity=".3"/><path d="M20,2H8C6.9,2,6,2.9,6,4v12c0,1.1,0.9,2,2,2h12c1.1,0,2-0.9,2-2V4C22,2.9,21.1,2,20,2z M20,16H8v-3h2.54 c0.69,1.19,1.99,2,3.46,2s2.77-0.81,3.46-2H20V16z M20,11h-4c0,1.1-0.9,2-2,2s-2-0.9-2-2H8V4h12V11z M4,6H2v14c0,1.1,0.9,2,2,2h14 v-2H4V6z"/></g></svg>