<svg xmlns="http://www.w3.org/2000/svg" enable-background="new 0 0 24 24" height="24" viewBox="0 0 24 24" width="24"><g><rect fill="none" height="24" width="24"/></g><g><path d="M20.29,8.2L18,10.48V6c0-1.1-0.9-2-2-2H4C2.9,4,2,4.9,2,6v12c0,1.1,0.9,2,2,2h12c1.1,0,2-0.9,2-2v-4.48l2.29,2.28 c0.63,0.63,1.71,0.18,1.71-0.71V8.91C22,8.02,20.93,7.57,20.29,8.2z M14.5,12.18l-3.14,3.14c-0.39,0.39-1.02,0.39-1.41,0 l-3.13-3.13l-0.96,0.96C5.54,13.46,5,13.24,5,12.79L5,10c0-0.55,0.45-1,1-1h2.79c0.45,0,0.67,0.54,0.35,0.85l-0.92,0.92l2.43,2.42 l2.43-2.43c0.39-0.39,1.02-0.39,1.41,0l0,0C14.89,11.15,14.89,11.79,14.5,12.18z"/></g></svg>