<svg xmlns="http://www.w3.org/2000/svg" enable-background="new 0 0 24 24" height="24" viewBox="0 0 24 24" width="24"><g><rect fill="none" height="24" width="24" y="0"/></g><g><g><g><path d="M4,11V8h7.29c-0.77-2.6,0.21-4.61,0.37-4.97C2.97,2.67,2,5.02,2,7v9.5c0,0.95,0.38,1.81,1,2.44v1.56 C3,21.32,3.67,22,4.5,22S6,21.32,6,20.5V20h8v0.5c0,0.82,0.67,1.5,1.5,1.5s1.5-0.68,1.5-1.5v-1.56c0.62-0.63,1-1.49,1-2.44V13 c-1.91,0-3.63-0.76-4.89-2H4z M6.5,17C5.67,17,5,16.33,5,15.5S5.67,14,6.5,14S8,14.67,8,15.5S7.33,17,6.5,17z M15,15.5 c0,0.83-0.67,1.5-1.5,1.5S12,16.33,12,15.5s0.67-1.5,1.5-1.5S15,14.67,15,15.5z"/></g><g><path d="M18,1c-2.76,0-5,2.24-5,5s2.24,5,5,5s5-2.24,5-5S20.76,1,18,1z M20.02,8.03c-0.2,0.2-0.51,0.2-0.71,0l-1.67-1.67 C17.54,6.26,17.49,6.13,17.49,6V3.5c0-0.28,0.22-0.5,0.5-0.5h0c0.28,0,0.5,0.22,0.5,0.5v2.29l1.53,1.53 C20.21,7.51,20.21,7.83,20.02,8.03z"/></g></g></g></svg>