<svg xmlns="http://www.w3.org/2000/svg" enable-background="new 0 0 24 24" height="24" viewBox="0 0 24 24" width="24"><g><rect fill="none" height="24" width="24"/></g><g><path d="M9.79,12.19h4.44L15,14.41c0.12,0.35,0.46,0.59,0.83,0.59h0.01c0.61,0,1.04-0.61,0.82-1.19l-3.34-8.89 C13.12,4.37,12.59,4,12,4h0c-0.59,0-1.12,0.37-1.33,0.92l-3.34,8.89C7.11,14.39,7.54,15,8.15,15h0.01c0.37,0,0.7-0.23,0.83-0.59 L9.79,12.19z M11.95,6.04h0.09l1.6,4.55h-3.29L11.95,6.04z M18,19H6c-0.55,0-1-0.45-1-1v0c0-0.55,0.45-1,1-1h12c0.55,0,1,0.45,1,1 v0C19,18.55,18.55,19,18,19z"/></g></svg>