<svg xmlns="http://www.w3.org/2000/svg" enable-background="new 0 0 24 24" height="24" viewBox="0 0 24 24" width="24"><g><rect fill="none" height="24" width="24"/></g><g><g><rect enable-background="new" height="7" opacity=".3" width="3" x="17" y="11"/><circle cx="11" cy="16" enable-background="new" opacity=".3" r="1.5"/><path d="M4,6h16V4H4C2.9,4,2,4.9,2,6v12c0,1.1,0.9,2,2,2h3v-2H4V6z"/><path d="M13,12H9v1.78C8.39,14.33,8,15.11,8,16s0.39,1.67,1,2.22V20h4v-1.78c0.61-0.55,1-1.34,1-2.22s-0.39-1.67-1-2.22V12z M11,17.5c-0.83,0-1.5-0.67-1.5-1.5s0.67-1.5,1.5-1.5s1.5,0.67,1.5,1.5S11.83,17.5,11,17.5z"/><path d="M21,9h-5c-0.5,0-1,0.5-1,1v9c0,0.5,0.5,1,1,1h5c0.5,0,1-0.5,1-1v-9C22,9.5,21.5,9,21,9z M20,18h-3v-7h3V18z"/></g></g></svg>