<svg xmlns="http://www.w3.org/2000/svg" enable-background="new 0 0 24 24" height="24" viewBox="0 0 24 24" width="24"><g><rect fill="none" height="24" width="24"/></g><g><g><path d="M16.91,9.41l-2.83-2.83l2.08-2.09l-2.26-2.27C13.29,2.09,12.65,2,12,2c-4.2,0-8,3.22-8,8.2 c0,3.32,2.67,7.25,8,11.8c5.33-4.55,8-8.48,8-11.8c0-0.75-0.1-1.46-0.26-2.12L19,7.33L16.91,9.41z M12,12c-1.1,0-2-0.9-2-2 s0.9-2,2-2c1.1,0,2,0.9,2,2S13.1,12,12,12z" enable-background="new"/><polygon points="22.5,2.42 21.08,1 19,3.08 16.91,1 15.5,2.41 17.58,4.5 15.5,6.59 16.91,8 19,5.92 21.08,8 22.5,6.58 20.42,4.5"/></g></g></svg>