<svg xmlns="http://www.w3.org/2000/svg" enable-background="new 0 0 24 24" height="24" viewBox="0 0 24 24" width="24"><g><rect fill="none" height="24" width="24"/></g><g><g><rect enable-background="new" height="10" opacity=".3" width="1" x="3" y="7"/><rect enable-background="new" height="10" opacity=".3" width="1" x="20" y="7"/><path d="M21,5H3C1.9,5,1,5.9,1,7v10c0,1.1,0.9,2,2,2h18c1.1,0,1.99-0.9,1.99-2L23,7C23,5.9,22.1,5,21,5z M4,17H3V7h1V17z M18,17H6 V7h12V17z M21,17h-1V7h1V17z"/></g></g></svg>