<svg xmlns="http://www.w3.org/2000/svg" enable-background="new 0 0 24 24" height="24" viewBox="0 0 24 24" width="24"><g><path d="M0,0h24v24H0V0z" fill="none"/></g><g><path d="M12,4c-4.41,0-8,3.59-8,8s3.59,8,8,8s8-3.59,8-8S16.41,4,12,4z M14.01,14.01 L6.5,17.5l3.49-7.51L17.5,6.5L14.01,14.01z" enable-background="new" opacity=".3"/><path d="M12,2C6.48,2,2,6.48,2,12s4.48,10,10,10s10-4.48,10-10S17.52,2,12,2z M12,20c-4.41,0-8-3.59-8-8s3.59-8,8-8s8,3.59,8,8 S16.41,20,12,20z M6.5,17.5l7.51-3.49L17.5,6.5L9.99,9.99L6.5,17.5z M12,11c0.55,0,1,0.45,1,1s-0.45,1-1,1s-1-0.45-1-1 S11.45,11,12,11z"/></g></svg>