<svg xmlns="http://www.w3.org/2000/svg" enable-background="new 0 0 24 24" height="24" viewBox="0 0 24 24" width="24"><g><path d="M0,0h24v24H0V0z" fill="none"/></g><g><g><g><polygon points="18.5,9 19.59,6.59 22,5.5 19.59,4.41 18.5,2 17.41,4.41 15,5.5 17.41,6.59"/></g><g><polygon points="21.28,12.72 20.5,11 19.72,12.72 18,13.5 19.72,14.28 20.5,16 21.28,14.28 23,13.5"/></g><g><path d="M16.23,13.64l1.95-1.47l-2.5-4.33l-2.24,0.95c-0.2-0.13-0.41-0.25-0.63-0.36L12.5,6h-5L7.2,8.42 C6.98,8.53,6.77,8.65,6.56,8.78L4.32,7.83l-2.5,4.33l1.95,1.47c-0.02,0.43-0.02,0.29,0,0.72l-1.95,1.47l2.5,4.33l2.24-0.95 c0.2,0.13,0.41,0.25,0.63,0.36L7.5,22h5l0.3-2.42c0.22-0.11,0.43-0.23,0.63-0.36l2.24,0.95l2.5-4.33l-1.95-1.47 C16.26,13.93,16.26,14.07,16.23,13.64z M10,17c-1.66,0-3-1.34-3-3s1.34-3,3-3s3,1.34,3,3S11.66,17,10,17z"/></g></g></g></svg>