<svg xmlns="http://www.w3.org/2000/svg" enable-background="new 0 0 24 24" height="24" viewBox="0 0 24 24" width="24"><g><rect fill="none" height="24" width="24"/></g><g><path d="M12,5.1v4.05l7.4,7.4c1.15-2.88,0.59-6.28-1.75-8.61l-4.94-4.96c-0.39-0.39-1.02-0.39-1.42,0L8.56,5.71l1.41,1.41L12,5.1z M20.49,20.49L3.51,3.51c-0.39-0.39-1.02-0.39-1.41,0l-0.01,0c-0.39,0.39-0.39,1.02,0,1.41l3.65,3.65 c-2.52,3.14-2.33,7.74,0.58,10.66C7.9,20.8,9.95,21.58,12,21.58c1.78,0,3.54-0.58,5-1.76l2.08,2.08c0.39,0.39,1.02,0.39,1.41,0l0,0 C20.87,21.51,20.87,20.87,20.49,20.49z M12,19.59c-1.6,0-3.11-0.62-4.24-1.76C6.62,16.69,6,15.19,6,13.59 c0-1.31,0.42-2.55,1.19-3.57L12,14.83V19.59z"/></g></svg>