<svg xmlns="http://www.w3.org/2000/svg" enable-background="new 0 0 24 24" height="24" viewBox="0 0 24 24" width="24"><g><rect fill="none" height="24" width="24"/></g><g><path d="M12,5.1v4.05l7.4,7.4c1.15-2.88,0.59-6.28-1.75-8.61L12,2.27L8.56,5.71l1.41,1.41L12,5.1z"/><path d="M2.81,2.81L1.39,4.22l4.36,4.36c-2.52,3.14-2.33,7.74,0.58,10.66C7.9,20.8,9.95,21.58,12,21.58c1.78,0,3.54-0.58,5-1.76 l2.78,2.78l1.41-1.41L2.81,2.81z M12,19.59c-1.6,0-3.11-0.62-4.24-1.76C6.62,16.69,6,15.19,6,13.59c0-1.31,0.42-2.55,1.19-3.57 L12,14.83V19.59z"/><path d="M6,13.59c0,1.6,0.62,3.1,1.76,4.24c1.13,1.14,2.64,1.76,4.24,1.76v-4.76 l-4.81-4.81C6.42,11.04,6,12.28,6,13.59z M9.97,7.12L12,9.15V5.1L9.97,7.12z" enable-background="new" opacity=".3"/></g></svg>