<svg xmlns="http://www.w3.org/2000/svg" enable-background="new 0 0 24 24" height="24" viewBox="0 0 24 24" width="24"><g><path d="M0,0h24v24H0V0z" fill="none"/></g><g><g><path d="M12,4c-4.42,0-8,3.58-8,8c0,4.42,3.58,8,8,8s8-3.58,8-8C20,7.58,16.42,4,12,4z M12.01,18c-0.7,0-1.26-0.56-1.26-1.26c0-0.71,0.56-1.25,1.26-1.25c0.71,0,1.25,0.54,1.25,1.25C13.25,17.43,12.72,18,12.01,18z M15.02,10.6c-0.76,1.11-1.48,1.46-1.87,2.17c-0.16,0.29-0.22,0.48-0.22,1.41h-1.82c0-0.49-0.08-1.29,0.31-1.98 c0.49-0.87,1.42-1.39,1.96-2.16c0.57-0.81,0.25-2.33-1.37-2.33c-1.06,0-1.58,0.8-1.8,1.48L8.56,8.49C9.01,7.15,10.22,6,11.99,6 c1.48,0,2.49,0.67,3.01,1.52C15.44,8.24,15.7,9.59,15.02,10.6z" enable-background="new" opacity=".3"/><path d="M12,2C6.48,2,2,6.48,2,12c0,5.52,4.48,10,10,10s10-4.48,10-10C22,6.48,17.52,2,12,2z M12,20c-4.42,0-8-3.58-8-8 c0-4.42,3.58-8,8-8s8,3.58,8,8C20,16.42,16.42,20,12,20z"/><path d="M12.01,15.49c-0.7,0-1.26,0.54-1.26,1.25c0,0.7,0.56,1.26,1.26,1.26c0.71,0,1.25-0.57,1.25-1.26 C13.25,16.04,12.71,15.49,12.01,15.49z"/><path d="M11.99,6c-1.77,0-2.98,1.15-3.43,2.49l1.64,0.69c0.22-0.67,0.74-1.48,1.8-1.48c1.62,0,1.94,1.52,1.37,2.33 c-0.54,0.77-1.47,1.29-1.96,2.16c-0.39,0.69-0.31,1.49-0.31,1.98h1.82c0-0.93,0.07-1.12,0.22-1.41c0.39-0.72,1.11-1.06,1.87-2.17 c0.68-1,0.42-2.36-0.02-3.08C14.48,6.67,13.47,6,11.99,6z"/></g></g></svg>