<svg xmlns="http://www.w3.org/2000/svg" enable-background="new 0 0 24 24" height="24" viewBox="0 0 24 24" width="24"><g><rect fill="none" height="24" width="24"/></g><g><g><path d="M20,9V7c0-1.65-1.35-3-3-3H7C5.35,4,4,5.35,4,7v2c-1.65,0-3,1.35-3,3v5c0,1.65,1.35,3,3,3h16c1.65,0,3-1.35,3-3v-5 C23,10.35,21.65,9,20,9z M6,7c0-0.55,0.45-1,1-1h10c0.55,0,1,0.45,1,1v2.78c-0.61,0.55-1,1.34-1,2.22v2H7v-2 c0-0.88-0.39-1.67-1-2.22V7z M21,17c0,0.55-0.45,1-1,1H4c-0.55,0-1-0.45-1-1v-5c0-0.55,0.45-1,1-1s1,0.45,1,1v4h14v-4 c0-0.55,0.45-1,1-1s1,0.45,1,1V17z"/><path d="M7,14h10v-2c0-0.88,0.39-1.67,1-2.22V7c0-0.55-0.45-1-1-1H7C6.45,6,6,6.45,6,7 v2.78c0.61,0.55,1,1.34,1,2.22V14z M20,11c-0.55,0-1,0.45-1,1v4H5v-4c0-0.55-0.45-1-1-1s-1,0.45-1,1v5c0,0.55,0.45,1,1,1h16 c0.55,0,1-0.45,1-1v-5C21,11.45,20.55,11,20,11z" enable-background="new" opacity=".3"/></g></g></svg>