<svg xmlns="http://www.w3.org/2000/svg" enable-background="new 0 0 24 24" height="24" viewBox="0 0 24 24" width="24"><g><g><rect fill="none" height="24" width="24" x="0" y="0"/></g></g><g><path d="M22.46,19.05l-5.72-5.72C17.53,12.26,18,10.93,18,9.5C18,5.91,15.09,3,11.5,3C8.08,3,5.28,5.64,5.03,9H2l4,4l4-4H7.05 C7.3,6.76,9.19,5,11.5,5C13.98,5,16,7.02,16,9.5S13.98,14,11.5,14c-0.69,0-1.34-0.17-1.93-0.45l-1.48,1.48 C9.08,15.64,10.25,16,11.5,16c1.43,0,2.75-0.47,3.83-1.26l5.72,5.72L22.46,19.05z"/></g></svg>