<svg xmlns="http://www.w3.org/2000/svg" enable-background="new 0 0 24 24" height="24" viewBox="0 0 24 24" width="24"><g><rect fill="none" height="24" width="24"/></g><g><g><path d="M12,4c-3.35,0-6,2.57-6,6.2c0,2.34,1.95,5.44,6,9.14c4.05-3.7,6-6.79,6-9.14C18,6.57,15.35,4,12,4z M10.94,13.36l-2.83-2.83l1.41-1.41l1.41,1.41L14.47,7l1.41,1.41L10.94,13.36z" opacity=".3"/><path d="M12,2c-4.2,0-8,3.22-8,8.2c0,3.32,2.67,7.25,8,11.8c5.33-4.55,8-8.48,8-11.8C20,5.22,16.2,2,12,2z M12,19.33 c-4.05-3.7-6-6.79-6-9.14C6,6.57,8.65,4,12,4s6,2.57,6,6.2C18,12.54,16.05,15.64,12,19.33z M10.94,10.54L9.52,9.12l-1.41,1.41 l2.83,2.83l4.95-4.95L14.47,7L10.94,10.54z"/></g></g></svg>