<svg xmlns="http://www.w3.org/2000/svg" enable-background="new 0 0 24 24" height="24" viewBox="0 0 24 24" width="24"><g><path d="M0,0h24v24H0V0z" fill="none"/></g><g><path d="M12,4c-4.97,0-9,4.03-9,9s4.03,9,9,9c4.97,0,9-4.03,9-9S16.97,4,12,4z M15.5,16.5c-0.39,0.39-1.02,0.39-1.41,0l-2.79-2.79 C11.11,13.52,11,13.27,11,13V9c0-0.55,0.45-1,1-1h0c0.55,0,1,0.45,1,1v3.59l2.5,2.5C15.89,15.48,15.89,16.11,15.5,16.5z M4.88,3.05 L2.05,5.88c-0.39,0.39-0.39,1.02,0,1.41l0,0c0.39,0.39,1.02,0.39,1.41,0l2.83-2.83c0.39-0.39,0.39-1.02,0-1.41l0,0 C5.9,2.66,5.27,2.66,4.88,3.05z M17.71,3.05L17.71,3.05c-0.39,0.39-0.39,1.02,0,1.41l2.83,2.83c0.39,0.39,1.02,0.39,1.41,0l0,0 c0.39-0.39,0.39-1.02,0-1.41l-2.83-2.83C18.73,2.66,18.1,2.66,17.71,3.05z"/></g></svg>