<svg xmlns="http://www.w3.org/2000/svg" enable-background="new 0 0 24 24" height="24" viewBox="0 0 24 24" width="24"><g><rect fill="none" height="24" width="24"/></g><g><g><polygon points="8.03,9.3 7.97,9.3 6.95,12.19 9.05,12.19"/><path d="M21.78,8l-1.2,5.1h-0.06L19.03,8h-1.09l-1.55,5.11h-0.06L15.12,8H13.9l0.11,0.43C12.79,6.38,10.56,5,8,5 c-3.87,0-7,3.13-7,7s3.13,7,7,7c3.83,0,6.93-3.08,6.99-6.89L15.77,15h1.13l1.55-5.24h0.06L19.99,15h1.16L23,8H21.78z M10.04,15 l-0.63-1.79H6.59L5.96,15H4.74l2.63-7h1.25l2.63,7H10.04z"/></g></g></svg>