<svg xmlns="http://www.w3.org/2000/svg" enable-background="new 0 0 24 24" height="24" viewBox="0 0 24 24" width="24"><g><rect fill="none" height="24" width="24"/></g><g><g><g><path d="M20,5h-3.17l-1.24-1.35C15.22,3.24,14.68,3,14.12,3H9.88c-0.56,0-1.1,0.24-1.48,0.65L7.17,5H4C2.9,5,2,5.9,2,7v12 c0,1.1,0.9,2,2,2h16c1.1,0,2-0.9,2-2V7C22,5.9,21.1,5,20,5z M20,19h-8v-1.5c-2.48,0-4.5-2.02-4.5-4.5c0-2.48,2.02-4.5,4.5-4.5V7 h8V19z"/></g><g><path d="M16.5,13c0-2.48-2.02-4.5-4.5-4.5v2c1.38,0,2.5,1.12,2.5,2.5s-1.12,2.5-2.5,2.5v2C14.48,17.5,16.5,15.48,16.5,13z"/></g><g><path d="M9.5,13c0,1.38,1.12,2.5,2.5,2.5v-5C10.62,10.5,9.5,11.62,9.5,13z"/></g></g></g></svg>