<svg xmlns="http://www.w3.org/2000/svg" enable-background="new 0 0 24 24" height="24" viewBox="0 0 24 24" width="24"><g><rect fill="none" height="24" width="24"/></g><g><g><path d="M9.5,13c0-1.38,1.12-2.5,2.5-2.5v-2c-2.48,0-4.5,2.02-4.5,4.5c0,2.48,2.02,4.5,4.5,4.5v-2 C10.62,15.5,9.5,14.38,9.5,13z" opacity=".3"/><path d="M14.5,13c0-1.38-1.12-2.5-2.5-2.5v5C13.38,15.5,14.5,14.38,14.5,13z" opacity=".3"/><path d="M12,8.5c2.48,0,4.5,2.02,4.5,4.5c0,2.48-2.02,4.5-4.5,4.5V19h8V7h-8V8.5z" opacity=".3"/><g><path d="M20,5h-3.17L15,3H9L7.17,5H4C2.9,5,2,5.9,2,7v12c0,1.1,0.9,2,2,2h16c1.1,0,2-0.9,2-2V7C22,5.9,21.1,5,20,5z M20,19h-8 v-1.5c-2.48,0-4.5-2.02-4.5-4.5c0-2.48,2.02-4.5,4.5-4.5V7h8V19z"/></g><g><path d="M16.5,13c0-2.48-2.02-4.5-4.5-4.5v2c1.38,0,2.5,1.12,2.5,2.5s-1.12,2.5-2.5,2.5v2C14.48,17.5,16.5,15.48,16.5,13z"/></g><g><path d="M9.5,13c0,1.38,1.12,2.5,2.5,2.5v-5C10.62,10.5,9.5,11.62,9.5,13z"/></g></g></g></svg>