<?xml version="1.0" encoding="utf-8"?>
<!-- Generator: Adobe Illustrator 23.0.0, SVG Export Plug-In . SVG Version: 6.00 Build 0)  -->
<svg version="1.1" xmlns="http://www.w3.org/2000/svg" xmlns:xlink="http://www.w3.org/1999/xlink" x="0px" y="0px" width="24px"
	 height="24px" viewBox="0 0 24 24" enable-background="new 0 0 24 24" xml:space="preserve">
<g id="Bounding_Box">
	<rect fill="none" width="24" height="24"/>
</g>
<g id="Flat">
	<g id="ui_x5F_spec_x5F_header_copy_2">
	</g>
	<g>
		<path d="M21,5l-9-4L3,5v6c0,5.55,3.84,10.74,9,12c2.3-0.56,4.33-1.9,5.88-3.71l-3.12-3.12c-1.94,1.29-4.58,1.07-6.29-0.64
			c-1.95-1.95-1.95-5.12,0-7.07c1.95-1.95,5.12-1.95,7.07,0c1.71,1.71,1.92,4.35,0.64,6.29l2.9,2.9C20.29,15.69,21,13.38,21,11V5z"
			/>
		<circle cx="12" cy="12" r="3"/>
	</g>
</g>
</svg>
