<svg xmlns="http://www.w3.org/2000/svg" enable-background="new 0 0 24 24" height="24" viewBox="0 0 24 24" width="24"><g><rect fill="none" height="24" width="24"/></g><g><path d="M10.55,2.14C7.68,2.7,5.38,5.04,4.87,7.91C4.32,10.98,5.7,13.77,8,15.29v5.56h2.01C10.42,21.54,11.15,22,12,22 s1.58-0.46,1.99-1.14H16v-5.56c1.96-1.3,3.25-3.52,3.25-6.04C19.25,4.77,15.19,1.24,10.55,2.14z M14,18.86h-4v-0.93h4V18.86z M14,16.93h-4V16h4V16.93z M12.75,11.31v2.81h-1.5v-2.81l-2.2-2.2l1.06-1.06L12,9.94l1.89-1.89l1.06,1.06L12.75,11.31z"/></g></svg>