<svg xmlns="http://www.w3.org/2000/svg" enable-background="new 0 0 24 24" height="24" viewBox="0 0 24 24" width="24"><g><rect fill="none" height="24" width="24"/></g><g><g><rect height=".93" opacity=".3" width="4" x="10" y="16"/><rect height=".93" opacity=".3" width="4" x="10" y="17.93"/><path d="M12,2C8,2,4.75,5.25,4.75,9.25c0,2.52,1.29,4.75,3.25,6.04v3.56c0,1.1,0.9,2,2,2h0.01C10.42,21.54,11.15,22,12,22 s1.58-0.46,1.99-1.14H14c1.1,0,2-0.9,2-2v-3.56c1.96-1.3,3.25-3.52,3.25-6.04C19.25,5.25,16,2,12,2z M14,18.86h-4v-0.93h4V18.86z M14,16.93h-4V16h4V16.93z M14.2,14h-1.45v-2.69l2.2-2.2l-1.06-1.06L12,9.94l-1.89-1.89L9.05,9.11l2.2,2.2V14H9.8 C8,13.16,6.75,11.36,6.75,9.25C6.75,6.36,9.11,4,12,4s5.25,2.36,5.25,5.25C17.25,11.36,16,13.16,14.2,14z"/></g></g></svg>