<svg xmlns="http://www.w3.org/2000/svg" enable-background="new 0 0 24 24" height="24" viewBox="0 0 24 24" width="24"><g><rect fill="none" height="24" width="24"/><rect fill="none" height="24" width="24"/></g><g><g><path d="M11,17h-0.01h-2H8v1h7.17C15.06,17.69,15,17.35,15,17H11z" enable-background="new" opacity=".3"/><path d="M11.14,9.95l0.2-0.2L9.93,8.34C8.98,7.4,7.73,6.88,6.39,6.88 C5.76,6.88,5.14,7,4.57,7.22l1.04,1.04h2.28v2.15c0.4,0.22,0.86,0.34,1.33,0.34C9.95,10.75,10.63,10.46,11.14,9.95z" enable-background="new" opacity=".3"/><path d="M9,4v1.38c-0.83-0.33-1.72-0.5-2.61-0.5c-1.79,0-3.52,0.68-4.89,2.05l3.27,3.33h1.11v1.11c0.86,0.86,1.98,1.31,3.11,1.36 V15H6v3c0,1.1,0.9,2,2,2h10c1.66,0,3-1.34,3-3V4H9z M7.89,10.41V8.26H5.61L4.57,7.22C5.14,7,5.76,6.88,6.39,6.88 c1.34,0,2.59,0.52,3.54,1.46l1.41,1.41l-0.2,0.2c-0.51,0.51-1.19,0.8-1.92,0.8C8.75,10.75,8.29,10.63,7.89,10.41z M8,18v-1h0.99h2 H11h4c0,0.35,0.06,0.69,0.17,1H8z M19,17c0,0.55-0.45,1-1,1s-1-0.45-1-1v-2h-6v-2.59c0.57-0.23,1.1-0.57,1.56-1.03l0.2-0.2 L15.59,14H17v-1.41l-6-5.97V6h8V17z"/></g></g></svg>