<svg xmlns="http://www.w3.org/2000/svg" enable-background="new 0 0 24 24" height="24" viewBox="0 0 24 24" width="24"><g><rect fill="none" height="24" width="24"/></g><g><g><path d="M6.94,17l2.91-2.91L12.76,17H19V4c0-1.1-0.9-2-2-2L7,2C5.9,2,5,2.9,5,4v13H6.94z M7,4h10v9.13C15.12,12.24,12.89,12,12,12 s-3.12,0.24-5,1.13V4z"/><circle cx="12" cy="8" r="3"/><polygon points="13.35,19 9.85,15.5 8.44,16.91 9.53,18 5,18 5,20 9.53,20 8.44,21.09 9.85,22.5"/><rect height="2" width="5" x="14" y="18"/></g></g></svg>