<svg xmlns="http://www.w3.org/2000/svg" enable-background="new 0 0 24 24" height="24" viewBox="0 0 24 24" width="24"><g><rect fill="none" height="24" width="24"/></g><g><g><path d="M13.35,19l-3.5,3.5l-1.41-1.41L9.53,20H5v-2h4.53l-1.09-1.09l1.41-1.41L13.35,19z M19,4v13h-2v-1.56 C15.62,14.43,13.19,14,12,14s-3.62,0.43-5,1.44V17H5V4c0-1.1,0.9-2,2-2l10,0.01C18.1,2.01,19,2.9,19,4z M17,4H7v9.13 C8.88,12.24,11.11,12,12,12s3.12,0.24,5,1.13V4z M14,20h5v-2h-5V20z M9,8c0-1.66,1.34-3,3-3s3,1.34,3,3s-1.34,3-3,3S9,9.66,9,8z M11,8c0,0.55,0.45,1,1,1s1-0.45,1-1s-0.45-1-1-1S11,7.45,11,8z"/></g></g></svg>