<svg xmlns="http://www.w3.org/2000/svg" enable-background="new 0 0 24 24" height="24" viewBox="0 0 24 24" width="24"><g><rect fill="none" height="24" width="24"/></g><g><g><path d="M6.94,17l1.5-1.5c0.78-0.78,2.05-0.78,2.83,0l1.5,1.5h4.3c1.07,0,1.94-0.87,1.94-1.94V4c0-1.1-0.9-2-2-2L7,2 C5.9,2,5,2.9,5,4v11.06C5,16.13,5.87,17,6.94,17L6.94,17z M7,4h10v9.13C15.12,12.24,12.89,12,12,12s-3.12,0.24-5,1.13V4z"/><circle cx="12" cy="8" r="3"/><path d="M12.64,18.29l-2.09-2.09c-0.39-0.39-1.02-0.39-1.41,0l0,0c-0.39,0.39-0.39,1.02,0,1.41L9.53,18H6c-0.55,0-1,0.45-1,1v0 c0,0.55,0.45,1,1,1h3.53l-0.38,0.38c-0.39,0.39-0.39,1.02,0,1.41l0,0c0.39,0.39,1.02,0.39,1.41,0l2.09-2.09 C13.03,19.32,13.03,18.68,12.64,18.29z"/><path d="M15,20h3c0.55,0,1-0.45,1-1v0c0-0.55-0.45-1-1-1h-3c-0.55,0-1,0.45-1,1v0C14,19.55,14.45,20,15,20z"/></g></g></svg>