<svg xmlns="http://www.w3.org/2000/svg" enable-background="new 0 0 24 24" height="24" viewBox="0 0 24 24" width="24"><g><rect fill="none" height="24" width="24"/></g><g><g><path d="M7,13.13C8.88,12.24,11.11,12,12,12s3.12,0.24,5,1.13V4H7V13.13z M12,5 c1.66,0,3,1.34,3,3c0,1.66-1.34,3-3,3S9,9.66,9,8C9,6.34,10.34,5,12,5z" enable-background="new" opacity=".3"/><rect height="2" width="5" x="14" y="18"/><path d="M17,2.01L7,2C5.9,2,5,2.9,5,4v13h2v-1.56C8.38,14.43,10.81,14,12,14s3.62,0.43,5,1.44V17h2V4C19,2.9,18.1,2.01,17,2.01z M17,13.13C15.12,12.24,12.89,12,12,12s-3.12,0.24-5,1.13V4h10V13.13z"/><polygon points="8.44,16.91 9.53,18 5,18 5,20 9.53,20 8.44,21.09 9.85,22.5 13.35,19 9.85,15.5"/><path d="M12,11c1.66,0,3-1.34,3-3c0-1.66-1.34-3-3-3S9,6.34,9,8C9,9.66,10.34,11,12,11z M12,7c0.55,0,1,0.45,1,1 c0,0.55-0.45,1-1,1s-1-0.45-1-1C11,7.45,11.45,7,12,7z"/></g></g></svg>