<svg xmlns="http://www.w3.org/2000/svg" enable-background="new 0 0 24 24" height="24" viewBox="0 0 24 24" width="24"><g><rect fill="none" height="24" width="24"/><rect fill="none" height="24" width="24"/></g><g><path d="M11.99,2C6.47,2,2,6.47,2,12s4.47,10,9.99,10S22,17.53,22,12S17.52,2,11.99,2z M8.88,7.82L11,9.94L9.94,11L8.88,9.94 L7.82,11L6.76,9.94L8.88,7.82z M12,17.5c-2.33,0-4.31-1.46-5.11-3.5h10.22C16.31,16.04,14.33,17.5,12,17.5z M16.18,11l-1.06-1.06 L14.06,11L13,9.94l2.12-2.12l2.12,2.12L16.18,11z"/></g></svg>