<svg xmlns="http://www.w3.org/2000/svg" enable-background="new 0 0 24 24" height="24" viewBox="0 0 24 24" width="24"><g><rect fill="none" height="24" width="24"/><rect fill="none" height="24" width="24"/></g><g><g><g><g><path d="M12,4c-4.42,0-8,3.58-8,8s3.58,8,8,8s8-3.58,8-8S16.42,4,12,4z M8.88,7.82 L11,9.94L9.94,11L8.88,9.94L7.82,11L6.76,9.94L8.88,7.82z M12,17.5c-2.33,0-4.31-1.46-5.11-3.5h10.22 C16.31,16.04,14.33,17.5,12,17.5z M16.18,11l-1.06-1.06L14.06,11L13,9.94l2.12-2.12l2.12,2.12L16.18,11z" enable-background="new" opacity=".3"/><polygon points="8.88,9.94 9.94,11 11,9.94 8.88,7.82 6.76,9.94 7.82,11"/><polygon points="13,9.94 14.06,11 15.12,9.94 16.18,11 17.24,9.94 15.12,7.82"/><path d="M11.99,2C6.47,2,2,6.47,2,12s4.47,10,9.99,10S22,17.53,22,12S17.52,2,11.99,2z M12,20c-4.42,0-8-3.58-8-8s3.58-8,8-8 s8,3.58,8,8S16.42,20,12,20z"/><path d="M12,17.5c2.33,0,4.31-1.46,5.11-3.5H6.89C7.69,16.04,9.67,17.5,12,17.5z"/></g></g></g></g></svg>