<svg xmlns="http://www.w3.org/2000/svg" enable-background="new 0 0 24 24" height="24" viewBox="0 0 24 24" width="24"><g><rect fill="none" height="24" width="24"/></g><g><g><g><path d="M12,2C6.48,2,2,6.48,2,12s4.48,10,10,10s10-4.48,10-10S17.52,2,12,2z M11,19.93C7.06,19.44,4,16.08,4,12 s3.05-7.44,7-7.93V19.93z M13,4.07C14.03,4.2,15,4.52,15.87,5H13V4.07z M13,7h5.24c0.25,0.31,0.48,0.65,0.68,1H13V7z M13,10h6.74 c0.08,0.33,0.15,0.66,0.19,1H13V10z M13,19.93V19h2.87C15,19.48,14.03,19.8,13,19.93z M18.24,17H13v-1h5.92 C18.72,16.35,18.49,16.69,18.24,17z M19.74,14H13v-1h6.93C19.89,13.34,19.82,13.67,19.74,14z"/></g></g></g></svg>