<svg xmlns="http://www.w3.org/2000/svg" enable-background="new 0 0 24 24" height="24" viewBox="0 0 24 24" width="24"><g><rect fill="none" height="24" width="24"/></g><g><path d="M4.18,14.36L6,13v-1.54c-0.93,0.48-1.87,1.11-2.78,1.95L4.18,14.36z M18,11.46V13l1.82,1.36l0.96-0.96 C19.87,12.57,18.93,11.94,18,11.46z" opacity=".3"/><path d="M22.91,12.71C18.58,8.1,13.09,8,12,8c-1.09,0-6.58,0.1-10.91,4.71c-0.38,0.4-0.38,1.02,0.01,1.41l2.29,2.27 c0.35,0.35,0.91,0.39,1.3,0.09L8,14v-3.37C9.26,10.23,10.6,10,12,10s2.74,0.23,4,0.63V14l3.31,2.48c0.4,0.3,0.95,0.26,1.3-0.09 l2.29-2.27C23.29,13.73,23.29,13.11,22.91,12.71z M6,13l-1.82,1.36l-0.96-0.96c0.91-0.83,1.85-1.47,2.78-1.95V13z M19.82,14.36 L18,13v-1.54c0.93,0.48,1.87,1.11,2.78,1.95L19.82,14.36z"/></g></svg>