<svg xmlns="http://www.w3.org/2000/svg" enable-background="new 0 0 24 24" height="24" viewBox="0 0 24 24" width="24"><g><rect fill="none" height="24" width="24"/></g><g><g><path d="M17,11l-2.5-1.5L12,11V4H6v16h12V4h-1V11z M7,18l2.38-3.17L11,17l2.62-3.5 L17,18H7z" enable-background="new" opacity=".3"/><path d="M18,2H6C4.9,2,4,2.9,4,4v16c0,1.1,0.9,2,2,2h12c1.1,0,2-0.9,2-2V4C20,2.9,19.1,2,18,2z M18,20H6V4h6v7l2.5-1.5L17,11V4h1 V20z"/><polygon points="11,17 9.38,14.83 7,18 17,18 13.62,13.5"/></g></g></svg>