<svg xmlns="http://www.w3.org/2000/svg" enable-background="new 0 0 24 24" height="24" viewBox="0 0 24 24" width="24"><g><rect fill="none" height="24" width="24"/></g><g><path d="M18.77,12.99L17,12.78V11c0-2.76-2.24-5-5-5C9.76,6,7.78,7.51,7.18,9.68 l-0.32,1.15L5.71,11.1C4.11,11.46,3,12.86,3,14.5C3,16.43,4.57,18,6.5,18h11.63l0.36,0c1.38-0.01,2.51-1.14,2.51-2.52 C21,14.2,20.04,13.13,18.77,12.99z M16,13l-4,4l-4-4h3V9h2v4H16z" enable-background="new" opacity=".3"/><path d="M19,11c0-3.87-3.13-7-7-7C8.78,4,6.07,6.18,5.26,9.15C2.82,9.71,1,11.89,1,14.5C1,17.54,3.46,20,6.5,20h12l0,0 c2.49-0.01,4.5-2.03,4.5-4.52C23,13.15,21.25,11.26,19,11z M18.49,18l-0.36,0H6.5C4.57,18,3,16.43,3,14.5 c0-1.64,1.11-3.04,2.71-3.4l1.16-0.27l0.32-1.15C7.78,7.51,9.76,6,12,6c2.76,0,5,2.24,5,5v1.78l1.77,0.21 C20.04,13.13,21,14.2,21,15.47C21,16.86,19.87,17.99,18.49,18z M12,17l4-4h-3V9h-2v4H8L12,17z"/></g></svg>