<svg xmlns="http://www.w3.org/2000/svg" enable-background="new 0 0 24 24" height="24" viewBox="0 0 24 24" width="24"><g><rect fill="none" height="24" width="24"/></g><g><path d="M20,4H4C2.89,4,2,4.9,2,6v12c0,1.1,0.89,2,2,2h16c1.1,0,2-0.9,2-2V6C22,4.9,21.11,4,20,4z M20,18H4V8h16V18z M15.89,10.17 L15.89,10.17c-0.39-0.39-1.02-0.39-1.41,0l-3.54,3.54l-1.41-1.41c-0.39-0.39-1.02-0.39-1.41,0l0,0c-0.39,0.39-0.39,1.02,0,1.41 l2.12,2.12c0.39,0.39,1.02,0.39,1.41,0l4.24-4.24C16.28,11.2,16.28,10.56,15.89,10.17z"/></g></svg>