<?xml version="1.0" encoding="utf-8"?>
<!-- Generator: Adobe Illustrator 23.0.1, SVG Export Plug-In . SVG Version: 6.00 Build 0)  -->
<svg version="1.1" xmlns="http://www.w3.org/2000/svg" xmlns:xlink="http://www.w3.org/1999/xlink" x="0px" y="0px" width="24px"
	 height="24px" viewBox="0 0 24 24" enable-background="new 0 0 24 24" xml:space="preserve">
<g id="Bounding_Box">
	<rect fill="none" width="24" height="24"/>
</g>
<g id="Master">
	<g>
		<rect x="6" y="7" fill="none" width="5" height="3"/>
		<rect x="13" y="7" fill="none" width="5" height="3"/>
		<path d="M20,10V7c0-1.1-0.9-2-2-2H6C4.9,5,4,5.9,4,7v3c-1.1,0-2,0.9-2,2v5h1.33L4,19h1l0.67-2h12.67L19,19h1l0.67-2H22v-5
			C22,10.9,21.1,10,20,10z M11,10H6V7h5V10z M18,10h-5V7h5V10z"/>
	</g>
</g>
</svg>
