<svg xmlns="http://www.w3.org/2000/svg" enable-background="new 0 0 24 24" height="24" viewBox="0 0 24 24" width="24"><g><rect fill="none" height="24" width="24"/></g><g><g><polygon points="8,9 6,9 6,12 3,12 3,14 6,14 6,17 8,17 8,14 11,14 11,12 8,12"/><path d="M15.04,17L15,16.92c1.06-1.06,3.13-3.13,3.66-3.64c1.46-1.46,2.16-2.9,2.16-4.3C20.82,6.85,19.15,5,16.4,5 c-2.7,0-4.02,1.92-4.34,3.08l2,0.82c0.05-0.22,0.51-1.82,2.3-1.82c1.86,0,2.22,1.45,2.22,1.94c0,0.74-0.04,1.28-1.46,2.8 c-0.47,0.52-1.48,1.56-5.02,5.1V19H21v-2H15.04z"/></g></g></svg>