<svg xmlns="http://www.w3.org/2000/svg" enable-background="new 0 0 24 24" height="24" viewBox="0 0 24 24" width="24"><g><rect fill="none" height="24" width="24"/></g><g><g><rect height="14" width="2" x="1" y="5"/><rect height="14" width="2" x="5" y="5"/><g><path d="M11,17h10V7H11V17z M14.12,12.17L15.5,14l1.88-2.5L20,15h-8L14.12,12.17z" enable-background="new" opacity=".3"/><path d="M21,5H11C9.9,5,9,5.9,9,7v10c0,1.1,0.9,2,2,2h10c1.1,0,2-0.9,2-2V7C23,5.9,22.1,5,21,5z M21,17H11V7h10V17z"/><polygon points="17.38,11.5 15.5,14 14.12,12.17 12,15 20,15"/></g></g></g></svg>