<svg xmlns="http://www.w3.org/2000/svg" enable-background="new 0 0 24 24" height="24" viewBox="0 0 24 24" width="24"><g><rect fill="none" height="24" width="24"/></g><g><path d="M7,6.43l4.94,4.94l7.07-7.07L17.6,2.88l-5.66,5.66L8.4,5H11V3H5v6h2V6.43z M22.91,16.71C18.58,12.1,13.09,12,12,12 c-1.09,0-6.58,0.1-10.91,4.71c-0.38,0.4-0.38,1.02,0.01,1.41l2.29,2.27c0.35,0.35,0.91,0.39,1.3,0.09L7.6,18.3 C7.85,18.11,8,17.81,8,17.5v-2.87C9.26,14.23,10.6,14,12,14s2.74,0.23,4,0.63v2.87c0,0.31,0.15,0.61,0.4,0.8l2.91,2.18 c0.4,0.3,0.95,0.26,1.3-0.09l2.29-2.27C23.29,17.73,23.29,17.11,22.91,16.71z M6,17l-1.82,1.36l-0.96-0.96 c0.91-0.83,1.85-1.47,2.78-1.95V17z M19.82,18.36L18,17v-1.54c0.93,0.48,1.87,1.11,2.78,1.95L19.82,18.36z"/></g></svg>