<svg xmlns="http://www.w3.org/2000/svg" enable-background="new 0 0 24 24" height="24" viewBox="0 0 24 24" width="24"><g><path d="M0,0h24v24H0V0z" fill="none"/></g><g><path d="M20,15H4c-0.55,0-1,0.45-1,1c0,0.55,0.45,1,1,1h16c0.55,0,1-0.45,1-1S20.55,15,20,15z M20,10H4c-0.55,0-1,0.45-1,1v1 c0,0.55,0.45,1,1,1h16c0.55,0,1-0.45,1-1v-1C21,10.45,20.55,10,20,10z M20,4H4C3.45,4,3,4.45,3,5v2c0,0.55,0.45,1,1,1h16 c0.55,0,1-0.45,1-1V5C21,4.45,20.55,4,20,4z M20.5,19h-17C3.22,19,3,19.22,3,19.5S3.22,20,3.5,20h17c0.28,0,0.5-0.22,0.5-0.5 S20.78,19,20.5,19z"/></g></svg>