<svg xmlns="http://www.w3.org/2000/svg" enable-background="new 0 0 24 24" height="24" viewBox="0 0 24 24" width="24"><g><rect fill="none" height="24" width="24"/></g><g><g><path d="M6,6.39v4.7c0,4,2.55,7.7,6,8.83c1.48-0.48,2.79-1.44,3.81-2.69l-1.79-1.79 c-1.53,0.9-3.53,0.71-4.85-0.61c-1.56-1.56-1.56-4.09,0-5.66c1.56-1.56,4.09-1.56,5.66,0c1.32,1.32,1.51,3.32,0.61,4.85l1.49,1.49 c0.68-1.34,1.07-2.85,1.07-4.42v-4.7l-6-2.25L6,6.39z" enable-background="new" opacity=".3"/><path d="M12,2L4,5v6.09c0,5.05,3.41,9.76,8,10.91c4.59-1.15,8-5.86,8-10.91V5L12,2z M18,11.09c0,1.57-0.39,3.08-1.07,4.42 l-1.49-1.49c0.9-1.53,0.71-3.53-0.61-4.85c-1.56-1.56-4.09-1.56-5.66,0c-1.56,1.56-1.56,4.09,0,5.66 c1.32,1.32,3.32,1.51,4.85,0.61l1.79,1.79c-1.02,1.25-2.33,2.21-3.81,2.69c-3.45-1.13-6-4.82-6-8.83v-4.7l6-2.25l6,2.25V11.09z M10.59,13.41c-0.78-0.78-0.78-2.05,0-2.83c0.78-0.78,2.05-0.78,2.83,0c0.78,0.78,0.78,2.05,0,2.83 C12.63,14.2,11.37,14.2,10.59,13.41z"/></g></g></svg>