<svg xmlns="http://www.w3.org/2000/svg" enable-background="new 0 0 24 24" height="24" viewBox="0 0 24 24" width="24"><g><rect fill="none" height="24" width="24"/></g><g><g><path d="M6.82,13H11v-2H6.82C6.4,9.84,5.3,9,4,9c-1.66,0-3,1.34-3,3c0,1.66,1.34,3,3,3C5.3,15,6.4,14.16,6.82,13z M4,13 c-0.55,0-1-0.45-1-1s0.45-1,1-1s1,0.45,1,1S4.55,13,4,13z"/><path d="M19,8l-1.41,1.41L19.17,11h-4.22C14.45,5.95,10.19,2,5,2v2c4.42,0,8,3.58,8,8c0,4.42-3.58,8-8,8v2 c5.19,0,9.45-3.95,9.95-9h4.22l-1.59,1.59L19,16l4-4L19,8z"/></g></g></svg>