<svg xmlns="http://www.w3.org/2000/svg" enable-background="new 0 0 24 24" height="24" viewBox="0 0 24 24" width="24"><g><path d="M0,0h24v24H0V0z" fill="none"/></g><g><g><path d="M19,6H9c0,1.1-0.9,2-2,2v4c1.1,0,2,0.9,2,2h10c0-1.1,0.9-2,2-2V8C19.9,8,19,7.1,19,6z M14,13 c-1.66,0-3-1.34-3-3s1.34-3,3-3s3,1.34,3,3S15.66,13,14,13z" opacity=".3"/><circle cx="14" cy="10" r="3"/><path d="M21,4H7C5.9,4,5,4.9,5,6v8c0,1.1,0.9,2,2,2h14c1.1,0,2-0.9,2-2V6C23,4.9,22.1,4,21,4z M21,12c-1.1,0-2,0.9-2,2H9 c0-1.1-0.9-2-2-2V8c1.1,0,2-0.9,2-2h10c0,1.1,0.9,2,2,2V12z"/><path d="M3,7H1v11c0,1.1,0.9,2,2,2h17v-2H3V7z"/></g></g></svg>