<svg xmlns="http://www.w3.org/2000/svg" enable-background="new 0 0 24 24" height="24" viewBox="0 0 24 24" width="24"><g><rect fill="none" height="24" width="24"/></g><g><g><path d="M22,12c0-5.52-4.48-10-10-10S2,6.48,2,12s4.48,10,10,10S22,17.52,22,12z M15.85,7.35l2.3,2.3c0.2,0.2,0.2,0.51,0,0.71 l-2.3,2.29C15.54,12.96,15,12.74,15,12.3V11h-3c-0.55,0-1-0.45-1-1v0c0-0.55,0.45-1,1-1h3V7.71C15,7.26,15.54,7.04,15.85,7.35z M8.15,16.65l-2.3-2.3c-0.2-0.2-0.2-0.51,0-0.71l2.3-2.29C8.46,11.04,9,11.26,9,11.7V13h3c0.55,0,1,0.45,1,1v0c0,0.55-0.45,1-1,1 H9v1.29C9,16.74,8.46,16.96,8.15,16.65z"/></g></g></svg>