<svg xmlns="http://www.w3.org/2000/svg" enable-background="new 0 0 24 24" height="24" viewBox="0 0 24 24" width="24"><g><rect fill="none" height="24" width="24"/></g><g><g><path d="M5,6h14c0.55,0,1-0.45,1-1s-0.45-1-1-1H5C4.45,4,4,4.45,4,5S4.45,6,5,6z M20.16,7.8C20.07,7.34,19.66,7,19.18,7H4.82 C4.34,7,3.93,7.34,3.84,7.8l-1,5C2.72,13.42,3.19,14,3.82,14H4v5c0,0.55,0.45,1,1,1h8c0.55,0,1-0.45,1-1v-5h4v5c0,0.55,0.45,1,1,1 s1-0.45,1-1v-5h0.18c0.63,0,1.1-0.58,0.98-1.2L20.16,7.8z M12,18H6v-4h6V18z"/></g></g></svg>