<svg xmlns="http://www.w3.org/2000/svg" enable-background="new 0 0 24 24" height="24" viewBox="0 0 24 24" width="24"><g><path d="M0,0h24v24H0V0z" fill="none"/></g><g><path d="M19,3h-4.18C14.4,1.84,13.3,1,12,1S9.6,1.84,9.18,3H5C3.88,3,3,3.94,3,5v14c0,0.94,0.74,2,2,2h14c1.1,0,2-0.9,2-2V5 C21,3.9,20.1,3,19,3z M12,2.75c0.41,0,0.75,0.34,0.75,0.75c0,0.41-0.34,0.75-0.75,0.75s-0.75-0.34-0.75-0.75 C11.25,3.09,11.59,2.75,12,2.75z M19,19H5V5h14V19z M16,12l-1.41-1.41L13,12.17L13,8h-2l0,4.17l-1.59-1.59L8,12l4,4L16,12z"/></g></svg>