<svg xmlns="http://www.w3.org/2000/svg" enable-background="new 0 0 24 24" height="24" viewBox="0 0 24 24" width="24"><g><rect fill="none" height="24" width="24"/></g><g><g><path d="M6.5,18.78L6.75,21l1.62-1.54l2.74-7.57c-0.68-0.16-1.28-0.49-1.78-0.94L6.5,18.78z"/><path d="M14.67,10.96c-0.5,0.45-1.11,0.78-1.78,0.94l2.75,7.57L17.25,21l0.25-2.22L14.67,10.96z"/><path d="M15,8c0-1.3-0.84-2.4-2-2.82V3h-2v2.18C9.84,5.6,9,6.7,9,8c0,1.66,1.34,3,3,3S15,9.66,15,8z M12,9c-0.55,0-1-0.45-1-1 s0.45-1,1-1s1,0.45,1,1S12.55,9,12,9z"/></g></g></svg>