<svg xmlns="http://www.w3.org/2000/svg" enable-background="new 0 0 24 24" height="24" viewBox="0 0 24 24" width="24"><g><rect fill="none" height="24" width="24"/></g><g><path d="M12,6c-2.21,0-4,1.79-4,4v7h8v-7C16,7.79,14.21,6,12,6z M14.75,10.8L12,14.2 h2.75V16h-5.5v-1.8L12,10.8H9.25V9h5.5V10.8z" enable-background="new" opacity=".3"/><path d="M12,22c1.1,0,2-0.9,2-2h-4C10,21.1,10.9,22,12,22z M18,17v-7c0-2.79-1.91-5.14-4.5-5.8V3.5C13.5,2.67,12.83,2,12,2 s-1.5,0.67-1.5,1.5v0.7C7.91,4.86,6,7.21,6,10v7H4v2h16v-2H18z M16,17H8v-7c0-2.21,1.79-4,4-4s4,1.79,4,4V17z M9.25,10.8H12 l-2.75,3.4V16h5.5v-1.8H12l2.75-3.4V9h-5.5V10.8z"/></g></svg>