<svg xmlns="http://www.w3.org/2000/svg" enable-background="new 0 0 24 24" height="24" viewBox="0 0 24 24" width="24"><g><path d="M0,0h24v24H0V0z" fill="none"/></g><g><g><g><path d="M14,12c0,2.21,1.79,4,4,4c2.21,0,4-1.79,4-4s-1.79-4-4-4C15.79,8,14,9.79,14,12z M18,14.5c-1.38,0-2.5-1.12-2.5-2.5 c0-0.42,0.11-0.8,0.29-1.15l3.36,3.36C18.8,14.39,18.42,14.5,18,14.5z M20.5,12c0,0.42-0.11,0.8-0.29,1.15l-3.36-3.36 C17.2,9.61,17.58,9.5,18,9.5C19.38,9.5,20.5,10.62,20.5,12z"/><path d="M17,18H7V6h10v1h2V3c0-1.1-0.9-2-2-2H7C5.9,1,5,1.9,5,3v18c0,1.1,0.9,2,2,2h10c1.1,0,2-0.9,2-2v-4h-2V18z M7,3h10v1H7V3z M17,21H7v-1h10V21z"/></g><rect height="1" opacity=".3" width="10" x="7" y="3"/><rect height="1" opacity=".3" width="10" x="7" y="20"/></g></g></svg>