<svg xmlns="http://www.w3.org/2000/svg" enable-background="new 0 0 24 24" height="24" viewBox="0 0 24 24" width="24"><g><rect fill="none" height="24" width="24"/></g><g><path d="M19.68,19.14l-1.97-1.97l-1.33,1.33l-0.71-0.71L17,16.46l-2.59-2.59l-1.33,1.33l-0.71-0.71l1.33-1.33l-2.59-2.59 l-1.33,1.33l-0.71-0.71l1.33-1.33L7.8,7.26L6.47,8.59L5.77,7.89L7.1,6.56L4.86,4.32C4.64,4.1,4.37,4,4.1,4C3.54,4,3,4.44,3,5.09 v13.73C3,20.02,3.98,21,5.18,21h13.73C19.88,21,20.37,19.83,19.68,19.14z M6,18V9.7l8.3,8.3H6z"/></g></svg>