<svg xmlns="http://www.w3.org/2000/svg" enable-background="new 0 0 24 24" height="24" viewBox="0 0 24 24" width="24"><g><rect fill="none" height="24" width="24"/></g><g><path d="M12,2C8,2,4,2.5,4,6v9.5C4,17.43,5.57,19,7.5,19l-0.49,0.49C6.45,20.05,6.85,21,7.63,21h0c0.23,0,0.46-0.09,0.62-0.26 L10,19h4l1.74,1.74c0.17,0.17,0.39,0.26,0.62,0.26h0.01c0.79,0,1.18-0.95,0.62-1.51L16.5,19c1.93,0,3.5-1.57,3.5-3.5V6 C20,2.5,16.42,2,12,2z M8.5,16C7.67,16,7,15.33,7,14.5S7.67,13,8.5,13s1.5,0.67,1.5,1.5S9.33,16,8.5,16z M11,10H6V7h5V10z M15.5,16 c-0.83,0-1.5-0.67-1.5-1.5s0.67-1.5,1.5-1.5s1.5,0.67,1.5,1.5S16.33,16,15.5,16z M18,10h-5V7h5V10z"/></g></svg>