<svg xmlns="http://www.w3.org/2000/svg" enable-background="new 0 0 24 24" height="24" viewBox="0 0 24 24" width="24"><g><rect fill="none" height="24" width="24"/></g><g><g><path d="M19.91,9.23l-7.05-2.57c-0.78-0.28-1.64,0.12-1.92,0.9l-1.88,5.17l12.22,4.45l1.03-2.82 C23.06,12.29,21.99,9.99,19.91,9.23z"/><circle cx="6.33" cy="8.55" r="3"/><path d="M2.4,13.5l16.91,6.16c0.52,0.19,1.09-0.08,1.28-0.6l0,0c0.19-0.52-0.08-1.09-0.6-1.28L3.08,11.62 c-0.52-0.19-1.09,0.08-1.28,0.6l0,0C1.61,12.74,1.88,13.31,2.4,13.5z"/></g></g></svg>