<svg xmlns="http://www.w3.org/2000/svg" enable-background="new 0 0 24 24" height="24" viewBox="0 0 24 24" width="24"><g><path d="M0,0h24v24H0V0z" fill="none"/></g><g><g><path d="M14.12,5H9.88L8.05,7H4v12h16V7h-4.05L14.12,5z M12,17.5c-2.48,0-4.5-2.02-4.5-4.5S9.52,8.5,12,8.5 s4.5,2.02,4.5,4.5S14.48,17.5,12,17.5z" opacity=".3"/><path d="M20,5h-3.17L15,3H9L7.17,5H4C2.9,5,2,5.9,2,7v12c0,1.1,0.9,2,2,2h16c1.1,0,2-0.9,2-2V7C22,5.9,21.1,5,20,5z M20,19H4V7 h4.05l1.83-2h4.24l1.83,2H20V19z"/><path d="M12,8.5c-2.48,0-4.5,2.02-4.5,4.5s2.02,4.5,4.5,4.5s4.5-2.02,4.5-4.5S14.48,8.5,12,8.5z M9.51,13.12l1.63,0.74l0.74,1.63 C10.6,15.43,9.57,14.4,9.51,13.12z M11.14,12.14l-1.63,0.74c0.06-1.28,1.09-2.31,2.37-2.37L11.14,12.14z M12.12,15.49l0.74-1.63 l1.63-0.74C14.43,14.4,13.4,15.43,12.12,15.49z M12.86,12.14l-0.74-1.63c1.28,0.06,2.31,1.09,2.37,2.37L12.86,12.14z"/></g></g></svg>