<svg xmlns="http://www.w3.org/2000/svg" enable-background="new 0 0 24 24" height="24" viewBox="0 0 24 24" width="24"><g><rect fill="none" height="24" width="24" y="0"/></g><g><g><g><path d="M12,8.41l3.89,3.89c0.39,0.39,1.02,0.39,1.41,0l0,0c0.39-0.39,0.39-1.02,0-1.41L12.71,6.3c-0.39-0.39-1.02-0.39-1.41,0 l-4.6,4.59c-0.39,0.39-0.39,1.02,0,1.41l0,0c0.39,0.39,1.02,0.39,1.41,0L12,8.41z M7,18h10c0.55,0,1-0.45,1-1l0,0 c0-0.55-0.45-1-1-1H7c-0.55,0-1,0.45-1,1l0,0C6,17.55,6.45,18,7,18z"/></g></g></g></svg>