<svg xmlns="http://www.w3.org/2000/svg" enable-background="new 0 0 24 24" height="24" viewBox="0 0 24 24" width="24"><g><rect fill="none" height="24" width="24"/></g><g><g><g><path d="M12,4c-4.42,0-8,3.58-8,8s3.58,8,8,8s8-3.58,8-8S16.42,4,12,4z M12,5 c0.83,0,1.5,0.67,1.5,1.5S12.83,8,12,8s-1.5-0.67-1.5-1.5S11.17,5,12,5z M14.75,14.5h-1.5V19h-2.5v-4.5h-1.5V9.88 c0-0.92,1.84-1.38,2.75-1.38s2.75,0.47,2.75,1.38V14.5z" enable-background="new" opacity=".3"/><path d="M12,2C6.47,2,2,6.47,2,12s4.47,10,10,10s10-4.48,10-10S17.52,2,12,2z M12,20c-4.42,0-8-3.58-8-8s3.58-8,8-8s8,3.58,8,8 S16.42,20,12,20z"/><path d="M12,8.5c-0.91,0-2.75,0.46-2.75,1.38v4.62h1.5V19h2.5v-4.5h1.5V9.88C14.75,8.97,12.91,8.5,12,8.5z"/><circle cx="12" cy="6.5" r="1.5"/></g></g></g></svg>