<svg xmlns="http://www.w3.org/2000/svg" enable-background="new 0 0 24 24" height="24" viewBox="0 0 24 24" width="24"><g><rect fill="none" height="24" width="24"/></g><g><path d="M13,16c0.84,0,1.59,0,2,0c2.76,0,5-2.24,5-5c0-2.07-1.26-3.85-3.06-4.61C16.63,3.92,14.55,2,12,2S7.37,3.92,7.06,6.39 C5.26,7.15,4,8.93,4,11c0,2.76,2.24,5,5,5c0.41,0,1.16,0,2,0v4H5v2h14v-2h-6V16z M9,14c-1.65,0-3-1.35-3-3 c0-1.21,0.72-2.3,1.84-2.77l1.07-0.45l0.14-1.15C9.23,5.13,10.5,4,12,4s2.77,1.13,2.95,2.63l0.14,1.15l1.07,0.45 C17.28,8.7,18,9.79,18,11c0,1.65-1.35,3-3,3H9z"/></g></svg>