<svg xmlns="http://www.w3.org/2000/svg" enable-background="new 0 0 24 24" height="24" viewBox="0 0 24 24" width="24"><g><rect fill="none" height="24" width="24"/></g><g><path d="M18.47,7.15l-2.37,1L15.2,7.51c-0.26-0.18-0.55-0.35-0.85-0.49l-1.01-0.47L13.02,4h-1.97l-0.32,2.55 L9.73,7.01c-0.3,0.14-0.59,0.31-0.85,0.49L7.97,8.15l-2.37-1L4.61,8.85l2.04,1.55l-0.1,1.1c-0.01,0.16-0.03,0.33-0.03,0.5 s0.01,0.33,0.03,0.5l0.1,1.1l-2.04,1.55l0.98,1.71l2.37-1l0.91,0.64c0.26,0.18,0.55,0.35,0.85,0.49l1.01,0.47L11.05,20h1.97 l0.32-2.55l1.01-0.47c0.3-0.14,0.59-0.31,0.85-0.49l0.91-0.64l2.37,1l0.98-1.71l-2.04-1.55l0.1-1.1c0.01-0.16,0.03-0.33,0.03-0.5 s-0.01-0.33-0.03-0.5l-0.1-1.1l2.04-1.55L18.47,7.15z M12,15.5c-1.93,0-3.5-1.57-3.5-3.5s1.57-3.5,3.5-3.5s3.5,1.57,3.5,3.5 S13.93,15.5,12,15.5z" opacity=".3"/><path d="M19.54,12c0-0.23-0.01-0.45-0.03-0.67l2.57-1.94l-2.75-4.76l-2.97,1.25c-0.37-0.26-0.76-0.48-1.16-0.67L14.79,2h-5.5 l-0.4,3.2c-0.41,0.19-0.8,0.41-1.16,0.67L4.75,4.62L2,9.38l2.57,1.94C4.55,11.55,4.54,11.77,4.54,12s0.01,0.45,0.03,0.67L2,14.62 l2.75,4.76l2.97-1.25c0.37,0.26,0.76,0.48,1.16,0.67l0.4,3.2h5.5l0.4-3.2c0.41-0.19,0.8-0.41,1.16-0.67l2.97,1.25l2.75-4.76 l-2.57-1.94C19.52,12.45,19.54,12.23,19.54,12z M17.51,11.5c0.01,0.16,0.03,0.33,0.03,0.5s-0.01,0.33-0.03,0.5l-0.1,1.1l2.04,1.55 l-0.98,1.71l-2.37-1l-0.91,0.64c-0.26,0.18-0.55,0.35-0.85,0.49l-1.01,0.47L13.02,20h-1.97l-0.32-2.55l-1.01-0.47 c-0.3-0.14-0.59-0.31-0.85-0.49l-0.91-0.64l-2.37,1l-0.98-1.71l2.04-1.55l-0.1-1.1c-0.01-0.16-0.03-0.33-0.03-0.5 s0.01-0.33,0.03-0.5l0.1-1.1L4.61,8.85L5.6,7.15l2.37,1l0.91-0.64c0.26-0.18,0.55-0.35,0.85-0.49l1.01-0.47L11.05,4h1.97l0.32,2.55 l1.01,0.47c0.3,0.14,0.59,0.31,0.85,0.49l0.91,0.64l2.37-1l0.98,1.71l-2.04,1.55L17.51,11.5z M12,8.5c-1.93,0-3.5,1.57-3.5,3.5 s1.57,3.5,3.5,3.5s3.5-1.57,3.5-3.5S13.93,8.5,12,8.5z M12,13.5c-0.83,0-1.5-0.67-1.5-1.5s0.67-1.5,1.5-1.5s1.5,0.67,1.5,1.5 S12.83,13.5,12,13.5z"/></g></svg>