<svg xmlns="http://www.w3.org/2000/svg" enable-background="new 0 0 24 24" height="24" viewBox="0 0 24 24" width="24"><g><rect fill="none" height="24" width="24"/></g><g><g><path d="M13.62,6.2C10.74,5.51,8.6,6.77,7.67,7.5l2.6,4.5L13.62,6.2z" enable-background="new" opacity=".3"/><path d="M18.71,11c-0.61-2.06-2.14-3.71-4.11-4.5L12,11H18.71z" enable-background="new" opacity=".3"/><path d="M6.92,8.19C6.46,8.68,4.61,10.73,5.08,14h5.19L6.92,8.19z" enable-background="new" opacity=".3"/><path d="M13.73,12l3.35,5.81c0.46-0.48,2.3-2.54,1.84-5.81H13.73z" enable-background="new" opacity=".3"/><path d="M5.29,15c0.61,2.06,2.14,3.71,4.11,4.5L12,15H5.29z" enable-background="new" opacity=".3"/><path d="M10.38,19.8c2.88,0.68,5.02-0.57,5.95-1.31l-2.6-4.5L10.38,19.8z" enable-background="new" opacity=".3"/><rect height="2" width="6" x="9" y="1"/><path d="M19.03,7.39l1.42-1.42c-0.43-0.51-0.9-0.99-1.41-1.41l-1.42,1.42C16.07,4.74,14.12,4,12,4c-4.97,0-9,4.03-9,9 c0,4.97,4.02,9,9,9s9-4.03,9-9C21,10.88,20.26,8.93,19.03,7.39z M18.71,11H12l2.6-4.5C16.57,7.29,18.1,8.94,18.71,11z M13.62,6.2 L10.27,12l-2.6-4.5C8.6,6.77,10.74,5.51,13.62,6.2z M6.92,8.19L10.27,14H5.08C4.61,10.73,6.46,8.68,6.92,8.19z M5.29,15H12 l-2.6,4.5C7.43,18.71,5.9,17.06,5.29,15z M10.38,19.8l3.35-5.8l2.6,4.5C15.4,19.23,13.26,20.49,10.38,19.8z M17.08,17.81L13.73,12 h5.19C19.39,15.27,17.54,17.32,17.08,17.81z"/></g></g></svg>