<svg xmlns="http://www.w3.org/2000/svg" enable-background="new 0 0 24 24" height="24" viewBox="0 0 24 24" width="24"><g><rect fill="none" height="24" width="24"/></g><g><g><g><path d="M7,21h2v-2H7V21z M3,5h2V3H3V5z M7,5h2V3H7V5z M7,13h2v-2H7V13z M3,21h2v-2H3V21z M11,21h2v-2h-2V21z M3,13h2v-2H3V13z M3,17h2v-2H3V17z M3,9h2V7H3V9z M11,17h2v-2h-2V17z M15,13h2v-2h-2V13z M19,4v16c0,0.55,0.45,1,1,1l0,0c0.55,0,1-0.45,1-1V4 c0-0.55-0.45-1-1-1l0,0C19.45,3,19,3.45,19,4z M15,21h2v-2h-2V21z M15,5h2V3h-2V5z M11,13h2v-2h-2V13z M11,5h2V3h-2V5z M11,9h2V7 h-2V9z"/></g></g></g></svg>