<svg xmlns="http://www.w3.org/2000/svg" enable-background="new 0 0 24 24" height="24" viewBox="0 0 24 24" width="24"><g><path d="M0,0h24v24H0V0z" fill="none"/></g><g><path d="M7,21h2v-2H7V21z M15,21h2v-2h-2V21z M5,21v-2H3C3,20.1,3.89,21,5,21z M19,3H9C7.89,3,7,3.9,7,5v10c0,1.1,0.89,2,2,2h10 c1.1,0,2-0.9,2-2V5C21,3.9,20.1,3,19,3z M19,15H9V5h10V15z M11,21h2v-2h-2V21z M3,9h2V7H3V9z M3,17h2v-2H3V17z M3,13h2v-2H3V13z"/><rect enable-background="new" height="10" opacity=".3" width="10" x="9" y="5"/></g></svg>