<svg xmlns="http://www.w3.org/2000/svg" enable-background="new 0 0 24 24" height="24" viewBox="0 0 24 24" width="24"><g><rect fill="none" height="24" width="24"/></g><g><g><path d="M19,3H5C3.9,3,3,3.9,3,5v14c0,1.1,0.9,2,2,2h14c1.1,0,2-0.9,2-2V5C21,3.9,20.1,3,19,3z M12.5,18.5H11V14h-1v3H8.5v-3h-1 v4.5H6v-5c0-0.55,0.45-1,1-1h4.5c0.55,0,1,0.45,1,1V18.5z M15,18.5h-1.5v-6H17c0.55,0,1,0.45,1,1V16c0,0.55-0.45,1-1,1h-2V18.5z M14.5,10.5c0,0.55-0.45,1-1,1H10V10h3V9h-2V8h2V7h-3V5.5h3.5c0.55,0,1,0.45,1,1V10.5z M15,14h1.5v1.5H15V14z"/></g></g></svg>