<svg xmlns="http://www.w3.org/2000/svg" enable-background="new 0 0 24 24" height="24" viewBox="0 0 24 24" width="24"><g><path d="M0,0h24v24H0V0z" fill="none"/></g><g><g><path d="M14.83,10.36c-0.77,0.33-0.43,0.18-1.6,0.68c-1.28-0.84-0.84-0.59-2.28-1.31C10.79,8.47,10.84,8.84,10.73,8 H9.27c-0.1,0.84-0.06,0.47-0.22,1.73c-1.44,0.72-1,0.47-2.28,1.31c-1.17-0.49-0.83-0.35-1.6-0.68l-0.73,1.27 c0.68,0.51,0.38,0.29,1.39,1.05c-0.09,1.64-0.09,0.98,0,2.62c-1,0.76-0.72,0.54-1.39,1.05l0.73,1.27c0.78-0.33,0.43-0.18,1.6-0.68 c1.28,0.84,0.84,0.59,2.28,1.31c0.16,1.25,0.11,0.89,0.22,1.73h1.47c0.1-0.84,0.06-0.47,0.22-1.73c1.44-0.72,1-0.47,2.28-1.31 c1.17,0.5,0.82,0.35,1.6,0.68l0.73-1.27c-0.67-0.51-0.39-0.29-1.39-1.05c0.09-1.63,0.09-0.98,0-2.62 c1.01-0.76,0.71-0.54,1.39-1.05L14.83,10.36z M10,17c-1.66,0-3-1.34-3-3s1.34-3,3-3s3,1.34,3,3S11.66,17,10,17z" opacity=".3"/><path d="M16.23,13.64l1.95-1.47l-2.5-4.33l-2.24,0.95c-0.2-0.13-0.41-0.25-0.63-0.36L12.5,6h-5L7.2,8.42 C6.98,8.53,6.77,8.65,6.56,8.78L4.32,7.83l-2.5,4.33l1.95,1.47c-0.02,0.43-0.02,0.29,0,0.72l-1.95,1.47l2.5,4.33l2.24-0.95 c0.2,0.13,0.41,0.25,0.63,0.36L7.5,22h5l0.3-2.42c0.22-0.11,0.43-0.23,0.63-0.36l2.24,0.95l2.5-4.33l-1.95-1.47 C16.26,13.93,16.26,14.07,16.23,13.64z M14.17,15.31c1,0.76,0.72,0.54,1.39,1.05l-0.73,1.27c-0.78-0.33-0.43-0.18-1.6-0.68 c-1.28,0.84-0.84,0.59-2.28,1.31c-0.16,1.25-0.11,0.89-0.22,1.73H9.27c-0.1-0.84-0.06-0.47-0.22-1.73c-1.44-0.72-1-0.47-2.28-1.31 c-1.17,0.5-0.82,0.35-1.6,0.68l-0.73-1.27c0.67-0.51,0.39-0.29,1.39-1.05c-0.09-1.64-0.09-0.99,0-2.62 c-1.01-0.76-0.71-0.54-1.39-1.05l0.73-1.27c0.78,0.33,0.43,0.18,1.6,0.68c1.28-0.84,0.84-0.59,2.28-1.31 C9.21,8.47,9.16,8.84,9.27,8h1.47c0.1,0.84,0.06,0.47,0.22,1.73c1.44,0.72,1,0.47,2.28,1.31c1.17-0.49,0.83-0.35,1.6-0.68 l0.73,1.27c-0.68,0.51-0.38,0.29-1.39,1.05C14.27,14.34,14.27,13.68,14.17,15.31z"/><path d="M10,11c-1.66,0-3,1.34-3,3s1.34,3,3,3s3-1.34,3-3S11.66,11,10,11z M10,15c-0.55,0-1-0.45-1-1s0.45-1,1-1s1,0.45,1,1 S10.55,15,10,15z"/><polygon points="18.5,9 19.59,6.59 22,5.5 19.59,4.41 18.5,2 17.41,4.41 15,5.5 17.41,6.59"/><polygon points="21.28,12.72 20.5,11 19.72,12.72 18,13.5 19.72,14.28 20.5,16 21.28,14.28 23,13.5"/></g></g></svg>