<svg xmlns="http://www.w3.org/2000/svg" enable-background="new 0 0 24 24" height="24" viewBox="0 0 24 24" width="24"><g><rect fill="none" height="24" width="24"/></g><g><path d="M12,14c1.66,0,2.99-1.34,2.99-3L15,5c0-1.66-1.34-3-3-3S9,3.34,9,5v6C9,12.66,10.34,14,12,14z M10.8,4.9c0-0.66,0.54-1.2,1.2-1.2s1.2,0.54,1.2,1.2l-0.01,6.2c0,0.66-0.53,1.2-1.19,1.2s-1.2-0.54-1.2-1.2V4.9z M17.3,11 c0,3-2.54,5.1-5.3,5.1S6.7,14,6.7,11H5c0,3.41,2.72,6.23,6,6.72V21h2v-3.28c3.28-0.48,6-3.3,6-6.72H17.3z" enable-background="new"/></g></svg>