<svg xmlns="http://www.w3.org/2000/svg" enable-background="new 0 0 24 24" height="24" viewBox="0 0 24 24" width="24"><g><rect fill="none" height="24" width="24" y="0"/></g><g><g><g><path d="M12.29,8.12L15.17,11H3c-0.55,0-1,0.45-1,1l0,0c0,0.55,0.45,1,1,1h12.17l-2.88,2.88c-0.39,0.39-0.39,1.02,0,1.41l0,0 c0.39,0.39,1.02,0.39,1.41,0l4.59-4.59c0.39-0.39,0.39-1.02,0-1.41L13.7,6.7c-0.39-0.39-1.02-0.39-1.41,0l0,0 C11.91,7.09,11.9,7.73,12.29,8.12z M20,7v10c0,0.55,0.45,1,1,1l0,0c0.55,0,1-0.45,1-1V7c0-0.55-0.45-1-1-1l0,0 C20.45,6,20,6.45,20,7z"/></g></g></g></svg>