<svg xmlns="http://www.w3.org/2000/svg" enable-background="new 0 0 24 24" height="24" viewBox="0 0 24 24" width="24"><g><rect fill="none" height="24" width="24"/></g><g><g><path d="M9,14c1.65,0,3-1.35,3-3s-1.35-3-3-3s-3,1.35-3,3S7.35,14,9,14z M9,10c0.54,0,1,0.46,1,1s-0.46,1-1,1s-1-0.46-1-1 S8.46,10,9,10z"/><path d="M22,3H2C0.9,3,0,3.9,0,5v14c0,1.1,0.9,2,2,2h20c1.1,0,1.99-0.9,1.99-2L24,5C24,3.9,23.1,3,22,3z M4.54,19 c1.1-1.22,2.69-2,4.46-2s3.36,0.78,4.46,2H4.54z M22,19h-6.08c-1.38-2.39-3.96-4-6.92-4s-5.54,1.61-6.92,4H2V5h20V19z"/><path d="M21,6h-7v5h7V6z M20,8l-2.5,1.75L15,8V7l2.5,1.75L20,7V8z"/></g></g></svg>