<svg xmlns="http://www.w3.org/2000/svg" enable-background="new 0 0 24 24" height="24" viewBox="0 0 24 24" width="24"><g><rect fill="none" height="24" width="24"/></g><g><g><g><rect enable-background="new" height="5" opacity=".3" transform="matrix(0.9397 -0.342 0.342 0.9397 -1.6086 4.9559)" width="1" x="12.75" y="4.54"/><circle cx="10.5" cy="8" enable-background="new" opacity=".3" r="1"/><path d="M5,19c0,0,0,0.9,0,2h14v-2h-6v-2h5v-2h-8c-1.66,0-3-1.34-3-3c0-1.09,0.59-2.04,1.47-2.57c0.41,0.59,1.06,1,1.83,1.06 c0.7,0.06,1.36-0.19,1.85-0.62l0.59,1.61l0.94-0.34l0.34,0.94l1.88-0.68l-0.34-0.94l0.94-0.34L13.76,2.6l-0.94,0.34L12.48,2 L10.6,2.68l0.34,0.94L10,3.97l0.56,1.55C9.39,5.48,8.37,6.27,8.08,7.38C6.27,8.14,5,9.92,5,12c0,2.76,2.24,5,5,5v2H5z M12.86,4.52l1.71,4.7l-0.94,0.34l-1.71-4.7L12.86,4.52z M10.5,7c0.55,0,1,0.45,1,1s-0.45,1-1,1s-1-0.45-1-1S9.95,7,10.5,7z"/></g></g></g></svg>