<svg xmlns="http://www.w3.org/2000/svg" enable-background="new 0 0 24 24" height="24" viewBox="0 0 24 24" width="24"><g><rect fill="none" height="24" width="24"/></g><g><g><path d="M4,18h16V6H4V18z M13,9h4c0.55,0,1,0.45,1,1v4c0,0.55-0.45,1-1,1h-4V9z M6,9 h1.5v2.5h2V9H11v6H9.5v-2h-2v2H6V9z" enable-background="new" opacity=".3"/><rect enable-background="new" height="3" opacity=".3" width="2" x="14.5" y="10.5"/><polygon points="7.5,13 9.5,13 9.5,15 11,15 11,9 9.5,9 9.5,11.5 7.5,11.5 7.5,9 6,9 6,15 7.5,15"/><path d="M18,14v-4c0-0.55-0.45-1-1-1h-4v6h4C17.55,15,18,14.55,18,14z M16.5,13.5h-2v-3h2V13.5z"/><path d="M20,4H4C2.9,4,2,4.9,2,6v12c0,1.1,0.9,2,2,2h16c1.1,0,2-0.9,2-2V6C22,4.9,21.1,4,20,4z M20,18H4V6h16V18z"/></g></g></svg>