<svg xmlns="http://www.w3.org/2000/svg" enable-background="new 0 0 24 24" height="24" viewBox="0 0 24 24" width="24"><g><rect fill="none" height="24" width="24"/></g><g><g><path d="M16.25,13.42C16.4,12.97,16.5,12.5,16.5,12c0-1.77-1.02-3.29-2.5-4.03v3.2L16.25,13.42z"/><path d="M2.81,2.81L1.39,4.22L6.17,9H3v6h4l5,5v-5.17l3.32,3.32c-0.42,0.23-0.85,0.43-1.32,0.56v2.06c1-0.23,1.94-0.62,2.79-1.15 l2.99,2.99l1.41-1.41L2.81,2.81z M10,15.17L7.83,13H5v-2h2.83L8,10.83l2,2V15.17z"/><path d="M19,12c0,1.21-0.31,2.34-0.85,3.32l1.46,1.46C20.48,15.39,21,13.76,21,12c0-4.28-2.99-7.86-7-8.77v2.06 C16.89,6.15,19,8.83,19,12z"/><polygon points="12,9.17 12,4 9.41,6.59"/></g></g></svg>