<svg xmlns="http://www.w3.org/2000/svg" enable-background="new 0 0 24 24" height="24" viewBox="0 0 24 24" width="24"><g><g><rect fill="none" height="24" width="24" y="0"/></g></g><g><g><path d="M11,8.5H8c-0.55,0-1,0.45-1,1c0,0.55,0.45,1,1,1h3c0.55,0,1-0.45,1-1C12,8.95,11.55,8.5,11,8.5z"/><path d="M14.73,13.31c1.13-1.55,1.63-3.58,0.98-5.74c-0.68-2.23-2.57-3.98-4.85-4.44C6.21,2.2,2.2,6.22,3.14,10.86 c0.46,2.29,2.21,4.18,4.44,4.85c2.16,0.65,4.19,0.15,5.74-0.98l5.56,5.56c0.39,0.39,1.02,0.39,1.41,0l0,0 c0.39-0.39,0.39-1.02,0-1.41L14.73,13.31z M9.5,14C7.01,14,5,11.99,5,9.5S7.01,5,9.5,5S14,7.01,14,9.5S11.99,14,9.5,14z"/></g></g></svg>