<svg xmlns="http://www.w3.org/2000/svg" enable-background="new 0 0 24 24" height="24" viewBox="0 0 24 24" width="24"><g><rect fill="none" height="24" width="24"/><rect fill="none" height="24" width="24"/></g><g><g><path d="M20.34,11h-8.68L10,15.77L10.01,22H12v-1.5h8V22h1.99L22,15.77L20.34,11z M13.5,18.75c-0.55,0-1-0.45-1-1s0.45-1,1-1 s1,0.45,1,1S14.05,18.75,13.5,18.75z M18.5,18.75c-0.55,0-1-0.45-1-1s0.45-1,1-1s1,0.45,1,1S19.05,18.75,18.5,18.75z M11.86,15 l0.87-2.5h6.55l0.87,2.5H11.86z"/><rect height="2" width="2" x="6" y="12"/><rect height="2" width="2" x="11" y="6"/><rect height="2" width="2" x="6" y="16"/><rect height="2" width="2" x="6" y="20"/><polygon points="15,9 17,9 17,2 7,2 7,8 2,8 2,22 4,22 4,10 9,10 9,4 15,4"/></g></g></svg>