<svg xmlns="http://www.w3.org/2000/svg" enable-background="new 0 0 24 24" height="24" viewBox="0 0 24 24" width="24"><g><rect fill="none" height="24" width="24"/></g><g><path d="M4,6H2v14c0,1.1,0.9,2,2,2h14v-2H4V6z M18.35,8.38l-1.41-1.41l-4.24,4.24l-2.12-2.12L9.15,10.5l3.54,3.54L18.35,8.38z M20,2H8C6.9,2,6,2.9,6,4v12c0,1.1,0.9,2,2,2h12c1.1,0,2-0.9,2-2V4C22,2.9,21.1,2,20,2z M20,16H8V4h12V16z"/><path d="M8,16h12V4H8V16z M10.57,9.09l2.12,2.12l4.24-4.24l1.41,1.41l-5.66,5.66 L9.15,10.5L10.57,9.09z" enable-background="new" opacity=".3"/></g></svg>