<svg xmlns="http://www.w3.org/2000/svg" enable-background="new 0 0 24 24" height="24" viewBox="0 0 24 24" width="24"><g><rect fill="none" height="24" width="24" y="0"/></g><g><g><g><path d="M14,9h-4c-0.55,0-1,0.45-1,1v4c0,0.55,0.45,1,1,1h4c0.55,0,1-0.45,1-1v-4C15,9.45,14.55,9,14,9z M13,13h-2v-2h2V13z M21,10L21,10c0-0.55-0.45-1-1-1h-1V7c0-1.1-0.9-2-2-2h-2V4c0-0.55-0.45-1-1-1l0,0c-0.55,0-1,0.45-1,1v1h-2V4c0-0.55-0.45-1-1-1 l0,0C9.45,3,9,3.45,9,4v1H7C5.9,5,5,5.9,5,7v2H4c-0.55,0-1,0.45-1,1l0,0c0,0.55,0.45,1,1,1h1v2H4c-0.55,0-1,0.45-1,1l0,0 c0,0.55,0.45,1,1,1h1v2c0,1.1,0.9,2,2,2h2v1c0,0.55,0.45,1,1,1l0,0c0.55,0,1-0.45,1-1v-1h2v1c0,0.55,0.45,1,1,1l0,0 c0.55,0,1-0.45,1-1v-1h2c1.1,0,2-0.9,2-2v-2h1c0.55,0,1-0.45,1-1l0,0c0-0.55-0.45-1-1-1h-1v-2h1C20.55,11,21,10.55,21,10z M17,17 H7V7h10V17z"/></g></g></g></svg>