<svg xmlns="http://www.w3.org/2000/svg" enable-background="new 0 0 24 24" height="24" viewBox="0 0 24 24" width="24"><g><rect fill="none" height="24" width="24"/></g><g><g><g><g><g><path d="M17,8c-2.21,0-4,1.79-4,4s1.79,4,4,4s4-1.79,4-4S19.21,8,17,8z" enable-background="new" opacity=".3"/><path d="M17,6c-3.31,0-6,2.69-6,6s2.69,6,6,6s6-2.69,6-6S20.31,6,17,6z M17,16c-2.21,0-4-1.79-4-4s1.79-4,4-4s4,1.79,4,4 S19.21,16,17,16z"/></g><path d="M5,16c2.21,0,4-1.79,4-4S7.21,8,5,8s-4,1.79-4,4S2.79,16,5,16z M5,10c1.1,0,2,0.9,2,2s-0.9,2-2,2s-2-0.9-2-2 S3.9,10,5,10z"/></g></g></g></g></svg>