<svg xmlns="http://www.w3.org/2000/svg" enable-background="new 0 0 24 24" height="24" viewBox="0 0 24 24" width="24"><g><rect fill="none" height="24" width="24" y="0"/></g><g><g><path d="M5,15h14c0.55,0,1-0.45,1-1s-0.45-1-1-1H5c-0.55,0-1,0.45-1,1S4.45,15,5,15z M5,19h14c0.55,0,1-0.45,1-1s-0.45-1-1-1H5 c-0.55,0-1,0.45-1,1S4.45,19,5,19z M5,11h14c0.55,0,1-0.45,1-1s-0.45-1-1-1H5c-0.55,0-1,0.45-1,1S4.45,11,5,11z M4,6 c0,0.55,0.45,1,1,1h14c0.55,0,1-0.45,1-1s-0.45-1-1-1H5C4.45,5,4,5.45,4,6z"/></g></g></svg>