<svg xmlns="http://www.w3.org/2000/svg" enable-background="new 0 0 24 24" height="24" viewBox="0 0 24 24" width="24"><g><rect fill="none" height="24" width="24"/></g><g><path d="M20,13.13c0-2.17-0.9-4.14-2.35-5.57l0,0L12,2L8.38,5.56l10.87,10.87C19.73,15.42,20,14.31,20,13.13z M2.1,3.51L2.1,3.51 c-0.39,0.39-0.39,1.02,0,1.41l3.5,3.5c-1,1.31-1.6,2.94-1.6,4.7C4,17.48,7.58,21,12,21c1.75,0,3.36-0.56,4.68-1.49l2.39,2.39 c0.39,0.39,1.02,0.39,1.41,0l0,0c0.39-0.39,0.39-1.02,0-1.41L3.51,3.51C3.12,3.12,2.49,3.12,2.1,3.51z"/></g></svg>