<svg xmlns="http://www.w3.org/2000/svg" enable-background="new 0 0 24 24" height="24" viewBox="0 0 24 24" width="24"><g><rect fill="none" height="24" width="24"/></g><g><g><path d="M1.39,4.22L5.17,8H5c-1.66,0-3,1.34-3,3v6h4v4h12.17l1.61,1.61l1.41-1.42L2.81,2.81L1.39,4.22z M16,18.83V19H8v-4h4.17 L16,18.83z M10.17,13H6v2H4v-4c0-0.55,0.45-1,1-1h2.17L10.17,13z"/><path d="M19,8h-1V3H5.82l2,2H16v3h-5.17l2,2H19c0.55,0,1,0.45,1,1v4h-2v-2h-2.17l4,4H22v-6C22,9.34,20.66,8,19,8z"/></g><circle cx="18" cy="11.5" r="1"/></g></svg>