<svg xmlns="http://www.w3.org/2000/svg" enable-background="new 0 0 24 24" height="24" viewBox="0 0 24 24" width="24"><g><rect fill="none" height="24" width="24"/></g><g><path d="M18,7V4c0-0.55-0.45-1-1-1H5.82l4.01,4H18z M2.1,4.93L5.17,8H5c-1.66,0-3,1.34-3,3v5c0,0.55,0.45,1,1,1h3v3 c0,0.55,0.45,1,1,1h11.17l0.9,0.9c0.39,0.39,1.03,0.39,1.42,0l0,0c0.39-0.39,0.39-1.02,0-1.41L3.51,3.51 c-0.39-0.39-1.02-0.39-1.41,0l0,0C1.71,3.9,1.71,4.54,2.1,4.93z M8,15h4.17L16,18.83V19H8V15z M10.83,8l9,9H21c0.55,0,1-0.45,1-1 v-5c0-1.66-1.34-3-3-3H10.83z M18,12.5c-0.55,0-1-0.45-1-1s0.45-1,1-1s1,0.45,1,1S18.55,12.5,18,12.5z"/></g></svg>