<svg xmlns="http://www.w3.org/2000/svg" enable-background="new 0 0 24 24" height="24" viewBox="0 0 24 24" width="24"><g><rect fill="none" height="24" width="24"/></g><g><g><path d="M15.83,13H18v2h2v-4c0-0.55-0.45-1-1-1h-6.17L15.83,13z" enable-background="new" opacity=".3"/><path d="M7.17,10H5c-0.55,0-1,0.45-1,1v4h2v-2h4.17L7.17,10z" enable-background="new" opacity=".3"/></g><path d="M19,8h-1V3H6v0.17l2,2V5h8v3h-5.17l2,2H19c0.55,0,1,0.45,1,1v4h-2v-2h-2.17l4,4H22v-6C22,9.34,20.66,8,19,8z M19,11.5 c0-0.55-0.45-1-1-1s-1,0.45-1,1s0.45,1,1,1S19,12.05,19,11.5z M1.39,4.22L5.17,8H5c-1.66,0-3,1.34-3,3v6h4v4h12v-0.17l1.78,1.78 l1.41-1.41L2.81,2.81L1.39,4.22z M16,18.83V19H8v-4h4.17L16,18.83z M10.17,13H6v2H4v-4c0-0.55,0.45-1,1-1h2.17L10.17,13z"/></g></svg>