<svg xmlns="http://www.w3.org/2000/svg" enable-background="new 0 0 24 24" height="24" viewBox="0 0 24 24" width="24"><g><rect fill="none" height="24" width="24"/></g><g><path d="M4,6v12h12V9.69V6H4z M14,13h-3v3H9v-3H6v-2h3V8h2v3h3V13z" enable-background="new" opacity=".3"/><g><polygon points="9,16 11,16 11,13 14,13 14,11 11,11 11,8 9,8 9,11 6,11 6,13 9,13"/><path d="M18,10.48V6c0-1.1-0.9-2-2-2H4C2.9,4,2,4.9,2,6v12c0,1.1,0.9,2,2,2h12c1.1,0,2-0.9,2-2v-4.48l4,3.98v-11L18,10.48z M16,9.69V18H4V6h12V9.69z"/></g></g></svg>