<svg xmlns="http://www.w3.org/2000/svg" enable-background="new 0 0 24 24" height="24" viewBox="0 0 24 24" width="24"><g><rect fill="none" height="24" width="24"/></g><g><path d="M13,2h-2v5h2V2z M21.16,6.26l-1.41-1.41L16.19,8.4l1.41,1.41C17.6,9.81,21.05,6.29,21.16,6.26z M6.4,9.81L7.81,8.4 L4.26,4.84L2.84,6.26C2.95,6.29,6.4,9.81,6.4,9.81z M12,12c-1.15,0-7.16,0.11-11.57,5.45L4,21c0,0,0,0,0,0l4-3v-3.37 C9.26,14.23,10.6,14,12,14s2.74,0.23,4,0.63V18l4,3c0,0,0,0,0,0l3.57-3.55C19.16,12.11,13.15,12,12,12z"/></g></svg>