<svg xmlns="http://www.w3.org/2000/svg" enable-background="new 0 0 24 24" height="24" viewBox="0 0 24 24" width="24"><g><rect fill="none" height="24" width="24"/></g><g><g><path d="M20,2H8C6.9,2,6,2.9,6,4v12c0,1.1,0.9,2,2,2h12c1.1,0,2-0.9,2-2V4C22,2.9,21.1,2,20,2z M17,8.5c0,0.83-0.67,1.5-1.5,1.5 c0.83,0,1.5,0.67,1.5,1.5V13c0,1.1-0.9,2-2,2h-3c-0.55,0-1-0.45-1-1s0.45-1,1-1h3v-2h-1c-0.55,0-1-0.45-1-1s0.45-1,1-1h1V7h-3 c-0.55,0-1-0.45-1-1s0.45-1,1-1h3c1.1,0,2,0.9,2,2V8.5z"/><path d="M17,20H4V7c0-0.55-0.45-1-1-1S2,6.45,2,7v13c0,1.1,0.9,2,2,2h13c0.55,0,1-0.45,1-1S17.55,20,17,20z"/></g></g></svg>