<svg xmlns="http://www.w3.org/2000/svg" enable-background="new 0 0 24 24" height="24" viewBox="0 0 24 24" width="24"><g><rect fill="none" height="24" width="24"/></g><g><g><path d="M15.02,12.78L6.53,4.29C6.34,4.1,6.08,4,5.83,4S5.31,4.1,5.12,4.29L2.29,7.12c-0.39,0.39-0.39,1.02,0,1.41l8.49,8.49 c0.2,0.2,0.45,0.29,0.71,0.29s0.51-0.1,0.71-0.29l2.83-2.83C15.41,13.8,15.41,13.17,15.02,12.78z M11.49,14.9L4.41,7.83l1.41-1.41 l7.07,7.07L11.49,14.9z"/><rect height="6" transform="matrix(0.7071 -0.7071 0.7071 0.7071 -8.5275 17.7558)" width="2" x="16.17" y="16.17"/><path d="M18.5,2C16.57,2,15,3.57,15,5.5S16.57,9,18.5,9S22,7.43,22,5.5S20.43,2,18.5,2z M18.5,7C17.67,7,17,6.33,17,5.5 S17.67,4,18.5,4S20,4.67,20,5.5S19.33,7,18.5,7z"/></g></g></svg>