<svg xmlns="http://www.w3.org/2000/svg" enable-background="new 0 0 24 24" height="24" viewBox="0 0 24 24" width="24"><g><rect fill="none" height="24" width="24"/></g><g><g><path d="M15.02,12.78L6.53,4.29c-0.39-0.39-1.02-0.39-1.41,0L2.29,7.12c-0.39,0.39-0.39,1.02,0,1.41l8.49,8.49 c0.39,0.39,1.02,0.39,1.41,0l2.83-2.83C15.41,13.8,15.41,13.17,15.02,12.78z"/><path d="M14.34,17.76l3.54,3.54c0.39,0.39,1.02,0.39,1.41,0l0,0c0.39-0.39,0.39-1.02,0-1.41l-3.54-3.54L14.34,17.76z"/><circle cx="18.5" cy="5.5" r="3.5"/></g></g></svg>