<svg xmlns="http://www.w3.org/2000/svg" enable-background="new 0 0 24 24" height="24" viewBox="0 0 24 24" width="24"><g><rect fill="none" height="24" width="24"/></g><g><path d="M20,4H4C2.9,4,2,4.9,2,6v12c0,1.1,0.9,2,2,2h16c1.1,0,2-0.9,2-2V6C22,4.9,21.1,4,20,4z M13,16H7c-0.55,0-1-0.45-1-1v0 c0-0.55,0.45-1,1-1h6c0.55,0,1,0.45,1,1v0C14,15.55,13.55,16,13,16z M17,12h-6c-0.55,0-1-0.45-1-1v0c0-0.55,0.45-1,1-1h6 c0.55,0,1,0.45,1,1v0C18,11.55,17.55,12,17,12z M8,11c0,0.55-0.45,1-1,1s-1-0.45-1-1s0.45-1,1-1S8,10.45,8,11z M18,15 c0,0.55-0.45,1-1,1s-1-0.45-1-1s0.45-1,1-1S18,14.45,18,15z"/></g></svg>