<svg xmlns="http://www.w3.org/2000/svg" enable-background="new 0 0 24 24" height="24" viewBox="0 0 24 24" width="24"><g><rect fill="none" height="24" width="24" y="0"/></g><g><g><path d="M12,6c-3.79,0-7.17,2.13-8.82,5.5C4.83,14.87,8.21,17,12,17s7.17-2.13,8.82-5.5C19.17,8.13,15.79,6,12,6z M12,16c-2.48,0-4.5-2.02-4.5-4.5S9.52,7,12,7s4.5,2.02,4.5,4.5S14.48,16,12,16z" opacity=".3"/><path d="M12,7c-2.48,0-4.5,2.02-4.5,4.5S9.52,16,12,16s4.5-2.02,4.5-4.5S14.48,7,12,7z M12,14.2c-1.49,0-2.7-1.21-2.7-2.7 s1.21-2.7,2.7-2.7s2.7,1.21,2.7,2.7S13.49,14.2,12,14.2z"/><path d="M12,4C7,4,2.73,7.11,1,11.5C2.73,15.89,7,19,12,19s9.27-3.11,11-7.5C21.27,7.11,17,4,12,4z M12,17 c-3.79,0-7.17-2.13-8.82-5.5C4.83,8.13,8.21,6,12,6s7.17,2.13,8.82,5.5C19.17,14.87,15.79,17,12,17z"/></g></g></svg>