<svg xmlns="http://www.w3.org/2000/svg" enable-background="new 0 0 24 24" height="24" viewBox="0 0 24 24" width="24"><g><rect fill="none" height="24" width="24"/><rect fill="none" height="24" width="24"/></g><g><g><g><g><polygon enable-background="new" opacity=".3" points="7,12.27 7,15.99 12,18.72 17,15.99 17,12.27 12,15"/><polygon enable-background="new" opacity=".3" points="5.18,9 12,12.72 18.82,9 12,5.28"/><path d="M12,3L1,9l4,2.18v6L12,21l7-3.82v-6l2-1.09V17h2V9L12,3z M17,15.99l-5,2.73l-5-2.73v-3.72L12,15l5-2.73V15.99z M12,12.72L5.18,9L12,5.28L18.82,9L12,12.72z"/></g></g></g></g></svg>