<svg xmlns="http://www.w3.org/2000/svg" enable-background="new 0 0 24 24" height="24" viewBox="0 0 24 24" width="24"><g><path d="M0,0h24v24H0V0z" fill="none"/></g><g><g><path d="M6,20h11.17L6,8.83V20z M18,4h-7.17l-2,2L18,15.18L18,4z" enable-background="new" opacity=".3"/><g><path d="M8.83,6l2-2H18l0,11.18L20,17.17L19.99,4c0-1.1-0.89-2-1.99-2h-8L7.41,4.59L8.83,6z"/><path d="M2.1,2.1L0.69,3.51l3.9,3.9L4,8v12c0,1.1,0.9,2,2,2h12.01c0.34,0,0.65-0.09,0.92-0.24l1.55,1.55l1.41-1.41L2.1,2.1z M6,20V8.83L17.17,20H6z"/></g></g></g></svg>