<svg xmlns="http://www.w3.org/2000/svg" enable-background="new 0 0 24 24" height="24" viewBox="0 0 24 24" width="24"><g><rect fill="none" height="24" width="24"/></g><g><g><polygon points="11,5.83 11,10 13,10 13,5.83 14.84,7.66 16.25,6.25 12,2 7.75,6.25 9.16,7.66"/><polygon points="13,18.17 13,14 11,14 11,18.17 9.16,16.34 7.75,17.75 12,22 16.25,17.75 14.84,16.34"/><polygon points="17.75,7.75 16.34,9.16 18.17,11 14,11 14,13 18.17,13 16.34,14.84 17.75,16.25 22,12"/><polygon points="10,13 10,11 5.83,11 7.66,9.16 6.25,7.75 2,12 6.25,16.25 7.66,14.84 5.83,13"/></g></g></svg>