<svg xmlns="http://www.w3.org/2000/svg" enable-background="new 0 0 24 24" height="24" viewBox="0 0 24 24" width="24"><g><rect fill="none" height="24" width="24" y="0"/></g><g><g><path d="M18,4v1h-2V4c0-0.55-0.45-1-1-1H9C8.45,3,8,3.45,8,4v1H6V4c0-0.55-0.45-1-1-1S4,3.45,4,4v16c0,0.55,0.45,1,1,1s1-0.45,1-1 v-1h2v1c0,0.55,0.45,1,1,1h6c0.55,0,1-0.45,1-1v-1h2v1c0,0.55,0.45,1,1,1s1-0.45,1-1V4c0-0.55-0.45-1-1-1S18,3.45,18,4z M8,17H6 v-2h2V17z M8,13H6v-2h2V13z M8,9H6V7h2V9z M18,17h-2v-2h2V17z M18,13h-2v-2h2V13z M18,9h-2V7h2V9z"/></g></g></svg>