<svg xmlns="http://www.w3.org/2000/svg" enable-background="new 0 0 24 24" height="24" viewBox="0 0 24 24" width="24"><g><g><path d="M0,0h24v24H0V0z" fill="none"/></g></g><g><path d="M14,6h3v8.17l2,2V5c0-0.55-0.45-1-1-1h-4c0-0.55-0.45-1-1-1H6C5.95,3,5.91,3.02,5.86,3.03L14,11.17V6z M20.49,20.49 L3.51,3.51c-0.39-0.39-1.02-0.39-1.41,0c-0.39,0.39-0.39,1.02,0,1.41L5,7.83V19H4c-0.55,0-1,0.45-1,1s0.45,1,1,1h9 c0.55,0,1-0.45,1-1v-3.17l5.07,5.07c0.39,0.39,1.02,0.39,1.41,0C20.88,21.51,20.88,20.88,20.49,20.49z"/></g></svg>