<svg xmlns="http://www.w3.org/2000/svg" enable-background="new 0 0 24 24" height="24" viewBox="0 0 24 24" width="24"><g><rect fill="none" height="24" width="24"/></g><g><path d="M19,4h-1V3c0-0.55-0.45-1-1-1h0c-0.55,0-1,0.45-1,1v1H8V3c0-0.55-0.45-1-1-1h0C6.45,2,6,2.45,6,3v1H5C3.89,4,3,4.9,3,6v14 c0,1.1,0.89,2,2,2h14c1.1,0,2-0.9,2-2V6C21,4.9,20.1,4,19,4z M19,20H5V10h14V20z M15.89,11.96L15.89,11.96 c-0.39-0.39-1.02-0.39-1.41,0l-3.54,3.54l-1.41-1.41c-0.39-0.39-1.02-0.39-1.41,0l0,0c-0.39,0.39-0.39,1.02,0,1.41l2.12,2.12 c0.39,0.39,1.02,0.39,1.41,0l4.24-4.24C16.28,12.98,16.28,12.35,15.89,11.96z"/></g></svg>