<svg xmlns="http://www.w3.org/2000/svg" enable-background="new 0 0 24 24" height="24" viewBox="0 0 24 24" width="24"><g><rect fill="none" height="24" width="24"/><rect fill="none" height="24" width="24"/></g><g><path d="M11.99,2C6.47,2,2,6.48,2,12s4.47,10,9.99,10C17.52,22,22,17.52,22,12S17.52,2,11.99,2z M15.5,8C16.33,8,17,8.67,17,9.5 S16.33,11,15.5,11S14,10.33,14,9.5S14.67,8,15.5,8z M8.5,8C9.33,8,10,8.67,10,9.5S9.33,11,8.5,11S7,10.33,7,9.5S7.67,8,8.5,8z M12,17.5c-2.33,0-4.31-1.46-5.11-3.5h10.22C16.31,16.04,14.33,17.5,12,17.5z"/></g></svg>