<svg xmlns="http://www.w3.org/2000/svg" enable-background="new 0 0 24 24" height="24" viewBox="0 0 24 24" width="24"><g><rect fill="none" height="24" width="24"/></g><g><g><g><g><path d="M18,8c1.1,0,2-0.9,2-2s-0.9-2-2-2s-2,0.9-2,2S16.9,8,18,8z"/><path d="M18,16c1.1,0,2-0.9,2-2s-0.9-2-2-2s-2,0.9-2,2S16.9,16,18,16z"/><path d="M6,8c-1.1,0-2,0.9-2,2s0.9,2,2,2s2-0.9,2-2S7.1,8,6,8z"/><path d="M14,8c-1.1,0-2,0.9-2,2s0.9,2,2,2s2-0.9,2-2S15.1,8,14,8z"/><path d="M10,16c1.1,0,2-0.9,2-2s-0.9-2-2-2s-2,0.9-2,2S8.9,16,10,16z"/><path d="M10,4C8.9,4,8,4.9,8,6s0.9,2,2,2s2-0.9,2-2S11.1,4,10,4z"/><path d="M14,16c-1.1,0-2,0.9-2,2s0.9,2,2,2s2-0.9,2-2S15.1,16,14,16z"/><path d="M6,20c1.1,0,2-0.9,2-2s-0.9-2-2-2s-2,0.9-2,2S4.9,20,6,20z"/></g></g></g></g></svg>