<svg xmlns="http://www.w3.org/2000/svg" enable-background="new 0 0 24 24" height="24" viewBox="0 0 24 24" width="24"><g><rect fill="none" height="24" width="24" y="0"/></g><g><path d="M18,2H6C4.9,2,4,2.9,4,4v12c0,0.63,0.3,1.22,0.8,1.6l6,4.5c0.71,0.53,1.69,0.53,2.4,0l6-4.5c0.5-0.38,0.8-0.97,0.8-1.6V4 C20,2.9,19.1,2,18,2z M10.23,14.29l-2.12-2.12c-0.39-0.39-0.39-1.02,0-1.41l0,0c0.39-0.39,1.02-0.39,1.41,0l1.41,1.41l3.54-3.54 c0.39-0.39,1.02-0.39,1.41,0l0,0c0.39,0.39,0.39,1.02,0,1.41l-4.24,4.24C11.26,14.68,10.62,14.68,10.23,14.29z"/></g></svg>