<svg xmlns="http://www.w3.org/2000/svg" enable-background="new 0 0 24 24" height="24" viewBox="0 0 24 24" width="24"><g><rect fill="none" height="24" width="24"/></g><g><path d="M4,8v10h8c0-3.87,3.13-7,7-7c0.34,0,0.67,0.03,1,0.08V8l-8,5L4,8z M20,6H4l8,5 L20,6z" enable-background="new" opacity=".3"/><g><path d="M4,18V8l8,5l8-5v3.08c0.71,0.1,1.38,0.31,2,0.6V6c0-1.1-0.9-2-2-2H4C2.9,4,2.01,4.9,2.01,6L2,18c0,1.1,0.9,2,2,2h8.29 C12.1,19.37,12,18.7,12,18H4z M20,6l-8,5L4,6H20z M19,13c-2.76,0-5,2.24-5,5s2.24,5,5,5s5-2.24,5-5S21.76,13,19,13z M22,18.5h-6 v-1h6V18.5z"/></g></g></svg>