<?xml version="1.0" encoding="utf-8"?>
<!-- Generator: Adobe Illustrator 23.0.4, SVG Export Plug-In . SVG Version: 6.00 Build 0)  -->
<svg version="1.1" id="ic_x5F_not_x5F_accessible_x5F_m2outline_x5F_24px"
	 xmlns="http://www.w3.org/2000/svg" xmlns:xlink="http://www.w3.org/1999/xlink" x="0px" y="0px" width="24px" height="24px"
	 viewBox="0 0 24 24" enable-background="new 0 0 24 24" xml:space="preserve">
<g id="ic_x5F_not_x5F_accessible_x5F_m2outline_x5F_24px_1_">
	<path d="M12,2c1.1,0,2,0.9,2,2s-0.9,2-2,2s-2-0.9-2-2S10.9,2,12,2z M14,11.05L14,11.05c1.29,1.07,3.25,1.94,5,1.95v-2
		c-1.54,0.02-3.09-0.75-4.07-1.83l-1.29-1.43c-0.17-0.19-0.38-0.34-0.61-0.45c-0.01,0-0.01-0.01-0.02-0.01H13
		c-0.35-0.2-0.75-0.3-1.19-0.26c-0.49,0.04-0.92,0.27-1.23,0.61L14,11.05z M21.22,21.16L2.84,2.78L1.39,4.22L10,12.83V15
		c0,1.1,0.9,2,2,2h2.17L17,19.83V22h2v-0.17l0.78,0.78L21.22,21.16z M10,20c-1.66,0-3-1.34-3-3c0-1.31,0.84-2.41,2-2.83V12.1
		c-2.28,0.46-4,2.48-4,4.9c0,2.76,2.24,5,5,5c2.42,0,4.44-1.72,4.9-4h-2.07C12.42,19.16,11.31,20,10,20z"/>
	<rect fill="none" width="24" height="24"/>
</g>
</svg>
