<svg xmlns="http://www.w3.org/2000/svg" enable-background="new 0 0 24 24" height="24" viewBox="0 0 24 24" width="24"><g><rect fill="none" height="24" width="24"/></g><g><path d="M22.47,5.2C20.98,4.44,19.29,4,17.5,4c-2.01,0-3.88,0.55-5.5,1.48C10.38,4.55,8.51,4,6.5,4C4.71,4,3.02,4.44,1.53,5.2 C1.2,5.36,1,5.71,1,6.08v12.08c0,0.76,0.81,1.23,1.48,0.87C3.69,18.4,5.05,18,6.5,18c2.07,0,3.98,0.82,5.5,2 c1.52-1.18,3.43-2,5.5-2c1.45,0,2.81,0.4,4.02,1.04C22.19,19.4,23,18.93,23,18.17V6.08C23,5.71,22.8,5.36,22.47,5.2z M21,16.62 C19.86,16.21,18.69,16,17.5,16c-1.9,0-3.78,0.54-5.5,1.58V7.79C13.33,7.02,14.9,6,17.5,6c1.2,0,2.39,0.25,3.5,0.72V16.62z M14,13.72v1.66c1.05-0.56,2.23-0.89,3.5-0.89c0.88,0,1.72,0.17,2.5,0.44v-1.58C19.21,13.14,18.37,13,17.5,13 C16.26,13,15.08,13.26,14,13.72z M14,10.97v1.67c1.05-0.56,2.23-0.89,3.5-0.89c0.88,0,1.72,0.17,2.5,0.45v-1.58 c-0.79-0.23-1.63-0.37-2.5-0.37C16.26,10.25,15.08,10.51,14,10.97z M14,8.21v1.68C15.05,9.33,16.23,9,17.5,9 c0.88,0,1.72,0.17,2.5,0.45V7.86c-0.79-0.23-1.63-0.36-2.5-0.36C16.26,7.5,15.08,7.75,14,8.21z"/></g></svg>