<svg xmlns="http://www.w3.org/2000/svg" enable-background="new 0 0 24 24" height="24" viewBox="0 0 24 24" width="24"><g><rect fill="none" height="24" width="24" y="0"/></g><g><g><path d="M4,15h6c0.55,0,1-0.45,1-1s-0.45-1-1-1H4c-0.55,0-1,0.45-1,1S3.45,15,4,15z M4,19h6c0.55,0,1-0.45,1-1s-0.45-1-1-1H4 c-0.55,0-1,0.45-1,1S3.45,19,4,19z M4,11h6c0.55,0,1-0.45,1-1s-0.45-1-1-1H4c-0.55,0-1,0.45-1,1S3.45,11,4,11z M3,6 c0,0.55,0.45,1,1,1h6c0.55,0,1-0.45,1-1s-0.45-1-1-1H4C3.45,5,3,5.45,3,6z M14,5h6c0.55,0,1,0.45,1,1v12c0,0.55-0.45,1-1,1h-6 c-0.55,0-1-0.45-1-1V6C13,5.45,13.45,5,14,5z"/></g></g></svg>