<svg xmlns="http://www.w3.org/2000/svg" enable-background="new 0 0 24 24" height="24" viewBox="0 0 24 24" width="24"><g><rect fill="none" height="24" width="24"/></g><g><g><path d="M12,19c-1.1,0-2,0.9-2,2s0.9,2,2,2s2-0.9,2-2S13.1,19,12,19z M6,1C4.9,1,4,1.9,4,3s0.9,2,2,2s2-0.9,2-2S7.1,1,6,1z M6,7 C4.9,7,4,7.9,4,9s0.9,2,2,2s2-0.9,2-2S7.1,7,6,7z M6,13c-1.1,0-2,0.9-2,2s0.9,2,2,2s2-0.9,2-2S7.1,13,6,13z M18,5c1.1,0,2-0.9,2-2 s-0.9-2-2-2s-2,0.9-2,2S16.9,5,18,5z M12,13c-1.1,0-2,0.9-2,2s0.9,2,2,2s2-0.9,2-2S13.1,13,12,13z M18,13c-1.1,0-2,0.9-2,2 s0.9,2,2,2s2-0.9,2-2S19.1,13,18,13z M18,7c-1.1,0-2,0.9-2,2s0.9,2,2,2s2-0.9,2-2S19.1,7,18,7z M12,7c-1.1,0-2,0.9-2,2s0.9,2,2,2 s2-0.9,2-2S13.1,7,12,7z M12,1c-1.1,0-2,0.9-2,2s0.9,2,2,2s2-0.9,2-2S13.1,1,12,1z"/></g></g></svg>