<svg xmlns="http://www.w3.org/2000/svg" enable-background="new 0 0 24 24" height="24" viewBox="0 0 24 24" width="24"><g><rect fill="none" height="24" width="24"/></g><g><g><g><path d="M18,7c-1.1,0-2,0.9-2,2s0.9,2,2,2s2-0.9,2-2S19.1,7,18,7z"/><path d="M20,15c0-1.1-0.9-2-2-2s-2,0.9-2,2s0.9,2,2,2S20,16.1,20,15z"/><path d="M12,23c1.1,0,2-0.9,2-2s-0.9-2-2-2s-2,0.9-2,2S10.9,23,12,23z"/><path d="M6,5c1.1,0,2-0.9,2-2S7.1,1,6,1S4,1.9,4,3S4.9,5,6,5z"/><path d="M18,1c-1.1,0-2,0.9-2,2s0.9,2,2,2s2-0.9,2-2S19.1,1,18,1z"/><path d="M6,17c1.1,0,2-0.9,2-2s-0.9-2-2-2s-2,0.9-2,2S4.9,17,6,17z"/><path d="M6,11c1.1,0,2-0.9,2-2S7.1,7,6,7S4,7.9,4,9S4.9,11,6,11z"/><path d="M12,17c1.1,0,2-0.9,2-2s-0.9-2-2-2s-2,0.9-2,2S10.9,17,12,17z"/><path d="M12,11c1.1,0,2-0.9,2-2s-0.9-2-2-2s-2,0.9-2,2S10.9,11,12,11z"/><path d="M12,5c1.1,0,2-0.9,2-2s-0.9-2-2-2s-2,0.9-2,2S10.9,5,12,5z"/></g></g></g></svg>