<svg xmlns="http://www.w3.org/2000/svg" enable-background="new 0 0 24 24" height="24" viewBox="0 0 24 24" width="24"><g><rect fill="none" height="24" width="24"/></g><g><g><g><g><path d="M4,12c0,4.07,3.06,7.44,7,7.93V4.07C7.06,4.56,4,7.93,4,12z" enable-background="new" opacity=".3"/><path d="M13,19.93c3.61-0.45,6.48-3.32,6.93-6.93H13V19.93z" enable-background="new" opacity=".3"/><path d="M13,4.07V11h6.93C19.48,7.39,16.61,4.52,13,4.07z" enable-background="new" opacity=".3"/><path d="M12,2C6.48,2,2,6.48,2,12s4.48,10,10,10s10-4.48,10-10S17.52,2,12,2z M11,19.93C7.06,19.44,4,16.07,4,12 s3.06-7.44,7-7.93V19.93z M13,19.93V13h6.93C19.48,16.61,16.61,19.48,13,19.93z M13,11V4.07c3.61,0.45,6.48,3.32,6.93,6.93H13z"/></g></g></g></g></svg>