<svg xmlns="http://www.w3.org/2000/svg" enable-background="new 0 0 24 24" height="24" viewBox="0 0 24 24" width="24"><g><path d="M0,0h24v24H0V0z" fill="none"/></g><g><g><rect height="1" opacity=".3" width="10" x="7" y="3"/><rect height="1" opacity=".3" width="10" x="7" y="20"/><path d="M17,18H7v-1H5v4c0,1.1,0.9,2,2,2h10c1.1,0,2-0.9,2-2v-4h-2V18z M17,21H7v-1h10V21z"/><polygon points="10,15.17 6.83,12 10,8.83 8.59,7.41 4,12 8.59,16.59"/><polygon points="15.41,16.59 20,12 15.41,7.41 14,8.83 17.17,12 14,15.17"/><path d="M7,6h10v1h2V3c0-1.1-0.9-2-2-2L7,1.01C5.9,1.01,5,1.9,5,3v4h2V6z M7,3h10v1H7V3z"/></g></g></svg>