<svg xmlns="http://www.w3.org/2000/svg" enable-background="new 0 0 24 24" height="24" viewBox="0 0 24 24" width="24"><g><rect fill="none" height="24" width="24" y="0"/></g><g><path d="M20,0v3h3v2h-3v3h-2V5h-3V3h3V0H20z M12,12c-1.1,0-2-0.9-2-2s0.9-2,2-2s2,0.9,2,2S13.1,12,12,12z M13,2.06v2.02 C12.67,4.03,12.33,4,12,4c-3.35,0-6,2.57-6,6.2c0,2.34,1.95,5.44,6,9.14c4.05-3.7,6-6.79,6-9.14V10h2v0.2c0,3.32-2.67,7.25-8,11.8 c-5.33-4.55-8-8.48-8-11.8C4,5.22,7.8,2,12,2C12.34,2,12.67,2.02,13,2.06z"/></g></svg>