<svg xmlns="http://www.w3.org/2000/svg" enable-background="new 0 0 24 24" height="24" viewBox="0 0 24 24" width="24"><g><g><path d="M0,0h24v24H0V0z" fill="none"/></g></g><g><g><circle cx="8.5" cy="20.5" r="1.5"/><circle cx="19.5" cy="20.5" r="1.5"/><path d="M18.28,3.41c-1.39-1.05-3.01-1.39-4.5-1.39c-1.79,0-3.39,0.5-4.19,0.89L13.5,7.6L18.28,3.41z"/><path d="M18.77,16.36L8.57,4.03C7.93,3.27,7.05,2,5.39,2C3.52,2,2,3.56,2,5.48h2C4,4.66,4.62,4,5.39,4C6.07,4,6.42,4.59,7,5.27V13 c0,2.75,2.25,5,5,5h6C18.85,18,19.31,17.01,18.77,16.36z M12,16c-1.65,0-3-1.35-3-3V7.69L15.87,16H12z"/></g></g></svg>