<svg xmlns="http://www.w3.org/2000/svg" enable-background="new 0 0 24 24" height="24" viewBox="0 0 24 24" width="24"><g><rect fill="none" height="24" width="24"/></g><g><g><circle cx="12" cy="5" enable-background="new" opacity=".3" r="2"/><path d="M5,10.17v6.95c2.53,0.34,4.94,1.26,7,2.78c2.07-1.52,4.47-2.43,7-2.77v-6.95 c-3.51,0.64-5.21,2.43-7,4.1C10.33,12.7,8.56,10.81,5,10.17z" enable-background="new" opacity=".3"/><path d="M12,11.55C9.64,9.35,6.48,8,3,8v11c3.48,0,6.64,1.3,9,3.5c2.36-2.19,5.52-3.5,9-3.5V8C17.52,8,14.36,9.35,12,11.55z M19,17.13c-2.53,0.34-4.93,1.25-7,2.77c-2.06-1.52-4.47-2.44-7-2.78v-6.95c3.56,0.64,5.33,2.53,7,4.11c1.79-1.67,3.49-3.46,7-4.1 V17.13z"/><path d="M12,9c2.21,0,4-1.79,4-4s-1.79-4-4-4S8,2.79,8,5S9.79,9,12,9z M12,3c1.1,0,2,0.9,2,2s-0.9,2-2,2s-2-0.9-2-2S10.9,3,12,3z"/></g></g></svg>