<?xml version="1.0" encoding="utf-8"?>
<!-- Generator: Adobe Illustrator 23.0.4, SVG Export Plug-In . SVG Version: 6.00 Build 0)  -->
<svg version="1.1" xmlns="http://www.w3.org/2000/svg" xmlns:xlink="http://www.w3.org/1999/xlink" x="0px" y="0px" width="24px"
	 height="24px" viewBox="0 0 24 24" enable-background="new 0 0 24 24" xml:space="preserve">
<g id="Bounding_Box">
	<rect fill="none" width="24" height="24"/>
</g>
<g id="Master">
	<path d="M22,12c0-5.5-4.5-10-10-10S2,6.5,2,12s4.5,10,10,10S22,17.5,22,12z M5.7,7.1l11.2,11.2c-1.3,1.1-3,1.7-4.9,1.7
		c-4.4,0-8-3.6-8-8C4,10.1,4.6,8.4,5.7,7.1z M20,12c0,1.9-0.6,3.6-1.7,4.9L7.1,5.7C8.4,4.6,10.1,4,12,4C16.4,4,20,7.6,20,12z"/>
</g>
</svg>
