<svg xmlns="http://www.w3.org/2000/svg" enable-background="new 0 0 24 24" height="24" viewBox="0 0 24 24" width="24"><g><rect fill="none" height="24" width="24" y="0"/></g><g><g><path d="M17,9h-2v4H3v8h18v-8h-4V9z M8,18H6v-2h2V18z M11.5,18h-2v-2h2V18z M15,18h-2v-2h2V18z"/><path d="M16,4c1.66,0,3.16,0.67,4.24,1.76l1.41-1.41C20.21,2.9,18.21,2,16,2s-4.21,0.9-5.65,2.35l1.41,1.41 C12.84,4.67,14.34,4,16,4z"/><path d="M12.82,6.82l1.41,1.41C14.68,7.78,15.31,7.5,16,7.5s1.32,0.28,1.77,0.73l1.41-1.41C18.37,6,17.24,5.5,16,5.5 S13.63,6,12.82,6.82z"/></g></g></svg>