<svg xmlns="http://www.w3.org/2000/svg" enable-background="new 0 0 24 24" height="24" viewBox="0 0 24 24" width="24"><g><rect fill="none" height="24" width="24"/></g><g><g><g><g><path d="M12,4c-4.42,0-8,3.58-8,8s3.58,8,8,8s8-3.58,8-8S16.42,4,12,4z M15.5,8 C16.33,8,17,8.67,17,9.5S16.33,11,15.5,11S14,10.33,14,9.5S14.67,8,15.5,8z M8.5,8C9.33,8,10,8.67,10,9.5S9.33,11,8.5,11 S7,10.33,7,9.5S7.67,8,8.5,8z M12,17.5c-2.33,0-4.32-1.45-5.12-3.5h1.67c0.7,1.19,1.97,2,3.45,2s2.75-0.81,3.45-2h1.67 C16.32,16.05,14.33,17.5,12,17.5z" enable-background="new" opacity=".3"/><circle cx="15.5" cy="9.5" r="1.5"/><circle cx="8.5" cy="9.5" r="1.5"/><path d="M12,16c-1.48,0-2.75-0.81-3.45-2H6.88c0.8,2.05,2.79,3.5,5.12,3.5s4.32-1.45,5.12-3.5h-1.67C14.75,15.19,13.48,16,12,16 z"/><path d="M11.99,2C6.47,2,2,6.48,2,12s4.47,10,9.99,10C17.52,22,22,17.52,22,12S17.52,2,11.99,2z M12,20c-4.42,0-8-3.58-8-8 s3.58-8,8-8s8,3.58,8,8S16.42,20,12,20z"/></g></g></g></g></svg>