<svg xmlns="http://www.w3.org/2000/svg" enable-background="new 0 0 24 24" height="24" viewBox="0 0 24 24" width="24"><g><rect fill="none" height="24" width="24" x="0"/></g><g><g><g><path d="M3,4h13c0.55,0,1,0.45,1,1v0c0,0.55-0.45,1-1,1H3C2.45,6,2,5.55,2,5v0C2,4.45,2.45,4,3,4z"/><path d="M16,17L16,17c0.55,0,1-0.45,1-1v-2h0c0.55,0,1-0.45,1-1v-0.9c0-0.07-0.01-0.13-0.02-0.2l-0.82-4.1 C17.07,7.34,16.66,7,16.18,7H2.82C2.34,7,1.93,7.34,1.84,7.8l-0.82,4.1C1.01,11.97,1,12.03,1,12.1V13c0,0.55,0.45,1,1,1h0v5 c0,0.55,0.45,1,1,1h7c0.55,0,1-0.45,1-1v-5h4v2C15,16.55,15.45,17,16,17z M9,18H4v-4h5V18z"/><path d="M22,18h-2v-2c0-0.55-0.45-1-1-1h0c-0.55,0-1,0.45-1,1v2h-2c-0.55,0-1,0.45-1,1v0c0,0.55,0.45,1,1,1h2v2 c0,0.55,0.45,1,1,1h0c0.55,0,1-0.45,1-1v-2h2c0.55,0,1-0.45,1-1v0C23,18.45,22.55,18,22,18z"/></g></g></g></svg>