<svg xmlns="http://www.w3.org/2000/svg" enable-background="new 0 0 24 24" height="24" viewBox="0 0 24 24" width="24"><g><rect fill="none" height="24" width="24"/></g><g><g><path d="M5.14,11.86l-2.78,2.79c-0.19,0.2-0.19,0.51,0,0.71l2.78,2.79c0.31,0.32,0.85,0.09,0.85-0.35V16H12c0.55,0,1-0.45,1-1 s-0.45-1-1-1H5.99v-1.79C5.99,11.76,5.45,11.54,5.14,11.86z M21.65,8.65l-2.78-2.79c-0.31-0.32-0.85-0.09-0.85,0.35V8H12 c-0.55,0-1,0.45-1,1s0.45,1,1,1h6.01v1.79c0,0.45,0.54,0.67,0.85,0.35l2.78-2.79C21.84,9.16,21.84,8.84,21.65,8.65z"/></g></g></svg>