<svg xmlns="http://www.w3.org/2000/svg" enable-background="new 0 0 24 24" height="24" viewBox="0 0 24 24" width="24"><g><rect fill="none" height="24" width="24"/></g><g><g><g><path d="M17,12c-2.76,0-5,2.24-5,5s2.24,5,5,5s5-2.24,5-5S19.76,12,17,12z M18.29,19.71L16,17.41V14h1v3l2,2L18.29,19.71z"/></g><g><polygon points="19,4 15.5,4 14.5,3 9.5,3 8.5,4 5,4 5,6 19,6"/></g><g><path d="M8,19V9h8v1.08c0.33-0.05,0.66-0.08,1-0.08s0.67,0.03,1,0.08V7H6v12c0,1.1,0.9,2,2,2h3.26c-0.42-0.6-0.75-1.28-0.97-2H8z"/></g></g></g></svg>