<svg xmlns="http://www.w3.org/2000/svg" enable-background="new 0 0 24 24" height="24" viewBox="0 0 24 24" width="24"><g><rect fill="none" height="24" width="24"/></g><g><g><path d="M10,17c0-3.53,2.61-6.43,6-6.92V9H8v10h2.29C10.1,18.37,10,17.7,10,17z" enable-background="new" opacity=".3"/><g><path d="M19,4h-3.5l-1-1h-5l-1,1H5v2h14V4z M8,19V9h8v1.08c0.33-0.05,0.66-0.08,1-0.08s0.67,0.03,1,0.08V7H6v12c0,1.1,0.9,2,2,2 h3.26c-0.42-0.6-0.75-1.28-0.97-2H8z"/></g><g><path d="M17,12c-2.76,0-5,2.24-5,5s2.24,5,5,5s5-2.24,5-5S19.76,12,17,12z M18.29,19.71L16,17.41V14h1v3l2,2L18.29,19.71z"/></g></g></g></svg>