<svg xmlns="http://www.w3.org/2000/svg" enable-background="new 0 0 24 24" height="24" viewBox="0 0 24 24" width="24"><g><rect fill="none" height="24" width="24"/></g><g><g><path d="M4,6h16v5h2V6c0-1.1-0.9-2-2-2H4C2.9,4,2,4.9,2,6v12c0,1.1,0.9,2,2,2h8v-2H4V6z"/><path d="M22.58,18c0-0.22-0.03-0.42-0.06-0.63l1.14-1l-1-1.73l-1.45,0.49c-0.32-0.27-0.68-0.48-1.08-0.63L19.83,13h-2l-0.3,1.49 c-0.4,0.15-0.76,0.36-1.08,0.63L15,14.63l-1,1.73l1.14,1c-0.03,0.21-0.06,0.41-0.06,0.63s0.03,0.42,0.06,0.63l-1.14,1l1,1.73 l1.45-0.49c0.32,0.27,0.68,0.48,1.08,0.63l0.3,1.49h2l0.3-1.49c0.4-0.15,0.76-0.36,1.08-0.63l1.45,0.49l1-1.73l-1.14-1 C22.55,18.42,22.58,18.22,22.58,18z M18.83,20c-1.1,0-2-0.9-2-2s0.9-2,2-2s2,0.9,2,2S19.93,20,18.83,20z"/><polygon points="16.5,12 9.5,7.5 9.5,16.5"/></g></g></svg>