<svg xmlns="http://www.w3.org/2000/svg" enable-background="new 0 0 24 24" height="24" viewBox="0 0 24 24" width="24"><g><rect fill="none" height="24" width="24"/></g><g><path d="M11.99,2C6.47,2,2,6.48,2,12s4.47,10,9.99,10C17.52,22,22,17.52,22,12S17.52,2,11.99,2z M8.5,8C9.33,8,10,8.67,10,9.5 S9.33,11,8.5,11S7,10.33,7,9.5S7.67,8,8.5,8z M16.65,14.92C15.63,16.53,13.9,17.5,12,17.5s-3.63-0.96-4.65-2.59 c-0.22-0.35-0.11-0.81,0.24-1.03c0.35-0.22,0.81-0.11,1.03,0.24C9.36,15.3,10.62,16,12,16s2.64-0.7,3.38-1.87 c0.21-0.35,0.68-0.46,1.03-0.24C16.76,14.11,16.87,14.57,16.65,14.92z M15.5,11c-0.83,0-1.5-0.67-1.5-1.5S14.67,8,15.5,8 S17,8.67,17,9.5S16.33,11,15.5,11z"/></g></svg>