<svg xmlns="http://www.w3.org/2000/svg" enable-background="new 0 0 24 24" height="24" viewBox="0 0 24 24" width="24"><g><path d="M0,0h24v24H0V0z" fill="none"/></g><g><g><polygon enable-background="new" opacity=".3" points="14.17,17 5,7.83 5,17"/><polygon enable-background="new" opacity=".3" points="15,7 15,7 9.83,7 17,14.18 18.55,12"/><path d="M15,7L15,7l3.55,5L17,14.18l1.43,1.43L21,12l-4.37-6.16C16.26,5.31,15.65,5,15,5H7.83l2,2H15z"/><path d="M2.81,2.81L1.39,4.22l1.85,1.85C3.09,6.35,3,6.66,3,7v10c0,1.1,0.9,2,2,2h10c0.33,0,0.65-0.08,0.94-0.24l3.84,3.84 l1.41-1.41L2.81,2.81z M5,17V7.83L14.17,17H5z"/></g></g></svg>