<svg xmlns="http://www.w3.org/2000/svg" enable-background="new 0 0 24 24" height="24" viewBox="0 0 24 24" width="24"><g><rect fill="none" height="24" width="24"/></g><g><path d="M4.83,18L18,4.83L18,11h2V0L0,20h11v-2H4.83z M21.75,18c0-0.22-0.03-0.42-0.06-0.63l1.14-1.01l-1-1.73l-1.45,0.49 c-0.32-0.27-0.68-0.48-1.08-0.63L19,13h-2l-0.3,1.49c-0.4,0.15-0.76,0.36-1.08,0.63l-1.45-0.49l-1,1.73l1.14,1.01 c-0.03,0.21-0.06,0.41-0.06,0.63s0.03,0.42,0.06,0.63l-1.14,1.01l1,1.73l1.45-0.49c0.32,0.27,0.68,0.48,1.08,0.63L17,23h2l0.3-1.49 c0.4-0.15,0.76-0.36,1.08-0.63l1.45,0.49l1-1.73l-1.14-1.01C21.72,18.42,21.75,18.22,21.75,18z M18,20c-1.1,0-2-0.9-2-2s0.9-2,2-2 s2,0.9,2,2S19.1,20,18,20z"/></g></svg>