<svg xmlns="http://www.w3.org/2000/svg" enable-background="new 0 0 24 24" height="24" viewBox="0 0 24 24" width="24"><g><rect fill="none" height="24" width="24"/></g><g><g><g><g><path d="M11.17,8l-0.59-0.59L9.17,6H4v12h16V8h-8H11.17z M14,10h2v2h2v2h-2v2h-2v-2 h-2v-2h2V10z" enable-background="new" opacity=".3"/><path d="M20,6h-8l-2-2H4C2.89,4,2.01,4.89,2.01,6L2,18c0,1.11,0.89,2,2,2h16c1.11,0,2-0.89,2-2V8C22,6.89,21.11,6,20,6z M20,18 H4V6h5.17l1.41,1.41L11.17,8H12h8V18z"/><polygon points="12,14 14,14 14,16 16,16 16,14 18,14 18,12 16,12 16,10 14,10 14,12 12,12"/></g></g></g></g></svg>