<svg xmlns="http://www.w3.org/2000/svg" enable-background="new 0 0 24 24" height="24" viewBox="0 0 24 24" width="24"><g><rect fill="none" height="24" width="24"/></g><g><g><polygon opacity=".3" points="15.27,7.81 15.26,7.82 16.18,8.74 16.18,8.74 18.59,6.34 17.66,5.41"/><path d="M20.71,5.63l-2.34-2.34c-0.39-0.39-1.02-0.39-1.41,0l-3.1,3.1l-1.93-1.91L10.51,5.9l1.42,1.42L3,16.24V21h4.76l8.92-8.93 l1.42,1.42l1.41-1.41l-1.92-1.92l3.11-3.11C21.1,6.65,21.1,6.02,20.71,5.63z M6.93,19H5v-1.93l8.34-8.33l1.92,1.92L6.93,19z M16.18,8.74L16.18,8.74l-0.92-0.92l0.01-0.01l2.4-2.4l0.92,0.92L16.18,8.74z"/></g></g></svg>