<svg xmlns="http://www.w3.org/2000/svg" enable-background="new 0 0 24 24" height="24" viewBox="0 0 24 24" width="24"><g><rect fill="none" height="24" width="24"/></g><g><g><path d="M8,7c-2.76,0-5,2.24-5,5s2.24,5,5,5s5-2.24,5-5S10.76,7,8,7z M10.04,15 l-0.63-1.79H6.59L5.96,15H4.74l2.63-7h1.25l2.63,7H10.04z" enable-background="new" opacity=".3"/><polygon enable-background="new" opacity=".3" points="7.97,9.3 6.95,12.19 9.05,12.19 8.03,9.3"/><path d="M7.37,8l-2.63,7h1.21l0.64-1.79h2.83L10.04,15h1.21L8.63,8H7.37z M6.95,12.19L7.97,9.3h0.06l1.02,2.89H6.95z"/><path d="M21.78,8l-1.2,5.1h-0.06L19.03,8h-1.09l-1.55,5.11h-0.06L15.12,8H13.9l0.11,0.43C12.79,6.38,10.56,5,8,5 c-3.87,0-7,3.13-7,7s3.13,7,7,7c3.83,0,6.93-3.08,6.99-6.89L15.77,15h1.13l1.55-5.24h0.06L19.99,15h1.16L23,8H21.78z M8,17 c-2.76,0-5-2.24-5-5s2.24-5,5-5s5,2.24,5,5S10.76,17,8,17z"/></g></g></svg>