<svg xmlns="http://www.w3.org/2000/svg" enable-background="new 0 0 24 24" height="24" viewBox="0 0 24 24" width="24"><g><rect fill="none" height="24" width="24"/></g><g><g><path d="M2,4v12c0,1.1,0.9,2,2,2h14l2.29,2.29c0.63,0.63,1.71,0.18,1.71-0.71L21.99,4c0-1.1-0.9-2-2-2H4C2.9,2,2,2.9,2,4z M18,10 L18,10c0,0.55-0.45,1-1,1H7c-0.55,0-1-0.45-1-1v0c0-0.55,0.45-1,1-1h10C17.55,9,18,9.45,18,10z M18,13L18,13c0,0.55-0.45,1-1,1H7 c-0.55,0-1-0.45-1-1v0c0-0.55,0.45-1,1-1h10C17.55,12,18,12.45,18,13z M6,7L6,7c0-0.55,0.45-1,1-1h10c0.55,0,1,0.45,1,1v0 c0,0.55-0.45,1-1,1H7C6.45,8,6,7.55,6,7z"/></g></g></svg>