<svg xmlns="http://www.w3.org/2000/svg" enable-background="new 0 0 24 24" height="24" viewBox="0 0 24 24" width="24"><g><rect fill="none" height="24" width="24"/></g><g><path d="M20,9V7c0-1.65-1.35-3-3-3H7C5.35,4,4,5.35,4,7v2c-1.65,0-3,1.35-3,3v5c0,1.65,1.35,3,3,3h16c1.65,0,3-1.35,3-3v-5 C23,10.35,21.65,9,20,9z M6,7c0-0.55,0.45-1,1-1h10c0.55,0,1,0.45,1,1v2.78c-0.61,0.55-1,1.34-1,2.22v2H7v-2 c0-0.88-0.39-1.67-1-2.22V7z M21,17c0,0.55-0.45,1-1,1H4c-0.55,0-1-0.45-1-1v-5c0-0.55,0.45-1,1-1s1,0.45,1,1v4h14v-4 c0-0.55,0.45-1,1-1s1,0.45,1,1V17z"/></g></svg>