<svg xmlns="http://www.w3.org/2000/svg" enable-background="new 0 0 24 24" height="24" viewBox="0 0 24 24" width="24"><g><rect fill="none" height="24" width="24"/></g><g><g><rect height="2" width="16" x="4" y="21"/><rect height="2" width="16" x="4" y="1"/><path d="M12,13c1.66,0,3-1.34,3-3c0-1.66-1.34-3-3-3s-3,1.34-3,3C9,11.66,10.34,13,12,13z M12,9c0.55,0,1,0.45,1,1s-0.45,1-1,1 s-1-0.45-1-1S11.45,9,12,9z"/><path d="M20,4H4C2.9,4,2,4.9,2,6v12c0,1.1,0.9,2,2,2h16c1.1,0,2-0.9,2-2V6C22,4.9,21.1,4,20,4z M8.69,18c0.95-0.63,2.09-1,3.31-1 s2.36,0.37,3.31,1H8.69z M20,18h-1.76c-1.47-1.83-3.71-3-6.24-3s-4.77,1.17-6.24,3H4V6h16V18z"/></g></g></svg>