<svg xmlns="http://www.w3.org/2000/svg" enable-background="new 0 0 24 24" height="24" viewBox="0 0 24 24" width="24"><g><path d="M0,0h24v24H0V0z" fill="none"/></g><g><g><path d="M17,10c1.08,0,2.09,0.25,3,0.68V5l-8-3L4,5v6.09c0,5.05,3.41,9.76,8,10.91c0.03-0.01,0.05-0.02,0.08-0.02 C10.8,20.71,10,18.95,10,17C10,13.13,13.13,10,17,10z"/><path d="M17,12c-2.76,0-5,2.24-5,5s2.24,5,5,5s5-2.24,5-5S19.76,12,17,12z M17,14c0.83,0,1.5,0.67,1.5,1.5S17.83,17,17,17 s-1.5-0.67-1.5-1.5S16.17,14,17,14z M17,20c-1.03,0-1.94-0.52-2.48-1.32C15.25,18.26,16.09,18,17,18s1.75,0.26,2.48,0.68 C18.94,19.48,18.03,20,17,20z"/></g></g></svg>