<svg xmlns="http://www.w3.org/2000/svg" enable-background="new 0 0 24 24" height="24" viewBox="0 0 24 24" width="24"><g><rect fill="none" height="24" width="24"/></g><g><g><path d="M11.07,8.24C11.35,8.09,11.66,8,12,8c1.1,0,2,0.9,2,2c0,0.34-0.09,0.65-0.24,0.93l4.42,4.42C19.39,13.49,20,11.77,20,10.2 C20,5.22,16.2,2,12,2c-1.95,0-3.8,0.69-5.24,1.93L11.07,8.24z"/><path d="M2.81,2.81L1.39,4.22l3.09,3.09C4.18,8.19,4,9.15,4,10.2c0,3.32,2.67,7.25,8,11.8c1.42-1.21,2.64-2.37,3.68-3.49l4.1,4.1 l1.41-1.41L2.81,2.81z"/></g></g></svg>