<svg xmlns="http://www.w3.org/2000/svg" enable-background="new 0 0 24 24" height="24" viewBox="0 0 24 24" width="24"><g><rect fill="none" height="24" width="24"/></g><g><g><path d="M6,10.2c0,2.34,1.95,5.44,6,9.14c0.85-0.78,1.59-1.52,2.26-2.25L6.11,8.94 C6.04,9.34,6,9.76,6,10.2z M12,4c-1.46,0-2.78,0.5-3.82,1.36l2.88,2.88C11.35,8.09,11.66,8,12,8c1.1,0,2,0.9,2,2 c0,0.34-0.09,0.65-0.24,0.93l2.97,2.97C17.57,12.52,18,11.28,18,10.2C18,6.57,15.35,4,12,4z" enable-background="new" opacity=".3"/><path d="M11.07,8.24l2.69,2.69C13.91,10.65,14,10.34,14,10c0-1.1-0.9-2-2-2C11.66,8,11.35,8.09,11.07,8.24z M12,4 c3.35,0,6,2.57,6,6.2c0,1.08-0.43,2.32-1.27,3.71l1.45,1.45C19.39,13.49,20,11.77,20,10.2C20,5.22,16.2,2,12,2 c-1.95,0-3.8,0.69-5.24,1.93l1.43,1.43C9.22,4.5,10.54,4,12,4z M2.81,2.81L1.39,4.22l3.09,3.09C4.18,8.19,4,9.15,4,10.2 c0,3.32,2.67,7.25,8,11.8c1.42-1.21,2.64-2.37,3.68-3.49l4.1,4.1l1.41-1.41L2.81,2.81z M12,19.33c-4.05-3.7-6-6.79-6-9.14 c0-0.43,0.04-0.85,0.11-1.25l8.15,8.15C13.59,17.81,12.85,18.56,12,19.33z"/></g></g></svg>