<svg xmlns="http://www.w3.org/2000/svg" enable-background="new 0 0 24 24" height="24" viewBox="0 0 24 24" width="24"><g><rect fill="none" height="24" width="24"/></g><g><path d="M22,10V6c0-1.1-0.9-2-2-2H4C2.9,4,2.01,4.9,2.01,6v4C3.11,10,4,10.9,4,12s-0.89,2-2,2v4c0,1.1,0.9,2,2,2h16 c1.1,0,2-0.9,2-2v-4c-1.1,0-2-0.9-2-2S20.9,10,22,10z M20,8.54c-1.19,0.69-2,1.99-2,3.46s0.81,2.77,2,3.46V18H4v-2.54 c1.19-0.69,2-1.99,2-3.46c0-1.48-0.8-2.77-1.99-3.46L4,6h16V8.54z M13.09,10.38L12,7l-1.09,3.38H7.5l2.78,2.21L9.22,16L12,13.89 L14.78,16l-1.06-3.41l2.78-2.21H13.09z"/></g></svg>