<svg xmlns="http://www.w3.org/2000/svg" enable-background="new 0 0 24 24" height="24" viewBox="0 0 24 24" width="24"><g><rect fill="none" height="24" width="24"/></g><g><g><g><g><rect height="2" width="14" x="2" y="11"/><polygon points="18,17 20,17 20,17.5 19,17.5 19,18.5 20,18.5 20,19 18,19 18,20 21,20 21,16 18,16"/><polygon points="18,11 19.8,11 18,13.1 18,14 21,14 21,13 19.2,13 21,10.9 21,10 18,10"/><polygon points="20,8 20,4 18,4 18,5 19,5 19,8"/><rect height="2" width="14" x="2" y="17"/><rect height="2" width="14" x="2" y="5"/></g></g></g></g></svg>