<svg xmlns="http://www.w3.org/2000/svg" enable-background="new 0 0 24 24" height="24" viewBox="0 0 24 24" width="24"><g><rect fill="none" height="24" width="24" y="0"/></g><g><g><path d="M11,12.5h3V16h-3V12.5z M11,7h3v3.5h-3V7z M6,12.5h3V16H6V12.5z M6,7h3v3.5H6 V7z M16,7h3v3.5h-3V7z M16,12.5h3V16h-3V12.5z" enable-background="new" opacity=".3"/><path d="M4,5v13h17V5H4z M9,16H6v-3.5h3V16z M9,10.5H6V7h3V10.5z M14,16h-3v-3.5h3V16z M14,10.5h-3V7h3V10.5z M19,16h-3v-3.5h3V16 z M19,10.5h-3V7h3V10.5z"/></g></g></svg>