<svg xmlns="http://www.w3.org/2000/svg" enable-background="new 0 0 24 24" height="24" viewBox="0 0 24 24" width="24"><g><rect fill="none" height="24" width="24"/></g><g><g><path d="M4,18h16v-8H4V18z M14.87,12.37L15.5,11l0.63,1.37L17.5,13l-1.37,0.63L15.5,15l-0.63-1.37L13.5,13 L14.87,12.37z M8.56,13.06L9.5,11l0.94,2.06L12.5,14l-2.06,0.94L9.5,17l-0.94-2.06L6.5,14L8.56,13.06z" opacity=".3"/><path d="M20,4h-3l2,4h-3l-2-4h-2l2,4h-3L9,4H7l2,4H6L4,4C2.9,4,2.01,4.9,2.01,6L2,18c0,1.1,0.9,2,2,2h16c1.1,0,2-0.9,2-2V6 C22,4.9,21.1,4,20,4z M20,18H4v-8h16V18z M9.5,17l0.94-2.06L12.5,14l-2.06-0.94L9.5,11l-0.94,2.06L6.5,14l2.06,0.94L9.5,17z M15.5,15l0.63-1.37L17.5,13l-1.37-0.63L15.5,11l-0.63,1.37L13.5,13l1.37,0.63L15.5,15z"/></g></g></svg>