<svg xmlns="http://www.w3.org/2000/svg" enable-background="new 0 0 24 24" height="24" viewBox="0 0 24 24" width="24"><g display="none"><path d="M0,0h24v24H0V0z" display="inline" fill="none"/></g><g><g><path d="M12.01,2C12,2,12,2,12.01,2c-1.2,0-2.34,0.22-3.4,0.6L13,7V4.07c3.94,0.49,7,3.86,7,7.93h2C22,6.49,17.52,2,12.01,2z"/><path d="M10,19.74C6.56,18.85,4,15.72,4,12H2c0,5.51,4.49,10,10,10c0.91,0,1.8-0.13,2.64-0.36L10,17V19.74z"/><path d="M15.5,9h-3v6h3c0.55,0,1-0.45,1-1v-4C16.5,9.45,16.05,9,15.5,9z M15,13.5h-1v-3h1V13.5z"/><polygon points="11.5,9 7.5,9 7.5,10.5 10,10.5 10,11.5 8.5,11.5 8.5,12.5 10,12.5 10,13.5 7.5,13.5 7.5,15 11.5,15"/></g></g></svg>