<?xml version="1.0" encoding="utf-8"?>
<!-- Generator: Adobe Illustrator 23.0.4, SVG Export Plug-In . SVG Version: 6.00 Build 0)  -->
<svg version="1.1" xmlns="http://www.w3.org/2000/svg" xmlns:xlink="http://www.w3.org/1999/xlink" x="0px" y="0px" width="24px"
	 height="24px" viewBox="0 0 24 24" enable-background="new 0 0 24 24" xml:space="preserve">
<g id="Bounding_Box">
	<rect fill="none" width="24" height="24"/>
</g>
<g id="Master">
	<g>
		<g>
			<g opacity="0.3">
				<polygon points="4,4 4,17.17 5.17,16 15,16 15,10 20,10 20,4 				"/>
			</g>
			<path d="M5.17,16L4,17.17V4h16v6h2V4c0-1.1-0.9-2-2-2H4C2.9,2,2.01,2.9,2.01,4L2,22l4-4h9v-2H5.17z"/>
		</g>
		<g>
			<polygon points="19,23 22.5,16 20.3,16 22,12 17,12 17,18 19,18 			"/>
		</g>
	</g>
</g>
</svg>
