<svg xmlns="http://www.w3.org/2000/svg" enable-background="new 0 0 24 24" height="24" viewBox="0 0 24 24" width="24"><g><rect fill="none" height="24" width="24"/></g><g><g><path d="M8,16h12V4H8V16z M11,13h4v-2h-2V9h2V7h-4V5h4c1.1,0,2,0.89,2,2v1.5 c0,0.83-0.67,1.5-1.5,1.5c0.83,0,1.5,0.67,1.5,1.5V13c0,1.11-0.9,2-2,2h-4V13z" enable-background="new" opacity=".3"/><path d="M20,2H8C6.9,2,6,2.9,6,4v12c0,1.1,0.9,2,2,2h12c1.1,0,2-0.9,2-2V4C22,2.9,21.1,2,20,2z M20,16H8V4h12V16z"/><path d="M4,22h14v-2H4V6H2v14C2,21.1,2.9,22,4,22z"/><path d="M17,13v-1.5c0-0.83-0.67-1.5-1.5-1.5c0.83,0,1.5-0.67,1.5-1.5V7c0-1.11-0.9-2-2-2h-4v2h4v2h-2v2h2v2h-4v2h4 C16.1,15,17,14.11,17,13z"/></g></g></svg>