<svg xmlns="http://www.w3.org/2000/svg" enable-background="new 0 0 24 24" height="24" viewBox="0 0 24 24" width="24"><g><rect fill="none" height="24" width="24"/></g><g><path d="M9,10v4c0,0.55,0.45,1,1,1s1-0.45,1-1V4h2v10c0,0.55,0.45,1,1,1s1-0.45,1-1V4h1c0.55,0,1-0.45,1-1s-0.45-1-1-1H9.17 C7.08,2,5.22,3.53,5.02,5.61C4.79,7.99,6.66,10,9,10z M19.79,17h-13v-1.79c0-0.45-0.54-0.67-0.86-0.35l-2.79,2.79 c-0.19,0.19-0.19,0.51,0.01,0.7l2.79,2.79c0.31,0.32,0.85,0.1,0.85-0.35V19h13c0.55,0,1-0.45,1-1S20.34,17,19.79,17z"/></g></svg>