<svg xmlns="http://www.w3.org/2000/svg" xmlns:xlink="http://www.w3.org/1999/xlink" enable-background="new 0 0 24 24" height="24px" id="ic_x5F_mark_x5F_email_x5F_unread_x5F_24px_1_" version="1.1" viewBox="0 0 24 24" width="24px" x="0px" xml:space="preserve" y="0px"><g id="ic_x5F_mark_x5F_email_x5F_unread_x5F_24px"><path d="M22,8.98V18c0,1.1-0.9,2-2,2H4c-1.1,0-2-0.9-2-2V6c0-1.1,0.9-2,2-2h10.1C14.04,4.32,14,4.66,14,5 c0,1.48,0.65,2.79,1.67,3.71L12,11L4,6v2l8,5l5.3-3.32C17.84,9.88,18.4,10,19,10C20.13,10,21.16,9.61,22,8.98z M16,5 c0,1.66,1.34,3,3,3s3-1.34,3-3s-1.34-3-3-3S16,3.34,16,5z"/><rect fill="none" height="24" width="24"/></g></svg>