<svg xmlns="http://www.w3.org/2000/svg" enable-background="new 0 0 24 24" height="24" viewBox="0 0 24 24" width="24"><g><rect fill="none" height="24" width="24"/></g><g><g><path d="M13.53,14H16v-4h-5.7C11.63,11.1,12.72,12.46,13.53,14z" opacity=".3"/><path d="M2,13v2c2.76,0,5,2.24,5,5h2C9,16.13,5.87,13,2,13z M2,17v3h3C5,18.34,3.66,17,2,17z M2,9v2c4.97,0,9,4.03,9,9h2 C13,13.92,8.07,9,2,9z M20,4H4C2.9,4,2,4.9,2,6v1h2V6h16v12h-5v2h5c1.1,0,2-0.9,2-2V6C22,4.9,21.1,4,20,4z M18,8H7 c1.2,0.5,2.31,1.18,3.3,2H16v4h-2.47c0.33,0.64,0.62,1.31,0.84,2H18V8z"/></g></g></svg>