<svg xmlns="http://www.w3.org/2000/svg" enable-background="new 0 0 24 24" height="24" viewBox="0 0 24 24" width="24"><g><rect fill="none" height="24" width="24"/></g><g><path d="M12,4.81l4.25,4.18C17.38,10.1,18,11.57,18,13.13c0,0.61-0.1,1.21-0.28,1.76l1.53,1.53c0.47-1,0.74-2.12,0.74-3.3 c0-2.17-0.9-4.14-2.35-5.57l0,0L12,2L8.38,5.56L9.8,6.97L12,4.81z M2.81,2.81L1.39,4.22l4.2,4.2c-1,1.31-1.6,2.94-1.6,4.7 C4,17.48,7.58,21,12,21c1.75,0,3.36-0.56,4.68-1.49l3.1,3.1l1.41-1.41L2.81,2.81z M12,19c-3.31,0-6-2.63-6-5.87 c0-1.19,0.36-2.32,1.02-3.28l8.21,8.21C14.3,18.65,13.19,19,12,19z"/></g></svg>