<svg xmlns="http://www.w3.org/2000/svg" enable-background="new 0 0 24 24" height="24" viewBox="0 0 24 24" width="24"><g><rect fill="none" height="24" width="24"/></g><g><g><path d="M21.97,15.94l-1.07-7.5C20.62,6.46,18.93,5,16.93,5H7.06c-2,0-3.69,1.46-3.97,3.44l-1.07,7.49 C1.81,17.48,2.95,18.99,4.52,19c0.68,0,1.33-0.27,1.81-0.75L8.6,16h6.8l2.25,2.25c0.84,0.84,2.2,1.04,3.27,0.28 C21.74,17.95,22.11,16.92,21.97,15.94z M19.88,16.81c-0.2,0.23-0.57,0.27-0.81,0.03L16.23,14H7.77l-2.85,2.84 c-0.24,0.24-0.6,0.21-0.8-0.02c-0.07-0.09-0.16-0.23-0.13-0.44l1.09-7.66C5.22,7.74,6.07,7,7.06,7h9.87 c0.99,0,1.84,0.74,1.98,1.71l1.09,7.66C20.04,16.58,19.96,16.72,19.88,16.81z"/><circle cx="17" cy="12" r="1"/><circle cx="15" cy="9" r="1"/><polygon points="9.25,8 7.75,8 7.75,9.75 6,9.75 6,11.25 7.75,11.25 7.75,13 9.25,13 9.25,11.25 11,11.25 11,9.75 9.25,9.75"/></g></g></svg>