<?xml version="1.0" encoding="utf-8"?>
<!-- Generator: Adobe Illustrator 23.0.4, SVG Export Plug-In . SVG Version: 6.00 Build 0)  -->
<svg version="1.1" xmlns="http://www.w3.org/2000/svg" xmlns:xlink="http://www.w3.org/1999/xlink" x="0px" y="0px" width="24px"
	 height="24px" viewBox="0 0 24 24" enable-background="new 0 0 24 24" xml:space="preserve">
<g id="Bounding_Box">
	<rect x="0" fill="none" width="24" height="24"/>
</g>
<g id="Icons">
	<g>
		<g>
			<path d="M22,10V6c0-1.11-0.9-2-2-2H4C2.9,4,2.01,4.89,2.01,6v4C3.11,10,4,10.9,4,12s-0.89,2-2,2v4c0,1.1,0.9,2,2,2h16
				c1.1,0,2-0.9,2-2v-4c-1.1,0-2-0.9-2-2S20.9,10,22,10z M13,17.5h-2v-2h2V17.5z M13,13h-2v-2h2V13z M13,8.5h-2v-2h2V8.5z"/>
		</g>
	</g>
</g>
</svg>
