<svg xmlns="http://www.w3.org/2000/svg" enable-background="new 0 0 24 24" height="24" viewBox="0 0 24 24" width="24"><g><rect fill="none" height="24" width="24"/></g><g><g><path d="M12,4c-4.42,0-8,3.58-8,8s3.58,8,8,8s8-3.58,8-8S16.42,4,12,4z M6,11.5 C6,10.67,6.67,10,7.5,10S9,10.67,9,11.5S8.33,13,7.5,13S6,12.33,6,11.5z M9,17.5c-0.83,0-1.5-0.67-1.5-1.5s0.67-1.5,1.5-1.5 s1.5,0.67,1.5,1.5S9.83,17.5,9,17.5z M10.5,9C9.67,9,9,8.33,9,7.5S9.67,6,10.5,6h3C14.33,6,15,6.67,15,7.5S14.33,9,13.5,9H10.5z M15,17.5c-0.83,0-1.5-0.67-1.5-1.5s0.67-1.5,1.5-1.5s1.5,0.67,1.5,1.5S15.83,17.5,15,17.5z M16.5,13c-0.83,0-1.5-0.67-1.5-1.5 s0.67-1.5,1.5-1.5s1.5,0.67,1.5,1.5S17.33,13,16.5,13z" enable-background="new" opacity=".3"/><path d="M12,2C6.48,2,2,6.48,2,12s4.48,10,10,10s10-4.48,10-10S17.52,2,12,2z M12,20c-4.42,0-8-3.58-8-8s3.58-8,8-8s8,3.58,8,8 S16.42,20,12,20z"/><circle cx="7.5" cy="11.5" r="1.5"/><circle cx="16.5" cy="11.5" r="1.5"/><circle cx="9" cy="16" r="1.5"/><circle cx="15" cy="16" r="1.5"/><path d="M15,7.5C15,6.67,14.33,6,13.5,6h-3C9.67,6,9,6.67,9,7.5S9.67,9,10.5,9h3C14.33,9,15,8.33,15,7.5z"/></g></g></svg>