<svg xmlns="http://www.w3.org/2000/svg" enable-background="new 0 0 24 24" height="24" viewBox="0 0 24 24" width="24"><g><rect fill="none" height="24" width="24"/></g><g><g><g><g><path d="M15,5c-3.86,0-7,3.14-7,7s3.14,7,7,7s7-3.14,7-7S18.86,5,15,5z M19,13h-3v3 h-2v-3h-3v-2h3V8h2v3h3V13z" enable-background="new" opacity=".3"/><polygon points="16,8 14,8 14,11 11,11 11,13 14,13 14,16 16,16 16,13 19,13 19,11 16,11"/><path d="M15,3c-4.96,0-9,4.04-9,9s4.04,9,9,9s9-4.04,9-9S19.96,3,15,3z M15,19c-3.86,0-7-3.14-7-7s3.14-7,7-7s7,3.14,7,7 S18.86,19,15,19z"/><path d="M2,12c0-2.79,1.64-5.2,4.01-6.32V3.52C2.52,4.76,0,8.09,0,12s2.52,7.24,6.01,8.48v-2.16C3.64,17.2,2,14.79,2,12z"/></g></g></g></g></svg>