<svg xmlns="http://www.w3.org/2000/svg" enable-background="new 0 0 24 24" height="24" viewBox="0 0 24 24" width="24"><g><rect fill="none" height="24" width="24"/></g><g><g><g><g><path d="M20,19H4V7h4.05l1.83-2H15V3H9L7.17,5H4C2.9,5,2,5.9,2,7v12c0,1.1,0.9,2,2,2h16c1.1,0,2-0.9,2-2V8h-2V19z"/><path d="M16,1v1.33c2.58,0,4.66,2.09,4.67,4.66H22C21.99,3.68,19.31,1,16,1z"/><path d="M16,3.67V5c1.11,0,1.99,0.89,2,1.99h1.33C19.32,5.15,17.84,3.67,16,3.67z"/><path d="M14.98,9.01c-0.13-0.09-0.26-0.18-0.39-0.26 C14.73,8.83,14.86,8.92,14.98,9.01z" enable-background="new" opacity=".3"/><g><path d="M17,8c0-0.37-0.11-0.71-0.28-1.01c-0.18-0.3-0.43-0.55-0.73-0.72 C15.7,6.1,15.36,6,15,6V5H9.88L8.05,7H4v12h16V9.01V8H17z M12,17.5c-2.48,0-4.5-2.02-4.5-4.5S9.52,8.5,12,8.5s4.5,2.02,4.5,4.5 S14.48,17.5,12,17.5z" enable-background="new" opacity=".3"/><path d="M12,8.5c-2.48,0-4.5,2.02-4.5,4.5s2.02,4.5,4.5,4.5s4.5-2.02,4.5-4.5S14.48,8.5,12,8.5z M12,15.5 c-1.38,0-2.5-1.12-2.5-2.5s1.12-2.5,2.5-2.5s2.5,1.13,2.5,2.5S13.38,15.5,12,15.5z"/></g></g></g></g></g></svg>