<?xml version="1.0" encoding="utf-8"?>
<!-- Generator: Adobe Illustrator 23.0.0, SVG Export Plug-In . SVG Version: 6.00 Build 0)  -->
<svg version="1.1" xmlns="http://www.w3.org/2000/svg" xmlns:xlink="http://www.w3.org/1999/xlink" x="0px" y="0px" width="24px"
	 height="24px" viewBox="0 0 24 24" enable-background="new 0 0 24 24" xml:space="preserve">
<g id="Bounding_Box">
	<rect fill="none" width="24" height="24"/>
	<rect fill="none" width="24" height="24"/>
</g>
<g id="Flat">
	<g id="ui_x5F_spec_x5F_header_copy_3">
	</g>
	<g>
		<path d="M7,8L7,8C6.45,8,6,8.45,6,9v6c0,1.1,0.9,2,2,2h8c0.55,0,1-0.45,1-1v0c0-0.55-0.45-1-1-1H8V9C8,8.45,7.55,8,7,8z"/>
		<path d="M20,3h-8c-1.1,0-2,0.9-2,2v6c0,1.1,0.9,2,2,2h8c1.1,0,2-0.9,2-2V5C22,3.9,21.1,3,20,3z M19.5,11h-7
			c-0.28,0-0.5-0.22-0.5-0.5V7h8v3.5C20,10.78,19.78,11,19.5,11z"/>
		<path d="M3,12L3,12c-0.55,0-1,0.45-1,1v6c0,1.1,0.9,2,2,2h8c0.55,0,1-0.45,1-1v0c0-0.55-0.45-1-1-1H4v-6C4,12.45,3.55,12,3,12z"/>
	</g>
</g>
<g id="Master" display="none">
	<g id="ui_x5F_spec_x5F_header_copy_2" display="inline">
	</g>
	<g display="inline">
		<path d="M7,8L7,8C6.45,8,6,8.45,6,9v6c0,1.1,0.9,2,2,2h8c0.55,0,1-0.45,1-1v0c0-0.55-0.45-1-1-1H8V9C8,8.45,7.55,8,7,8z"/>
		<path d="M20,3h-8c-1.1,0-2,0.9-2,2v6c0,1.1,0.9,2,2,2h8c1.1,0,2-0.9,2-2V5C22,3.9,21.1,3,20,3z M19.5,11h-7
			c-0.28,0-0.5-0.22-0.5-0.5V7h8v3.5C20,10.78,19.78,11,19.5,11z"/>
		<path d="M3,12L3,12c-0.55,0-1,0.45-1,1v6c0,1.1,0.9,2,2,2h8c0.55,0,1-0.45,1-1v0c0-0.55-0.45-1-1-1H4v-6C4,12.45,3.55,12,3,12z"/>
	</g>
</g>
</svg>
