<?xml version="1.0" encoding="utf-8"?>
<!-- Generator: Adobe Illustrator 23.0.0, SVG Export Plug-In . SVG Version: 6.00 Build 0)  -->
<svg version="1.1" xmlns="http://www.w3.org/2000/svg" xmlns:xlink="http://www.w3.org/1999/xlink" x="0px" y="0px" width="24px"
	 height="24px" viewBox="0 0 24 24" enable-background="new 0 0 24 24" xml:space="preserve">
<g id="Bounding_Box">
	<rect fill="none" width="24" height="24"/>
</g>
<g id="Flat">
	<g id="ui_x5F_spec_x5F_header_copy_3">
	</g>
	<g>
		<polygon points="8,8 6,8 6,17 17,17 17,15 8,15 		"/>
		<path d="M22,3H10v10h12V3z M20,11h-8V7h8V11z"/>
		<polygon points="4,12 2,12 2,21 13,21 13,19 4,19 		"/>
	</g>
</g>
<g id="Master" display="none">
	<g id="ui_x5F_spec_x5F_header_copy_2" display="inline">
	</g>
	<g display="inline">
		<polygon points="8,8 6,8 6,17 17,17 17,15 8,15 		"/>
		<path d="M22,3H10v10h12V3z M20,11h-8V7h8V11z"/>
		<polygon points="4,12 2,12 2,21 13,21 13,19 4,19 		"/>
	</g>
</g>
</svg>
