<svg xmlns="http://www.w3.org/2000/svg" enable-background="new 0 0 24 24" height="24" viewBox="0 0 24 24" width="24"><g><rect fill="none" height="24" width="24"/></g><g><path d="M12,2C6.48,2,2,6.48,2,12s4.48,10,10,10c5.52,0,10-4.48,10-10S17.52,2,12,2z M17.5,14h-3.29c-0.45,0-0.67-0.54-0.35-0.85 l0.9-0.9c-0.63-1.05-1.79-1.76-3.12-1.76c-1.73,0-3.17,1.17-3.54,2.74C7.98,13.68,7.58,14,7.12,14h0c-0.65,0-1.12-0.61-0.97-1.24 c0.58-2.44,2.81-4.27,5.48-4.27c1.88,0,3.55,0.92,4.57,2.31l0.95-0.95C17.46,9.54,18,9.76,18,10.21v3.29C18,13.78,17.78,14,17.5,14 z"/></g></svg>