<svg xmlns="http://www.w3.org/2000/svg" enable-background="new 0 0 24 24" height="24" viewBox="0 0 24 24" width="24"><g><rect fill="none" height="24" width="24"/></g><g><path d="M20,4H4C2.9,4,2,4.9,2,6v12c0,1.1,0.9,2,2,2h16c1.1,0,2-0.9,2-2V6C22,4.9,21.1,4,20,4z M20,18H4V6h16V18z M10.11,15.3 L12,13.41l1.89,1.89c0.39,0.39,1.02,0.39,1.41,0l0,0c0.39-0.39,0.39-1.02,0-1.41L13.41,12l1.89-1.89c0.39-0.39,0.39-1.02,0-1.41 l0,0c-0.39-0.39-1.02-0.39-1.41,0L12,10.59L10.11,8.7c-0.39-0.39-1.02-0.39-1.41,0l0,0c-0.39,0.39-0.39,1.02,0,1.41L10.59,12 L8.7,13.89c-0.39,0.39-0.39,1.02,0,1.41l0,0C9.09,15.68,9.73,15.68,10.11,15.3z"/></g></svg>