<?xml version="1.0" encoding="utf-8"?>
<!-- Generator: Adobe Illustrator 23.0.1, SVG Export Plug-In . SVG Version: 6.00 Build 0)  -->
<svg version="1.1" xmlns="http://www.w3.org/2000/svg" xmlns:xlink="http://www.w3.org/1999/xlink" x="0px" y="0px" width="24px"
	 height="24px" viewBox="0 0 24 24" enable-background="new 0 0 24 24" xml:space="preserve">
<g id="Bounding_Box">
	<rect fill="none" width="24" height="24"/>
</g>
<g id="Master">
	<path d="M9,6H8V4.65l1-0.12V6z M9,12H8V7h1V12z M6,7h1v5H6V7z M6,4.88l1-0.12V6H6V4.88z M22,3V2L5,4v8H2c0,3.69,2.47,6.86,6,8.25
		V22h8v-1.75c3.53-1.39,6-4.56,6-8.25H10V7h12V6H10V4.41L22,3z"/>
</g>
</svg>
