<svg xmlns="http://www.w3.org/2000/svg" enable-background="new 0 0 24 24" height="24" viewBox="0 0 24 24" width="24"><g><rect fill="none" height="24" width="24"/></g><g><polygon points="4,6 20,6 20,4 2,4 2,20 7,20 7,18 4,18"/><path d="M13,13.78V12H9v1.78C8.39,14.33,8,15.11,8,16s0.39,1.67,1,2.22V20h4v-1.78c0.61-0.55,1-1.34,1-2.22S13.61,14.33,13,13.78z M11,17.5c-0.83,0-1.5-0.67-1.5-1.5s0.67-1.5,1.5-1.5s1.5,0.67,1.5,1.5S11.83,17.5,11,17.5z"/><path d="M22,9h-7v11h7V9z M20,18h-3v-7h3V18z"/></g></svg>