<svg xmlns="http://www.w3.org/2000/svg" enable-background="new 0 0 24 24" height="24" viewBox="0 0 24 24" width="24"><g><path d="M0,0h24v24H0V0z" fill="none"/></g><g><path d="M20.75,6.99c-0.14-0.55-0.69-0.87-1.24-0.75C17.13,6.77,14.48,7,12,7S6.87,6.77,4.49,6.24c-0.55-0.12-1.1,0.2-1.24,0.75 C3.11,7.55,3.45,8.12,4,8.25C5.61,8.61,7.35,8.86,9,9v12c0,0.55,0.45,1,1,1s1-0.45,1-1v-5h2v5c0,0.55,0.45,1,1,1s1-0.45,1-1V9 c1.65-0.14,3.39-0.39,4.99-0.75C20.55,8.12,20.89,7.55,20.75,6.99z M12,6c1.1,0,2-0.9,2-2s-0.9-2-2-2s-2,0.9-2,2S10.9,6,12,6z"/></g></svg>