<svg xmlns="http://www.w3.org/2000/svg" enable-background="new 0 0 24 24" height="24" viewBox="0 0 24 24" width="24"><g><rect fill="none" height="24" width="24"/></g><g><path d="M11.99,2C6.47,2,2,6.48,2,12s4.47,10,9.99,10C17.52,22,22,17.52,22,12S17.52,2,11.99,2z M8.5,8C9.33,8,10,8.67,10,9.5 S9.33,11,8.5,11S7,10.33,7,9.5S7.67,8,8.5,8z M16.31,17H7.69c-0.38,0-0.63-0.42-0.44-0.75C8.2,14.61,9.97,13.5,12,13.5 s3.8,1.11,4.75,2.75C16.94,16.58,16.7,17,16.31,17z M15.5,11c-0.83,0-1.5-0.67-1.5-1.5S14.67,8,15.5,8S17,8.67,17,9.5 S16.33,11,15.5,11z"/></g></svg>