<svg xmlns="http://www.w3.org/2000/svg" enable-background="new 0 0 24 24" height="24" viewBox="0 0 24 24" width="24"><g><g><rect fill="none" height="24" width="24"/></g></g><g><g><g><rect enable-background="new" height="5" opacity=".3" width="5" x="8" y="11"/><rect enable-background="new" height="5" opacity=".3" width="5" x="15" y="11"/><rect enable-background="new" height="5" opacity=".3" width="12" x="8" y="4"/><path d="M4,6v14h14v2H4c-1.1,0-2-0.9-2-2V6H4z"/><path d="M8,18h12c1.1,0,2-0.9,2-2V4c0-1.1-0.9-2-2-2H8C6.9,2,6,2.9,6,4v12C6,17.1,6.9,18,8,18z M20,9H8V4h12V9z M15,11h5v5h-5V11 z M13,16H8v-5h5V16z"/></g></g></g></svg>