<svg xmlns="http://www.w3.org/2000/svg" enable-background="new 0 0 24 24" height="24" viewBox="0 0 24 24" width="24"><g><path d="M0,0h24v24H0V0z" fill="none"/></g><g><path d="M12.25,9C12.66,9,13,9.34,13,9.75v4.5c0,0.41-0.34,0.75-0.75,0.75s-0.75-0.34-0.75-0.75v-4.5C11.5,9.34,11.84,9,12.25,9z M10,9.75C10,9.34,9.66,9,9.25,9H6c-0.6,0-1,0.5-1,1v4c0,0.5,0.4,1,1,1h3c0.6,0,1-0.5,1-1v-1.25C10,12.34,9.66,12,9.25,12 S8.5,12.34,8.5,12.75v0.75h-2v-3h2.75C9.66,10.5,10,10.16,10,9.75z M19,9.75C19,9.34,18.66,9,18.25,9H15.5c-0.55,0-1,0.45-1,1v4.25 c0,0.41,0.34,0.75,0.75,0.75S16,14.66,16,14.25V13h1.25c0.41,0,0.75-0.34,0.75-0.75s-0.34-0.75-0.75-0.75H16v-1h2.25 C18.66,10.5,19,10.16,19,9.75z"/></g></svg>