<svg xmlns="http://www.w3.org/2000/svg" enable-background="new 0 0 24 24" height="24" viewBox="0 0 24 24" width="24"><g><rect fill="none" height="24" width="24"/></g><g><g><g><circle cx="18" cy="6" r="5"/></g><g><path d="M11,6c0-1.07,0.25-2.09,0.69-3H5C3.9,3,3,3.9,3,5v14c0,0.55,0.23,1.05,0.59,1.41l9.46-9.46C11.79,9.68,11,7.93,11,6z"/></g><g><path d="M14.29,12.66c-1.35,0.3-2.29,1.53-2.29,2.92V21h7c1.1,0,2-0.9,2-2v-6.48c-0.95-0.17-1.95-0.27-3-0.27 C16.68,12.25,15.44,12.4,14.29,12.66z"/></g></g></g></svg>