<?xml version="1.0" encoding="utf-8"?>
<!-- Generator: Adobe Illustrator 23.0.3, SVG Export Plug-In . SVG Version: 6.00 Build 0)  -->
<svg version="1.1" xmlns="http://www.w3.org/2000/svg" xmlns:xlink="http://www.w3.org/1999/xlink" x="0px" y="0px" width="24px"
	 height="24px" viewBox="0 0 24 24" enable-background="new 0 0 24 24" xml:space="preserve">
<g id="Bounding_Box">
	<rect fill="none" width="24" height="24"/>
	<rect fill="none" width="24" height="24"/>
</g>
<g id="Master">
	<g>
		<circle cx="9" cy="8" r="4"/>
		<path d="M9,14c-2.67,0-8,1.34-8,4v1c0,0.55,0.45,1,1,1h14c0.55,0,1-0.45,1-1v-1C17,15.34,11.67,14,9,14z"/>
		<polygon points="20,10 20,7 18,7 18,10 15,10 15,12 18,12 18,15 20,15 20,12 23,12 23,10 		"/>
	</g>
</g>
</svg>
