<?xml version="1.0" encoding="utf-8"?>
<!-- Generator: Adobe Illustrator 23.0.4, SVG Export Plug-In . SVG Version: 6.00 Build 0)  -->
<svg version="1.1" xmlns="http://www.w3.org/2000/svg" xmlns:xlink="http://www.w3.org/1999/xlink" x="0px" y="0px" width="24px"
	 height="24px" viewBox="0 0 24 24" enable-background="new 0 0 24 24" xml:space="preserve">
<g id="Bounding_Box">
	<rect fill="none" width="24" height="24"/>
</g>
<g id="Master">
	<path d="M14,4v5c0,1.12,0.37,2.16,1,3H9c0.65-0.86,1-1.9,1-3V4H14 M17,2H7C6.45,2,6,2.45,6,3c0,0.55,0.45,1,1,1c0,0,0,0,0,0l1,0v5
		c0,1.66-1.34,3-3,3v2h5.97v7l1,1l1-1v-7H19v-2c0,0,0,0,0,0c-1.66,0-3-1.34-3-3V4l1,0c0,0,0,0,0,0c0.55,0,1-0.45,1-1
		C18,2.45,17.55,2,17,2L17,2z"/>
</g>
</svg>
