<svg xmlns="http://www.w3.org/2000/svg" enable-background="new 0 0 24 24" height="24" viewBox="0 0 24 24" width="24"><g><rect fill="none" height="24" width="24" y="0"/></g><g><g><g><g><path d="M20,7v10H4V7H20 M20,5H4C2.9,5,2.01,5.9,2.01,7L2,17c0,1.1,0.9,2,2,2h16c1.1,0,2-0.9,2-2V7C22,5.9,21.1,5,20,5L20,5z"/><rect height="2" width="2" x="11" y="8"/><rect height="2" width="2" x="11" y="11"/><rect height="2" width="2" x="8" y="8"/><rect height="2" width="2" x="8" y="11"/><rect height="2" width="2" x="5" y="11"/><rect height="2" width="2" x="5" y="8"/><rect height="2" width="8" x="8" y="14"/><rect height="2" width="2" x="14" y="11"/><rect height="2" width="2" x="14" y="8"/><rect height="2" width="2" x="17" y="11"/><rect height="2" width="2" x="17" y="8"/></g></g></g></g></svg>