<svg xmlns="http://www.w3.org/2000/svg" enable-background="new 0 0 24 24" height="24" viewBox="0 0 24 24" width="24"><g><g><path d="M0,0h24v24H0V0z" fill="none"/></g></g><g><g><polygon points="18,15.17 18.83,16 19.5,16 19.5,13 18,13"/><path d="M14.5,8.65h1.53c1.05,0,1.97,0.74,1.97,2.05V12h1.5v-1.64c0-1.81-1.6-3.16-3.47-3.16H14.5c-1.02,0-1.85-0.98-1.85-2 s0.83-1.75,1.85-1.75v-1.5c-1.85,0-3.35,1.5-3.35,3.35C11.15,7.15,12.65,8.65,14.5,8.65z"/><polygon points="17,14.17 17,13 15.83,13"/><rect height="3" width="1.5" x="20.5" y="13"/><path d="M18.85,4.73c0.62-0.61,1-1.45,1-2.38h-1.5c0,1.02-0.83,1.85-1.85,1.85v1.5c2.24,0,4,1.83,4,4.07V12H22V9.76 C22,7.54,20.72,5.62,18.85,4.73z"/><polygon points="1.39,4.22 10.17,13 2,13 2,16 13.17,16 19.78,22.61 21.19,21.19 2.81,2.81"/></g></g></svg>