<svg xmlns="http://www.w3.org/2000/svg" enable-background="new 0 0 24 24" height="24" viewBox="0 0 24 24" width="24"><g><rect fill="none" height="24" width="24"/></g><g><g><rect height="4" width="1" x="16" y="10"/><rect height="4" width="1" x="10" y="10"/><path d="M20,4H4C2.9,4,2,4.9,2,6v12c0,1.1,0.9,2,2,2h16c1.1,0,2-0.9,2-2V6C22,4.9,21.1,4,20,4z M7,15c0,0.55-0.45,1-1,1 s-1-0.45-1-1V9c0-0.55,0.45-1,1-1s1,0.45,1,1V15z M13,15c0,0.55-0.45,1-1,1H9c-0.55,0-1-0.45-1-1V9c0-0.55,0.45-1,1-1h3 c0.55,0,1,0.45,1,1V15z M19,15c0,0.55-0.45,1-1,1h-3c-0.55,0-1-0.45-1-1V9c0-0.55,0.45-1,1-1h3c0.55,0,1,0.45,1,1V15z"/></g></g></svg>