<?xml version="1.0" encoding="utf-8"?>
<!-- Generator: Adobe Illustrator 23.0.4, SVG Export Plug-In . SVG Version: 6.00 Build 0)  -->
<svg version="1.1" xmlns="http://www.w3.org/2000/svg" xmlns:xlink="http://www.w3.org/1999/xlink" x="0px" y="0px" width="24px"
	 height="24px" viewBox="0 0 24 24" enable-background="new 0 0 24 24" xml:space="preserve">
<g id="Bounding_Box">
	<rect fill="none" width="24" height="24"/>
</g>
<g id="Master">
	<g>
		<path d="M3,11h8V3H3V11z M5,5h4v4H5V5z"/>
		<path d="M3,21h8v-8H3V21z M5,15h4v4H5V15z"/>
		<path d="M13,3v8h8V3H13z M19,9h-4V5h4V9z"/>
		<rect x="19" y="19" width="2" height="2"/>
		<rect x="13" y="13" width="2" height="2"/>
		<rect x="15" y="15" width="2" height="2"/>
		<rect x="13" y="17" width="2" height="2"/>
		<rect x="15" y="19" width="2" height="2"/>
		<rect x="17" y="17" width="2" height="2"/>
		<rect x="17" y="13" width="2" height="2"/>
		<rect x="19" y="15" width="2" height="2"/>
	</g>
</g>
</svg>
