<svg xmlns="http://www.w3.org/2000/svg" enable-background="new 0 0 24 24" height="24" viewBox="0 0 24 24" width="24"><g><g><rect fill="none" height="24" width="24"/></g></g><g><g><g><g><path d="M5,19h14V5H5V19z M16.5,6C17.33,6,18,6.67,18,7.5S17.33,9,16.5,9 S15,8.33,15,7.5S15.67,6,16.5,6z M16.5,15c0.83,0,1.5,0.67,1.5,1.5S17.33,18,16.5,18S15,17.33,15,16.5S15.67,15,16.5,15z M12,10.5c0.83,0,1.5,0.67,1.5,1.5s-0.67,1.5-1.5,1.5s-1.5-0.67-1.5-1.5S11.17,10.5,12,10.5z M7.5,6C8.33,6,9,6.67,9,7.5 S8.33,9,7.5,9S6,8.33,6,7.5S6.67,6,7.5,6z M7.5,15C8.33,15,9,15.67,9,16.5S8.33,18,7.5,18S6,17.33,6,16.5S6.67,15,7.5,15z" enable-background="new" opacity=".3"/><path d="M19,3H5C3.9,3,3,3.9,3,5v14c0,1.1,0.9,2,2,2h14c1.1,0,2-0.9,2-2V5C21,3.9,20.1,3,19,3z M19,19H5V5h14V19z"/><circle cx="7.5" cy="16.5" r="1.5"/><circle cx="7.5" cy="7.5" r="1.5"/><circle cx="12" cy="12" r="1.5"/><circle cx="16.5" cy="16.5" r="1.5"/><circle cx="16.5" cy="7.5" r="1.5"/></g></g></g></g></svg>