<svg xmlns="http://www.w3.org/2000/svg" enable-background="new 0 0 24 24" height="24" viewBox="0 0 24 24" width="24"><g><rect fill="none" height="24" width="24"/></g><g><path d="M20,6h-2.18C17.93,5.69,18,5.35,18,5c0-1.66-1.34-3-3-3c-1.05,0-1.96,0.54-2.5,1.35L12,4.02l-0.5-0.68 C10.96,2.54,10.05,2,9,2C7.34,2,6,3.34,6,5c0,0.35,0.07,0.69,0.18,1H4C2.89,6,2.01,6.89,2.01,8L2,19c0,1.11,0.89,2,2,2h16 c1.11,0,2-0.89,2-2V8C22,6.89,21.11,6,20,6z M15,4c0.55,0,1,0.45,1,1s-0.45,1-1,1s-1-0.45-1-1S14.45,4,15,4z M9,4 c0.55,0,1,0.45,1,1S9.55,6,9,6S8,5.55,8,5S8.45,4,9,4z M20,19H4v-2h16V19z M20,14H4V8h5.08L7.6,10.02 c-0.33,0.45-0.23,1.08,0.22,1.4c0.44,0.32,1.07,0.22,1.39-0.22L12,7.4l2.79,3.8c0.32,0.44,0.95,0.54,1.39,0.22 c0.45-0.32,0.55-0.95,0.22-1.4L14.92,8H20V14z"/></g></svg>