<svg xmlns="http://www.w3.org/2000/svg" enable-background="new 0 0 24 24" height="24" viewBox="0 0 24 24" width="24"><g><rect fill="none" height="24" width="24"/></g><g><g><path d="M4,12.28C4,16.39,7.61,20,11.72,20c4.64,0,8.28-3.51,8.28-8V4h-8C7.59,4,4,7.71,4,12.28z M17,9v6l-3-2v2H7 V9h7v2L17,9z" opacity=".3"/><path d="M20,2h-8C6.38,2,2,6.66,2,12.28C2,17.5,6.49,22,11.72,22C17.39,22,22,17.62,22,12V4C22,2.9,21.1,2,20,2z M20,12 c0,4.49-3.64,8-8.28,8C7.61,20,4,16.39,4,12.28C4,7.71,7.59,4,12,4h8V12z"/><polygon points="7,9 7,15 14,15 14,13 17,15 17,9 14,11 14,9"/></g></g></svg>