<svg xmlns="http://www.w3.org/2000/svg" enable-background="new 0 0 24 24" height="24" viewBox="0 0 24 24" width="24"><g><rect fill="none" height="24" width="24"/><rect fill="none" height="24" width="24"/></g><g><g><g><g><path d="M12,13.5c-2.33,0-4.31,1.46-5.11,3.5h10.22C16.31,14.96,14.33,13.5,12,13.5z"/><polygon points="7.82,12 8.88,10.94 9.94,12 11,10.94 9.94,9.88 11,8.82 9.94,7.76 8.88,8.82 7.82,7.76 6.76,8.82 7.82,9.88 6.76,10.94"/><path d="M11.99,2C6.47,2,2,6.47,2,12s4.47,10,9.99,10S22,17.53,22,12S17.52,2,11.99,2z M12,20c-4.42,0-8-3.58-8-8s3.58-8,8-8 s8,3.58,8,8S16.42,20,12,20z"/><polygon points="16.18,7.76 15.12,8.82 14.06,7.76 13,8.82 14.06,9.88 13,10.94 14.06,12 15.12,10.94 16.18,12 17.24,10.94 16.18,9.88 17.24,8.82"/></g></g></g></g></svg>