<svg xmlns="http://www.w3.org/2000/svg" enable-background="new 0 0 24 24" height="24" viewBox="0 0 24 24" width="24"><g><rect fill="none" height="24" width="24"/></g><g><g><g><g><path d="M17,12c0-2.76-2.24-5-5-5s-5,2.24-5,5s2.24,5,5,5S17,14.76,17,12z"/><path d="M4,15L4,15c-0.55,0-1,0.45-1,1v3c0,1.1,0.9,2,2,2h3c0.55,0,1-0.45,1-1v0c0-0.55-0.45-1-1-1H5v-3C5,15.45,4.55,15,4,15z"/><path d="M5,5h3c0.55,0,1-0.45,1-1v0c0-0.55-0.45-1-1-1H5C3.9,3,3,3.9,3,5v3c0,0.55,0.45,1,1,1h0c0.55,0,1-0.45,1-1V5z"/><path d="M19,3h-3c-0.55,0-1,0.45-1,1v0c0,0.55,0.45,1,1,1h3v3c0,0.55,0.45,1,1,1h0c0.55,0,1-0.45,1-1V5C21,3.9,20.1,3,19,3z"/><path d="M19,19h-3c-0.55,0-1,0.45-1,1v0c0,0.55,0.45,1,1,1h3c1.1,0,2-0.9,2-2v-3c0-0.55-0.45-1-1-1h0c-0.55,0-1,0.45-1,1V19z"/></g></g></g></g></svg>