<svg xmlns="http://www.w3.org/2000/svg" enable-background="new 0 0 24 24" height="24" viewBox="0 0 24 24" width="24"><g><rect fill="none" height="24" width="24"/></g><g><path d="M12,3C9.02,3,6.03,4.17,3.61,5.79C2.69,6.4,2.43,7.65,3.05,8.57l7.29,10.93c0.79,1.19,2.54,1.19,3.33,0l7.29-10.93 c0.62-0.92,0.36-2.17-0.56-2.79C17.97,4.17,14.98,3,12,3z M8,8.5C8,7.67,8.67,7,9.5,7S11,7.67,11,8.5S10.33,10,9.5,10S8,9.33,8,8.5 z M12,15c-0.83,0-1.5-0.67-1.5-1.5S11.17,12,12,12s1.5,0.67,1.5,1.5S12.83,15,12,15z"/></g></svg>