<svg xmlns="http://www.w3.org/2000/svg" enable-background="new 0 0 24 24" height="24" viewBox="0 0 24 24" width="24"><g><rect fill="none" height="24" width="24"/></g><g><g><path d="M12,5C9.65,5,7.02,5.9,4.71,7.46L12,18.39l7.29-10.94C16.98,5.9,14.35,5,12,5z M8,8.5C8,7.67,8.67,7,9.5,7 S11,7.67,11,8.5S10.33,10,9.5,10S8,9.33,8,8.5z M12,15c-0.83,0-1.5-0.67-1.5-1.5S11.17,12,12,12s1.5,0.67,1.5,1.5S12.83,15,12,15z" opacity=".3"/><path d="M12,3C8.31,3,4.61,4.79,2,7l10,15L22,7C19.39,4.79,15.69,3,12,3z M4.71,7.46C7.02,5.9,9.65,5,12,5s4.98,0.9,7.29,2.46 L12,18.39L4.71,7.46z"/><circle cx="9.5" cy="8.5" r="1.5"/><circle cx="12" cy="13.5" r="1.5"/></g></g></svg>