<svg xmlns="http://www.w3.org/2000/svg" enable-background="new 0 0 24 24" height="24" viewBox="0 0 24 24" width="24"><g><rect fill="none" height="24" width="24" y="0"/></g><g><g><path d="M6,6.39v4.7C6,11.4,6.02,11.7,6.05,12H12V4.14L6,6.39z M12,12v7.92 c3.19-1.04,5.6-4.28,5.95-7.92H12z" enable-background="new" opacity=".3"/><path d="M12,2L4,5v6.09C4,11.4,4.01,11.7,4.04,12c0.38,4.69,3.65,8.92,7.96,10c4.31-1.08,7.58-5.31,7.96-10 c0.02-0.3,0.04-0.6,0.04-0.91V5L12,2z M12,19.92V12H6.05C6.02,11.7,6,11.4,6,11.09v-4.7l6-2.25V12h5.95 C17.6,15.64,15.19,18.88,12,19.92z"/></g></g></svg>