<svg xmlns="http://www.w3.org/2000/svg" enable-background="new 0 0 24 24" height="24" viewBox="0 0 24 24" width="24"><g><rect fill="none" height="24" width="24"/></g><g><g><g><g><path d="M6,20h12V10H6V20z M8,14h3v-3h2v3h3v2h-3v3h-2v-3H8V14z" enable-background="new" opacity=".3"/><g><path d="M18,8h-1V6c0-2.76-2.24-5-5-5S7,3.24,7,6v2H6c-1.1,0-2,0.9-2,2v10c0,1.1,0.9,2,2,2h12c1.1,0,2-0.9,2-2V10 C20,8.9,19.1,8,18,8z M8.9,6c0-1.71,1.39-3.1,3.1-3.1s3.1,1.39,3.1,3.1v2H8.9V6z M18,20H6V10h12V20z"/><polygon points="11,19 13,19 13,16 16,16 16,14 13,14 13,11 11,11 11,14 8,14 8,16 11,16"/></g></g></g></g></g></svg>