<svg xmlns="http://www.w3.org/2000/svg" enable-background="new 0 0 24 24" height="24" viewBox="0 0 24 24" width="24"><g><rect fill="none" height="24" width="24"/><rect fill="none" height="24" width="24"/></g><g><g><polygon enable-background="new" opacity=".3" points="13,11.07 15,9.87 15,4 13,4"/><polygon enable-background="new" opacity=".3" points="9,9.87 11,11.07 11,4 9,4"/><g><path d="M17,9.87V2H7v7.87c0,0.7,0.37,1.35,0.97,1.72l3.52,2.11L10.79,16H7l3.09,2.21L8.91,22L12,19.65L15.09,22l-1.18-3.79 L17,16h-3.79l-0.7-2.31l3.52-2.11C16.63,11.22,17,10.57,17,9.87z M11,11.07l-2-1.2V4h2V11.07z M15,9.87l-2,1.2V4h2V9.87z"/></g></g></g></svg>