<svg xmlns="http://www.w3.org/2000/svg" enable-background="new 0 0 24 24" height="24" viewBox="0 0 24 24" width="24"><g><rect fill="none" height="24" width="24"/></g><g><g><path d="M20,12c0,1.4-0.97,2.57-2.27,2.9l1.53,1.53C20.88,15.61,22,13.94,22,12c0-2.76-2.24-5-5-5h-4v2h4C18.65,9,20,10.35,20,12z"/><polygon points="13.83,11 15.83,13 16,13 16,11"/><path d="M2.81,2.81L1.39,4.22l3.34,3.34C3.12,8.39,2,10.06,2,12c0,2.76,2.24,5,5,5h4v-2H7c-1.65,0-3-1.35-3-3 c0-1.4,0.97-2.57,2.27-2.9l1.9,1.9H8v2h2.17l9.61,9.61l1.41-1.41L2.81,2.81z"/></g></g></svg>