<svg xmlns="http://www.w3.org/2000/svg" enable-background="new 0 0 24 24" height="24" viewBox="0 0 24 24" width="24"><g><rect fill="none" height="24" width="24" y="0"/></g><g><g><path d="M7,21h10v-3H7V21z M12,18.5c0.55,0,1,0.45,1,1s-0.45,1-1,1s-1-0.45-1-1 S11.45,18.5,12,18.5z M7,3v1h10V3H7z" enable-background="new" opacity=".3"/><path d="M17,1H7C5.9,1,5,1.9,5,3v18c0,1.1,0.9,2,2,2h10c1.1,0,2-0.9,2-2V3C19,1.9,18.1,1,17,1z M17,21H7v-3h10V21z M17,16H7V6h10 V16z M17,4H7V3h10V4z M12,20.5c0.55,0,1-0.45,1-1s-0.45-1-1-1s-1,0.45-1,1S11.45,20.5,12,20.5z"/></g></g></svg>