<svg xmlns="http://www.w3.org/2000/svg" enable-background="new 0 0 24 24" height="24" viewBox="0 0 24 24" width="24"><g><rect fill="none" height="24" width="24"/></g><g><path d="M20,2H8C6.9,2,6,2.9,6,4v12c0,1.1,0.9,2,2,2h12c1.1,0,2-0.9,2-2V4C22,2.9,21.1,2,20,2z M20,16H8V4h12V16z M13,15h2 c1.1,0,2-0.9,2-2v-1.5c0-0.83-0.67-1.5-1.5-1.5c0.83,0,1.5-0.67,1.5-1.5V7c0-1.1-0.9-2-2-2h-2c-1.1,0-2,0.9-2,2v1.5 c0,0.83,0.67,1.5,1.5,1.5c-0.83,0-1.5,0.67-1.5,1.5V13C11,14.1,11.9,15,13,15z M13,7h2v2h-2V7z M13,11h2v2h-2V11z M4,6H2v14 c0,1.1,0.9,2,2,2h14v-2H4V6z"/></g></svg>