<svg xmlns="http://www.w3.org/2000/svg" enable-background="new 0 0 24 24" height="24" viewBox="0 0 24 24" width="24"><g><rect fill="none" height="24" width="24"/></g><g><g><path d="M8,16h12V4H8V16z M11,11.5c0-0.83,0.67-1.5,1.5-1.5C11.67,10,11,9.33,11,8.5V7 c0-1.1,0.9-2,2-2h2c1.1,0,2,0.9,2,2v1.5c0,0.83-0.67,1.5-1.5,1.5c0.83,0,1.5,0.67,1.5,1.5V13c0,1.1-0.9,2-2,2h-2c-1.1,0-2-0.9-2-2 V11.5z" enable-background="new" opacity=".3"/><rect enable-background="new" height="2" opacity=".3" width="2" x="13" y="11"/><rect enable-background="new" height="2" opacity=".3" width="2" x="13" y="7"/><path d="M4,22h14v-2H4V6H2v14C2,21.1,2.9,22,4,22z"/><path d="M20,2H8C6.9,2,6,2.9,6,4v12c0,1.1,0.9,2,2,2h12c1.1,0,2-0.9,2-2V4C22,2.9,21.1,2,20,2z M20,16H8V4h12V16z"/><path d="M13,15h2c1.1,0,2-0.9,2-2v-1.5c0-0.83-0.67-1.5-1.5-1.5c0.83,0,1.5-0.67,1.5-1.5V7c0-1.1-0.9-2-2-2h-2c-1.1,0-2,0.9-2,2 v1.5c0,0.83,0.67,1.5,1.5,1.5c-0.83,0-1.5,0.67-1.5,1.5V13C11,14.1,11.9,15,13,15z M13,7h2v2h-2V7z M13,11h2v2h-2V11z"/></g></g></svg>