<?xml version="1.0" encoding="utf-8"?>
<!-- Generator: Adobe Illustrator 23.0.6, SVG Export Plug-In . SVG Version: 6.00 Build 0)  -->
<svg version="1.1" xmlns="http://www.w3.org/2000/svg" xmlns:xlink="http://www.w3.org/1999/xlink" x="0px" y="0px" width="24px"
	 height="24px" viewBox="0 0 24 24" enable-background="new 0 0 24 24" xml:space="preserve">
<g id="Bounding_Box">
	<rect fill="none" width="24" height="24"/>
</g>
<g id="Master">
	<g>
		<polygon points="18,16 16,16 16,15 8,15 8,16 6,16 6,15 2,15 2,20 22,20 22,15 18,15 		"/>
		<path d="M20,8h-3V6c0-1.1-0.9-2-2-2H9C7.9,4,7,4.9,7,6v2H4c-1.1,0-2,0.9-2,2v4h4v-2h2v2h8v-2h2v2h4v-4C22,8.9,21.1,8,20,8z M15,8
			H9V6h6V8z"/>
	</g>
</g>
</svg>
