<svg xmlns="http://www.w3.org/2000/svg" enable-background="new 0 0 24 24" height="24" viewBox="0 0 24 24" width="24"><g><path d="M0,0h24v24H0V0z" fill="none"/></g><g><g><path d="M20,13H4c-0.55,0-1,0.45-1,1v7c0,0.55,0.45,1,1,1h16c0.55,0,1-0.45,1-1v-7C21,13.45,20.55,13,20,13z M7.5,19 C6.67,19,6,18.33,6,17.5S6.67,16,7.5,16S9,16.67,9,17.5S8.33,19,7.5,19z"/><path d="M20,3H4C3.45,3,3,3.45,3,4v7c0,0.55,0.45,1,1,1h16c0.55,0,1-0.45,1-1V4C21,3.45,20.55,3,20,3z M7.5,9C6.67,9,6,8.33,6,7.5 S6.67,6,7.5,6S9,6.67,9,7.5S8.33,9,7.5,9z"/></g></g></svg>