<?xml version="1.0" encoding="utf-8"?>
<!-- Generator: Adobe Illustrator 23.0.2, SVG Export Plug-In . SVG Version: 6.00 Build 0)  -->
<svg version="1.1" xmlns="http://www.w3.org/2000/svg" xmlns:xlink="http://www.w3.org/1999/xlink" x="0px" y="0px" width="24px"
	 height="24px" viewBox="0 0 24 24" enable-background="new 0 0 24 24" xml:space="preserve">
<g id="Bounding_Box">
	<rect fill="none" width="24" height="24"/>
</g>
<g id="Master">
	<g>
		<polygon opacity="0.3" points="8,7.5 12,11.5 16,7.5 16,4 8,4 		"/>
		<polygon opacity="0.3" points="8,7.5 12,11.5 16,7.5 16,4 8,4 		"/>
		<path d="M18,2H6v6l4,4l-3.99,4.01L6,22h12l-0.01-5.99L14,12l4-3.99V2z M16,16.5V20H8v-3.5l4-4L16,16.5z M16,7.5l-4,4l-4-4V4h8V7.5
			z"/>
	</g>
</g>
</svg>
