<svg xmlns="http://www.w3.org/2000/svg" enable-background="new 0 0 24 24" height="24" viewBox="0 0 24 24" width="24"><g><rect fill="none" height="24" width="24"/></g><g><path d="M4,6.83V8h1.17L4,6.83z M10,12.83V14h1.17L10,12.83z M4,20h4v-4H4V20z M16,4v4h4V4H16z M16,20h1.17L16,18.83 V20z M4,10v4h4v-3.17L7.17,10H4z M10,16v4h4v-3.17L13.17,16H10z M16,13.17L16.83,14H20v-4h-4V13.17z M10,7.17L10.83,8H14V4h-4V7.17 z M20,17.17V16h-1.17L20,17.17z M14,11.17V10h-1.17L14,11.17z M8,5.17V4H6.83L8,5.17z" opacity=".3"/><path d="M20,2H4.83l2,2H8v1.17l2,2V4h4v4h-3.17l2,2H14v1.17l2,2V10h4v4h-3.17l2,2H20v1.17l2,2V4C22,2.9,21.1,2,20,2z M20,8h-4V4h4 V8z M0.69,3.51L2,4.83V20c0,1.1,0.9,2,2,2h15.17l1.31,1.31l1.41-1.41L2.1,2.1L0.69,3.51z M16,18.83L17.17,20H16V18.83z M10,12.83 L11.17,14H10V12.83z M10,16h3.17L14,16.83V20h-4V16z M4,6.83L5.17,8H4V6.83z M4,10h3.17L8,10.83V14H4V10z M4,16h4v4H4V16z"/></g></svg>