<svg xmlns="http://www.w3.org/2000/svg" enable-background="new 0 0 24 24" height="24" viewBox="0 0 24 24" width="24"><g><rect fill="none" height="24" width="24"/></g><g><g><path d="M12,7V4c0-0.55-0.45-1-1-1H3C2.45,3,2,3.45,2,4v16c0,0.55,0.45,1,1,1h18c0.55,0,1-0.45,1-1V8c0-0.55-0.45-1-1-1H12z M6,19 H4v-2h2V19z M6,15H4v-2h2V15z M6,11H4V9h2V11z M6,7H4V5h2V7z M10,19H8v-2h2V19z M10,15H8v-2h2V15z M10,11H8V9h2V11z M10,7H8V5h2V7 z M20,19h-8v-2h2v-2h-2v-2h2v-2h-2V9h8V19z M18,11h-2v2h2V11z M18,15h-2v2h2V15z"/></g></g></svg>