<svg xmlns="http://www.w3.org/2000/svg" enable-background="new 0 0 24 24" height="24" viewBox="0 0 24 24" width="24"><g><path d="M0,0h24v24H0V0z" fill="none"/></g><g><g><path d="M12,6c3.86,0,7,3.14,7,7c0,0.94-0.19,1.83-0.52,2.65l1.5,1.5C20.63,15.91,21,14.5,21,13c0-4.97-4.03-9-9-9 c-1.5,0-2.91,0.37-4.15,1.02l1.5,1.5C10.17,6.19,11.06,6,12,6z"/><rect height="6" transform="matrix(0.7071 -0.7071 0.7071 0.7071 2.1508 15.5355)" width="2" x="18.83" y="2.17"/><path d="M0.69,3.51l1.86,1.86L1.34,6.59L2.76,8l1.21-1.21l0.83,0.83C3.67,9.12,3,10.98,3,13c0,4.97,4.03,9,9,9 c2.02,0,3.88-0.67,5.38-1.79l3.11,3.11l1.41-1.41L2.1,2.1L0.69,3.51z M6.22,9.05l9.72,9.72C14.82,19.55,13.46,20,12,20 c-3.86,0-7-3.14-7-7C5,11.54,5.45,10.18,6.22,9.05z"/></g></g></svg>