<svg xmlns="http://www.w3.org/2000/svg" enable-background="new 0 0 24 24" height="24" viewBox="0 0 24 24" width="24"><g><rect fill="none" height="24" width="24"/></g><g><g><circle cx="12" cy="12" r="2"/><path d="M19,3H5C3.89,3,3,3.9,3,5v14c0,1.1,0.89,2,2,2h14c1.11,0,2-0.9,2-2V5C21,3.9,20.11,3,19,3z M15.75,12 c0,0.22-0.03,0.42-0.06,0.63l1.14,1l-1,1.73l-1.45-0.49c-0.32,0.27-0.68,0.48-1.08,0.63L13,17h-2l-0.3-1.49 c-0.4-0.15-0.76-0.36-1.08-0.63l-1.45,0.49l-1-1.73l1.14-1C8.28,12.42,8.25,12.22,8.25,12s0.03-0.42,0.06-0.63l-1.14-1l1-1.73 l1.45,0.49c0.32-0.27,0.68-0.48,1.08-0.63L11,7h2l0.3,1.49c0.4,0.15,0.76,0.36,1.08,0.63l1.45-0.49l1,1.73l-1.14,1 C15.72,11.58,15.75,11.78,15.75,12z"/></g></g></svg>