<svg xmlns="http://www.w3.org/2000/svg" enable-background="new 0 0 24 24" height="24" viewBox="0 0 24 24" width="24"><g><path d="M0,0h24v24H0V0z" fill="none"/></g><g><path d="M9.01,14H3c-0.55,0-1,0.45-1,1s0.45,1,1,1h6.01v1.79c0,0.45,0.54,0.67,0.85,0.35l2.78-2.79c0.19-0.2,0.19-0.51,0-0.71 l-2.78-2.79c-0.31-0.32-0.85-0.09-0.85,0.35V14z M14.99,11.79V10H21c0.55,0,1-0.45,1-1s-0.45-1-1-1h-6.01V6.21 c0-0.45-0.54-0.67-0.85-0.35l-2.78,2.79c-0.19,0.2-0.19,0.51,0,0.71l2.78,2.79C14.45,12.46,14.99,12.24,14.99,11.79z"/></g></svg>