<svg xmlns="http://www.w3.org/2000/svg" enable-background="new 0 0 24 24" height="24" viewBox="0 0 24 24" width="24"><g><rect fill="none" height="24" width="24"/></g><g><path d="M19,11c0-3.87-3.13-7-7-7C8.78,4,6.07,6.18,5.26,9.15C2.82,9.71,1,11.89,1,14.5C1,17.54,3.46,20,6.5,20h12l0,0 c2.49-0.01,4.5-2.03,4.5-4.52C23,13.15,21.25,11.26,19,11z M18.5,18h-12C4.57,18,3,16.43,3,14.5S4.57,11,6.5,11C7,11,7,11,7,11 c0-2.76,2.24-5,5-5s5,2.24,5,5v2c0,0,1.33,0,1.5,0c1.38,0,2.5,1.12,2.5,2.5C21,16.88,19.88,18,18.5,18z M8,13l1.41,1.41L11,12.83 V17h2v-4.17l1.59,1.59L16,13l-4-4L8,13z"/></g></svg>