<svg xmlns="http://www.w3.org/2000/svg" enable-background="new 0 0 24 24" height="24" viewBox="0 0 24 24" width="24"><g><rect fill="none" height="24" width="24"/></g><g><g><path d="M10.94,8.16c0.8-0.22,1.38-0.21,2.13,0L13.73,7C14.5,5.67,13.54,4,12,4c-1.53,0-2.51,1.66-1.73,3 L10.94,8.16z" opacity=".3"/><path d="M8.53,8L8.53,8C7.76,6.66,5.84,6.66,5.06,8c-0.77,1.33,0.19,3,1.73,3h1.35c0.18-0.71,0.55-1.35,1.06-1.85 L8.53,8C8.53,8,8.53,8,8.53,8z" opacity=".3"/><path d="M6.8,13c-1.54,0-2.51,1.66-1.73,3c0.77,1.33,2.69,1.34,3.47,0l0-0.01c0,0,0,0,0,0l0.66-1.15 c-0.51-0.5-0.87-1.14-1.06-1.85H6.8z" opacity=".3"/><path d="M17.2,13h-1.35c-0.18,0.71-0.55,1.35-1.06,1.85l0.66,1.15c0,0,0,0,0,0l0,0.01c0.77,1.33,2.69,1.34,3.47,0 C19.71,14.67,18.75,13,17.2,13z" opacity=".3"/><path d="M15.47,8L15.47,8C15.47,8,15.47,8,15.47,8L14.8,9.15c0.51,0.5,0.87,1.14,1.06,1.85h1.35 c1.54,0,2.51-1.66,1.73-3C18.17,6.67,16.24,6.66,15.47,8z" opacity=".3"/><path d="M13.06,15.84C13.06,15.84,13.06,15.84,13.06,15.84c-0.74,0.21-1.32,0.22-2.13,0c0,0,0,0,0,0L10.27,17 c-0.77,1.33,0.19,3,1.73,3c1.53,0,2.51-1.66,1.73-3L13.06,15.84z" opacity=".3"/><path d="M19.84,12c2.27-2.01,1.08-4.57,0.82-5.01c-0.26-0.44-1.88-2.74-4.75-1.78C15.31,2.25,12.51,2,12,2S8.69,2.25,8.08,5.21 C5.21,4.25,3.59,6.55,3.33,6.99c-0.25,0.44-1.44,3,0.82,5.01c-2.27,2.01-1.08,4.57-0.82,5.01c0.26,0.44,1.88,2.74,4.75,1.78 C8.69,21.75,11.49,22,12,22c0.51,0,3.31-0.25,3.92-3.21c2.87,0.96,4.49-1.34,4.75-1.78C20.92,16.57,22.11,14.01,19.84,12z M8.54,15.99C8.53,16,8.53,16,8.54,15.99L8.54,15.99c-0.78,1.35-2.7,1.34-3.47,0.01c-0.77-1.34,0.2-3,1.73-3h1.35 c0.18,0.71,0.55,1.35,1.06,1.85L8.54,15.99z M8.14,11H6.8c-1.55,0-2.5-1.67-1.73-3c0.77-1.34,2.7-1.33,3.47,0l0,0.01c0,0,0,0,0,0 L9.2,9.15C8.69,9.65,8.33,10.29,8.14,11z M12,4c1.54,0,2.5,1.67,1.73,3l-0.67,1.16c-0.75-0.21-1.32-0.22-2.13,0L10.27,7 C9.49,5.66,10.47,4,12,4z M14,12c0,1.1-0.9,2-2,2s-2-0.9-2-2s0.9-2,2-2S14,10.9,14,12z M12,20c-1.55,0-2.5-1.67-1.73-3l0.67-1.16 c0,0,0,0,0,0c0.81,0.22,1.39,0.21,2.13,0c0,0,0,0,0,0L13.73,17C14.51,18.34,13.53,20,12,20z M18.94,16c-0.77,1.34-2.7,1.33-3.47,0 l0-0.01c0,0,0,0,0,0l-0.66-1.15c0.51-0.5,0.87-1.14,1.06-1.85h1.35C18.75,13,19.71,14.67,18.94,16z M17.2,11h-1.35 c-0.18-0.71-0.55-1.35-1.06-1.85l0.66-1.15c0,0,0,0,0,0l0-0.01c0.77-1.34,2.7-1.33,3.47,0C19.71,9.34,18.74,11,17.2,11z"/></g></g></svg>