<svg xmlns="http://www.w3.org/2000/svg" enable-background="new 0 0 24 24" height="24" viewBox="0 0 24 24" width="24"><g><rect fill="none" height="24" width="24"/></g><g><path d="M9,6c1.1,0,2,0.9,2,2c0,0.05-0.02,0.1-0.02,0.15l1.61,1.61C12.85,9.23,13,8.63,13,8c0-2.21-1.79-4-4-4 C8.37,4,7.77,4.15,7.24,4.41l1.61,1.61C8.9,6.02,8.95,6,9,6z"/><path d="M1.39,4.22l3.62,3.62C5.01,7.9,5,7.95,5,8c0,2.21,1.79,4,4,4c0.05,0,0.1-0.01,0.16-0.02l1.08,1.08C9.83,13.03,9.42,13,9,13 c-2.53,0-4.71,0.7-6.39,1.56C1.61,15.07,1,16.1,1,17.22V20l16.17,0l2.61,2.61l1.41-1.41L2.81,2.81L1.39,4.22z M15,17.83V18H3v-0.78 c0-0.38,0.2-0.72,0.52-0.88C4.71,15.73,6.63,15,9,15c1.46,0,2.75,0.28,3.8,0.63L15,17.83z"/><polygon points="20,9 20,6 18,6 18,9 15,9 15,11 18,11 18,14 20,14 20,11 23,11 23,9"/><path d="M12.8,15.63C11.75,15.28,10.46,15,9,15c-2.37,0-4.29,0.73-5.48,1.34 C3.2,16.5,3,16.84,3,17.22V18h12v-0.17L12.8,15.63z M11,8c0-1.1-0.9-2-2-2C8.95,6,8.9,6.01,8.84,6.02l2.14,2.14 C10.99,8.1,11,8.05,11,8z" enable-background="new" opacity=".3"/></g></svg>