<svg xmlns="http://www.w3.org/2000/svg" enable-background="new 0 0 24 24" height="24" viewBox="0 0 24 24" width="24"><rect fill="none" height="24" width="24" y="0"/><path d="M11,4c0-0.55,0.45-1,1-1s1,0.45,1,1v6c0,0.55-0.45,1-1,1s-1-0.45-1-1V4z" opacity=".3"/><path d="M12,13c1.66,0,3-1.34,3-3V4c0-1.66-1.34-3-3-3S9,2.34,9,4v6C9,11.66,10.34,13,12,13z M11,4c0-0.55,0.45-1,1-1s1,0.45,1,1v6 c0,0.55-0.45,1-1,1s-1-0.45-1-1V4z M17,10c0,2.76-2.24,5-5,5s-5-2.24-5-5H5c0,3.53,2.61,6.43,6,6.92V20h2v-3.08 c3.39-0.49,6-3.39,6-6.92H17z M7,22h2v2H7V22z M11,22h2v2h-2V22z M15,22h2v2h-2V22z"/></svg>