<svg xmlns="http://www.w3.org/2000/svg" enable-background="new 0 0 24 24" height="24" viewBox="0 0 24 24" width="24"><g><rect fill="none" height="24" width="24"/></g><g><g><path d="M17,2.01L7,2C5.9,2,5,2.9,5,4v13h2V4l0,0h10l0,0v13h2V4C19,2.9,18.1,2.01,17,2.01z"/><polygon points="8.44,16.91 9.53,18 5,18 5,20 9.53,20 8.44,21.09 9.85,22.5 13.35,19 9.85,15.5"/><path d="M7,4v13l0,0l2.85-2.91L12.76,17H17l0,0V4H7z M12,10c-1.1,0-2-0.9-2-2 c0-1.1,0.9-2,2-2s2,0.9,2,2C14,9.1,13.1,10,12,10z" enable-background="new" opacity=".3"/><circle cx="12" cy="8" r="2"/><rect height="2" width="5" x="14" y="18"/></g></g></svg>