<svg xmlns="http://www.w3.org/2000/svg" enable-background="new 0 0 24 24" height="24" viewBox="0 0 24 24" width="24"><g><g><rect fill="none" height="24" width="24"/></g></g><g><path d="M21.9,7.89l-1.08-3.48C20.56,3.57,19.79,3,18.91,3H5.11C4.24,3,3.47,3.57,3.2,4.4L2.1,7.89C1.64,9.86,2.95,11,3,11.06V21 h18v-9.94C22.12,9.94,22.09,8.65,21.9,7.89z M13,5h1.96l0.54,3.52C15.59,9.23,15.11,10,14.22,10C13.55,10,13,9.41,13,8.69V5z M6.44,8.86C6.36,9.51,5.84,10,5.23,10C4.3,10,3.88,9.03,4.04,8.36L5.05,5h1.97L6.44,8.86z M11,8.69C11,9.41,10.45,10,9.71,10 c-0.75,0-1.3-0.7-1.22-1.48L9.04,5H11V8.69z M18.77,10c-0.61,0-1.14-0.49-1.21-1.14L16.98,5l1.93-0.01l1.05,3.37 C20.12,9.03,19.71,10,18.77,10z"/></g></svg>