<svg xmlns="http://www.w3.org/2000/svg" enable-background="new 0 0 24 24" height="24" viewBox="0 0 24 24" width="24"><g><rect fill="none" height="24" width="24"/></g><g><g><g><g><path d="M12,10c-1.1,0-2,0.9-2,2s0.9,2,2,2s2-0.9,2-2S13.1,10,12,10z" enable-background="new" opacity=".3"/><path d="M3,19c0,1.1,0.9,2,2,2h4v-2H5v-4H3V19z"/><path d="M3,5v4h2V5h4V3H5C3.9,3,3,3.9,3,5z"/><path d="M12,8c-2.21,0-4,1.79-4,4s1.79,4,4,4s4-1.79,4-4S14.21,8,12,8z M12,14c-1.1,0-2-0.9-2-2s0.9-2,2-2s2,0.9,2,2 S13.1,14,12,14z"/><path d="M21,5c0-1.1-0.9-2-2-2h-4v2h4v4h2V5z"/><path d="M19,19h-4v2h4c1.1,0,2-0.9,2-2v-4h-2V19z"/></g></g></g></g></svg>