<svg xmlns="http://www.w3.org/2000/svg" enable-background="new 0 0 24 24" height="24" viewBox="0 0 24 24" width="24"><g><rect fill="none" height="24" width="24"/></g><g><path d="M4,14h5c0.55,0,1-0.45,1-1v0c0-0.55-0.45-1-1-1H4c-0.55,0-1,0.45-1,1v0C3,13.55,3.45,14,4,14z M15.04,17L15,16.92 c1.06-1.06,3.13-3.13,3.66-3.64c1.46-1.46,2.16-2.9,2.16-4.3C20.82,6.85,19.15,5,16.4,5c-1.95,0-3.18,1-3.83,2 c-0.35,0.53-0.13,1.23,0.45,1.47l0.16,0.07c0.46,0.19,0.96,0,1.23-0.42c0.32-0.5,0.91-1.04,1.95-1.04c1.86,0,2.22,1.45,2.22,1.94 c0,0.74-0.04,1.28-1.46,2.8c-0.45,0.49-1.4,1.48-4.59,4.67c-0.28,0.28-0.43,0.65-0.43,1.04v0c0,0.81,0.66,1.47,1.47,1.47H20 c0.55,0,1-0.45,1-1v0c0-0.55-0.45-1-1-1H15.04z"/></g></svg>