<svg xmlns="http://www.w3.org/2000/svg" enable-background="new 0 0 24 24" height="24" viewBox="0 0 24 24" width="24"><g><rect fill="none" height="24" width="24"/></g><g><g><g><path d="M5,5v14h14V7.83L16.17,5H5z M12,18c-1.66,0-3-1.34-3-3s1.34-3,3-3s3,1.34,3,3 S13.66,18,12,18z M15,10H6V6h9V10z" enable-background="new" opacity=".3"/><path d="M17,3H5C3.89,3,3,3.9,3,5v14c0,1.1,0.89,2,2,2h14c1.1,0,2-0.9,2-2V7L17,3z M19,19H5V5h11.17L19,7.83V19z"/><path d="M12,12c-1.66,0-3,1.34-3,3s1.34,3,3,3s3-1.34,3-3S13.66,12,12,12z"/><rect height="4" width="9" x="6" y="6"/></g></g></g></svg>