<svg xmlns="http://www.w3.org/2000/svg" enable-background="new 0 0 24 24" height="24" viewBox="0 0 24 24" width="24"><g><rect fill="none" height="24" width="24"/></g><g><g><rect height="5" width="1" x="16" y="3"/><polygon points="15,5 13,5 13,4 15,4 15,3 12,3 12,6 14,6 14,7 12,7 12,8 15,8"/><path d="M18,3v5h1V6h2V3H18z M20,5h-1V4h1V5z"/><path d="M21,15l-5-1l-2.9,2.9c-2.5-1.43-4.57-3.5-6-6L10,8L9,3L3,3c0,3.28,0.89,6.35,2.43,9c1.58,2.73,3.85,4.99,6.57,6.57 c2.65,1.53,5.72,2.43,9,2.43L21,15z"/></g></g></svg>