<?xml version="1.0" encoding="utf-8"?>
<!-- Generator: Adobe Illustrator 23.0.0, SVG Export Plug-In . SVG Version: 6.00 Build 0)  -->
<svg version="1.1" xmlns="http://www.w3.org/2000/svg" xmlns:xlink="http://www.w3.org/1999/xlink" x="0px" y="0px" width="24px"
	 height="24px" viewBox="0 0 24 24" enable-background="new 0 0 24 24" xml:space="preserve">
<g id="Bounding_Box">
	<rect fill="none" width="24" height="24"/>
	<rect fill="none" width="24" height="24"/>
</g>
<g id="Flat">
	<g id="ui_x5F_spec_x5F_header_copy_2">
	</g>
	<g>
		<path d="M16,4H8C7.45,4,7,4.45,7,5v13c0,0.55,0.45,1,1,1h8c0.55,0,1-0.45,1-1V5C17,4.45,16.55,4,16,4z"/>
		<path d="M4,6C3.45,6,3,6.45,3,7v9c0,0.55,0.45,1,1,1s1-0.45,1-1V7C5,6.45,4.55,6,4,6z"/>
		<path d="M20,6c-0.55,0-1,0.45-1,1v9c0,0.55,0.45,1,1,1s1-0.45,1-1V7C21,6.45,20.55,6,20,6z"/>
	</g>
</g>
</svg>
