<svg xmlns="http://www.w3.org/2000/svg" enable-background="new 0 0 24 24" height="24" viewBox="0 0 24 24" width="24"><g><rect fill="none" height="24" width="24" y="0"/></g><g><g><g><circle cx="17.5" cy="17.5" enable-background="new" opacity=".3" r="2.5"/><rect enable-background="new" height="4" opacity=".3" width="4" x="5" y="15.5"/><polygon enable-background="new" opacity=".3" points="12,5.84 10.07,9 13.93,9"/><path d="M12,2l-5.5,9h11L12,2z M12,5.84L13.93,9h-3.87L12,5.84z"/><path d="M17.5,13c-2.49,0-4.5,2.01-4.5,4.5s2.01,4.5,4.5,4.5s4.5-2.01,4.5-4.5S19.99,13,17.5,13z M17.5,20 c-1.38,0-2.5-1.12-2.5-2.5s1.12-2.5,2.5-2.5s2.5,1.12,2.5,2.5S18.88,20,17.5,20z"/><path d="M11,13.5H3v8h8V13.5z M9,19.5H5v-4h4V19.5z"/></g></g></g></svg>