<?xml version="1.0" encoding="utf-8"?>
<!-- Generator: Adobe Illustrator 23.0.3, SVG Export Plug-In . SVG Version: 6.00 Build 0)  -->
<svg version="1.1" xmlns="http://www.w3.org/2000/svg" xmlns:xlink="http://www.w3.org/1999/xlink" x="0px" y="0px" width="24px"
	 height="24px" viewBox="0 0 24 24" enable-background="new 0 0 24 24" xml:space="preserve">
<g id="Bounding_Box">
	<rect fill="none" width="24" height="24"/>
	<rect fill="none" width="24" height="24"/>
</g>
<g id="Master">
	<path d="M12,2C6.48,2,2,6.48,2,12c0,5.52,4.48,10,10,10s10-4.48,10-10C22,6.48,17.52,2,12,2z M18,13.97h-5l2.26-2.26
		c-0.91-1.06-2.25-1.74-3.76-1.74c-2.37,0-4.35,1.66-4.86,3.88l-0.96-0.32c0.64-2.62,3-4.56,5.82-4.56c1.78,0,3.37,0.79,4.47,2.03
		L18,8.97V13.97z"/>
</g>
</svg>
