<svg xmlns="http://www.w3.org/2000/svg" enable-background="new 0 0 24 24" height="24" viewBox="0 0 24 24" width="24"><g><rect fill="none" height="24" width="24" y="0"/></g><g><g><g><path d="M11.88,11.88c0-3,2.5-5.5,5.5-5.5c2.57,0,4.77,1.83,5.35,4.25c0.15,0.64-0.32,1.25-0.97,1.25L11.88,11.88z M11.88,11.88 c0,3-2.5,5.5-5.5,5.5c-2.57,0-4.77-1.83-5.35-4.25C0.87,12.5,1.34,11.88,2,11.88L11.88,11.88z M11.88,11.88c-3,0-5.5-2.5-5.5-5.5 c0-2.57,1.83-4.77,4.25-5.35c0.64-0.15,1.25,0.32,1.25,0.97L11.88,11.88z M11.88,11.88c3,0,5.5,2.5,5.5,5.5 c0,2.57-1.83,4.77-4.25,5.35c-0.64,0.15-1.25-0.32-1.25-0.97L11.88,11.88z"/></g></g></g></svg>