<?xml version="1.0" encoding="utf-8"?>
<!-- Generator: Adobe Illustrator 23.0.1, SVG Export Plug-In . SVG Version: 6.00 Build 0)  -->
<svg version="1.1" xmlns="http://www.w3.org/2000/svg" xmlns:xlink="http://www.w3.org/1999/xlink" x="0px" y="0px" width="24px"
	 height="24px" viewBox="0 0 24 24" enable-background="new 0 0 24 24" xml:space="preserve">
<g id="Bounding_Box">
	<rect fill="none" width="24" height="24"/>
</g>
<g id="Master">
	<path d="M17,11V3H7v4H3v14h8v-4h2v4h8V11H17z M7,19H5v-2h2V19z M7,15H5v-2h2V15z M7,11H5V9h2V11z M11,15H9v-2h2V15z M11,11H9V9h2
		V11z M11,7H9V5h2V7z M15,15h-2v-2h2V15z M15,11h-2V9h2V11z M15,7h-2V5h2V7z M19,19h-2v-2h2V19z M19,15h-2v-2h2V15z"/>
</g>
</svg>
