<svg xmlns="http://www.w3.org/2000/svg" enable-background="new 0 0 24 24" height="24" viewBox="0 0 24 24" width="24"><g><rect fill="none" height="24" width="24" y="0"/></g><g><g><path d="M12,5c0.83,0,1.5-0.64,1.5-1.43c0-0.64-0.67-1.57-1.11-2.12c-0.2-0.25-0.57-0.25-0.77,0C11.17,2,10.5,2.94,10.5,3.57 C10.5,4.36,11.17,5,12,5z"/><path d="M17,5c0.83,0,1.5-0.64,1.5-1.43c0-0.64-0.67-1.57-1.11-2.12c-0.2-0.25-0.57-0.25-0.77,0C16.17,2,15.5,2.94,15.5,3.57 C15.5,4.36,16.17,5,17,5z"/><path d="M7,5c0.83,0,1.5-0.67,1.5-1.5c0-0.67-0.68-1.57-1.12-2.09c-0.2-0.23-0.55-0.23-0.75,0C6.18,1.93,5.5,2.83,5.5,3.5 C5.5,4.33,6.17,5,7,5z"/><path d="M18.92,8.01C18.72,7.42,18.16,7,17.5,7h-11C5.84,7,5.29,7.42,5.08,8.01L3,14v7.5C3,22.32,3.67,23,4.5,23S6,22.32,6,21.5 V21h12v0.5c0,0.82,0.67,1.5,1.5,1.5s1.5-0.68,1.5-1.5V14L18.92,8.01z M7.5,18C6.67,18,6,17.33,6,16.5S6.67,15,7.5,15 S9,15.67,9,16.5S8.33,18,7.5,18z M16.5,18c-0.83,0-1.5-0.67-1.5-1.5s0.67-1.5,1.5-1.5s1.5,0.67,1.5,1.5S17.33,18,16.5,18z M5.81,12l1.04-3h10.29l1.04,3H5.81z"/></g></g></svg>