<svg xmlns="http://www.w3.org/2000/svg" enable-background="new 0 0 24 24" height="24" viewBox="0 0 24 24" width="24"><g><rect fill="none" height="24" width="24" y="0"/></g><g><g><path d="M12,5c0.83,0,1.5-0.64,1.5-1.43C13.5,2.62,12,1,12,1s-1.5,1.62-1.5,2.57C10.5,4.36,11.17,5,12,5z"/><path d="M17,5c0.83,0,1.5-0.64,1.5-1.43C18.5,2.62,17,1,17,1s-1.5,1.62-1.5,2.57C15.5,4.36,16.17,5,17,5z"/><path d="M7,5c0.83,0,1.5-0.67,1.5-1.5C8.5,2.5,7,1,7,1S5.5,2.5,5.5,3.5C5.5,4.33,6.17,5,7,5z"/><path d="M18.57,7H5.43L3,14v9h3v-2h12v2h3v-9L18.57,7z M7.5,18C6.67,18,6,17.33,6,16.5S6.67,15,7.5,15S9,15.67,9,16.5 S8.33,18,7.5,18z M16.5,18c-0.83,0-1.5-0.67-1.5-1.5s0.67-1.5,1.5-1.5s1.5,0.67,1.5,1.5S17.33,18,16.5,18z M5.81,12l1.04-3h10.29 l1.04,3H5.81z"/></g></g></svg>