<svg xmlns="http://www.w3.org/2000/svg" enable-background="new 0 0 24 24" height="24" viewBox="0 0 24 24" width="24"><g><rect fill="none" height="24" width="24"/></g><g><g><path d="M18,10.48V6c0-1.1-0.9-2-2-2H4C2.9,4,2,4.9,2,6v12c0,1.1,0.9,2,2,2h12c1.1,0,2-0.9,2-2v-4.48l4,3.98v-11L18,10.48z M16,9.69V18H4V6h12V9.69z M15.79,11.79L16,12l-0.21,0.21L15.5,12.5l-3,3l-1.41-1.41L12.17,13H7.83l1.09,1.09L7.5,15.5l-3-3 l-0.29-0.29L4,12l0.21-0.21L4.5,11.5l3-3l1.41,1.41L7.83,11h4.34l-1.09-1.09L12.5,8.5l3,3L15.79,11.79z"/></g></g></svg>