<svg xmlns="http://www.w3.org/2000/svg" enable-background="new 0 0 24 24" height="24" viewBox="0 0 24 24" width="24"><g><rect fill="none" height="24" width="24"/></g><g><g><polygon opacity=".3" points="12.5,13 7.5,13 7.5,15.5 4,12 4,18 16,18 16,12 12.5,15.5"/><polygon opacity=".3" points="4,12 7.5,8.5 7.5,11 12.5,11 12.5,8.5 16,12 16,6 4,6"/><path d="M18,10.48V6c0-1.1-0.9-2-2-2H4C2.9,4,2,4.9,2,6v12c0,1.1,0.9,2,2,2h12c1.1,0,2-0.9,2-2v-4.48l4,3.98v-11L18,10.48z M16,12 v6H4v-6V6h12V12z"/><polygon points="12.5,11 7.5,11 7.5,8.5 4,12 7.5,15.5 7.5,13 12.5,13 12.5,15.5 16,12 12.5,8.5"/></g></g></svg>