<?xml version="1.0" encoding="utf-8"?>
<!-- Generator: Adobe Illustrator 21.0.2, SVG Export Plug-In . SVG Version: 6.00 Build 0)  -->
<svg version="1.1" id="ic_x5F_tour_x5F_gm2_x5F_24px"
	 xmlns="http://www.w3.org/2000/svg" xmlns:xlink="http://www.w3.org/1999/xlink" x="0px" y="0px" width="24px" height="24px"
	 viewBox="0 0 24 24" enable-background="new 0 0 24 24" xml:space="preserve">
<g>
	<path d="M21,4h-8h-1H7V2H5v2v10v8h2v-8h4h1h9l-2-5L21,4z M17.14,9.74l0.9,2.26H12h-1H7V6h5h1h5.05l-0.9,2.26L16.85,9L17.14,9.74z
		 M14,9c0,1.1-0.9,2-2,2s-2-0.9-2-2s0.9-2,2-2S14,7.9,14,9z"/>
	<rect fill="none" width="24" height="24"/>
</g>
</svg>
