<?xml version="1.0" encoding="utf-8"?>
<!-- Generator: Adobe Illustrator 21.0.2, SVG Export Plug-In . SVG Version: 6.00 Build 0)  -->
<svg version="1.1" id="ic_x5F_tour_x5F_m2round_x5F_24px"
	 xmlns="http://www.w3.org/2000/svg" xmlns:xlink="http://www.w3.org/1999/xlink" x="0px" y="0px" width="24px" height="24px"
	 viewBox="0 0 24 24" enable-background="new 0 0 24 24" xml:space="preserve">
<g>
	<path d="M20.45,5.37C20.71,4.71,20.23,4,19.52,4H13h-1H7V3c0-0.55-0.45-1-1-1h0C5.45,2,5,2.45,5,3v1v10v8h2v-8h4h1h7.52
		c0.71,0,1.19-0.71,0.93-1.37L19,9L20.45,5.37z M15,9c0,1.1-0.9,2-2,2s-2-0.9-2-2s0.9-2,2-2S15,7.9,15,9z"/>
	<rect fill="none" width="24" height="24"/>
</g>
</svg>
