<svg xmlns="http://www.w3.org/2000/svg" enable-background="new 0 0 24 24" height="24" viewBox="0 0 24 24" width="24"><g><path d="M0,0h24v24H0V0z" fill="none"/></g><g><path d="M13,17c-1.1,0-2-0.9-2-2V9c0-1.1,0.9-2,2-2h6V5H5v14h14v-2H13z" enable-background="new" opacity=".3"/><path d="M21,7.28V5c0-1.1-0.9-2-2-2H5C3.89,3,3,3.9,3,5v14c0,1.1,0.89,2,2,2h14c1.1,0,2-0.9,2-2v-2.28c0.59-0.35,1-0.98,1-1.72V9 C22,8.26,21.59,7.62,21,7.28z M20,9v6h-7V9H20z M5,19V5h14v2h-6c-1.1,0-2,0.9-2,2v6c0,1.1,0.9,2,2,2h6v2H5z"/><circle cx="16" cy="12" r="1.5"/></g></svg>