<svg xmlns="http://www.w3.org/2000/svg" enable-background="new 0 0 24 24" height="24" viewBox="0 0 24 24" width="24"><g><path d="M0,0h24v24H0V0z" fill="none"/></g><g><g><path d="M19,3h-4.18C14.4,1.84,13.3,1,12,1S9.6,1.84,9.18,3H5C3.9,3,3,3.9,3,5v14c0,1.1,0.9,2,2,2h14c1.1,0,2-0.9,2-2V5 C21,3.9,20.1,3,19,3z M12,2.75c0.41,0,0.75,0.34,0.75,0.75c0,0.41-0.34,0.75-0.75,0.75s-0.75-0.34-0.75-0.75 C11.25,3.09,11.59,2.75,12,2.75z M13,17H8c-0.55,0-1-0.45-1-1v0c0-0.55,0.45-1,1-1h5c0.55,0,1,0.45,1,1v0C14,16.55,13.55,17,13,17 z M16,13H8c-0.55,0-1-0.45-1-1v0c0-0.55,0.45-1,1-1h8c0.55,0,1,0.45,1,1v0C17,12.55,16.55,13,16,13z M16,9H8C7.45,9,7,8.55,7,8v0 c0-0.55,0.45-1,1-1h8c0.55,0,1,0.45,1,1v0C17,8.55,16.55,9,16,9z"/></g></g></svg>