<svg xmlns="http://www.w3.org/2000/svg" enable-background="new 0 0 24 24" height="24" viewBox="0 0 24 24" width="24"><g><rect fill="none" height="24" width="24"/></g><g><g><g><path d="M7,21h2v-2H7V21z M7,13h2v-2H7V13z M11,13h2v-2h-2V13z M11,21h2v-2h-2V21z M3,17h2v-2H3V17z M3,21h2v-2H3V21z M3,13h2v-2 H3V13z M3,9h2V7H3V9z M11,17h2v-2h-2V17z M19,9h2V7h-2V9z M19,13h2v-2h-2V13z M3,4L3,4c0,0.55,0.45,1,1,1h16c0.55,0,1-0.45,1-1 l0,0c0-0.55-0.45-1-1-1H4C3.45,3,3,3.45,3,4z M19,17h2v-2h-2V17z M15,21h2v-2h-2V21z M11,9h2V7h-2V9z M19,21h2v-2h-2V21z M15,13 h2v-2h-2V13z"/></g></g></g></svg>