<svg xmlns="http://www.w3.org/2000/svg" enable-background="new 0 0 24 24" height="24" viewBox="0 0 24 24" width="24"><g><rect fill="none" height="24" width="24"/></g><g><g><path d="M19.36,6.64C17.61,4.88,15.3,4.01,13,4.01V1L9,5l4,4V6.03c1.79,0,3.58,0.66,4.95,2.02c2.73,2.73,2.73,7.17,0,9.9 c-2.24,2.24-5.62,2.64-8.28,1.21l-1.46,1.46c3.48,2.19,8.12,1.78,11.15-1.25C22.88,15.85,22.88,10.15,19.36,6.64z M7,7l-6,6l6,6 l6-6L7,7z M3.83,13L7,9.83L10.17,13L7,16.17L3.83,13z"/><rect enable-background="new" height="4.49" opacity=".3" transform="matrix(0.7071 -0.7071 0.7071 0.7071 -7.1421 8.7574)" width="4.49" x="4.76" y="10.76"/></g></g></svg>