<svg xmlns="http://www.w3.org/2000/svg" enable-background="new 0 0 24 24" height="24" viewBox="0 0 24 24" width="24"><g><rect fill="none" height="24" width="24"/></g><g><g><path d="M20,5h-3.17L15,3H9L7.17,5H4C2.9,5,2,5.9,2,7v12c0,1.1,0.9,2,2,2h16c1.1,0,2-0.9,2-2V7C22,5.9,21.1,5,20,5z M20,19H4V7 h4.05l1.83-2h4.24l1.83,2H20V19z"/><path d="M9.5,13c0-1.38,1.12-2.5,2.5-2.5h3.74c-0.81-1.21-2.18-2-3.74-2c-2.48,0-4.5,2.02-4.5,4.5c0,0.17,0.03,0.33,0.05,0.5h2 C9.52,13.34,9.5,13.17,9.5,13z"/><path d="M14.5,13c0,1.38-1.12,2.5-2.5,2.5H8.26c0.81,1.21,2.18,2,3.74,2c2.48,0,4.5-2.02,4.5-4.5c0-0.17-0.03-0.33-0.05-0.5h-2 C14.48,12.66,14.5,12.83,14.5,13z"/></g></g></svg>