<svg xmlns="http://www.w3.org/2000/svg" enable-background="new 0 0 24 24" height="24" viewBox="0 0 24 24" width="24"><g><rect fill="none" height="24" width="24"/></g><g><path d="M20,5h-3.17L15,3H9L7.17,5H4C2.9,5,2,5.9,2,7v12c0,1.1,0.9,2,2,2h16c1.1,0,2-0.9,2-2V7C22,5.9,21.1,5,20,5z M12,8.5 c1.56,0,2.93,0.79,3.74,2H12c-1.38,0-2.5,1.12-2.5,2.5c0,0.17,0.02,0.34,0.05,0.5h-2C7.53,13.33,7.5,13.17,7.5,13 C7.5,10.52,9.52,8.5,12,8.5z M12,17.5c-1.56,0-2.93-0.79-3.74-2H12c1.38,0,2.5-1.12,2.5-2.5c0-0.17-0.02-0.34-0.05-0.5h2 c0.02,0.17,0.05,0.33,0.05,0.5C16.5,15.48,14.48,17.5,12,17.5z"/></g></svg>