<svg xmlns="http://www.w3.org/2000/svg" enable-background="new 0 0 24 24" height="24" viewBox="0 0 24 24" width="24"><g><rect fill="none" height="24" width="24"/></g><g><g><g><g><path d="M5.11,19h13.78l-1.79-5.37L16.89,13l0.21-0.63L18.89,7h-0.53h-1.27h-1.4 H5.11l1.79,5.37L7.11,13L6.9,13.63L5.11,19z M8,12h3V9h2v3h3v2h-3v3h-2v-3H8V12z" enable-background="new" opacity=".3"/><path d="M3,21h18v-2l-2-6l2-6V5h-2.64l1.14-3.14L17.15,1l-1.46,4H3v2l2,6l-2,6V21z M6.9,12.37L5.11,7h13.78l-1.79,5.37L16.89,13 l0.21,0.63L18.89,19H5.11l1.79-5.37L7.11,13L6.9,12.37z"/><polygon points="11,17 13,17 13,14 16,14 16,12 13,12 13,9 11,9 11,12 8,12 8,14 11,14"/></g></g></g></g></svg>