<svg xmlns="http://www.w3.org/2000/svg" enable-background="new 0 0 24 24" height="24" viewBox="0 0 24 24" width="24"><g><rect fill="none" height="24" width="24"/></g><g><path d="M13,3c-4.97,0-9,4.03-9,9c0,0.06,0.01,0.12,0.01,0.19l-1.84-1.84l-1.41,1.41L5,16l4.24-4.24 l-1.41-1.41l-1.82,1.82C6.01,12.11,6,12.06,6,12c0-3.86,3.14-7,7-7s7,3.14,7,7s-3.14,7-7,7c-1.9,0-3.62-0.76-4.88-1.99L6.7,18.42 C8.32,20.01,10.55,21,13,21c4.97,0,9-4.03,9-9S17.97,3,13,3z M12,7v5.41l3.79,3.79l1.41-1.41L14,11.59V7H12z" enable-background="new"/></g></svg>