<svg xmlns="http://www.w3.org/2000/svg" enable-background="new 0 0 24 24" height="24" viewBox="0 0 24 24" width="24"><g><rect fill="none" height="24" width="24"/></g><g><g><path d="M21,4H3C1.89,4,1,4.89,1,6v12c0,1.1,0.89,2,2,2h18c1.11,0,2-0.9,2-2V6C23,4.89,22.11,4,21,4z M21,18H3V6h18V18z"/><polygon points="4.75,11.5 7.3,15 8.5,15 8.5,9 7.25,9 7.25,12.5 4.75,9 3.5,9 3.5,15 4.75,15"/><polygon points="13.5,13.75 11,13.75 11,12.64 13.5,12.64 13.5,11.38 11,11.38 11,10.26 13.5,10.26 13.5,9 9.5,9 9.5,15 13.5,15"/><path d="M15.5,15h4c0.55,0,1-0.45,1-1V9h-1.25v4.5h-1.12V9.99h-1.25v3.52h-1.13V9H14.5v5C14.5,14.55,14.95,15,15.5,15z"/></g></g></svg>