<svg xmlns="http://www.w3.org/2000/svg" enable-background="new 0 0 24 24" height="24" viewBox="0 0 24 24" width="24"><g><rect fill="none" height="24" width="24"/></g><g><g enable-background="new"><path d="M10,16L10,16c0.55,0,1-0.45,1-1V9c0-0.55-0.45-1-1-1l0,0C9.45,8,9,8.45,9,9v6C9,15.55,9.45,16,10,16z M12,2 C6.48,2,2,6.48,2,12s4.48,10,10,10s10-4.48,10-10S17.52,2,12,2z M12,20c-4.41,0-8-3.59-8-8s3.59-8,8-8s8,3.59,8,8S16.41,20,12,20z M14,16L14,16c0.55,0,1-0.45,1-1V9c0-0.55-0.45-1-1-1l0,0c-0.55,0-1,0.45-1,1v6C13,15.55,13.45,16,14,16z"/></g></g></svg>