<?xml version="1.0" encoding="utf-8"?>
<!-- Generator: Adobe Illustrator 21.0.2, SVG Export Plug-In . SVG Version: 6.00 Build 0)  -->
<svg version="1.1" id="ic_x5F_payments_x5F_m2round_x5F_24px"
	 xmlns="http://www.w3.org/2000/svg" xmlns:xlink="http://www.w3.org/1999/xlink" x="0px" y="0px" width="24px" height="24px"
	 viewBox="0 0 24 24" enable-background="new 0 0 24 24" xml:space="preserve">
<g>
	<path fill="none" d="M0,0v24h24V0H0z M1,13V7c0-1.66,1.34-3,3-3h12c1.66,0,3,1.34,3,3v7c0,1.1-0.9,2-2,2H4C2.34,16,1,14.66,1,13z
		 M23,18c0,1.1-0.9,2-2,2H5c-0.55,0-1-0.45-1-1c0-0.55,0.45-1,1-1h16V8c0-0.55,0.45-1,1-1s1,0.45,1,1V18z"/>
	<path d="M23,8v10c0,1.1-0.9,2-2,2H5c-0.55,0-1-0.45-1-1c0-0.55,0.45-1,1-1h16V8c0-0.55,0.45-1,1-1S23,7.45,23,8z M4,16
		c-1.66,0-3-1.34-3-3V7c0-1.66,1.34-3,3-3h12c1.66,0,3,1.34,3,3v7c0,1.1-0.9,2-2,2H4z M7,10c0,1.66,1.34,3,3,3s3-1.34,3-3
		s-1.34-3-3-3S7,8.34,7,10z"/>
</g>
</svg>
