<?xml version="1.0" encoding="utf-8"?>
<!-- Generator: Adobe Illustrator 23.0.4, SVG Export Plug-In . SVG Version: 6.00 Build 0)  -->
<svg version="1.1" xmlns="http://www.w3.org/2000/svg" xmlns:xlink="http://www.w3.org/1999/xlink" x="0px" y="0px" width="24px"
	 height="24px" viewBox="0 0 24 24" enable-background="new 0 0 24 24" xml:space="preserve">
<g id="Bounding_Box">
	<rect x="0" fill="none" width="24" height="24"/>
</g>
<g id="Icons">
	<g>
		<g>
			<path d="M20,4H4C2.89,4,2.01,4.89,2.01,6L2,18c0,1.11,0.89,2,2,2h16c1.11,0,2-0.89,2-2V6C22,4.89,21.11,4,20,4z M8.5,15H7.3
				l-2.55-3.5V15H3.5V9h1.25l2.5,3.5V9H8.5V15z M13.5,10.26H11v1.12h2.5v1.26H11v1.11h2.5V15h-4V9h4V10.26z M20.5,14
				c0,0.55-0.45,1-1,1h-4c-0.55,0-1-0.45-1-1V9h1.25v4.51h1.13V9.99h1.25v3.51h1.12V9h1.25V14z"/>
		</g>
	</g>
</g>
</svg>
