<svg xmlns="http://www.w3.org/2000/svg" enable-background="new 0 0 24 24" height="24" viewBox="0 0 24 24" width="24"><g><rect fill="none" height="24" width="24"/></g><g><path d="M14.87,3.8l-0.73,3.67c-0.1,0.5,0.2,0.83,0.27,0.9l2.5,2.52c-1.43,2.5-3.5,4.57-6,6l-2.52-2.5 c-0.24-0.23-0.57-0.33-0.9-0.27L3.8,14.87C3.34,14.96,3,15.37,3,15.85L3,20c0,0.56,0.47,1.03,1.03,1c2.89-0.17,5.6-1.05,7.97-2.43 c2.73-1.58,4.99-3.85,6.57-6.57c1.37-2.37,2.26-5.08,2.43-7.97C21.03,3.48,20.57,3,20,3h-4.15C15.37,3,14.96,3.34,14.87,3.8z M5,18.9v-2.23l2.35-0.47L9,17.83C7.7,18.37,6.37,18.73,5,18.9z M18.9,5c-0.18,1.37-0.53,2.7-1.07,4L16.2,7.35L16.67,5H18.9z"/></g></svg>