<svg xmlns="http://www.w3.org/2000/svg" enable-background="new 0 0 24 24" height="24" viewBox="0 0 24 24" width="24"><g><rect fill="none" height="24" width="24" y="0"/></g><g><g><g><path d="M4,18h16V6H4V18z M9,14h4v-1h-3c-0.55,0-1-0.45-1-1V9c0-0.55,0.45-1,1-1h1V7 h2v1h2v2h-4v1h3c0.55,0,1,0.45,1,1v3c0,0.55-0.45,1-1,1h-1v1h-2v-1H9V14z" enable-background="new" opacity=".3"/><path d="M20,4H4C2.89,4,2.01,4.89,2.01,6L2,18c0,1.11,0.89,2,2,2h16c1.11,0,2-0.89,2-2V6C22,4.89,21.11,4,20,4z M20,18H4V6h16V18 z"/><path d="M11,17h2v-1h1c0.55,0,1-0.45,1-1v-3c0-0.55-0.45-1-1-1h-3v-1h4V8h-2V7h-2v1h-1C9.45,8,9,8.45,9,9v3c0,0.55,0.45,1,1,1h3 v1H9v2h2V17z"/></g></g></g></svg>