<svg xmlns="http://www.w3.org/2000/svg" enable-background="new 0 0 24 24" height="24" viewBox="0 0 24 24" width="24"><g><rect fill="none" height="24" width="24"/></g><g><g><polygon points="9.5,11.5 12.34,11.5 9.5,14.71 9.5,16 14.5,16 14.5,14.5 11.69,14.5 14.5,11.32 14.5,10 9.5,10"/><rect height="2" transform="matrix(0.7071 -0.7071 0.7071 0.7071 -2.435 4.4645)" width="6" x="1.17" y="4.17"/><path d="M12,4c-4.97,0-9,4.03-9,9s4.03,9,9,9c4.97,0,9-4.03,9-9S16.97,4,12,4z M12,20c-3.86,0-7-3.14-7-7s3.14-7,7-7s7,3.14,7,7 S15.86,20,12,20z"/><rect height="6" transform="matrix(0.7071 -0.7071 0.7071 0.7071 2.151 15.5359)" width="2" x="18.83" y="2.17"/></g></g></svg>