<svg xmlns="http://www.w3.org/2000/svg" enable-background="new 0 0 24 24" height="24" viewBox="0 0 24 24" width="24"><g><rect fill="none" height="24" width="24"/></g><g><g><path d="M12,4c-4.97,0-9,4.03-9,9s4.03,9,9,9c4.97,0,9-4.03,9-9S16.97,4,12,4z M14.5,11.32l-2.81,3.18h2.81V16h-5v-1.29l2.84-3.21 H9.5V10h5V11.32z"/><rect height="2" transform="matrix(0.7071 -0.7071 0.7071 0.7071 -2.435 4.4645)" width="6" x="1.17" y="4.17"/><rect height="6" transform="matrix(0.7071 -0.7071 0.7071 0.7071 2.151 15.5359)" width="2" x="18.83" y="2.17"/></g></g></svg>