<svg xmlns="http://www.w3.org/2000/svg" enable-background="new 0 0 24 24" height="24" viewBox="0 0 24 24" width="24"><g><rect fill="none" height="24" width="24"/></g><g><g><g><g><path d="M4,19h14V5H4V19z M12,7h4v3h-4V7z M12,11h4v6h-4V11z M6,7h5v5H6V7z M6,13h5 v4H6V13z" enable-background="new" opacity=".3"/><rect height="4" width="5" x="6" y="13"/><rect height="5" width="5" x="6" y="7"/><rect height="3" width="4" x="12" y="7"/><rect height="6" width="4" x="12" y="11"/><path d="M22,9V7h-2V5c0-1.1-0.9-2-2-2H4C2.9,3,2,3.9,2,5v14c0,1.1,0.9,2,2,2h14c1.1,0,2-0.9,2-2v-2h2v-2h-2v-2h2v-2h-2V9H22z M18,19H4V5h14V19z"/></g></g></g></g></svg>