<svg xmlns="http://www.w3.org/2000/svg" enable-background="new 0 0 24 24" height="24" viewBox="0 0 24 24" width="24"><g><rect fill="none" height="24" width="24" x="0"/></g><g><path d="M11.99,2C6.47,2,2,6.48,2,12s4.47,10,9.99,10C17.52,22,22,17.52,22,12S17.52,2,11.99,2z M19.48,9.2h-5.17l-1.56-5.16 C15.85,4.33,18.43,6.4,19.48,9.2z M12,8.45l0.83,2.75h2.55l-2.06,1.47l0.82,2.64L12,13.69l-2.14,1.62l0.82-2.64L8.62,11.2h2.55 L12,8.45z M11.25,4.04L9.68,9.2H4.54C5.59,6.39,8.15,4.32,11.25,4.04z M4,12c0-0.52,0.07-1.03,0.17-1.52l4.18,2.98l-1.48,4.67 C5.12,16.66,4,14.46,4,12z M11.99,20c-1.35,0-2.63-0.34-3.75-0.94L12,16.21l3.75,2.85C14.63,19.66,13.35,20,11.99,20z M17.11,18.15 l-1.45-4.69l4.18-2.98c0.1,0.49,0.17,1,0.17,1.52C20,14.47,18.87,16.68,17.11,18.15z"/></g></svg>