<svg xmlns="http://www.w3.org/2000/svg" enable-background="new 0 0 24 24" height="24" viewBox="0 0 24 24" width="24"><g><rect fill="none" height="24" width="24"/></g><g><path d="M11.99,2C6.47,2,2,6.48,2,12s4.47,10,9.99,10C17.52,22,22,17.52,22,12S17.52,2,11.99,2z M14.77,17.06L12,14.95l-2.77,2.11 c-0.39,0.29-0.92-0.08-0.78-0.55l1.07-3.44l-2.74-1.96c-0.4-0.28-0.2-0.91,0.29-0.91h3.36l1.1-3.62c0.14-0.47,0.81-0.47,0.96,0 l1.1,3.62h3.36c0.49,0,0.69,0.62,0.29,0.91l-2.74,1.96l1.07,3.44C15.7,16.97,15.16,17.35,14.77,17.06z"/></g></svg>