<svg xmlns="http://www.w3.org/2000/svg" enable-background="new 0 0 24 24" height="24" viewBox="0 0 24 24" width="24"><g><rect fill="none" height="24" width="24"/></g><g><path d="M13,10H4c-0.55,0-1,0.45-1,1v0c0,0.55,0.45,1,1,1h9c0.55,0,1-0.45,1-1v0C14,10.45,13.55,10,13,10z M13,6H4 C3.45,6,3,6.45,3,7v0c0,0.55,0.45,1,1,1h9c0.55,0,1-0.45,1-1v0C14,6.45,13.55,6,13,6z M18,14v-3c0-0.55-0.45-1-1-1h0 c-0.55,0-1,0.45-1,1v3h-3c-0.55,0-1,0.45-1,1v0c0,0.55,0.45,1,1,1h3v3c0,0.55,0.45,1,1,1h0c0.55,0,1-0.45,1-1v-3h3 c0.55,0,1-0.45,1-1v0c0-0.55-0.45-1-1-1H18z M4,16h5c0.55,0,1-0.45,1-1v0c0-0.55-0.45-1-1-1H4c-0.55,0-1,0.45-1,1v0 C3,15.55,3.45,16,4,16z"/></g></svg>