<svg xmlns="http://www.w3.org/2000/svg" enable-background="new 0 0 24 24" height="24" viewBox="0 0 24 24" width="24"><g><rect fill="none" height="24" width="24"/></g><g><path d="M5,2c0-0.55-0.45-1-1-1S3,1.45,3,2v4H1v10c0,1.3,0.84,2.4,2,2.82V23h2v-4.18 C6.16,18.4,7,17.3,7,16V6H5V2z M4,17c-0.55,0-1-0.45-1-1v-2h2v2C5,16.55,4.55,17,4,17z M3,12V8h2v4H3z M13,2c0-0.55-0.45-1-1-1 s-1,0.45-1,1v4H9v10c0,1.3,0.84,2.4,2,2.82V23h2v-4.18c1.16-0.42,2-1.52,2-2.82V6h-2V2z M12,17c-0.55,0-1-0.45-1-1v-2h2v2 C13,16.55,12.55,17,12,17z M11,12V8h2v4H11z M21,6V2c0-0.55-0.45-1-1-1s-1,0.45-1,1v4h-2v10c0,1.3,0.84,2.4,2,2.82V23h2v-4.18 c1.16-0.42,2-1.52,2-2.82V6H21z M20,17c-0.55,0-1-0.45-1-1v-2h2v2C21,16.55,20.55,17,20,17z M19,12V8h2v4H19z" enable-background="new"/></g></svg>