<svg xmlns="http://www.w3.org/2000/svg" enable-background="new 0 0 24 24" height="24" viewBox="0 0 24 24" width="24"><g><rect fill="none" height="24" width="24"/></g><g><path d="M5,2c0-0.55-0.45-1-1-1S3,1.45,3,2v4H1v6h6V6H5V2z M9,16c0,1.3,0.84,2.4,2,2.82V23h2v-4.18 c1.16-0.41,2-1.51,2-2.82v-2H9V16z M1,16c0,1.3,0.84,2.4,2,2.82V23h2v-4.18C6.16,18.4,7,17.3,7,16v-2H1V16z M21,6V2 c0-0.55-0.45-1-1-1s-1,0.45-1,1v4h-2v6h6V6H21z M13,2c0-0.55-0.45-1-1-1s-1,0.45-1,1v4H9v6h6V6h-2V2z M17,16c0,1.3,0.84,2.4,2,2.82 V23h2v-4.18c1.16-0.41,2-1.51,2-2.82v-2h-6V16z" enable-background="new"/></g></svg>