<svg xmlns="http://www.w3.org/2000/svg" xmlns:xlink="http://www.w3.org/1999/xlink" enable-background="new 0 0 24 24" height="24px" id="ic_x5F_arrow_x5F_circle_x5F_up_x5F_m2twotone_x5F_24px" version="1.1" viewBox="0 0 24 24" width="24px" x="0px" xml:space="preserve" y="0px"><g id="ic_x5F_arrow_x5F_circle_x5F_up_x5F_m2twotone_x5F_24px_1_"><rect fill="none" height="24" width="24"/><path d="M12,20c-4.41,0-8-3.59-8-8s3.59-8,8-8s8,3.59,8,8S16.41,20,12,20 M11,12l0,4h2l0-4h3l-4-4l-4,4H11z" opacity="0.3"/><path d="M12,20c-4.41,0-8-3.59-8-8s3.59-8,8-8s8,3.59,8,8S16.41,20,12,20 M12,22c5.52,0,10-4.48,10-10c0-5.52-4.48-10-10-10 C6.48,2,2,6.48,2,12C2,17.52,6.48,22,12,22L12,22z M11,12l0,4h2l0-4h3l-4-4l-4,4H11z"/></g></svg>