<svg xmlns="http://www.w3.org/2000/svg" enable-background="new 0 0 24 24" height="24" viewBox="0 0 24 24" width="24"><g><rect fill="none" height="24" width="24"/></g><g><g><g><path d="M14.9,3H9.1C8.57,3,8.06,3.21,7.68,3.59l-4.1,4.1C3.21,8.06,3,8.57,3,9.1v5.8c0,0.53,0.21,1.04,0.59,1.41l4.1,4.1 C8.06,20.79,8.57,21,9.1,21h5.8c0.53,0,1.04-0.21,1.41-0.59l4.1-4.1C20.79,15.94,21,15.43,21,14.9V9.1 c0-0.53-0.21-1.04-0.59-1.41l-4.1-4.1C15.94,3.21,15.43,3,14.9,3z M19,14.9L14.9,19H9.1L5,14.9V9.1L9.1,5h5.8L19,9.1V14.9z"/><path d="M12,7L12,7c0.55,0,1,0.45,1,1v4c0,0.55-0.45,1-1,1h0c-0.55,0-1-0.45-1-1V8C11,7.45,11.45,7,12,7z"/><path d="M12,17L12,17c-0.55,0-1-0.45-1-1v0c0-0.55,0.45-1,1-1h0c0.55,0,1,0.45,1,1v0C13,16.55,12.55,17,12,17z"/></g></g></g></svg>