<svg xmlns="http://www.w3.org/2000/svg" enable-background="new 0 0 24 24" height="24" viewBox="0 0 24 24" width="24"><g><rect fill="none" height="24" width="24"/></g><g><g><g><path d="M4.5,10C3.67,10,3,10.67,3,11.5S3.67,13,4.5,13S6,12.33,6,11.5S5.33,10,4.5,10z M4.5,4C3.67,4,3,4.67,3,5.5S3.67,7,4.5,7 S6,6.33,6,5.5S5.33,4,4.5,4z M4.5,16C3.67,16,3,16.68,3,17.5S3.68,19,4.5,19S6,18.32,6,17.5S5.33,16,4.5,16z M7.5,18.5h14v-2h-14 V18.5z M7.5,12.5h14v-2h-14V12.5z M7.5,4.5v2h14v-2H7.5z"/></g></g></g></svg>