<svg xmlns="http://www.w3.org/2000/svg" enable-background="new 0 0 24 24" height="24" viewBox="0 0 24 24" width="24"><g><rect fill="none" height="24" width="24"/></g><g><g><path d="M3,6L3,6C2.45,6,2,6.45,2,7v13c0,1.1,0.9,2,2,2h13c0.55,0,1-0.45,1-1v0c0-0.55-0.45-1-1-1H4V7C4,6.45,3.55,6,3,6z"/><path d="M20,2H8C6.9,2,6,2.9,6,4v12c0,1.1,0.9,2,2,2h12c1.1,0,2-0.9,2-2V4C22,2.9,21.1,2,20,2z M11.5,12.67V7.33 c0-0.79,0.88-1.27,1.54-0.84l4.15,2.67c0.61,0.39,0.61,1.29,0,1.68l-4.15,2.67C12.38,13.94,11.5,13.46,11.5,12.67z"/></g></g></svg>