<svg xmlns="http://www.w3.org/2000/svg" enable-background="new 0 0 24 24" height="24" viewBox="0 0 24 24" width="24"><g><rect fill="none" height="24" width="24"/></g><g><g><g><g><path d="M19,5H5v14h14V5z M15,9h-4v2h2c1.1,0,2,0.89,2,2v2c0,1.11-0.9,2-2,2H9v-2h4 v-2H9V7h6V9z" enable-background="new" opacity=".3"/><path d="M5,21h14c1.1,0,2-0.9,2-2V5c0-1.1-0.9-2-2-2H5C3.9,3,3,3.9,3,5v14C3,20.1,3.9,21,5,21z M5,5h14v14H5V5z"/><path d="M9,13h4v2H9v2h4c1.1,0,2-0.89,2-2v-2c0-1.11-0.9-2-2-2h-2V9h4V7H9V13z"/></g></g></g></g></svg>