<svg xmlns="http://www.w3.org/2000/svg" enable-background="new 0 0 24 24" height="24" viewBox="0 0 24 24" width="24"><g><rect fill="none" height="24" width="24"/></g><g><path d="M4,19h16V8H4V19z M9.59,10.91L11,9.5l4,4l-4,4l-1.41-1.41l2.59-2.59L9.59,10.91 z" enable-background="new" opacity=".3"/><path d="M20,6h-4V4c0-0.55-0.22-1.05-0.59-1.41C15.05,2.22,14.55,2,14,2h-4C8.9,2,8,2.9,8,4v2H4C2.9,6,2,6.9,2,8v11 c0,1.1,0.9,2,2,2h16c1.1,0,2-0.9,2-2V8C22,6.9,21.1,6,20,6z M10,4h4v2h-4V4z M20,19H4V8h16V19z M11,17.5l4-4l-4-4l-1.41,1.41 l2.59,2.59l-2.59,2.59L11,17.5z"/></g></svg>