<svg xmlns="http://www.w3.org/2000/svg" enable-background="new 0 0 24 24" height="24" viewBox="0 0 24 24" width="24"><g><rect fill="none" height="24" width="24" y="0"/></g><g><g><path d="M4,9h12c0.55,0,1-0.45,1-1s-0.45-1-1-1H4C3.45,7,3,7.45,3,8S3.45,9,4,9z M4,13h12c0.55,0,1-0.45,1-1s-0.45-1-1-1H4 c-0.55,0-1,0.45-1,1S3.45,13,4,13z M4,17h12c0.55,0,1-0.45,1-1s-0.45-1-1-1H4c-0.55,0-1,0.45-1,1C3,16.55,3.45,17,4,17z M20,17 L20,17c0.55,0,1-0.45,1-1v0c0-0.55-0.45-1-1-1h0c-0.55,0-1,0.45-1,1v0C19,16.55,19.45,17,20,17z M19,8L19,8c0,0.55,0.45,1,1,1h0 c0.55,0,1-0.45,1-1v0c0-0.55-0.45-1-1-1h0C19.45,7,19,7.45,19,8z M20,13L20,13c0.55,0,1-0.45,1-1v0c0-0.55-0.45-1-1-1h0 c-0.55,0-1,0.45-1,1v0C19,12.55,19.45,13,20,13z"/></g></g></svg>