<svg xmlns="http://www.w3.org/2000/svg" enable-background="new 0 0 24 24" height="24" viewBox="0 0 24 24" width="24"><g><rect fill="none" height="24" width="24"/></g><g><path d="M12,4c-4.41,0-8,3.59-8,8s3.59,8,8,8s8-3.59,8-8S16.41,4,12,4z M16,17H8v-2h8 V17z M10.94,14L7.4,10.46l1.41-1.41l2.12,2.12l4.24-4.24l1.41,1.41L10.94,14z" enable-background="new" opacity=".3"/><path d="M10.94,11.17L8.82,9.05L7.4,10.46L10.94,14l5.66-5.66l-1.41-1.41L10.94,11.17z M8,17h8v-2H8V17z M12,2C6.48,2,2,6.48,2,12 s4.48,10,10,10s10-4.48,10-10S17.52,2,12,2z M12,20c-4.41,0-8-3.59-8-8s3.59-8,8-8s8,3.59,8,8S16.41,20,12,20z"/></g></svg>