<svg xmlns="http://www.w3.org/2000/svg" enable-background="new 0 0 24 24" height="24" viewBox="0 0 24 24" width="24"><g><rect fill="none" height="24" width="24"/></g><g><path d="M4,18h16V6H4V18z M12,8c3.31,0,6,1.79,6,4s-2.69,4-6,4s-6-1.79-6-4S8.69,8,12,8z" opacity=".3"/><path d="M12,16c3.31,0,6-1.79,6-4s-2.69-4-6-4s-6,1.79-6,4S8.69,16,12,16z M12,10c2.44,0,4,1.18,4,2s-1.56,2-4,2s-4-1.18-4-2 S9.56,10,12,10z"/><path d="M20,4H4C2.9,4,2,4.9,2,6v12c0,1.1,0.9,2,2,2h16c1.1,0,2-0.9,2-2V6C22,4.9,21.1,4,20,4z M20,18H4V6h16V18z"/></g></svg>