<svg xmlns="http://www.w3.org/2000/svg" enable-background="new 0 0 24 24" height="24" viewBox="0 0 24 24" width="24"><g><rect fill="none" height="24" width="24"/></g><g><path d="M9,12c0,1.66,1.34,3,3,3s3-1.34,3-3c0-1.66-1.34-3-3-3S9,10.34,9,12z M5.45,7.45C6.9,5.37,9.28,4,12,4 c3.72,0,6.85,2.56,7.74,6h2.06c-0.93-4.56-4.96-8-9.8-8C8.73,2,5.82,3.58,4,6L2,4v6h6L5.45,7.45z M16,14l2.55,2.55 C17.1,18.63,14.72,20,12,20c-3.72,0-6.85-2.56-7.74-6H2.2c0.93,4.56,4.96,8,9.8,8c3.27,0,6.18-1.58,8-4l2,2v-6H16z"/></g></svg>