<svg xmlns="http://www.w3.org/2000/svg" enable-background="new 0 0 24 24" height="24" viewBox="0 0 24 24" width="24"><g><rect fill="none" height="24" width="24"/></g><g><g><g><g><rect enable-background="new" height="2" opacity=".3" width="2" x="11" y="13"/><path d="M19,5H5v14h14V5z M14,9h-3v2h2c1.1,0,2,0.89,2,2v2c0,1.11-0.9,2-2,2h-2 c-1.1,0-2-0.89-2-2V9c0-1.11,0.9-2,2-2h3V9z" enable-background="new" opacity=".3"/><path d="M9,9v6c0,1.11,0.9,2,2,2h2c1.1,0,2-0.89,2-2v-2c0-1.11-0.9-2-2-2h-2V9h3V7h-3C9.9,7,9,7.89,9,9z M13,13v2h-2v-2H13z"/><path d="M5,21h14c1.1,0,2-0.9,2-2V5c0-1.1-0.9-2-2-2H5C3.9,3,3,3.9,3,5v14C3,20.1,3.9,21,5,21z M5,5h14v14H5V5z"/></g></g></g></g></svg>