<svg xmlns="http://www.w3.org/2000/svg" enable-background="new 0 0 24 24" height="24" viewBox="0 0 24 24" width="24"><rect fill="none" height="24" width="24"/><path d="M17,4H7V3h10V4z M17,20H7v1h10V20z" opacity=".3"/><path d="M17,18H7V6h10v1h2V3c0-1.1-0.9-2-2-2L7,1.01C5.9,1.01,5,1.9,5,3v18c0,1.1,0.9,2,2,2h10c1.1,0,2-0.9,2-2v-4h-2V18z M7,3h10v1 H7V3z M17,21H7v-1h10V21z M21,12c0-0.13-0.02-0.26-0.04-0.39l0.99-0.75l-1.03-1.72L19.8,9.62c-0.2-0.15-0.42-0.29-0.65-0.39L19,8.03 L17,8l-0.15,1.23c-0.24,0.1-0.45,0.23-0.65,0.39l-1.12-0.47l-1.03,1.72l0.99,0.75C15.02,11.74,15,11.87,15,12 c0,0.13,0.02,0.25,0.04,0.37l-0.99,0.75l1,1.73l1.14-0.48c0.2,0.16,0.42,0.3,0.67,0.4L17,15.98h2l0.15-1.21 c0.24-0.1,0.46-0.24,0.67-0.4l1.14,0.48l1-1.73l-0.99-0.75C20.98,12.25,21,12.13,21,12z M18,13.5c-0.83,0-1.5-0.67-1.5-1.5 s0.67-1.5,1.5-1.5s1.5,0.67,1.5,1.5S18.83,13.5,18,13.5z"/></svg>