<svg xmlns="http://www.w3.org/2000/svg" enable-background="new 0 0 24 24" height="24" viewBox="0 0 24 24" width="24"><g><rect fill="none" height="24" width="24"/></g><g><path d="M17,18H7V6h10v1h2V3c0-1.1-0.9-2-2-2L7,1.01C5.9,1.01,5,1.9,5,3v18c0,1.1,0.9,2,2,2h10c1.1,0,2-0.9,2-2v-4h-2V18z M7,3h10 v1H7V3z M7,21v-1h10v1H7z M18.33,14.83c1.56-1.56,1.56-4.1,0-5.66l-1.41,1.41c0.78,0.78,0.78,2.05,0,2.83L18.33,14.83z M20.81,6.7 L19.4,8.11c2.14,2.14,2.14,5.63,0,7.78l1.41,1.41C23.73,14.38,23.73,9.62,20.81,6.7z"/></g></svg>