<svg xmlns="http://www.w3.org/2000/svg" enable-background="new 0 0 24 24" height="24" viewBox="0 0 24 24" width="24"><g><rect fill="none" height="24" width="24"/></g><g><g><polygon points="20,8 20,7 17.5,8.75 15,7 15,8 17.5,9.75"/><path d="M22,3H2C0.9,3,0,3.9,0,5v14c0,1.1,0.9,2,2,2h20c1.1,0,1.99-0.9,1.99-2L24,5C24,3.9,23.1,3,22,3z M9,8c1.65,0,3,1.35,3,3 s-1.35,3-3,3s-3-1.35-3-3S7.35,8,9,8z M2.08,19c1.38-2.39,3.96-4,6.92-4s5.54,1.61,6.92,4H2.08z M20,11h-5c-0.55,0-1-0.45-1-1V7 c0-0.55,0.45-1,1-1h5c0.55,0,1,0.45,1,1v3C21,10.55,20.55,11,20,11z"/></g></g></svg>