<svg xmlns="http://www.w3.org/2000/svg" enable-background="new 0 0 24 24" height="24" viewBox="0 0 24 24" width="24"><g><rect fill="none" height="24" width="24"/></g><g><g><g><path d="M5.49,21v-6.5h-0.5c-0.55,0-1-0.45-1-1V9c0-1.1,0.9-2,2-2h3c1.1,0,2,0.9,2,2v4.5c0,0.55-0.45,1-1,1h-0.5V21 c0,0.55-0.45,1-1,1h-2C5.94,22,5.49,21.55,5.49,21z M17.99,21v-5h1.61c0.68,0,1.16-0.67,0.95-1.32l-2.1-6.31 C18.17,7.55,17.41,7,16.55,7h-0.12c-0.86,0-1.63,0.55-1.9,1.37l-2.1,6.31C12.21,15.33,12.69,16,13.38,16h1.61v5 c0,0.55,0.45,1,1,1h1C17.54,22,17.99,21.55,17.99,21z M7.49,6c1.11,0,2-0.89,2-2s-0.89-2-2-2s-2,0.89-2,2S6.38,6,7.49,6z M16.49,6c1.11,0,2-0.89,2-2s-0.89-2-2-2s-2,0.89-2,2S15.38,6,16.49,6z"/></g></g></g></svg>