<svg xmlns="http://www.w3.org/2000/svg" enable-background="new 0 0 24 24" height="24" viewBox="0 0 24 24" width="24"><g><path d="M0,0h24v24H0V0z" fill="none"/></g><g><path d="M11.5,3.5C11.78,3.5,12,3.72,12,4v2h6v6h2c0.28,0,0.5,0.22,0.5,0.5S20.28,13,20,13h-2v6h-2.13c-0.8-2.17-2.87-3-4.37-3 s-3.57,0.83-4.37,3H5v-2.13c2.17-0.8,3-2.87,3-4.37c0-1.49-0.83-3.56-2.99-4.37V6H11V4C11,3.72,11.22,3.5,11.5,3.5 M11.5,1.5 C10.12,1.5,9,2.62,9,4H5.01c-1.1,0-2,0.9-2,2v3.8C5.7,9.8,6,11.96,6,12.5c0,0.54-0.29,2.7-3,2.7V19c0,1.1,0.9,2,2,2h3.8 c0-2.71,2.16-3,2.7-3s2.7,0.29,2.7,3H18c1.1,0,2-0.9,2-2v-4c1.38,0,2.5-1.12,2.5-2.5S21.38,10,20,10V6c0-1.1-0.9-2-2-2h-4 C14,2.62,12.88,1.5,11.5,1.5L11.5,1.5z"/></g></svg>