<svg xmlns="http://www.w3.org/2000/svg" enable-background="new 0 0 24 24" height="24" viewBox="0 0 24 24" width="24"><g><g><path d="M0,0h24v24H0V0z" fill="none"/></g></g><g><g><g><g><rect height="3" width="1.5" x="18" y="16"/><rect height="3" width="15" x="2" y="16"/><path d="M16.03,10.2H14.5c-1.02,0-1.85-0.98-1.85-2s0.83-1.75,1.85-1.75v-1.5c-1.85,0-3.35,1.5-3.35,3.35s1.5,3.35,3.35,3.35 h1.53c1.05,0,1.97,0.74,1.97,2.05V15h1.5v-1.64C19.5,11.55,17.9,10.2,16.03,10.2z"/><rect height="3" width="1.5" x="20.5" y="16"/><path d="M18.85,7.73c0.62-0.61,1-1.45,1-2.38C19.85,3.5,18.35,2,16.5,2v1.5c1.02,0,1.85,0.83,1.85,1.85S17.52,7.2,16.5,7.2v1.5 c2.24,0,4,1.83,4,4.07V15H22v-2.24C22,10.54,20.72,8.62,18.85,7.73z"/></g></g></g></g></svg>