<svg xmlns="http://www.w3.org/2000/svg" enable-background="new 0 0 24 24" height="24" viewBox="0 0 24 24" width="24"><g><path d="M0,0h24v24H0V0z" fill="none"/></g><g><path d="M14,4V2h-4v2H7v17.99C7,22,7,22,7.01,22H17V4H14z M12.01,18c-0.59,0-1.05-0.47-1.05-1.05c0-0.59,0.47-1.04,1.05-1.04 c0.59,0,1.04,0.45,1.04,1.04C13.04,17.53,12.6,18,12.01,18z M14.51,11.83c-0.63,0.93-1.23,1.21-1.56,1.81 c-0.13,0.24-0.18,0.4-0.18,1.18h-1.52c0-0.41-0.06-1.08,0.26-1.65c0.41-0.73,1.18-1.16,1.63-1.8c0.48-0.68,0.21-1.94-1.14-1.94 c-0.88,0-1.32,0.67-1.5,1.23l-1.37-0.57C9.51,8.96,10.52,8,11.99,8c1.23,0,2.08,0.56,2.51,1.26C14.87,9.87,15.08,10.99,14.51,11.83 z"/></g></svg>