<svg xmlns="http://www.w3.org/2000/svg" enable-background="new 0 0 24 24" height="24" viewBox="0 0 24 24" width="24"><g><rect fill="none" height="24" width="24"/></g><g><path d="M7.5,12c0,2.49,2.01,4.5,4.5,4.5s4.5-2.01,4.5-4.5S14.49,7.5,12,7.5S7.5,9.51,7.5,12z M13,12c0,0.55-0.45,1-1,1 s-1-0.45-1-1s0.45-1,1-1S13,11.45,13,12z M18.92,8h2.24C19.62,4.47,16.1,2,12,2C6.48,2,2,6.48,2,12s4.48,10,10,10 c2.25,0,4.33-0.76,6-2.02v-2.71C16.53,18.94,14.39,20,12,20c-4.41,0-8-3.59-8-8s3.59-8,8-8C14.95,4,17.53,5.61,18.92,8z M20,10v8h2 v-8H20z M20,22h2v-2h-2V22z"/></g></svg>