<svg xmlns="http://www.w3.org/2000/svg" enable-background="new 0 0 24 24" height="24" viewBox="0 0 24 24" width="24"><g><rect fill="none" height="24" width="24"/></g><g><g><path d="M8,16h12V4H8V16z M11,7V5h6v2l-4,8h-2l4-8H11z" enable-background="new" opacity=".3"/><path d="M20,2H8C6.9,2,6,2.9,6,4v12c0,1.1,0.9,2,2,2h12c1.1,0,2-0.9,2-2V4C22,2.9,21.1,2,20,2z M20,16H8V4h12V16z"/><path d="M4,22h14v-2H4V6H2v14C2,21.1,2.9,22,4,22z"/><polygon points="13,15 17,7 17,5 11,5 11,7 15,7 11,15"/></g></g></svg>