<svg xmlns="http://www.w3.org/2000/svg" enable-background="new 0 0 24 24" height="24" viewBox="0 0 24 24" width="24"><g><rect fill="none" height="24" width="24"/></g><g><rect enable-background="new" height="1" opacity=".3" width="2" x="6.5" y="10.5"/><path d="M4,18h16V6H4V18z M14,9h1.25l2.5,3.5V9H19v6h-1.2l-2.55-3.5V15H14V9z M11.25,9 h1.5v6h-1.5V9z M5,9h4c0.55,0,1,0.45,1,1v2c0,0.55-0.45,1-1,1H6.5v2H5V9z" enable-background="new" opacity=".3"/><path d="M20,4H4C2.9,4,2,4.9,2,6v12c0,1.1,0.9,2,2,2h16c1.1,0,2-0.9,2-2V6C22,4.9,21.1,4,20,4z M20,18H4V6h16V18z M15.25,11.5 L17.8,15H19V9h-1.25v3.5L15.25,9H14v6h1.25V11.5z M12.75,9h-1.5v6h1.5V9z M6.5,13H9c0.55,0,1-0.45,1-1v-2c0-0.55-0.45-1-1-1H5v6 h1.5V13z M6.5,10.5h2v1h-2V10.5z"/></g></svg>