<svg xmlns="http://www.w3.org/2000/svg" enable-background="new 0 0 24 24" height="24" viewBox="0 0 24 24" width="24"><g><rect fill="none" height="24" width="24"/></g><g><g><g><g><polygon points="5,13 3.2,13 5,10.9 5,10 2,10 2,11 3.8,11 2,13.1 2,14 5,14"/><rect height="2" width="14" x="7" y="5"/><polygon points="5,16 2,16 2,17 4,17 4,17.5 3,17.5 3,18.5 4,18.5 4,19 2,19 2,20 5,20"/><rect height="2" width="14" x="7" y="17"/><polygon points="3,8 4,8 4,4 2,4 2,5 3,5"/><rect height="2" width="14" x="7" y="11"/></g></g></g></g></svg>