<?xml version="1.0" encoding="utf-8"?>
<!-- Generator: Adobe Illustrator 23.0.1, SVG Export Plug-In . SVG Version: 6.00 Build 0)  -->
<svg version="1.1" xmlns="http://www.w3.org/2000/svg" xmlns:xlink="http://www.w3.org/1999/xlink" x="0px" y="0px" width="24px"
	 height="24px" viewBox="0 0 24 24" enable-background="new 0 0 24 24" xml:space="preserve">
<g id="Bounding_Box">
	<rect fill="none" width="24" height="24"/>
	<rect fill="none" width="24" height="24"/>
</g>
<g id="Flat">
	<g id="ui_x5F_spec_x5F_header_copy_2">
	</g>
	<g>
		<path d="M19,19H3c-0.55,0-1,0.45-1,1s0.45,1,1,1h16c0.55,0,1-0.45,1-1S19.55,19,19,19z"/>
		<path d="M20,3H9v2.4l1.81,1.45C10.93,6.94,11,7.09,11,7.24v4.26c0,0.28-0.22,0.5-0.5,0.5h-4C6.22,12,6,11.78,6,11.5V7.24
			c0-0.15,0.07-0.3,0.19-0.39L8,5.4V3H6C4.9,3,4,3.9,4,5v8c0,2.21,1.79,4,4,4h6c2.21,0,4-1.79,4-4v-3h2c1.1,0,2-0.9,2-2V5
			C22,3.9,21.1,3,20,3z M20,8h-2V5h2V8z"/>
	</g>
</g>
</svg>
