<svg xmlns="http://www.w3.org/2000/svg" enable-background="new 0 0 24 24" height="24" viewBox="0 0 24 24" width="24"><g><rect fill="none" height="24" width="24"/><rect fill="none" height="24" width="24"/></g><g><g><path d="M21,7H11C9.39,7,7.93,7.64,6.85,8.67C6.51,7.7,5.59,7,4.5,7C3.12,7,2,8.12,2,9.5S3.12,12,4.5,12 c0.21,0,0.41-0.03,0.6-0.08C5.04,12.27,5,12.63,5,13c0,3.31,2.69,6,6,6s6-2.69,6-6c0-0.7,0-2,0-2h4c0.55,0,1-0.45,1-1V8 C22,7.45,21.55,7,21,7z M4.5,10.5c-0.55,0-1-0.45-1-1s0.45-1,1-1s1,0.45,1,1S5.05,10.5,4.5,10.5z M11,16.5 c-1.93,0-3.5-1.57-3.5-3.5S9.07,9.5,11,9.5s3.5,1.57,3.5,3.5S12.93,16.5,11,16.5z"/><circle cx="11" cy="13" r="2"/></g></g></svg>