<svg xmlns="http://www.w3.org/2000/svg" enable-background="new 0 0 24 24" height="24" viewBox="0 0 24 24" width="24"><g><rect fill="none" height="24" width="24"/></g><g><g><polygon points="11,16 11,10 8,10 8,11.5 9.5,11.5 9.5,16"/><path d="M13,10c-0.55,0-1,0.45-1,1v4c0,0.55,0.45,1,1,1h2c0.55,0,1-0.45,1-1v-4c0-0.55-0.45-1-1-1H13z M14.5,14.5h-1v-3h1V14.5z"/><path d="M19,13c0,3.86-3.14,7-7,7s-7-3.14-7-7s3.14-7,7-7h0.17l-1.59,1.59L12,9l4-4l-4-4l-1.41,1.41L12.17,4H12 c-4.97,0-9,4.03-9,9s4.03,9,9,9c4.97,0,9-4.03,9-9H19z"/></g></g></svg>