<svg xmlns="http://www.w3.org/2000/svg" enable-background="new 0 0 24 24" height="24" viewBox="0 0 24 24" width="24"><g><rect fill="none" height="24" width="24"/></g><g><g><g><path d="M12,11h2v2h-2v2h2v2h-2v2h8V9h-8V11z M16,11h2v2h-2V11z M16,15h2v2h-2V15z" enable-background="new" opacity=".3"/><rect height="2" width="2" x="16" y="15"/><rect height="2" width="2" x="16" y="11"/><path d="M22,7H12V3H2v18h20V7z M6,19H4v-2h2V19z M6,15H4v-2h2V15z M6,11H4V9h2V11z M6,7H4V5h2V7z M10,19H8v-2h2V19z M10,15H8v-2 h2V15z M10,11H8V9h2V11z M10,7H8V5h2V7z M20,19h-8v-2h2v-2h-2v-2h2v-2h-2V9h8V19z"/></g></g></g></svg>