<svg xmlns="http://www.w3.org/2000/svg" enable-background="new 0 0 24 24" height="24" viewBox="0 0 24 24" width="24"><g><path d="M0,0h24v24H0V0z" fill="none"/></g><g><g><g><g><path d="M12,4c-4.41,0-8,3.59-8,8s3.59,8,8,8s8-3.59,8-8S16.41,4,12,4z M17,15.59 L15.59,17L12,13.41L8.41,17L7,15.59L10.59,12L7,8.41L8.41,7L12,10.59L15.59,7L17,8.41L13.41,12L17,15.59z" enable-background="new" opacity=".3"/><path d="M12,2C6.47,2,2,6.47,2,12s4.47,10,10,10s10-4.47,10-10S17.53,2,12,2z M12,20c-4.41,0-8-3.59-8-8s3.59-8,8-8s8,3.59,8,8 S16.41,20,12,20z"/><polygon points="15.59,7 12,10.59 8.41,7 7,8.41 10.59,12 7,15.59 8.41,17 12,13.41 15.59,17 17,15.59 13.41,12 17,8.41"/></g></g></g></g></svg>