<svg xmlns="http://www.w3.org/2000/svg" enable-background="new 0 0 24 24" height="24" viewBox="0 0 24 24" width="24"><g><rect fill="none" height="24" width="24"/></g><g><path d="M19,2H5C3.9,2,3,2.9,3,4v14c0,1.1,0.9,2,2,2h4l2.29,2.29c0.39,0.39,1.02,0.39,1.41,0L15,20h4c1.1,0,2-0.9,2-2V4 C21,2.9,20.1,2,19,2z M13.57,12.57l-1.12,2.44c-0.18,0.39-0.73,0.39-0.91,0l-1.12-2.44l-2.44-1.12c-0.39-0.18-0.39-0.73,0-0.91 l2.44-1.12l1.12-2.44c0.18-0.39,0.73-0.39,0.91,0l1.12,2.44l2.44,1.12c0.39,0.18,0.39,0.73,0,0.91L13.57,12.57z"/></g></svg>