<svg xmlns="http://www.w3.org/2000/svg" enable-background="new 0 0 24 24" height="24" viewBox="0 0 24 24" width="24"><g><rect fill="none" height="24" width="24"/></g><g><g><path d="M5,18h4.83L12,20.17L14.17,18H19V4H5V18z M10.43,9.43L12,6l1.57,3.43L17,11l-3.43,1.57L12,16l-1.57-3.43 L7,11L10.43,9.43z" opacity=".3"/><path d="M19,2H5C3.9,2,3,2.9,3,4v14c0,1.1,0.9,2,2,2h4l3,3l3-3h4c1.1,0,2-0.9,2-2V4C21,2.9,20.1,2,19,2z M19,18h-4.83L12,20.17 L9.83,18H5V4h14V18z"/><polygon points="12,16 13.57,12.57 17,11 13.57,9.43 12,6 10.43,9.43 7,11 10.43,12.57"/></g></g></svg>