<svg xmlns="http://www.w3.org/2000/svg" enable-background="new 0 0 24 24" height="24" viewBox="0 0 24 24" width="24"><g><rect fill="none" height="24" width="24"/></g><g><g><path d="M12,5H9V3H7v2H4v15h8v-2h8V7h-8V5z M11,17H9v-2h2V17z M11,10H9V8h2V10z M17,8h2v2h-2V8z M17,15h2v2h-2V15z M13,8h2v2h-2V8z M13,15h2v2h-2V15z" opacity=".3"/><path d="M14,5c0-1.1-0.9-2-2-2h-1V2c0-0.55-0.45-1-1-1H6C5.45,1,5,1.45,5,2v1H4C2.9,3,2,3.9,2,5v15c0,1.1,0.9,2,2,2h8 c1.1,0,2-0.9,2-2h8V5H14z M20,18h-8v2H4V5h3V3h2v2h3v2h8V18z"/><rect height="2" width="2" x="9" y="15"/><rect height="2" width="2" x="9" y="8"/><rect height="2" width="2" x="13" y="15"/><rect height="2" width="2" x="13" y="8"/><rect height="2" width="2" x="17" y="15"/><rect height="2" width="2" x="17" y="8"/></g></g></svg>