<svg xmlns="http://www.w3.org/2000/svg" enable-background="new 0 0 24 24" height="24" viewBox="0 0 24 24" width="24"><g><rect fill="none" height="24" width="24"/></g><g><g><path d="M14.99,4.59V5c0,1.1-0.9,2-2,2h-2v2c0,0.55-0.45,1-1,1h-2v2h6 c0.55,0,1,0.45,1,1v3h1c0.89,0,1.64,0.59,1.9,1.4C19.19,15.98,20,14.08,20,12C20,8.65,17.92,5.77,14.99,4.59z M8.99,16v-1 l-4.78-4.78C4.08,10.79,4,11.39,4,12c0,4.07,3.06,7.43,6.99,7.93V18C9.89,18,8.99,17.1,8.99,16z" enable-background="new" opacity=".3"/><path d="M12,2C6.48,2,2,6.48,2,12s4.48,10,10,10s10-4.48,10-10S17.52,2,12,2z M10.99,19.93C7.06,19.43,4,16.07,4,12 c0-0.61,0.08-1.21,0.21-1.78L8.99,15v1c0,1.1,0.9,2,2,2V19.93z M17.89,17.4c-0.26-0.81-1-1.4-1.9-1.4h-1v-3c0-0.55-0.45-1-1-1h-6 v-2h2c0.55,0,1-0.45,1-1V7h2c1.1,0,2-0.9,2-2V4.59C17.92,5.77,20,8.65,20,12C20,14.08,19.19,15.98,17.89,17.4z"/></g></g></svg>