<svg xmlns="http://www.w3.org/2000/svg" enable-background="new 0 0 24 24" height="24" viewBox="0 0 24 24" width="24"><g><rect fill="none" height="24" width="24" y="0"/></g><g><g><g><path d="M5,19h14V5H5V19z M7,10.5h3.5V7h3v3.5H17v3h-3.5V17h-3v-3.5H7V10.5z" enable-background="new" opacity=".3"/><path d="M21,5c0-1.1-0.9-2-2-2H5C3.9,3,3.01,3.9,3.01,5L3,19c0,1.1,0.9,2,2,2h14c1.1,0,2-0.9,2-2V5z M19,19H5V5h14V19z"/><polygon points="10.5,17 13.5,17 13.5,13.5 17,13.5 17,10.5 13.5,10.5 13.5,7 10.5,7 10.5,10.5 7,10.5 7,13.5 10.5,13.5"/></g></g></g></svg>