<svg xmlns="http://www.w3.org/2000/svg" enable-background="new 0 0 24 24" height="24" viewBox="0 0 24 24" width="24"><g><rect fill="none" height="24" width="24" y="0"/></g><g><g><g><path d="M5.99,4L6,20h12V4H5.99C6,4,5.99,4,5.99,4z M11,5c0.55,0,1,0.45,1,1 s-0.45,1-1,1s-1-0.45-1-1S10.45,5,11,5z M8,5c0.55,0,1,0.45,1,1S8.55,7,8,7S7,6.55,7,6S7.45,5,8,5z M12,9c2.76,0,5,2.24,5,5 s-2.24,5-5,5s-5-2.24-5-5S9.24,9,12,9z" enable-background="new" opacity=".3"/><path d="M18,2.01L6,2C4.89,2,4,2.89,4,4v16c0,1.11,0.89,2,2,2h12c1.11,0,2-0.89,2-2V4C20,2.89,19.11,2.01,18,2.01z M18,20H6 L5.99,4c0,0,0,0,0.01,0h12V20z"/><circle cx="8" cy="6" r="1"/><circle cx="11" cy="6" r="1"/><path d="M12,19c2.76,0,5-2.24,5-5s-2.24-5-5-5s-5,2.24-5,5S9.24,19,12,19z M14.36,11.64c1.3,1.3,1.3,3.42,0,4.72 s-3.42,1.3-4.72,0L14.36,11.64z"/></g></g></g></svg>