<svg xmlns="http://www.w3.org/2000/svg" enable-background="new 0 0 24 24" height="24" viewBox="0 0 24 24" width="24"><g><rect fill="none" height="24" width="24" y="0"/></g><g><g><g><path d="M17,4L17,4c-0.55,0-1,0.45-1,1v4.49c0,0.89,1.08,1.34,1.71,0.71l0,0C17.89,10.01,18,9.75,18,9.49V5C18,4.45,17.55,4,17,4 z"/><path d="M5,4L5,4c0.55,0,1,0.45,1,1v14c0,0.55-0.45,1-1,1h0c-0.55,0-1-0.45-1-1V5C4,4.45,4.45,4,5,4z"/><path d="M11,4L11,4c0.55,0,1,0.45,1,1v2c0,0.55-0.45,1-1,1h0c-0.55,0-1-0.45-1-1V5C10,4.45,10.45,4,11,4z"/><path d="M11,10L11,10c0.55,0,1,0.45,1,1v2c0,0.55-0.45,1-1,1h0c-0.55,0-1-0.45-1-1v-2C10,10.45,10.45,10,11,10z"/><path d="M11,16L11,16c0.55,0,1,0.45,1,1v2c0,0.55-0.45,1-1,1h0c-0.55,0-1-0.45-1-1v-2C10,16.45,10.45,16,11,16z"/><path d="M22.56,12.59l-1.15-1.15c-0.59-0.59-1.54-0.59-2.12,0l-4.99,5C14.11,16.62,14,16.88,14,17.14V19c0,0.55,0.45,1,1,1h1.86 c0.27,0,0.52-0.11,0.71-0.29l4.99-5C23.15,14.12,23.15,13.17,22.56,12.59z M16.58,18.45h-1.03v-1.03L19,13.97L20.03,15 L16.58,18.45z"/></g></g></g></svg>