<svg xmlns="http://www.w3.org/2000/svg" enable-background="new 0 0 24 24" height="24" viewBox="0 0 24 24" width="24"><g><rect fill="none" height="24" width="24"/></g><g><path d="M16.9,14c-0.49,0-0.88,0.35-0.98,0.83C15.53,16.64,13.93,18,12,18s-3.53-1.36-3.91-3.17C7.99,14.35,7.59,14,7.1,14h0 c-0.61,0-1.11,0.55-0.99,1.15C6.65,17.91,9.08,20,12,20s5.35-2.09,5.89-4.85C18.01,14.55,17.51,14,16.9,14L16.9,14z M14.79,11H13V6 c0-0.55-0.45-1-1-1h0c-0.55,0-1,0.45-1,1v5H9.21c-0.45,0-0.67,0.54-0.35,0.85l2.79,2.79c0.2,0.2,0.51,0.2,0.71,0l2.79-2.79 C15.46,11.54,15.24,11,14.79,11z"/></g></svg>