<svg xmlns="http://www.w3.org/2000/svg" enable-background="new 0 0 24 24" height="24" viewBox="0 0 24 24" width="24"><g><rect fill="none" height="24" width="24"/></g><g><g><path d="M12,4h-0.17l1.59-1.59L12,1L8,5l4,4l1.41-1.41L11.83,6H12c3.86,0,7,3.14,7,7s-3.14,7-7,7s-7-3.14-7-7H3c0,4.97,4.03,9,9,9 c4.97,0,9-4.03,9-9S16.97,4,12,4z"/><polygon points="9,16 10.5,16 10.5,10 7.5,10 7.5,11.5 9,11.5"/><path d="M14.5,16c0.55,0,1-0.45,1-1v-4c0-0.55-0.45-1-1-1h-2c-0.55,0-1,0.45-1,1v4c0,0.55,0.45,1,1,1H14.5z M13,11.5h1v3h-1V11.5z"/></g></g></svg>