<?xml version="1.0" encoding="utf-8"?>
<!-- Generator: Adobe Illustrator 23.0.1, SVG Export Plug-In . SVG Version: 6.00 Build 0)  -->
<svg version="1.1" xmlns="http://www.w3.org/2000/svg" xmlns:xlink="http://www.w3.org/1999/xlink" x="0px" y="0px" width="24px"
	 height="24px" viewBox="0 0 24 24" enable-background="new 0 0 24 24" xml:space="preserve">
<g id="Bounding_Box">
	<rect fill="none" width="24" height="24"/>
	<rect fill="none" width="24" height="24"/>
</g>
<g id="Master">
	<g>
		<path d="M12,11.39c0-0.65-0.39-1.23-0.98-1.48L5.44,7.55c-1.48,1.68-2.32,3.7-2.8,5.45h7.75C11.28,13,12,12.28,12,11.39z"/>
		<path d="M21.96,11.22c-0.41-4.41-4.56-7.49-8.98-7.2c-2.51,0.16-4.44,0.94-5.93,2.04l4.74,2.01c1.33,0.57,2.2,1.87,2.2,3.32
			c0,1.99-1.62,3.61-3.61,3.61H2.21C2,16.31,2,17.2,2,17.2V18c0,1.1,0.9,2,2,2h10C18.67,20,22.41,15.99,21.96,11.22z"/>
	</g>
</g>
</svg>
