<svg xmlns="http://www.w3.org/2000/svg" enable-background="new 0 0 24 24" height="24" viewBox="0 0 24 24" width="24"><g><path d="M0,0h24v24H0V0z" fill="none"/></g><g><g><path d="M19,3h-4.18C14.4,1.84,13.3,1,12,1S9.6,1.84,9.18,3H5C3.9,3,3,3.9,3,5v14c0,1.1,0.9,2,2,2h14c1.1,0,2-0.9,2-2V5 C21,3.9,20.1,3,19,3z M11,14.17l-1.41,1.42L6,12l3.59-3.59L11,9.83L8.83,12L11,14.17z M12,4.25c-0.41,0-0.75-0.34-0.75-0.75 c0-0.41,0.34-0.75,0.75-0.75s0.75,0.34,0.75,0.75C12.75,3.91,12.41,4.25,12,4.25z M14.41,15.59L13,14.17L15.17,12L13,9.83 l1.41-1.42L18,12L14.41,15.59z"/></g></g></svg>