<svg xmlns="http://www.w3.org/2000/svg" enable-background="new 0 0 24 24" height="24" viewBox="0 0 24 24" width="24"><g><rect fill="none" height="24" width="24"/></g><g><path d="M4,18.01h16V5.99H4V18.01z M8,10.5V8h2.5L12,6.5L13.5,8H16v2.5l1.5,1.5L16,13.5 V16h-2.5L12,17.5L10.5,16H8v-2.5L6.5,12L8,10.5z" enable-background="new" opacity=".3"/><path d="M20,4H4C2.9,4,2,4.9,2,6v12c0,1.1,0.9,2,2,2h16c1.1,0,2-0.9,2-2V6C22,4.9,21.1,4,20,4z M20,18.01H4V5.99h16V18.01z M8,16 h2.5l1.5,1.5l1.5-1.5H16v-2.5l1.5-1.5L16,10.5V8h-2.5L12,6.5L10.5,8H8v2.5L6.5,12L8,13.5V16z M12,9c1.66,0,3,1.34,3,3 c0,1.66-1.34,3-3,3V9z"/></g></svg>