<svg xmlns="http://www.w3.org/2000/svg" enable-background="new 0 0 24 24" height="24" viewBox="0 0 24 24" width="24"><g><path d="M0,0h24v24H0V0z" fill="none"/></g><g><g><path d="M12,4c-4.97,0-9,4.03-9,9s4.03,9,9,9s9-4.03,9-9S16.97,4,12,4z M12,20c-3.86,0-7-3.14-7-7s3.14-7,7-7s7,3.14,7,7 S15.86,20,12,20z"/><polygon points="13,9 11,9 11,12 8,12 8,14 11,14 11,17 13,17 13,14 16,14 16,12 13,12"/><rect height="6" transform="matrix(0.7071 -0.7071 0.7071 0.7071 2.151 15.5359)" width="2" x="18.83" y="2.17"/><rect height="2" transform="matrix(0.7071 -0.7071 0.7071 0.7071 -2.435 4.4645)" width="6" x="1.17" y="4.17"/></g></g></svg>