<svg xmlns="http://www.w3.org/2000/svg" enable-background="new 0 0 24 24" height="24" viewBox="0 0 24 24" width="24"><g><path d="M0,0h24v24H0V0z" fill="none"/></g><g><g><path d="M12,4c-4.97,0-9,4.03-9,9c0,4.97,4.03,9,9,9s9-4.03,9-9C21,8.03,16.97,4,12,4z M15,14h-2v2c0,0.55-0.45,1-1,1s-1-0.45-1-1 v-2H9c-0.55,0-1-0.45-1-1s0.45-1,1-1h2v-2c0-0.55,0.45-1,1-1s1,0.45,1,1v2h2c0.55,0,1,0.45,1,1S15.55,14,15,14z"/><path d="M6.29,4.46c0.39-0.39,0.39-1.02,0-1.41c-0.39-0.39-1.02-0.39-1.41,0L2.05,5.88c-0.39,0.39-0.39,1.02,0,1.41 c0.39,0.39,1.02,0.39,1.41,0L6.29,4.46z"/><path d="M21.95,5.88l-2.83-2.83c-0.39-0.39-1.02-0.39-1.41,0v0c-0.39,0.39-0.39,1.02,0,1.41l2.83,2.83c0.39,0.39,1.02,0.39,1.41,0 v0C22.34,6.9,22.34,6.27,21.95,5.88z"/></g></g></svg>