<svg xmlns="http://www.w3.org/2000/svg" enable-background="new 0 0 24 24" height="24" viewBox="0 0 24 24" width="24"><g><rect fill="none" height="24" width="24"/></g><g><path d="M22,7c0.55,0,1-0.45,1-1V2c0-0.55-0.45-1-1-1h-4c-0.55,0-1,0.45-1,1v1H7V2c0-0.55-0.45-1-1-1H2C1.45,1,1,1.45,1,2v4 c0,0.55,0.45,1,1,1h1v10H2c-0.55,0-1,0.45-1,1v4c0,0.55,0.45,1,1,1h4c0.55,0,1-0.45,1-1v-1h10v1c0,0.55,0.45,1,1,1h4 c0.55,0,1-0.45,1-1v-4c0-0.55-0.45-1-1-1h-1V7H22z M3,3h2v2H3V3z M5,21H3v-2h2V21z M17,18v1H7v-1c0-0.55-0.45-1-1-1H5V7h1 c0.55,0,1-0.45,1-1V5h10v1c0,0.55,0.45,1,1,1h1v10h-1C17.45,17,17,17.45,17,18z M21,21h-2v-2h2V21z M19,5V3h2v2H19z M12,7 c-0.48,0-0.92,0.3-1.09,0.75l-2.73,7.27C8.01,15.49,8.36,16,8.86,16h0c0.31,0,0.58-0.19,0.68-0.48l0.65-1.82h3.63l0.64,1.82 c0.1,0.29,0.38,0.48,0.68,0.48h0c0.51,0,0.86-0.51,0.68-0.98l-2.73-7.27C12.92,7.3,12.49,7,12,7L12,7z M10.66,12.39l1.31-3.72h0.08 l1.31,3.72H10.66z"/></g></svg>