<svg xmlns="http://www.w3.org/2000/svg" enable-background="new 0 0 24 24" height="24" viewBox="0 0 24 24" width="24"><g><rect fill="none" height="24" width="24"/></g><g><g><path d="M3,5h2V3H3V5z M19,21h2v-2h-2V21z M19,3v2h2V3H19z M3,21h2v-2H3V21z" enable-background="new" opacity=".3"/><path d="M23,7V1h-6v2H7V1H1v6h2v10H1v6h6v-2h10v2h6v-6h-2V7H23z M3,3h2v2H3V3z M5,21H3v-2h2V21z M17,19H7v-2H5V7h2V5h10v2h2v10h-2 V19z M21,21h-2v-2h2V21z M19,5V3h2v2H19z M11.2,7l-3.38,9h1.56l0.82-2.3h3.63l0.8,2.3h1.56l-3.38-9H11.2z M10.66,12.39l1.31-3.72 h0.08l1.31,3.72H10.66z"/></g></g></svg>