<svg xmlns="http://www.w3.org/2000/svg" enable-background="new 0 0 24 24" height="24" viewBox="0 0 24 24" width="24"><g><rect fill="none" height="24" width="24"/></g><g><g><path d="M6,10.2c0,2.34,1.95,5.44,6,9.14c4.05-3.7,6-6.8,6-9.14c0-0.28-0.02-0.55-0.05-0.82l-1.03,1.03l-2.83-2.83 l2-2C15.02,4.59,13.59,4,12,4C8.65,4,6,6.57,6,10.2z M14,10c0,1.1-0.9,2-2,2s-2-0.9-2-2s0.9-2,2-2S14,8.9,14,10z" opacity=".3"/><path d="M19,8.33l-1.05,1.05C17.98,9.65,18,9.92,18,10.2c0,2.34-1.95,5.44-6,9.14c-4.05-3.7-6-6.8-6-9.14C6,6.57,8.65,4,12,4 c1.59,0,3.02,0.59,4.09,1.58l0.08-0.08l-2.08-2.09l0.86-0.86C14.02,2.19,13.02,2,12,2c-4.2,0-8,3.22-8,8.2 c0,3.32,2.67,7.25,8,11.8c5.33-4.55,8-8.48,8-11.8c0-0.31-0.01-0.62-0.04-0.91L19,8.33z"/><polygon points="22.5,3.42 21.08,2 19,4.08 16.91,2 15.5,3.41 17.58,5.5 15.5,7.59 16.91,9 19,6.92 21.08,9 22.5,7.58 20.42,5.5"/><circle cx="12" cy="10" r="2"/></g></g></svg>