<svg xmlns="http://www.w3.org/2000/svg" enable-background="new 0 0 24 24" height="24" viewBox="0 0 24 24" width="24"><g><rect fill="none" height="24" width="24" y="0"/></g><g><g><g><g><path d="M5,14v4h14v-4h-1.4H5z M8,17H6v-2h2V17z M18,17h-8v-2h8V17z" enable-background="new" opacity=".3"/><path d="M19.8,10.7L4.2,5L3.5,6.9L17.6,12H5c-1.1,0-2,0.9-2,2v4c0,1.1,0.9,2,2,2h14c1.1,0,2-0.9,2-2v-5.5 C21,11.7,20.5,10.9,19.8,10.7z M19,18H5v-4h12.6H19V18z"/><rect height="2" width="2" x="6" y="15"/><rect height="2" width="8" x="10" y="15"/></g></g></g></g></svg>