<svg xmlns="http://www.w3.org/2000/svg" enable-background="new 0 0 24 24" height="24" viewBox="0 0 24 24" width="24"><g><path d="M0,0h24v24H0V0z" fill="none"/></g><g><path d="M4,16L4,16c-0.55,0-1,0.45-1,1v3c0,0.55,0.45,1,1,1h3c0.55,0,1-0.45,1-1v0c0-0.55-0.45-1-1-1H5v-2C5,16.45,4.55,16,4,16z"/><path d="M7,5c0.55,0,1-0.45,1-1v0c0-0.55-0.45-1-1-1H4C3.45,3,3,3.45,3,4v3c0,0.55,0.45,1,1,1h0c0.55,0,1-0.45,1-1V5H7z"/><path d="M16,4L16,4c0,0.55,0.45,1,1,1h2v2c0,0.55,0.45,1,1,1h0c0.55,0,1-0.45,1-1V4c0-0.55-0.45-1-1-1h-3C16.45,3,16,3.45,16,4z"/><path d="M17,19c-0.55,0-1,0.45-1,1v0c0,0.55,0.45,1,1,1h3c0.55,0,1-0.45,1-1v-3c0-0.55-0.45-1-1-1h0c-0.55,0-1,0.45-1,1v2H17z"/><path d="M19,12c0-3.87-3.13-7-7-7s-7,3.13-7,7s3.13,7,7,7S19,15.87,19,12z M12,17c-2.76,0-5-2.24-5-5s2.24-5,5-5s5,2.24,5,5 S14.76,17,12,17z"/></g></svg>