<svg xmlns="http://www.w3.org/2000/svg" enable-background="new 0 0 24 24" height="24" viewBox="0 0 24 24" width="24"><g><rect fill="none" height="24" width="24"/></g><g><g><circle cx="9" cy="12" enable-background="new" opacity=".3" r="5"/><path d="M9,5c-3.87,0-7,3.13-7,7c0,3.87,3.13,7,7,7s7-3.13,7-7C16,8.13,12.87,5,9,5z M9,17c-2.76,0-5-2.24-5-5s2.24-5,5-5 s5,2.24,5,5S11.76,17,9,17z"/><path d="M16,5.08V7.1c2.28,0.46,4,2.48,4,4.9s-1.72,4.43-4,4.9v2.02c3.39-0.49,6-3.39,6-6.92S19.39,5.57,16,5.08z"/></g></g></svg>