<svg xmlns="http://www.w3.org/2000/svg" enable-background="new 0 0 24 24" height="24" viewBox="0 0 24 24" width="24"><g><rect fill="none" height="24" width="24"/></g><g><g><g><g><circle cx="12" cy="13" r="2.5"/><path d="M18,7h1.33c0-1.84-1.49-3.33-3.33-3.33V5C17.11,5,18,5.89,18,7z"/><path d="M20.67,7H22c0-3.31-2.69-6-6-6v1.33C18.58,2.33,20.67,4.42,20.67,7z"/><path d="M15,6V3H9L7.17,5H2v16h20V8h-5C17,6.9,16.1,6,15,6z M12,17.5c-2.48,0-4.5-2.02-4.5-4.5S9.52,8.5,12,8.5 s4.5,2.02,4.5,4.5S14.48,17.5,12,17.5z"/></g></g></g></g></svg>