<svg xmlns="http://www.w3.org/2000/svg" enable-background="new 0 0 24 24" height="24" viewBox="0 0 24 24" width="24"><g><path d="M0,0h24v24H0V0z" fill="none"/></g><g><path d="M10,16V8c0-1.1,0.89-2,2-2h9V5c0-1.1-0.9-2-2-2H5C3.89,3,3,3.9,3,5v14c0,1.1,0.89,2,2,2h14c1.1,0,2-0.9,2-2v-1h-9 C10.89,18,10,17.1,10,16z M13,8c-0.55,0-1,0.45-1,1v6c0,0.55,0.45,1,1,1h8c0.55,0,1-0.45,1-1V9c0-0.55-0.45-1-1-1H13z M16,13.5 c-0.83,0-1.5-0.67-1.5-1.5s0.67-1.5,1.5-1.5s1.5,0.67,1.5,1.5S16.83,13.5,16,13.5z"/></g></svg>