<svg xmlns="http://www.w3.org/2000/svg" enable-background="new 0 0 24 24" height="24" viewBox="0 0 24 24" width="24"><g><g><path d="M0,0h24v24H0V0z" fill="none"/></g></g><g><g><polygon points="14.65,13.24 14.64,13.22 13.22,14.64 13.24,14.65 19.59,21 21,19.59"/><path d="M5.97,5.97c-3.95,3.95-3.95,10.36,0,14.32L20.28,5.97C16.33,2.01,9.92,2.01,5.97,5.97z M6.14,17.28 c-1.04-1.74-1.36-3.79-0.98-5.73c0.43,1.43,1.22,2.94,2.34,4.37L6.14,17.28z M8.93,14.5c-2.2-2.91-2.7-5.96-1.55-7.12 s4.21-0.65,7.12,1.55L8.93,14.5z M11.55,5.16c1.94-0.38,3.99-0.05,5.73,0.98L15.92,7.5C14.49,6.38,12.99,5.59,11.55,5.16z"/></g></g></svg>