<svg xmlns="http://www.w3.org/2000/svg" enable-background="new 0 0 24 24" height="24" viewBox="0 0 24 24" width="24"><g><g><path d="M0,0h24v24H0V0z" fill="none"/></g></g><g><g><g><path d="M14.65,13.24l-0.02-0.02l-1.41,1.41l0.02,0.02l5.64,5.64c0.39,0.39,1.02,0.39,1.41,0l0,0c0.39-0.39,0.39-1.02,0-1.41 L14.65,13.24z"/></g><g><path d="M6.66,6.66C5.53,7.79,6.55,12.32,10.24,16L16,10.24C12.32,6.55,7.79,5.53,6.66,6.66z"/></g><g><path d="M7.55,18.69l1.27-1.27c-2.73-2.73-4.53-6.36-4.6-9.13c-1.71,3.15-1.64,7,0.23,10.08C5.12,19.46,6.65,19.59,7.55,18.69z"/></g><g><path d="M18.37,4.46c-3.08-1.87-6.94-1.94-10.08-0.23c2.77,0.07,6.4,1.87,9.13,4.6l1.27-1.27C19.59,6.65,19.46,5.12,18.37,4.46z"/></g></g></g></svg>