<svg xmlns="http://www.w3.org/2000/svg" enable-background="new 0 0 24 24" height="24" viewBox="0 0 24 24" width="24"><g><g><path d="M0,0h24v24H0V0z" fill="none"/></g></g><g><g><g><polygon points="14.65,13.24 14.64,13.22 13.22,14.64 13.24,14.65 19.59,21 21,19.59"/></g><g><path d="M6.66,6.66C5.53,7.79,6.55,12.32,10.24,16L16,10.24C12.32,6.55,7.79,5.53,6.66,6.66z"/></g><g><path d="M5.96,20.28l2.86-2.86c-2.73-2.73-4.53-6.36-4.6-9.13C2.14,12.13,2.71,17.03,5.96,20.28z"/></g><g><path d="M20.28,5.96c-3.25-3.25-8.15-3.82-11.99-1.73c2.77,0.07,6.4,1.87,9.13,4.6L20.28,5.96z"/></g></g></g></svg>