<svg xmlns="http://www.w3.org/2000/svg" enable-background="new 0 0 24 24" height="24" viewBox="0 0 24 24" width="24"><g><rect fill="none" height="24" width="24"/></g><g><g><path d="M5.45,12L9,17h10V7H9L5.45,12z M16.5,11c0.55,0,1,0.45,1,1c0,0.55-0.45,1-1,1 s-1-0.45-1-1C15.5,11.45,15.95,11,16.5,11z M13,11c0.55,0,1,0.45,1,1c0,0.55-0.45,1-1,1s-1-0.45-1-1C12,11.45,12.45,11,13,11z M10.5,12c0,0.55-0.45,1-1,1s-1-0.45-1-1c0-0.55,0.45-1,1-1S10.5,11.45,10.5,12z" enable-background="new" opacity=".3"/><circle cx="9.5" cy="12" r="1"/><circle cx="13" cy="12" r="1"/><circle cx="16.5" cy="12" r="1"/><path d="M19,5H9C8.35,5,7.75,5.31,7.37,5.84L3,12l4.97,7H19c1.1,0,2-0.9,2-2V7C21,5.9,20.1,5,19,5z M19,17H9l-3.55-5L9,7h10V17z"/></g></g></svg>