<svg xmlns="http://www.w3.org/2000/svg" xmlns:xlink="http://www.w3.org/1999/xlink" enable-background="new 0 0 24 24" height="24px" id="ic_x5F_mark_x5F_chat_x5F_read_x5F_m2twotone_x5F_24px" version="1.1" viewBox="0 0 24 24" width="24px" x="0px" xml:space="preserve" y="0px"><g id="ic_x5F_mark_x5F_chat_x5F_read_x5F_m2twotone_x5F_24px_1_"><path d="M19,10c0.34,0,0.67,0.03,1,0.08V4H4v12h8.08C12.57,12.61,15.47,10,19,10z" opacity="0.3"/><path d="M17.34,20l-3.54-3.54l1.41-1.41l2.12,2.12l4.24-4.24L23,14.34L17.34,20z M12.08,16H4V4h16v6.08c0.71,0.1,1.38,0.31,2,0.6V4 c0-1.1-0.9-2-2-2H4C2.9,2,2,2.9,2,4v18l4-4h6v0c0-0.14,0.02-0.27,0.03-0.4C12.01,17.4,12,17.2,12,17C12,16.66,12.03,16.33,12.08,16 z"/><rect fill="none" height="24" width="24" x="0"/></g></svg>