<svg xmlns="http://www.w3.org/2000/svg" enable-background="new 0 0 24 24" height="24" viewBox="0 0 24 24" width="24"><g><rect fill="none" height="24" width="24"/></g><g><g><g opacity=".3"><rect height="2" width="2" x="5" y="15"/></g><g opacity=".3"><rect height="2" width="2" x="7" y="13"/></g><g opacity=".3"><rect height="2" width="2" x="7" y="17"/></g><g opacity=".3"><rect height="2" width="2" x="11" y="13"/></g><g opacity=".3"><rect height="2" width="2" x="17" y="15"/></g><g opacity=".3"><rect height="2" width="2" x="11" y="17"/></g><g opacity=".3"><rect height="2" width="2" x="15" y="17"/></g><g opacity=".3"><rect height="2" width="2" x="15" y="13"/></g><g opacity=".3"><rect height="2" width="2" x="13" y="15"/></g><g opacity=".3"><polygon points="5,13 7,13 7,11 9,11 9,13 11,13 11,11 13,11 13,13 15,13 15,11 17,11 17,13 19,13 19,5 5,5"/></g><g opacity=".3"><rect height="2" width="2" x="9" y="15"/></g><rect height="2" width="2" x="11" y="15"/><rect height="2" width="2" x="15" y="15"/><rect height="2" width="2" x="15" y="11"/><path d="M19,3H5C3.9,3,3,3.9,3,5v14c0,1.1,0.9,2,2,2h14c1.1,0,2-0.9,2-2V5C21,3.9,20.1,3,19,3z M19,13h-2v2h2v2h-2v2h-2v-2h-2v2 h-2v-2H9v2H7v-2H5v-2h2v-2H5V5h14V13z"/><rect height="2" width="2" x="9" y="13"/><rect height="2" width="2" x="11" y="11"/><rect height="2" width="2" x="7" y="11"/><rect height="2" width="2" x="13" y="13"/><rect height="2" width="2" x="7" y="15"/></g></g></svg>