<svg xmlns="http://www.w3.org/2000/svg" enable-background="new 0 0 24 24" height="24" viewBox="0 0 24 24" width="24"><g><rect fill="none" height="24" width="24"/></g><g><g><path d="M12,4c-4.41,0-8,3.59-8,8s3.59,8,8,8s8-3.59,8-8S16.41,4,12,4z M12,15c-1.66,0-3-1.34-3-3s1.34-3,3-3 s3,1.34,3,3S13.66,15,12,15z" opacity=".3"/><circle cx="12" cy="12" r="3"/><path d="M12,2C6.49,2,2,6.49,2,12s4.49,10,10,10s10-4.49,10-10S17.51,2,12,2z M12,20c-4.41,0-8-3.59-8-8s3.59-8,8-8s8,3.59,8,8 S16.41,20,12,20z"/></g></g></svg>