<svg xmlns="http://www.w3.org/2000/svg" enable-background="new 0 0 24 24" height="24" viewBox="0 0 24 24" width="24"><g><rect fill="none" height="24" width="24"/></g><g><g><polygon points="20,7 20.94,4.94 23,4 20.94,3.06 20,1 19.06,3.06 17,4 19.06,4.94"/><path d="M17.71,9.12l-2.83-2.83c-0.39-0.39-1.02-0.39-1.41,0L2.29,17.46c-0.39,0.39-0.39,1.02,0,1.41l2.83,2.83 c0.39,0.39,1.02,0.39,1.41,0l11.17-11.17C18.1,10.15,18.1,9.51,17.71,9.12z M14.21,11.21l-1.41-1.41l1.38-1.38l1.41,1.41 L14.21,11.21z"/></g></g></svg>