<svg xmlns="http://www.w3.org/2000/svg" enable-background="new 0 0 24 24" height="24" viewBox="0 0 24 24" width="24"><g><rect fill="none" height="24" width="24"/></g><g><path d="M20.54,5.23l-1.39-1.68C18.88,3.21,18.47,3,18,3H6C5.53,3,5.12,3.21,4.84,3.55L3.46,5.23C3.17,5.57,3,6.02,3,6.5V19 c0,1.1,0.9,2,2,2h14c1.1,0,2-0.9,2-2V6.5C21,6.02,20.83,5.57,20.54,5.23z M14.79,13H13v3.04c0,0.55-0.45,1-1,1s-1-0.45-1-1V13H9.21 c-0.45,0-0.67-0.54-0.35-0.85l2.79-2.79c0.2-0.2,0.51-0.2,0.71,0l2.79,2.79C15.46,12.46,15.24,13,14.79,13z M5.41,6l0.83-1h11.52 l0.84,1H5.41z"/></g></svg>