<svg xmlns="http://www.w3.org/2000/svg" enable-background="new 0 0 24 24" height="24" viewBox="0 0 24 24" width="24"><g><rect fill="none" height="24" width="24"/></g><g><g enable-background="new"><g><path d="M8,16h12V4H8V16z M10,9h3V6h2v3h3v2h-3v3h-2v-3h-3V9z" enable-background="new" opacity=".3"/><path d="M4,22h14v-2H4V6H2v14C2,21.1,2.9,22,4,22z"/><path d="M8,2C6.9,2,6,2.9,6,4v12c0,1.1,0.9,2,2,2h12c1.1,0,2-0.9,2-2V4c0-1.1-0.9-2-2-2H8z M20,16H8V4h12V16z"/><polygon points="13,14 15,14 15,11 18,11 18,9 15,9 15,6 13,6 13,9 10,9 10,11 13,11"/></g></g></g></svg>